<svg xmlns="http://www.w3.org/2000/svg" xmlns:xlink="http://www.w3.org/1999/xlink" width="600" height="400" viewBox="0 0 2400 1600">
<defs>
  <clipPath id="clip850">
    <rect x="0" y="0" width="2400" height="1600"></rect>
  </clipPath>
</defs>
<path clip-path="url(#clip850)" d="
M0 1600 L2400 1600 L2400 0 L0 0  Z
  " fill="#ffffff" fill-rule="evenodd" fill-opacity="1"></path>
<defs>
  <clipPath id="clip851">
    <rect x="480" y="0" width="1681" height="1600"></rect>
  </clipPath>
</defs>
<path clip-path="url(#clip850)" d="
M220.005 1423.18 L2352.76 1423.18 L2352.76 106.192 L220.005 106.192  Z
  " fill="#ffffff" fill-rule="evenodd" fill-opacity="1"></path>
<defs>
  <clipPath id="clip852">
    <rect x="220" y="106" width="2134" height="1318"></rect>
  </clipPath>
</defs>
<polyline clip-path="url(#clip852)" style="stroke:#000000; stroke-linecap:round; stroke-linejoin:round; stroke-width:2; stroke-opacity:0.1; fill:none" points="
  481.569,1423.18 481.569,106.192 
  "></polyline>
<polyline clip-path="url(#clip852)" style="stroke:#000000; stroke-linecap:round; stroke-linejoin:round; stroke-width:2; stroke-opacity:0.1; fill:none" points="
  883.975,1423.18 883.975,106.192 
  "></polyline>
<polyline clip-path="url(#clip852)" style="stroke:#000000; stroke-linecap:round; stroke-linejoin:round; stroke-width:2; stroke-opacity:0.1; fill:none" points="
  1286.38,1423.18 1286.38,106.192 
  "></polyline>
<polyline clip-path="url(#clip852)" style="stroke:#000000; stroke-linecap:round; stroke-linejoin:round; stroke-width:2; stroke-opacity:0.1; fill:none" points="
  1688.79,1423.18 1688.79,106.192 
  "></polyline>
<polyline clip-path="url(#clip852)" style="stroke:#000000; stroke-linecap:round; stroke-linejoin:round; stroke-width:2; stroke-opacity:0.1; fill:none" points="
  2091.19,1423.18 2091.19,106.192 
  "></polyline>
<polyline clip-path="url(#clip850)" style="stroke:#000000; stroke-linecap:round; stroke-linejoin:round; stroke-width:4; stroke-opacity:1; fill:none" points="
  220.005,1423.18 2352.76,1423.18 
  "></polyline>
<polyline clip-path="url(#clip850)" style="stroke:#000000; stroke-linecap:round; stroke-linejoin:round; stroke-width:4; stroke-opacity:1; fill:none" points="
  481.569,1423.18 481.569,1404.28 
  "></polyline>
<polyline clip-path="url(#clip850)" style="stroke:#000000; stroke-linecap:round; stroke-linejoin:round; stroke-width:4; stroke-opacity:1; fill:none" points="
  883.975,1423.18 883.975,1404.28 
  "></polyline>
<polyline clip-path="url(#clip850)" style="stroke:#000000; stroke-linecap:round; stroke-linejoin:round; stroke-width:4; stroke-opacity:1; fill:none" points="
  1286.38,1423.18 1286.38,1404.28 
  "></polyline>
<polyline clip-path="url(#clip850)" style="stroke:#000000; stroke-linecap:round; stroke-linejoin:round; stroke-width:4; stroke-opacity:1; fill:none" points="
  1688.79,1423.18 1688.79,1404.28 
  "></polyline>
<polyline clip-path="url(#clip850)" style="stroke:#000000; stroke-linecap:round; stroke-linejoin:round; stroke-width:4; stroke-opacity:1; fill:none" points="
  2091.19,1423.18 2091.19,1404.28 
  "></polyline>
<path clip-path="url(#clip850)" d="M426.095 1481.64 L433.734 1481.64 L433.734 1455.28 L425.423 1456.95 L425.423 1452.69 L433.687 1451.02 L438.363 1451.02 L438.363 1481.64 L446.002 1481.64 L446.002 1485.58 L426.095 1485.58 L426.095 1481.64 Z" fill="#000000" fill-rule="evenodd" fill-opacity="1"></path><path clip-path="url(#clip850)" d="M466.025 1466.44 Q462.877 1466.44 461.025 1468.59 Q459.196 1470.74 459.196 1474.49 Q459.196 1478.22 461.025 1480.39 Q462.877 1482.55 466.025 1482.55 Q469.173 1482.55 471.002 1480.39 Q472.854 1478.22 472.854 1474.49 Q472.854 1470.74 471.002 1468.59 Q469.173 1466.44 466.025 1466.44 M475.307 1451.78 L475.307 1456.04 Q473.548 1455.21 471.743 1454.77 Q469.96 1454.33 468.201 1454.33 Q463.571 1454.33 461.118 1457.45 Q458.687 1460.58 458.34 1466.9 Q459.706 1464.89 461.766 1463.82 Q463.826 1462.73 466.303 1462.73 Q471.511 1462.73 474.52 1465.9 Q477.553 1469.05 477.553 1474.49 Q477.553 1479.82 474.405 1483.03 Q471.256 1486.25 466.025 1486.25 Q460.03 1486.25 456.858 1481.67 Q453.687 1477.06 453.687 1468.33 Q453.687 1460.14 457.576 1455.28 Q461.465 1450.39 468.016 1450.39 Q469.775 1450.39 471.557 1450.74 Q473.363 1451.09 475.307 1451.78 Z" fill="#000000" fill-rule="evenodd" fill-opacity="1"></path><path clip-path="url(#clip850)" d="M495.608 1454.1 Q491.997 1454.1 490.168 1457.66 Q488.363 1461.2 488.363 1468.33 Q488.363 1475.44 490.168 1479.01 Q491.997 1482.55 495.608 1482.55 Q499.242 1482.55 501.048 1479.01 Q502.877 1475.44 502.877 1468.33 Q502.877 1461.2 501.048 1457.66 Q499.242 1454.1 495.608 1454.1 M495.608 1450.39 Q501.418 1450.39 504.474 1455 Q507.553 1459.58 507.553 1468.33 Q507.553 1477.06 504.474 1481.67 Q501.418 1486.25 495.608 1486.25 Q489.798 1486.25 486.719 1481.67 Q483.664 1477.06 483.664 1468.33 Q483.664 1459.58 486.719 1455 Q489.798 1450.39 495.608 1450.39 Z" fill="#000000" fill-rule="evenodd" fill-opacity="1"></path><path clip-path="url(#clip850)" d="M525.77 1454.1 Q522.159 1454.1 520.33 1457.66 Q518.525 1461.2 518.525 1468.33 Q518.525 1475.44 520.33 1479.01 Q522.159 1482.55 525.77 1482.55 Q529.404 1482.55 531.21 1479.01 Q533.039 1475.44 533.039 1468.33 Q533.039 1461.2 531.21 1457.66 Q529.404 1454.1 525.77 1454.1 M525.77 1450.39 Q531.58 1450.39 534.636 1455 Q537.714 1459.58 537.714 1468.33 Q537.714 1477.06 534.636 1481.67 Q531.58 1486.25 525.77 1486.25 Q519.96 1486.25 516.881 1481.67 Q513.826 1477.06 513.826 1468.33 Q513.826 1459.58 516.881 1455 Q519.96 1450.39 525.77 1450.39 Z" fill="#000000" fill-rule="evenodd" fill-opacity="1"></path><path clip-path="url(#clip850)" d="M828.5 1481.64 L836.139 1481.64 L836.139 1455.28 L827.829 1456.95 L827.829 1452.69 L836.093 1451.02 L840.769 1451.02 L840.769 1481.64 L848.408 1481.64 L848.408 1485.58 L828.5 1485.58 L828.5 1481.64 Z" fill="#000000" fill-rule="evenodd" fill-opacity="1"></path><path clip-path="url(#clip850)" d="M867.852 1469.17 Q864.519 1469.17 862.598 1470.95 Q860.699 1472.73 860.699 1475.86 Q860.699 1478.98 862.598 1480.77 Q864.519 1482.55 867.852 1482.55 Q871.185 1482.55 873.107 1480.77 Q875.028 1478.96 875.028 1475.86 Q875.028 1472.73 873.107 1470.95 Q871.209 1469.17 867.852 1469.17 M863.176 1467.18 Q860.167 1466.44 858.477 1464.38 Q856.811 1462.32 856.811 1459.35 Q856.811 1455.21 859.75 1452.8 Q862.713 1450.39 867.852 1450.39 Q873.014 1450.39 875.954 1452.8 Q878.894 1455.21 878.894 1459.35 Q878.894 1462.32 877.204 1464.38 Q875.537 1466.44 872.551 1467.18 Q875.931 1467.96 877.806 1470.26 Q879.704 1472.55 879.704 1475.86 Q879.704 1480.88 876.625 1483.57 Q873.57 1486.25 867.852 1486.25 Q862.135 1486.25 859.056 1483.57 Q856 1480.88 856 1475.86 Q856 1472.55 857.898 1470.26 Q859.797 1467.96 863.176 1467.18 M861.463 1459.79 Q861.463 1462.48 863.13 1463.98 Q864.82 1465.49 867.852 1465.49 Q870.861 1465.49 872.551 1463.98 Q874.264 1462.48 874.264 1459.79 Q874.264 1457.11 872.551 1455.6 Q870.861 1454.1 867.852 1454.1 Q864.82 1454.1 863.13 1455.6 Q861.463 1457.11 861.463 1459.79 Z" fill="#000000" fill-rule="evenodd" fill-opacity="1"></path><path clip-path="url(#clip850)" d="M898.014 1454.1 Q894.403 1454.1 892.574 1457.66 Q890.769 1461.2 890.769 1468.33 Q890.769 1475.44 892.574 1479.01 Q894.403 1482.55 898.014 1482.55 Q901.648 1482.55 903.454 1479.01 Q905.282 1475.44 905.282 1468.33 Q905.282 1461.2 903.454 1457.66 Q901.648 1454.1 898.014 1454.1 M898.014 1450.39 Q903.824 1450.39 906.88 1455 Q909.958 1459.58 909.958 1468.33 Q909.958 1477.06 906.88 1481.67 Q903.824 1486.25 898.014 1486.25 Q892.204 1486.25 889.125 1481.67 Q886.07 1477.06 886.07 1468.33 Q886.07 1459.58 889.125 1455 Q892.204 1450.39 898.014 1450.39 Z" fill="#000000" fill-rule="evenodd" fill-opacity="1"></path><path clip-path="url(#clip850)" d="M928.176 1454.1 Q924.565 1454.1 922.736 1457.66 Q920.931 1461.2 920.931 1468.33 Q920.931 1475.44 922.736 1479.01 Q924.565 1482.55 928.176 1482.55 Q931.81 1482.55 933.616 1479.01 Q935.444 1475.44 935.444 1468.33 Q935.444 1461.2 933.616 1457.66 Q931.81 1454.1 928.176 1454.1 M928.176 1450.39 Q933.986 1450.39 937.042 1455 Q940.12 1459.58 940.12 1468.33 Q940.12 1477.06 937.042 1481.67 Q933.986 1486.25 928.176 1486.25 Q922.366 1486.25 919.287 1481.67 Q916.231 1477.06 916.231 1468.33 Q916.231 1459.58 919.287 1455 Q922.366 1450.39 928.176 1450.39 Z" fill="#000000" fill-rule="evenodd" fill-opacity="1"></path><path clip-path="url(#clip850)" d="M1234.99 1481.64 L1251.31 1481.64 L1251.31 1485.58 L1229.37 1485.58 L1229.37 1481.64 Q1232.03 1478.89 1236.61 1474.26 Q1241.22 1469.61 1242.4 1468.27 Q1244.64 1465.74 1245.52 1464.01 Q1246.43 1462.25 1246.43 1460.56 Q1246.43 1457.8 1244.48 1456.07 Q1242.56 1454.33 1239.46 1454.33 Q1237.26 1454.33 1234.81 1455.09 Q1232.38 1455.86 1229.6 1457.41 L1229.6 1452.69 Q1232.42 1451.55 1234.88 1450.97 Q1237.33 1450.39 1239.37 1450.39 Q1244.74 1450.39 1247.93 1453.08 Q1251.13 1455.77 1251.13 1460.26 Q1251.13 1462.39 1250.32 1464.31 Q1249.53 1466.2 1247.42 1468.8 Q1246.84 1469.47 1243.74 1472.69 Q1240.64 1475.88 1234.99 1481.64 Z" fill="#000000" fill-rule="evenodd" fill-opacity="1"></path><path clip-path="url(#clip850)" d="M1271.13 1454.1 Q1267.51 1454.1 1265.69 1457.66 Q1263.88 1461.2 1263.88 1468.33 Q1263.88 1475.44 1265.69 1479.01 Q1267.51 1482.55 1271.13 1482.55 Q1274.76 1482.55 1276.57 1479.01 Q1278.39 1475.44 1278.39 1468.33 Q1278.39 1461.2 1276.57 1457.66 Q1274.76 1454.1 1271.13 1454.1 M1271.13 1450.39 Q1276.94 1450.39 1279.99 1455 Q1283.07 1459.58 1283.07 1468.33 Q1283.07 1477.06 1279.99 1481.67 Q1276.94 1486.25 1271.13 1486.25 Q1265.32 1486.25 1262.24 1481.67 Q1259.18 1477.06 1259.18 1468.33 Q1259.18 1459.58 1262.24 1455 Q1265.32 1450.39 1271.13 1450.39 Z" fill="#000000" fill-rule="evenodd" fill-opacity="1"></path><path clip-path="url(#clip850)" d="M1301.29 1454.1 Q1297.68 1454.1 1295.85 1457.66 Q1294.04 1461.2 1294.04 1468.33 Q1294.04 1475.44 1295.85 1479.01 Q1297.68 1482.55 1301.29 1482.55 Q1304.92 1482.55 1306.73 1479.01 Q1308.56 1475.44 1308.56 1468.33 Q1308.56 1461.2 1306.73 1457.66 Q1304.92 1454.1 1301.29 1454.1 M1301.29 1450.39 Q1307.1 1450.39 1310.15 1455 Q1313.23 1459.58 1313.23 1468.33 Q1313.23 1477.06 1310.15 1481.67 Q1307.1 1486.25 1301.29 1486.25 Q1295.48 1486.25 1292.4 1481.67 Q1289.34 1477.06 1289.34 1468.33 Q1289.34 1459.58 1292.4 1455 Q1295.48 1450.39 1301.29 1450.39 Z" fill="#000000" fill-rule="evenodd" fill-opacity="1"></path><path clip-path="url(#clip850)" d="M1331.45 1454.1 Q1327.84 1454.1 1326.01 1457.66 Q1324.2 1461.2 1324.2 1468.33 Q1324.2 1475.44 1326.01 1479.01 Q1327.84 1482.55 1331.45 1482.55 Q1335.08 1482.55 1336.89 1479.01 Q1338.72 1475.44 1338.72 1468.33 Q1338.72 1461.2 1336.89 1457.66 Q1335.08 1454.1 1331.45 1454.1 M1331.45 1450.39 Q1337.26 1450.39 1340.32 1455 Q1343.39 1459.58 1343.39 1468.33 Q1343.39 1477.06 1340.32 1481.67 Q1337.26 1486.25 1331.45 1486.25 Q1325.64 1486.25 1322.56 1481.67 Q1319.51 1477.06 1319.51 1468.33 Q1319.51 1459.58 1322.56 1455 Q1325.64 1450.39 1331.45 1450.39 Z" fill="#000000" fill-rule="evenodd" fill-opacity="1"></path><path clip-path="url(#clip850)" d="M1637.4 1481.64 L1653.72 1481.64 L1653.72 1485.58 L1631.77 1485.58 L1631.77 1481.64 Q1634.43 1478.89 1639.02 1474.26 Q1643.62 1469.61 1644.81 1468.27 Q1647.05 1465.74 1647.93 1464.01 Q1648.83 1462.25 1648.83 1460.56 Q1648.83 1457.8 1646.89 1456.07 Q1644.97 1454.33 1641.87 1454.33 Q1639.67 1454.33 1637.21 1455.09 Q1634.78 1455.86 1632 1457.41 L1632 1452.69 Q1634.83 1451.55 1637.28 1450.97 Q1639.74 1450.39 1641.77 1450.39 Q1647.14 1450.39 1650.34 1453.08 Q1653.53 1455.77 1653.53 1460.26 Q1653.53 1462.39 1652.72 1464.31 Q1651.93 1466.2 1649.83 1468.8 Q1649.25 1469.47 1646.15 1472.69 Q1643.05 1475.88 1637.4 1481.64 Z" fill="#000000" fill-rule="evenodd" fill-opacity="1"></path><path clip-path="url(#clip850)" d="M1667.56 1481.64 L1683.88 1481.64 L1683.88 1485.58 L1661.93 1485.58 L1661.93 1481.64 Q1664.6 1478.89 1669.18 1474.26 Q1673.79 1469.61 1674.97 1468.27 Q1677.21 1465.74 1678.09 1464.01 Q1678.99 1462.25 1678.99 1460.56 Q1678.99 1457.8 1677.05 1456.07 Q1675.13 1454.33 1672.03 1454.33 Q1669.83 1454.33 1667.37 1455.09 Q1664.94 1455.86 1662.17 1457.41 L1662.17 1452.69 Q1664.99 1451.55 1667.44 1450.97 Q1669.9 1450.39 1671.93 1450.39 Q1677.3 1450.39 1680.5 1453.08 Q1683.69 1455.77 1683.69 1460.26 Q1683.69 1462.39 1682.88 1464.31 Q1682.1 1466.2 1679.99 1468.8 Q1679.41 1469.47 1676.31 1472.69 Q1673.21 1475.88 1667.56 1481.64 Z" fill="#000000" fill-rule="evenodd" fill-opacity="1"></path><path clip-path="url(#clip850)" d="M1703.69 1454.1 Q1700.08 1454.1 1698.25 1457.66 Q1696.45 1461.2 1696.45 1468.33 Q1696.45 1475.44 1698.25 1479.01 Q1700.08 1482.55 1703.69 1482.55 Q1707.33 1482.55 1709.13 1479.01 Q1710.96 1475.44 1710.96 1468.33 Q1710.96 1461.2 1709.13 1457.66 Q1707.33 1454.1 1703.69 1454.1 M1703.69 1450.39 Q1709.5 1450.39 1712.56 1455 Q1715.64 1459.58 1715.64 1468.33 Q1715.64 1477.06 1712.56 1481.67 Q1709.5 1486.25 1703.69 1486.25 Q1697.88 1486.25 1694.8 1481.67 Q1691.75 1477.06 1691.75 1468.33 Q1691.75 1459.58 1694.8 1455 Q1697.88 1450.39 1703.69 1450.39 Z" fill="#000000" fill-rule="evenodd" fill-opacity="1"></path><path clip-path="url(#clip850)" d="M1733.86 1454.1 Q1730.24 1454.1 1728.42 1457.66 Q1726.61 1461.2 1726.61 1468.33 Q1726.61 1475.44 1728.42 1479.01 Q1730.24 1482.55 1733.86 1482.55 Q1737.49 1482.55 1739.3 1479.01 Q1741.12 1475.44 1741.12 1468.33 Q1741.12 1461.2 1739.3 1457.66 Q1737.49 1454.1 1733.86 1454.1 M1733.86 1450.39 Q1739.67 1450.39 1742.72 1455 Q1745.8 1459.58 1745.8 1468.33 Q1745.8 1477.06 1742.72 1481.67 Q1739.67 1486.25 1733.86 1486.25 Q1728.05 1486.25 1724.97 1481.67 Q1721.91 1477.06 1721.91 1468.33 Q1721.91 1459.58 1724.97 1455 Q1728.05 1450.39 1733.86 1450.39 Z" fill="#000000" fill-rule="evenodd" fill-opacity="1"></path><path clip-path="url(#clip850)" d="M2039.8 1481.64 L2056.12 1481.64 L2056.12 1485.58 L2034.18 1485.58 L2034.18 1481.64 Q2036.84 1478.89 2041.42 1474.26 Q2046.03 1469.61 2047.21 1468.27 Q2049.46 1465.74 2050.34 1464.01 Q2051.24 1462.25 2051.24 1460.56 Q2051.24 1457.8 2049.29 1456.07 Q2047.37 1454.33 2044.27 1454.33 Q2042.07 1454.33 2039.62 1455.09 Q2037.19 1455.86 2034.41 1457.41 L2034.41 1452.69 Q2037.23 1451.55 2039.69 1450.97 Q2042.14 1450.39 2044.18 1450.39 Q2049.55 1450.39 2052.74 1453.08 Q2055.94 1455.77 2055.94 1460.26 Q2055.94 1462.39 2055.13 1464.31 Q2054.34 1466.2 2052.23 1468.8 Q2051.66 1469.47 2048.55 1472.69 Q2045.45 1475.88 2039.8 1481.64 Z" fill="#000000" fill-rule="evenodd" fill-opacity="1"></path><path clip-path="url(#clip850)" d="M2078.78 1455.09 L2066.98 1473.54 L2078.78 1473.54 L2078.78 1455.09 M2077.56 1451.02 L2083.44 1451.02 L2083.44 1473.54 L2088.37 1473.54 L2088.37 1477.43 L2083.44 1477.43 L2083.44 1485.58 L2078.78 1485.58 L2078.78 1477.43 L2063.18 1477.43 L2063.18 1472.92 L2077.56 1451.02 Z" fill="#000000" fill-rule="evenodd" fill-opacity="1"></path><path clip-path="url(#clip850)" d="M2106.1 1454.1 Q2102.49 1454.1 2100.66 1457.66 Q2098.85 1461.2 2098.85 1468.33 Q2098.85 1475.44 2100.66 1479.01 Q2102.49 1482.55 2106.1 1482.55 Q2109.73 1482.55 2111.54 1479.01 Q2113.37 1475.44 2113.37 1468.33 Q2113.37 1461.2 2111.54 1457.66 Q2109.73 1454.1 2106.1 1454.1 M2106.1 1450.39 Q2111.91 1450.39 2114.97 1455 Q2118.04 1459.58 2118.04 1468.33 Q2118.04 1477.06 2114.97 1481.67 Q2111.91 1486.25 2106.1 1486.25 Q2100.29 1486.25 2097.21 1481.67 Q2094.16 1477.06 2094.16 1468.33 Q2094.16 1459.58 2097.21 1455 Q2100.29 1450.39 2106.1 1450.39 Z" fill="#000000" fill-rule="evenodd" fill-opacity="1"></path><path clip-path="url(#clip850)" d="M2136.26 1454.1 Q2132.65 1454.1 2130.82 1457.66 Q2129.02 1461.2 2129.02 1468.33 Q2129.02 1475.44 2130.82 1479.01 Q2132.65 1482.55 2136.26 1482.55 Q2139.9 1482.55 2141.7 1479.01 Q2143.53 1475.44 2143.53 1468.33 Q2143.53 1461.2 2141.7 1457.66 Q2139.9 1454.1 2136.26 1454.1 M2136.26 1450.39 Q2142.07 1450.39 2145.13 1455 Q2148.21 1459.58 2148.21 1468.33 Q2148.21 1477.06 2145.13 1481.67 Q2142.07 1486.25 2136.26 1486.25 Q2130.45 1486.25 2127.37 1481.67 Q2124.32 1477.06 2124.32 1468.33 Q2124.32 1459.58 2127.37 1455 Q2130.45 1450.39 2136.26 1450.39 Z" fill="#000000" fill-rule="evenodd" fill-opacity="1"></path><path clip-path="url(#clip850)" d="M1046.79 1520.52 L1086.99 1520.52 L1086.99 1525.93 L1070.12 1525.93 L1070.12 1568.04 L1063.66 1568.04 L1063.66 1525.93 L1046.79 1525.93 L1046.79 1520.52 Z" fill="#000000" fill-rule="evenodd" fill-opacity="1"></path><path clip-path="url(#clip850)" d="M1112.36 1548.76 L1112.36 1551.62 L1085.43 1551.62 Q1085.81 1557.67 1089.06 1560.85 Q1092.34 1564 1098.16 1564 Q1101.54 1564 1104.69 1563.17 Q1107.87 1562.35 1110.99 1560.69 L1110.99 1566.23 Q1107.84 1567.57 1104.53 1568.27 Q1101.22 1568.97 1097.81 1568.97 Q1089.28 1568.97 1084.29 1564 Q1079.32 1559.04 1079.32 1550.57 Q1079.32 1541.82 1084.03 1536.69 Q1088.77 1531.54 1096.79 1531.54 Q1103.99 1531.54 1108.16 1536.18 Q1112.36 1540.8 1112.36 1548.76 M1106.5 1547.04 Q1106.44 1542.23 1103.8 1539.37 Q1101.19 1536.5 1096.86 1536.5 Q1091.96 1536.5 1089 1539.27 Q1086.07 1542.04 1085.62 1547.07 L1106.5 1547.04 Z" fill="#000000" fill-rule="evenodd" fill-opacity="1"></path><path clip-path="url(#clip850)" d="M1149.72 1539.24 Q1151.92 1535.29 1154.98 1533.41 Q1158.03 1531.54 1162.17 1531.54 Q1167.74 1531.54 1170.76 1535.45 Q1173.79 1539.33 1173.79 1546.53 L1173.79 1568.04 L1167.9 1568.04 L1167.9 1546.72 Q1167.9 1541.59 1166.08 1539.11 Q1164.27 1536.63 1160.55 1536.63 Q1155.99 1536.63 1153.35 1539.65 Q1150.71 1542.68 1150.71 1547.9 L1150.71 1568.04 L1144.82 1568.04 L1144.82 1546.72 Q1144.82 1541.56 1143.01 1539.11 Q1141.19 1536.63 1137.41 1536.63 Q1132.92 1536.63 1130.28 1539.68 Q1127.64 1542.71 1127.64 1547.9 L1127.64 1568.04 L1121.75 1568.04 L1121.75 1532.4 L1127.64 1532.4 L1127.64 1537.93 Q1129.64 1534.66 1132.44 1533.1 Q1135.24 1531.54 1139.09 1531.54 Q1142.98 1531.54 1145.68 1533.51 Q1148.42 1535.48 1149.72 1539.24 Z" fill="#000000" fill-rule="evenodd" fill-opacity="1"></path><path clip-path="url(#clip850)" d="M1191.13 1562.7 L1191.13 1581.6 L1185.25 1581.6 L1185.25 1532.4 L1191.13 1532.4 L1191.13 1537.81 Q1192.98 1534.62 1195.78 1533.1 Q1198.61 1531.54 1202.53 1531.54 Q1209.02 1531.54 1213.06 1536.69 Q1217.14 1541.85 1217.14 1550.25 Q1217.14 1558.65 1213.06 1563.81 Q1209.02 1568.97 1202.53 1568.97 Q1198.61 1568.97 1195.78 1567.44 Q1192.98 1565.88 1191.13 1562.7 M1211.06 1550.25 Q1211.06 1543.79 1208.38 1540.13 Q1205.74 1536.44 1201.1 1536.44 Q1196.45 1536.44 1193.78 1540.13 Q1191.13 1543.79 1191.13 1550.25 Q1191.13 1556.71 1193.78 1560.4 Q1196.45 1564.07 1201.1 1564.07 Q1205.74 1564.07 1208.38 1560.4 Q1211.06 1556.71 1211.06 1550.25 Z" fill="#000000" fill-rule="evenodd" fill-opacity="1"></path><path clip-path="url(#clip850)" d="M1257.34 1548.76 L1257.34 1551.62 L1230.41 1551.62 Q1230.79 1557.67 1234.04 1560.85 Q1237.32 1564 1243.14 1564 Q1246.52 1564 1249.67 1563.17 Q1252.85 1562.35 1255.97 1560.69 L1255.97 1566.23 Q1252.82 1567.57 1249.51 1568.27 Q1246.2 1568.97 1242.79 1568.97 Q1234.26 1568.97 1229.26 1564 Q1224.3 1559.04 1224.3 1550.57 Q1224.3 1541.82 1229.01 1536.69 Q1233.75 1531.54 1241.77 1531.54 Q1248.97 1531.54 1253.14 1536.18 Q1257.34 1540.8 1257.34 1548.76 M1251.48 1547.04 Q1251.42 1542.23 1248.78 1539.37 Q1246.17 1536.5 1241.84 1536.5 Q1236.93 1536.5 1233.97 1539.27 Q1231.05 1542.04 1230.6 1547.07 L1251.48 1547.04 Z" fill="#000000" fill-rule="evenodd" fill-opacity="1"></path><path clip-path="url(#clip850)" d="M1287.61 1537.87 Q1286.62 1537.3 1285.44 1537.04 Q1284.3 1536.76 1282.9 1536.76 Q1277.93 1536.76 1275.26 1540 Q1272.61 1543.22 1272.61 1549.27 L1272.61 1568.04 L1266.73 1568.04 L1266.73 1532.4 L1272.61 1532.4 L1272.61 1537.93 Q1274.46 1534.69 1277.42 1533.13 Q1280.38 1531.54 1284.61 1531.54 Q1285.22 1531.54 1285.95 1531.63 Q1286.68 1531.7 1287.57 1531.85 L1287.61 1537.87 Z" fill="#000000" fill-rule="evenodd" fill-opacity="1"></path><path clip-path="url(#clip850)" d="M1309.95 1550.12 Q1302.85 1550.12 1300.11 1551.75 Q1297.38 1553.37 1297.38 1557.29 Q1297.38 1560.4 1299.41 1562.25 Q1301.48 1564.07 1305.02 1564.07 Q1309.89 1564.07 1312.81 1560.63 Q1315.77 1557.16 1315.77 1551.43 L1315.77 1550.12 L1309.95 1550.12 M1321.63 1547.71 L1321.63 1568.04 L1315.77 1568.04 L1315.77 1562.63 Q1313.77 1565.88 1310.78 1567.44 Q1307.79 1568.97 1303.46 1568.97 Q1297.98 1568.97 1294.74 1565.91 Q1291.52 1562.82 1291.52 1557.67 Q1291.52 1551.65 1295.53 1548.6 Q1299.57 1545.54 1307.56 1545.54 L1315.77 1545.54 L1315.77 1544.97 Q1315.77 1540.93 1313.1 1538.73 Q1310.46 1536.5 1305.65 1536.5 Q1302.6 1536.5 1299.7 1537.23 Q1296.8 1537.97 1294.13 1539.43 L1294.13 1534.02 Q1297.35 1532.78 1300.37 1532.17 Q1303.39 1531.54 1306.26 1531.54 Q1313.99 1531.54 1317.81 1535.55 Q1321.63 1539.56 1321.63 1547.71 Z" fill="#000000" fill-rule="evenodd" fill-opacity="1"></path><path clip-path="url(#clip850)" d="M1339.49 1522.27 L1339.49 1532.4 L1351.55 1532.4 L1351.55 1536.95 L1339.49 1536.95 L1339.49 1556.3 Q1339.49 1560.66 1340.66 1561.9 Q1341.87 1563.14 1345.53 1563.14 L1351.55 1563.14 L1351.55 1568.04 L1345.53 1568.04 Q1338.75 1568.04 1336.18 1565.53 Q1333.6 1562.98 1333.6 1556.3 L1333.6 1536.95 L1329.3 1536.95 L1329.3 1532.4 L1333.6 1532.4 L1333.6 1522.27 L1339.49 1522.27 Z" fill="#000000" fill-rule="evenodd" fill-opacity="1"></path><path clip-path="url(#clip850)" d="M1358.65 1553.98 L1358.65 1532.4 L1364.5 1532.4 L1364.5 1553.75 Q1364.5 1558.81 1366.48 1561.36 Q1368.45 1563.87 1372.4 1563.87 Q1377.14 1563.87 1379.88 1560.85 Q1382.65 1557.83 1382.65 1552.61 L1382.65 1532.4 L1388.5 1532.4 L1388.5 1568.04 L1382.65 1568.04 L1382.65 1562.57 Q1380.51 1565.82 1377.68 1567.41 Q1374.88 1568.97 1371.16 1568.97 Q1365.01 1568.97 1361.83 1565.15 Q1358.65 1561.33 1358.65 1553.98 M1373.38 1531.54 L1373.38 1531.54 Z" fill="#000000" fill-rule="evenodd" fill-opacity="1"></path><path clip-path="url(#clip850)" d="M1421.22 1537.87 Q1420.24 1537.3 1419.06 1537.04 Q1417.91 1536.76 1416.51 1536.76 Q1411.55 1536.76 1408.87 1540 Q1406.23 1543.22 1406.23 1549.27 L1406.23 1568.04 L1400.34 1568.04 L1400.34 1532.4 L1406.23 1532.4 L1406.23 1537.93 Q1408.08 1534.69 1411.04 1533.13 Q1414 1531.54 1418.23 1531.54 Q1418.83 1531.54 1419.57 1531.63 Q1420.3 1531.7 1421.19 1531.85 L1421.22 1537.87 Z" fill="#000000" fill-rule="evenodd" fill-opacity="1"></path><path clip-path="url(#clip850)" d="M1456.42 1548.76 L1456.42 1551.62 L1429.5 1551.62 Q1429.88 1557.67 1433.13 1560.85 Q1436.4 1564 1442.23 1564 Q1445.6 1564 1448.75 1563.17 Q1451.94 1562.35 1455.06 1560.69 L1455.06 1566.23 Q1451.9 1567.57 1448.59 1568.27 Q1445.28 1568.97 1441.88 1568.97 Q1433.35 1568.97 1428.35 1564 Q1423.39 1559.04 1423.39 1550.57 Q1423.39 1541.82 1428.1 1536.69 Q1432.84 1531.54 1440.86 1531.54 Q1448.05 1531.54 1452.22 1536.18 Q1456.42 1540.8 1456.42 1548.76 M1450.57 1547.04 Q1450.5 1542.23 1447.86 1539.37 Q1445.25 1536.5 1440.92 1536.5 Q1436.02 1536.5 1433.06 1539.27 Q1430.13 1542.04 1429.69 1547.07 L1450.57 1547.04 Z" fill="#000000" fill-rule="evenodd" fill-opacity="1"></path><path clip-path="url(#clip850)" d="M1476.44 1520.52 L1481.86 1520.52 L1465.3 1574.09 L1459.89 1574.09 L1476.44 1520.52 Z" fill="#000000" fill-rule="evenodd" fill-opacity="1"></path><path clip-path="url(#clip850)" d="M1488.25 1520.52 L1494.68 1520.52 L1494.68 1540.61 L1516.01 1520.52 L1524.28 1520.52 L1500.7 1542.68 L1525.97 1568.04 L1517.5 1568.04 L1494.68 1545.16 L1494.68 1568.04 L1488.25 1568.04 L1488.25 1520.52 Z" fill="#000000" fill-rule="evenodd" fill-opacity="1"></path><polyline clip-path="url(#clip852)" style="stroke:#000000; stroke-linecap:round; stroke-linejoin:round; stroke-width:2; stroke-opacity:0.1; fill:none" points="
  220.005,1310.97 2352.76,1310.97 
  "></polyline>
<polyline clip-path="url(#clip852)" style="stroke:#000000; stroke-linecap:round; stroke-linejoin:round; stroke-width:2; stroke-opacity:0.1; fill:none" points="
  220.005,1051.3 2352.76,1051.3 
  "></polyline>
<polyline clip-path="url(#clip852)" style="stroke:#000000; stroke-linecap:round; stroke-linejoin:round; stroke-width:2; stroke-opacity:0.1; fill:none" points="
  220.005,791.631 2352.76,791.631 
  "></polyline>
<polyline clip-path="url(#clip852)" style="stroke:#000000; stroke-linecap:round; stroke-linejoin:round; stroke-width:2; stroke-opacity:0.1; fill:none" points="
  220.005,531.963 2352.76,531.963 
  "></polyline>
<polyline clip-path="url(#clip852)" style="stroke:#000000; stroke-linecap:round; stroke-linejoin:round; stroke-width:2; stroke-opacity:0.1; fill:none" points="
  220.005,272.296 2352.76,272.296 
  "></polyline>
<polyline clip-path="url(#clip850)" style="stroke:#000000; stroke-linecap:round; stroke-linejoin:round; stroke-width:4; stroke-opacity:1; fill:none" points="
  220.005,1423.18 220.005,106.192 
  "></polyline>
<polyline clip-path="url(#clip850)" style="stroke:#000000; stroke-linecap:round; stroke-linejoin:round; stroke-width:4; stroke-opacity:1; fill:none" points="
  220.005,1310.97 238.903,1310.97 
  "></polyline>
<polyline clip-path="url(#clip850)" style="stroke:#000000; stroke-linecap:round; stroke-linejoin:round; stroke-width:4; stroke-opacity:1; fill:none" points="
  220.005,1051.3 238.903,1051.3 
  "></polyline>
<polyline clip-path="url(#clip850)" style="stroke:#000000; stroke-linecap:round; stroke-linejoin:round; stroke-width:4; stroke-opacity:1; fill:none" points="
  220.005,791.631 238.903,791.631 
  "></polyline>
<polyline clip-path="url(#clip850)" style="stroke:#000000; stroke-linecap:round; stroke-linejoin:round; stroke-width:4; stroke-opacity:1; fill:none" points="
  220.005,531.963 238.903,531.963 
  "></polyline>
<polyline clip-path="url(#clip850)" style="stroke:#000000; stroke-linecap:round; stroke-linejoin:round; stroke-width:4; stroke-opacity:1; fill:none" points="
  220.005,272.296 238.903,272.296 
  "></polyline>
<path clip-path="url(#clip850)" d="M126.667 1311.83 Q123.334 1311.83 121.413 1313.62 Q119.515 1315.4 119.515 1318.52 Q119.515 1321.65 121.413 1323.43 Q123.334 1325.21 126.667 1325.21 Q130.001 1325.21 131.922 1323.43 Q133.843 1321.63 133.843 1318.52 Q133.843 1315.4 131.922 1313.62 Q130.024 1311.83 126.667 1311.83 M121.992 1309.84 Q118.982 1309.1 117.293 1307.04 Q115.626 1304.98 115.626 1302.02 Q115.626 1297.88 118.566 1295.47 Q121.529 1293.06 126.667 1293.06 Q131.83 1293.06 134.769 1295.47 Q137.709 1297.88 137.709 1302.02 Q137.709 1304.98 136.019 1307.04 Q134.353 1309.1 131.367 1309.84 Q134.746 1310.63 136.621 1312.92 Q138.519 1315.21 138.519 1318.52 Q138.519 1323.55 135.441 1326.23 Q132.385 1328.92 126.667 1328.92 Q120.95 1328.92 117.871 1326.23 Q114.816 1323.55 114.816 1318.52 Q114.816 1315.21 116.714 1312.92 Q118.612 1310.63 121.992 1309.84 M120.279 1302.46 Q120.279 1305.14 121.945 1306.65 Q123.635 1308.15 126.667 1308.15 Q129.677 1308.15 131.367 1306.65 Q133.08 1305.14 133.08 1302.46 Q133.08 1299.77 131.367 1298.27 Q129.677 1296.76 126.667 1296.76 Q123.635 1296.76 121.945 1298.27 Q120.279 1299.77 120.279 1302.46 Z" fill="#000000" fill-rule="evenodd" fill-opacity="1"></path><path clip-path="url(#clip850)" d="M146.829 1322.37 L151.714 1322.37 L151.714 1328.25 L146.829 1328.25 L146.829 1322.37 Z" fill="#000000" fill-rule="evenodd" fill-opacity="1"></path><path clip-path="url(#clip850)" d="M172.477 1309.1 Q169.329 1309.1 167.477 1311.25 Q165.649 1313.41 165.649 1317.16 Q165.649 1320.88 167.477 1323.06 Q169.329 1325.21 172.477 1325.21 Q175.626 1325.21 177.454 1323.06 Q179.306 1320.88 179.306 1317.16 Q179.306 1313.41 177.454 1311.25 Q175.626 1309.1 172.477 1309.1 M181.76 1294.45 L181.76 1298.71 Q180.001 1297.88 178.195 1297.44 Q176.413 1297 174.653 1297 Q170.024 1297 167.57 1300.12 Q165.14 1303.25 164.792 1309.57 Q166.158 1307.55 168.218 1306.49 Q170.278 1305.4 172.755 1305.4 Q177.964 1305.4 180.973 1308.57 Q184.005 1311.72 184.005 1317.16 Q184.005 1322.48 180.857 1325.7 Q177.709 1328.92 172.477 1328.92 Q166.482 1328.92 163.311 1324.33 Q160.14 1319.73 160.14 1311 Q160.14 1302.81 164.028 1297.94 Q167.917 1293.06 174.468 1293.06 Q176.227 1293.06 178.01 1293.41 Q179.815 1293.76 181.76 1294.45 Z" fill="#000000" fill-rule="evenodd" fill-opacity="1"></path><path clip-path="url(#clip850)" d="M126.922 1052.17 Q123.589 1052.17 121.668 1053.95 Q119.769 1055.73 119.769 1058.86 Q119.769 1061.98 121.668 1063.76 Q123.589 1065.55 126.922 1065.55 Q130.255 1065.55 132.177 1063.76 Q134.098 1061.96 134.098 1058.86 Q134.098 1055.73 132.177 1053.95 Q130.279 1052.17 126.922 1052.17 M122.246 1050.18 Q119.237 1049.43 117.547 1047.37 Q115.881 1045.31 115.881 1042.35 Q115.881 1038.21 118.82 1035.8 Q121.783 1033.39 126.922 1033.39 Q132.084 1033.39 135.024 1035.8 Q137.964 1038.21 137.964 1042.35 Q137.964 1045.31 136.274 1047.37 Q134.607 1049.43 131.621 1050.18 Q135.001 1050.96 136.876 1053.25 Q138.774 1055.55 138.774 1058.86 Q138.774 1063.88 135.695 1066.56 Q132.64 1069.25 126.922 1069.25 Q121.205 1069.25 118.126 1066.56 Q115.07 1063.88 115.07 1058.86 Q115.07 1055.55 116.968 1053.25 Q118.867 1050.96 122.246 1050.18 M120.533 1042.79 Q120.533 1045.48 122.2 1046.98 Q123.89 1048.49 126.922 1048.49 Q129.931 1048.49 131.621 1046.98 Q133.334 1045.48 133.334 1042.79 Q133.334 1040.11 131.621 1038.6 Q129.931 1037.1 126.922 1037.1 Q123.89 1037.1 122.2 1038.6 Q120.533 1040.11 120.533 1042.79 Z" fill="#000000" fill-rule="evenodd" fill-opacity="1"></path><path clip-path="url(#clip850)" d="M147.084 1062.7 L151.968 1062.7 L151.968 1068.58 L147.084 1068.58 L147.084 1062.7 Z" fill="#000000" fill-rule="evenodd" fill-opacity="1"></path><path clip-path="url(#clip850)" d="M172.153 1052.17 Q168.82 1052.17 166.899 1053.95 Q165.001 1055.73 165.001 1058.86 Q165.001 1061.98 166.899 1063.76 Q168.82 1065.55 172.153 1065.55 Q175.487 1065.55 177.408 1063.76 Q179.329 1061.96 179.329 1058.86 Q179.329 1055.73 177.408 1053.95 Q175.51 1052.17 172.153 1052.17 M167.477 1050.18 Q164.468 1049.43 162.778 1047.37 Q161.112 1045.31 161.112 1042.35 Q161.112 1038.21 164.052 1035.8 Q167.015 1033.39 172.153 1033.39 Q177.315 1033.39 180.255 1035.8 Q183.195 1038.21 183.195 1042.35 Q183.195 1045.31 181.505 1047.37 Q179.839 1049.43 176.852 1050.18 Q180.232 1050.96 182.107 1053.25 Q184.005 1055.55 184.005 1058.86 Q184.005 1063.88 180.926 1066.56 Q177.871 1069.25 172.153 1069.25 Q166.436 1069.25 163.357 1066.56 Q160.302 1063.88 160.302 1058.86 Q160.302 1055.55 162.2 1053.25 Q164.098 1050.96 167.477 1050.18 M165.765 1042.79 Q165.765 1045.48 167.431 1046.98 Q169.121 1048.49 172.153 1048.49 Q175.163 1048.49 176.852 1046.98 Q178.565 1045.48 178.565 1042.79 Q178.565 1040.11 176.852 1038.6 Q175.163 1037.1 172.153 1037.1 Q169.121 1037.1 167.431 1038.6 Q165.765 1040.11 165.765 1042.79 Z" fill="#000000" fill-rule="evenodd" fill-opacity="1"></path><path clip-path="url(#clip850)" d="M116.968 808.193 L116.968 803.934 Q118.728 804.767 120.533 805.207 Q122.339 805.647 124.075 805.647 Q128.705 805.647 131.135 802.545 Q133.589 799.42 133.936 793.078 Q132.593 795.068 130.533 796.133 Q128.473 797.198 125.973 797.198 Q120.788 797.198 117.756 794.073 Q114.746 790.925 114.746 785.485 Q114.746 780.161 117.894 776.943 Q121.043 773.726 126.274 773.726 Q132.269 773.726 135.417 778.332 Q138.589 782.916 138.589 791.666 Q138.589 799.837 134.7 804.721 Q130.834 809.582 124.283 809.582 Q122.524 809.582 120.718 809.235 Q118.913 808.888 116.968 808.193 M126.274 793.541 Q129.422 793.541 131.251 791.388 Q133.103 789.235 133.103 785.485 Q133.103 781.758 131.251 779.605 Q129.422 777.43 126.274 777.43 Q123.126 777.43 121.274 779.605 Q119.445 781.758 119.445 785.485 Q119.445 789.235 121.274 791.388 Q123.126 793.541 126.274 793.541 Z" fill="#000000" fill-rule="evenodd" fill-opacity="1"></path><path clip-path="url(#clip850)" d="M146.991 803.031 L151.876 803.031 L151.876 808.911 L146.991 808.911 L146.991 803.031 Z" fill="#000000" fill-rule="evenodd" fill-opacity="1"></path><path clip-path="url(#clip850)" d="M172.061 777.43 Q168.45 777.43 166.621 780.994 Q164.815 784.536 164.815 791.666 Q164.815 798.772 166.621 802.337 Q168.45 805.878 172.061 805.878 Q175.695 805.878 177.501 802.337 Q179.329 798.772 179.329 791.666 Q179.329 784.536 177.501 780.994 Q175.695 777.43 172.061 777.43 M172.061 773.726 Q177.871 773.726 180.926 778.332 Q184.005 782.916 184.005 791.666 Q184.005 800.392 180.926 804.999 Q177.871 809.582 172.061 809.582 Q166.251 809.582 163.172 804.999 Q160.116 800.392 160.116 791.666 Q160.116 782.916 163.172 778.332 Q166.251 773.726 172.061 773.726 Z" fill="#000000" fill-rule="evenodd" fill-opacity="1"></path><path clip-path="url(#clip850)" d="M118.566 548.526 L118.566 544.267 Q120.325 545.1 122.13 545.54 Q123.936 545.98 125.672 545.98 Q130.302 545.98 132.732 542.878 Q135.186 539.753 135.533 533.41 Q134.191 535.401 132.13 536.466 Q130.07 537.531 127.57 537.531 Q122.385 537.531 119.353 534.406 Q116.343 531.257 116.343 525.818 Q116.343 520.494 119.492 517.276 Q122.64 514.058 127.871 514.058 Q133.867 514.058 137.015 518.665 Q140.186 523.248 140.186 531.998 Q140.186 540.169 136.297 545.054 Q132.431 549.915 125.88 549.915 Q124.121 549.915 122.316 549.568 Q120.51 549.22 118.566 548.526 M127.871 533.873 Q131.019 533.873 132.848 531.72 Q134.7 529.568 134.7 525.818 Q134.7 522.091 132.848 519.938 Q131.019 517.762 127.871 517.762 Q124.723 517.762 122.871 519.938 Q121.043 522.091 121.043 525.818 Q121.043 529.568 122.871 531.72 Q124.723 533.873 127.871 533.873 Z" fill="#000000" fill-rule="evenodd" fill-opacity="1"></path><path clip-path="url(#clip850)" d="M148.589 543.364 L153.473 543.364 L153.473 549.243 L148.589 549.243 L148.589 543.364 Z" fill="#000000" fill-rule="evenodd" fill-opacity="1"></path><path clip-path="url(#clip850)" d="M167.686 545.308 L184.005 545.308 L184.005 549.243 L162.061 549.243 L162.061 545.308 Q164.723 542.554 169.306 537.924 Q173.913 533.271 175.093 531.929 Q177.339 529.406 178.218 527.669 Q179.121 525.91 179.121 524.22 Q179.121 521.466 177.176 519.73 Q175.255 517.994 172.153 517.994 Q169.954 517.994 167.501 518.758 Q165.07 519.521 162.292 521.072 L162.292 516.35 Q165.116 515.216 167.57 514.637 Q170.024 514.058 172.061 514.058 Q177.431 514.058 180.626 516.744 Q183.82 519.429 183.82 523.92 Q183.82 526.049 183.01 527.97 Q182.223 529.869 180.116 532.461 Q179.538 533.132 176.436 536.35 Q173.334 539.544 167.686 545.308 Z" fill="#000000" fill-rule="evenodd" fill-opacity="1"></path><path clip-path="url(#clip850)" d="M116.482 288.858 L116.482 284.599 Q118.242 285.433 120.047 285.872 Q121.853 286.312 123.589 286.312 Q128.218 286.312 130.649 283.21 Q133.103 280.085 133.45 273.743 Q132.107 275.734 130.047 276.798 Q127.987 277.863 125.487 277.863 Q120.302 277.863 117.269 274.738 Q114.26 271.59 114.26 266.15 Q114.26 260.826 117.408 257.609 Q120.556 254.391 125.788 254.391 Q131.783 254.391 134.931 258.998 Q138.103 263.581 138.103 272.331 Q138.103 280.502 134.214 285.386 Q130.348 290.247 123.797 290.247 Q122.038 290.247 120.232 289.9 Q118.427 289.553 116.482 288.858 M125.788 274.206 Q128.936 274.206 130.765 272.053 Q132.617 269.9 132.617 266.15 Q132.617 262.423 130.765 260.271 Q128.936 258.095 125.788 258.095 Q122.64 258.095 120.788 260.271 Q118.959 262.423 118.959 266.15 Q118.959 269.9 120.788 272.053 Q122.64 274.206 125.788 274.206 Z" fill="#000000" fill-rule="evenodd" fill-opacity="1"></path><path clip-path="url(#clip850)" d="M146.505 283.696 L151.39 283.696 L151.39 289.576 L146.505 289.576 L146.505 283.696 Z" fill="#000000" fill-rule="evenodd" fill-opacity="1"></path><path clip-path="url(#clip850)" d="M174.422 259.09 L162.616 277.539 L174.422 277.539 L174.422 259.09 M173.195 255.016 L179.075 255.016 L179.075 277.539 L184.005 277.539 L184.005 281.428 L179.075 281.428 L179.075 289.576 L174.422 289.576 L174.422 281.428 L158.82 281.428 L158.82 276.914 L173.195 255.016 Z" fill="#000000" fill-rule="evenodd" fill-opacity="1"></path><path clip-path="url(#clip850)" d="M22.818 1381.09 L46.4666 1389.81 L46.4666 1372.34 L22.818 1381.09 M16.4842 1384.72 L16.4842 1377.43 L64.0042 1359.32 L64.0042 1366.01 L51.8138 1370.34 L51.8138 1391.76 L64.0042 1396.08 L64.0042 1402.86 L16.4842 1384.72 Z" fill="#000000" fill-rule="evenodd" fill-opacity="1"></path><path clip-path="url(#clip850)" d="M28.3562 1360.66 L28.3562 1354.45 L58.275 1343.31 L28.3562 1332.17 L28.3562 1325.97 L64.0042 1339.33 L64.0042 1347.29 L28.3562 1360.66 Z" fill="#000000" fill-rule="evenodd" fill-opacity="1"></path><path clip-path="url(#clip850)" d="M44.7161 1287.39 L47.5806 1287.39 L47.5806 1314.32 Q53.6281 1313.94 56.8109 1310.69 Q59.9619 1307.41 59.9619 1301.59 Q59.9619 1298.21 59.1344 1295.06 Q58.3069 1291.88 56.6518 1288.76 L62.1899 1288.76 Q63.5267 1291.91 64.227 1295.22 Q64.9272 1298.53 64.9272 1301.94 Q64.9272 1310.47 59.9619 1315.46 Q54.9967 1320.43 46.5303 1320.43 Q37.7774 1320.43 32.6531 1315.72 Q27.4968 1310.98 27.4968 1302.95 Q27.4968 1295.76 32.1438 1291.59 Q36.7589 1287.39 44.7161 1287.39 M42.9973 1293.25 Q38.1912 1293.31 35.3266 1295.95 Q32.4621 1298.56 32.4621 1302.89 Q32.4621 1307.79 35.2312 1310.75 Q38.0002 1313.68 43.0292 1314.13 L42.9973 1293.25 Z" fill="#000000" fill-rule="evenodd" fill-opacity="1"></path><path clip-path="url(#clip850)" d="M33.8307 1257.12 Q33.2578 1258.11 33.0032 1259.29 Q32.7167 1260.43 32.7167 1261.83 Q32.7167 1266.8 35.9632 1269.47 Q39.1779 1272.11 45.2253 1272.11 L64.0042 1272.11 L64.0042 1278 L28.3562 1278 L28.3562 1272.11 L33.8944 1272.11 Q30.6479 1270.27 29.0883 1267.31 Q27.4968 1264.35 27.4968 1260.11 Q27.4968 1259.51 27.5923 1258.78 Q27.656 1258.04 27.8151 1257.15 L33.8307 1257.12 Z" fill="#000000" fill-rule="evenodd" fill-opacity="1"></path><path clip-path="url(#clip850)" d="M46.0847 1234.78 Q46.0847 1241.88 47.7079 1244.61 Q49.3312 1247.35 53.2461 1247.35 Q56.3653 1247.35 58.2114 1245.31 Q60.0256 1243.24 60.0256 1239.71 Q60.0256 1234.84 56.5881 1231.91 Q53.1188 1228.95 47.3897 1228.95 L46.0847 1228.95 L46.0847 1234.78 M43.6657 1223.1 L64.0042 1223.1 L64.0042 1228.95 L58.5933 1228.95 Q61.8398 1230.96 63.3994 1233.95 Q64.9272 1236.94 64.9272 1241.27 Q64.9272 1246.75 61.8716 1249.99 Q58.7843 1253.21 53.6281 1253.21 Q47.6125 1253.21 44.5569 1249.2 Q41.5014 1245.15 41.5014 1237.16 L41.5014 1228.95 L40.9285 1228.95 Q36.8862 1228.95 34.6901 1231.63 Q32.4621 1234.27 32.4621 1239.07 Q32.4621 1242.13 33.1941 1245.03 Q33.9262 1247.92 35.3903 1250.6 L29.9795 1250.6 Q28.7381 1247.38 28.1334 1244.36 Q27.4968 1241.33 27.4968 1238.47 Q27.4968 1230.74 31.5072 1226.92 Q35.5176 1223.1 43.6657 1223.1 Z" fill="#000000" fill-rule="evenodd" fill-opacity="1"></path><path clip-path="url(#clip850)" d="M45.7664 1187.58 Q39.4007 1187.58 35.8996 1190.22 Q32.3984 1192.83 32.3984 1197.57 Q32.3984 1202.28 35.8996 1204.92 Q39.4007 1207.53 45.7664 1207.53 Q52.1003 1207.53 55.6014 1204.92 Q59.1026 1202.28 59.1026 1197.57 Q59.1026 1192.83 55.6014 1190.22 Q52.1003 1187.58 45.7664 1187.58 M59.58 1181.72 Q68.683 1181.72 73.1071 1185.76 Q77.5631 1189.8 77.5631 1198.14 Q77.5631 1201.23 77.0857 1203.97 Q76.6401 1206.7 75.6852 1209.28 L69.9879 1209.28 Q71.3884 1206.7 72.0568 1204.19 Q72.7252 1201.68 72.7252 1199.07 Q72.7252 1193.3 69.7015 1190.44 Q66.7096 1187.58 60.6303 1187.58 L57.7339 1187.58 Q60.885 1189.39 62.4446 1192.22 Q64.0042 1195.06 64.0042 1199 Q64.0042 1205.56 59.0071 1209.57 Q54.01 1213.58 45.7664 1213.58 Q37.491 1213.58 32.4939 1209.57 Q27.4968 1205.56 27.4968 1199 Q27.4968 1195.06 29.0564 1192.22 Q30.616 1189.39 33.7671 1187.58 L28.3562 1187.58 L28.3562 1181.72 L59.58 1181.72 Z" fill="#000000" fill-rule="evenodd" fill-opacity="1"></path><path clip-path="url(#clip850)" d="M44.7161 1139.16 L47.5806 1139.16 L47.5806 1166.09 Q53.6281 1165.71 56.8109 1162.46 Q59.9619 1159.18 59.9619 1153.36 Q59.9619 1149.99 59.1344 1146.84 Q58.3069 1143.65 56.6518 1140.53 L62.1899 1140.53 Q63.5267 1143.68 64.227 1146.99 Q64.9272 1150.3 64.9272 1153.71 Q64.9272 1162.24 59.9619 1167.24 Q54.9967 1172.2 46.5303 1172.2 Q37.7774 1172.2 32.6531 1167.49 Q27.4968 1162.75 27.4968 1154.73 Q27.4968 1147.54 32.1438 1143.37 Q36.7589 1139.16 44.7161 1139.16 M42.9973 1145.02 Q38.1912 1145.08 35.3266 1147.73 Q32.4621 1150.34 32.4621 1154.67 Q32.4621 1159.57 35.2312 1162.53 Q38.0002 1165.45 43.0292 1165.9 L42.9973 1145.02 Z" fill="#000000" fill-rule="evenodd" fill-opacity="1"></path><path clip-path="url(#clip850)" d="M28.3562 1113.03 L28.3562 1106.83 L58.275 1095.69 L28.3562 1084.55 L28.3562 1078.34 L64.0042 1091.71 L64.0042 1099.67 L28.3562 1113.03 Z" fill="#000000" fill-rule="evenodd" fill-opacity="1"></path><path clip-path="url(#clip850)" d="M32.4621 1056.44 Q32.4621 1061.15 36.1542 1063.89 Q39.8145 1066.63 46.212 1066.63 Q52.6095 1066.63 56.3017 1063.92 Q59.9619 1061.18 59.9619 1056.44 Q59.9619 1051.76 56.2698 1049.03 Q52.5777 1046.29 46.212 1046.29 Q39.8781 1046.29 36.186 1049.03 Q32.4621 1051.76 32.4621 1056.44 M27.4968 1056.44 Q27.4968 1048.8 32.4621 1044.44 Q37.4273 1040.08 46.212 1040.08 Q54.9649 1040.08 59.9619 1044.44 Q64.9272 1048.8 64.9272 1056.44 Q64.9272 1064.11 59.9619 1068.47 Q54.9649 1072.8 46.212 1072.8 Q37.4273 1072.8 32.4621 1068.47 Q27.4968 1064.11 27.4968 1056.44 Z" fill="#000000" fill-rule="evenodd" fill-opacity="1"></path><path clip-path="url(#clip850)" d="M14.479 1030.37 L14.479 1024.52 L64.0042 1024.52 L64.0042 1030.37 L14.479 1030.37 Z" fill="#000000" fill-rule="evenodd" fill-opacity="1"></path><path clip-path="url(#clip850)" d="M49.9359 1012.87 L28.3562 1012.87 L28.3562 1007.01 L49.7131 1007.01 Q54.7739 1007.01 57.3202 1005.04 Q59.8346 1003.07 59.8346 999.119 Q59.8346 994.377 56.8109 991.639 Q53.7872 988.87 48.5673 988.87 L28.3562 988.87 L28.3562 983.014 L64.0042 983.014 L64.0042 988.87 L58.5296 988.87 Q61.7762 991.003 63.3676 993.836 Q64.9272 996.636 64.9272 1000.36 Q64.9272 1006.5 61.1078 1009.69 Q57.2883 1012.87 49.9359 1012.87 M27.4968 998.132 L27.4968 998.132 Z" fill="#000000" fill-rule="evenodd" fill-opacity="1"></path><path clip-path="url(#clip850)" d="M35.1993 943.196 Q31.2526 941 29.3747 937.945 Q27.4968 934.889 27.4968 930.751 Q27.4968 925.181 31.4117 922.158 Q35.2948 919.134 42.4881 919.134 L64.0042 919.134 L64.0042 925.022 L42.679 925.022 Q37.5546 925.022 35.072 926.836 Q32.5894 928.651 32.5894 932.375 Q32.5894 936.926 35.6131 939.568 Q38.6368 942.21 43.8567 942.21 L64.0042 942.21 L64.0042 948.098 L42.679 948.098 Q37.5228 948.098 35.072 949.912 Q32.5894 951.726 32.5894 955.514 Q32.5894 960.002 35.6449 962.644 Q38.6686 965.285 43.8567 965.285 L64.0042 965.285 L64.0042 971.174 L28.3562 971.174 L28.3562 965.285 L33.8944 965.285 Q30.616 963.28 29.0564 960.479 Q27.4968 957.678 27.4968 953.827 Q27.4968 949.944 29.4702 947.239 Q31.4436 944.501 35.1993 943.196 Z" fill="#000000" fill-rule="evenodd" fill-opacity="1"></path><path clip-path="url(#clip850)" d="M44.7161 876.961 L47.5806 876.961 L47.5806 903.888 Q53.6281 903.506 56.8109 900.26 Q59.9619 896.981 59.9619 891.157 Q59.9619 887.783 59.1344 884.632 Q58.3069 881.449 56.6518 878.33 L62.1899 878.33 Q63.5267 881.481 64.227 884.791 Q64.9272 888.101 64.9272 891.507 Q64.9272 900.037 59.9619 905.034 Q54.9967 909.999 46.5303 909.999 Q37.7774 909.999 32.6531 905.289 Q27.4968 900.546 27.4968 892.525 Q27.4968 885.332 32.1438 881.163 Q36.7589 876.961 44.7161 876.961 M42.9973 882.818 Q38.1912 882.881 35.3266 885.523 Q32.4621 888.133 32.4621 892.462 Q32.4621 897.363 35.2312 900.323 Q38.0002 903.252 43.0292 903.697 L42.9973 882.818 Z" fill="#000000" fill-rule="evenodd" fill-opacity="1"></path><path clip-path="url(#clip850)" d="M58.657 840.963 L77.5631 840.963 L77.5631 846.851 L28.3562 846.851 L28.3562 840.963 L33.7671 840.963 Q30.5842 839.117 29.0564 836.316 Q27.4968 833.483 27.4968 829.568 Q27.4968 823.075 32.6531 819.033 Q37.8093 814.959 46.212 814.959 Q54.6147 814.959 59.771 819.033 Q64.9272 823.075 64.9272 829.568 Q64.9272 833.483 63.3994 836.316 Q61.8398 839.117 58.657 840.963 M46.212 821.038 Q39.7508 821.038 36.0905 823.712 Q32.3984 826.354 32.3984 831.001 Q32.3984 835.648 36.0905 838.321 Q39.7508 840.963 46.212 840.963 Q52.6732 840.963 56.3653 838.321 Q60.0256 835.648 60.0256 831.001 Q60.0256 826.354 56.3653 823.712 Q52.6732 821.038 46.212 821.038 Z" fill="#000000" fill-rule="evenodd" fill-opacity="1"></path><path clip-path="url(#clip850)" d="M44.7161 774.76 L47.5806 774.76 L47.5806 801.687 Q53.6281 801.305 56.8109 798.058 Q59.9619 794.78 59.9619 788.955 Q59.9619 785.581 59.1344 782.43 Q58.3069 779.248 56.6518 776.128 L62.1899 776.128 Q63.5267 779.279 64.227 782.59 Q64.9272 785.9 64.9272 789.305 Q64.9272 797.835 59.9619 802.832 Q54.9967 807.798 46.5303 807.798 Q37.7774 807.798 32.6531 803.087 Q27.4968 798.345 27.4968 790.324 Q27.4968 783.131 32.1438 778.961 Q36.7589 774.76 44.7161 774.76 M42.9973 780.616 Q38.1912 780.68 35.3266 783.322 Q32.4621 785.932 32.4621 790.26 Q32.4621 795.162 35.2312 798.122 Q38.0002 801.05 43.0292 801.496 L42.9973 780.616 Z" fill="#000000" fill-rule="evenodd" fill-opacity="1"></path><path clip-path="url(#clip850)" d="M33.8307 744.491 Q33.2578 745.477 33.0032 746.655 Q32.7167 747.801 32.7167 749.201 Q32.7167 754.167 35.9632 756.84 Q39.1779 759.482 45.2253 759.482 L64.0042 759.482 L64.0042 765.37 L28.3562 765.37 L28.3562 759.482 L33.8944 759.482 Q30.6479 757.636 29.0883 754.676 Q27.4968 751.716 27.4968 747.483 Q27.4968 746.878 27.5923 746.146 Q27.656 745.414 27.8151 744.523 L33.8307 744.491 Z" fill="#000000" fill-rule="evenodd" fill-opacity="1"></path><path clip-path="url(#clip850)" d="M46.0847 701.427 Q46.0847 708.525 47.7079 711.262 Q49.3312 713.999 53.2461 713.999 Q56.3653 713.999 58.2114 711.962 Q60.0256 709.893 60.0256 706.36 Q60.0256 701.49 56.5881 698.562 Q53.1188 695.602 47.3897 695.602 L46.0847 695.602 L46.0847 701.427 M43.6657 689.746 L64.0042 689.746 L64.0042 695.602 L58.5933 695.602 Q61.8398 697.607 63.3994 700.599 Q64.9272 703.591 64.9272 707.92 Q64.9272 713.394 61.8716 716.641 Q58.7843 719.855 53.6281 719.855 Q47.6125 719.855 44.5569 715.845 Q41.5014 711.803 41.5014 703.814 L41.5014 695.602 L40.9285 695.602 Q36.8862 695.602 34.6901 698.276 Q32.4621 700.918 32.4621 705.724 Q32.4621 708.779 33.1941 711.676 Q33.9262 714.572 35.3903 717.246 L29.9795 717.246 Q28.7381 714.031 28.1334 711.007 Q27.4968 707.983 27.4968 705.119 Q27.4968 697.385 31.5072 693.565 Q35.5176 689.746 43.6657 689.746 Z" fill="#000000" fill-rule="evenodd" fill-opacity="1"></path><path clip-path="url(#clip850)" d="M18.2347 671.89 L28.3562 671.89 L28.3562 659.827 L32.9077 659.827 L32.9077 671.89 L52.2594 671.89 Q56.6199 671.89 57.8613 670.712 Q59.1026 669.503 59.1026 665.842 L59.1026 659.827 L64.0042 659.827 L64.0042 665.842 Q64.0042 672.622 61.4897 675.2 Q58.9434 677.778 52.2594 677.778 L32.9077 677.778 L32.9077 682.075 L28.3562 682.075 L28.3562 677.778 L18.2347 677.778 L18.2347 671.89 Z" fill="#000000" fill-rule="evenodd" fill-opacity="1"></path><path clip-path="url(#clip850)" d="M32.4621 638.311 Q32.4621 643.021 36.1542 645.759 Q39.8145 648.496 46.212 648.496 Q52.6095 648.496 56.3017 645.79 Q59.9619 643.053 59.9619 638.311 Q59.9619 633.632 56.2698 630.895 Q52.5777 628.157 46.212 628.157 Q39.8781 628.157 36.186 630.895 Q32.4621 633.632 32.4621 638.311 M27.4968 638.311 Q27.4968 630.672 32.4621 626.311 Q37.4273 621.951 46.212 621.951 Q54.9649 621.951 59.9619 626.311 Q64.9272 630.672 64.9272 638.311 Q64.9272 645.981 59.9619 650.342 Q54.9649 654.671 46.212 654.671 Q37.4273 654.671 32.4621 650.342 Q27.4968 645.981 27.4968 638.311 Z" fill="#000000" fill-rule="evenodd" fill-opacity="1"></path><path clip-path="url(#clip850)" d="M35.1993 584.489 Q31.2526 582.293 29.3747 579.237 Q27.4968 576.181 27.4968 572.044 Q27.4968 566.474 31.4117 563.45 Q35.2948 560.426 42.4881 560.426 L64.0042 560.426 L64.0042 566.315 L42.679 566.315 Q37.5546 566.315 35.072 568.129 Q32.5894 569.943 32.5894 573.667 Q32.5894 578.219 35.6131 580.86 Q38.6368 583.502 43.8567 583.502 L64.0042 583.502 L64.0042 589.39 L42.679 589.39 Q37.5228 589.39 35.072 591.205 Q32.5894 593.019 32.5894 596.806 Q32.5894 601.294 35.6449 603.936 Q38.6686 606.578 43.8567 606.578 L64.0042 606.578 L64.0042 612.466 L28.3562 612.466 L28.3562 606.578 L33.8944 606.578 Q30.616 604.573 29.0564 601.772 Q27.4968 598.971 27.4968 595.119 Q27.4968 591.236 29.4702 588.531 Q31.4436 585.794 35.1993 584.489 Z" fill="#000000" fill-rule="evenodd" fill-opacity="1"></path><path clip-path="url(#clip850)" d="M16.4842 538.337 L16.4842 532.927 L70.0516 549.477 L70.0516 554.888 L16.4842 538.337 Z" fill="#000000" fill-rule="evenodd" fill-opacity="1"></path><path clip-path="url(#clip850)" d="M22.818 510.647 L46.4666 519.368 L46.4666 501.894 L22.818 510.647 M16.4842 514.275 L16.4842 506.986 L64.0042 488.876 L64.0042 495.56 L51.8138 499.889 L51.8138 521.309 L64.0042 525.638 L64.0042 532.417 L16.4842 514.275 Z" fill="#000000" fill-rule="evenodd" fill-opacity="1"></path><path clip-path="url(#clip850)" d="M42.4881 452.559 L64.0042 452.559 L64.0042 458.416 L42.679 458.416 Q37.6183 458.416 35.1038 460.389 Q32.5894 462.363 32.5894 466.309 Q32.5894 471.052 35.6131 473.789 Q38.6368 476.526 43.8567 476.526 L64.0042 476.526 L64.0042 482.415 L28.3562 482.415 L28.3562 476.526 L33.8944 476.526 Q30.6797 474.426 29.0883 471.593 Q27.4968 468.728 27.4968 465.004 Q27.4968 458.862 31.3163 455.71 Q35.1038 452.559 42.4881 452.559 Z" fill="#000000" fill-rule="evenodd" fill-opacity="1"></path><path clip-path="url(#clip850)" d="M45.7664 417.421 Q39.4007 417.421 35.8996 420.063 Q32.3984 422.672 32.3984 427.415 Q32.3984 432.126 35.8996 434.767 Q39.4007 437.377 45.7664 437.377 Q52.1003 437.377 55.6014 434.767 Q59.1026 432.126 59.1026 427.415 Q59.1026 422.672 55.6014 420.063 Q52.1003 417.421 45.7664 417.421 M59.58 411.564 Q68.683 411.564 73.1071 415.607 Q77.5631 419.649 77.5631 427.988 Q77.5631 431.075 77.0857 433.812 Q76.6401 436.55 75.6852 439.128 L69.9879 439.128 Q71.3884 436.55 72.0568 434.035 Q72.7252 431.521 72.7252 428.911 Q72.7252 423.15 69.7015 420.285 Q66.7096 417.421 60.6303 417.421 L57.7339 417.421 Q60.885 419.235 62.4446 422.068 Q64.0042 424.9 64.0042 428.847 Q64.0042 435.404 59.0071 439.414 Q54.01 443.425 45.7664 443.425 Q37.491 443.425 32.4939 439.414 Q27.4968 435.404 27.4968 428.847 Q27.4968 424.9 29.0564 422.068 Q30.616 419.235 33.7671 417.421 L28.3562 417.421 L28.3562 411.564 L59.58 411.564 Z" fill="#000000" fill-rule="evenodd" fill-opacity="1"></path><path clip-path="url(#clip850)" d="M29.4065 376.776 L34.9447 376.776 Q33.6716 379.258 33.035 381.932 Q32.3984 384.606 32.3984 387.47 Q32.3984 391.831 33.7352 394.027 Q35.072 396.191 37.7456 396.191 Q39.7826 396.191 40.9603 394.632 Q42.1061 393.072 43.1565 388.361 L43.6021 386.356 Q44.9389 380.118 47.3897 377.508 Q49.8086 374.866 54.1691 374.866 Q59.1344 374.866 62.0308 378.813 Q64.9272 382.728 64.9272 389.603 Q64.9272 392.467 64.3543 395.586 Q63.8132 398.674 62.6992 402.111 L56.6518 402.111 Q58.3387 398.865 59.198 395.714 Q60.0256 392.563 60.0256 389.475 Q60.0256 385.338 58.6251 383.11 Q57.1929 380.882 54.6147 380.882 Q52.2276 380.882 50.9545 382.505 Q49.6813 384.096 48.5037 389.539 L48.0262 391.576 Q46.8804 397.019 44.5251 399.438 Q42.138 401.857 38.0002 401.857 Q32.9713 401.857 30.2341 398.292 Q27.4968 394.727 27.4968 388.17 Q27.4968 384.924 27.9743 382.059 Q28.4517 379.195 29.4065 376.776 Z" fill="#000000" fill-rule="evenodd" fill-opacity="1"></path><path clip-path="url(#clip850)" d="M18.2347 359.747 L28.3562 359.747 L28.3562 347.684 L32.9077 347.684 L32.9077 359.747 L52.2594 359.747 Q56.6199 359.747 57.8613 358.57 Q59.1026 357.36 59.1026 353.7 L59.1026 347.684 L64.0042 347.684 L64.0042 353.7 Q64.0042 360.48 61.4897 363.058 Q58.9434 365.636 52.2594 365.636 L32.9077 365.636 L32.9077 369.933 L28.3562 369.933 L28.3562 365.636 L18.2347 365.636 L18.2347 359.747 Z" fill="#000000" fill-rule="evenodd" fill-opacity="1"></path><path clip-path="url(#clip850)" d="M33.8307 319.325 Q33.2578 320.312 33.0032 321.49 Q32.7167 322.635 32.7167 324.036 Q32.7167 329.001 35.9632 331.675 Q39.1779 334.316 45.2253 334.316 L64.0042 334.316 L64.0042 340.205 L28.3562 340.205 L28.3562 334.316 L33.8944 334.316 Q30.6479 332.47 29.0883 329.51 Q27.4968 326.55 27.4968 322.317 Q27.4968 321.712 27.5923 320.98 Q27.656 320.248 27.8151 319.357 L33.8307 319.325 Z" fill="#000000" fill-rule="evenodd" fill-opacity="1"></path><path clip-path="url(#clip850)" d="M32.4621 300.801 Q32.4621 305.512 36.1542 308.249 Q39.8145 310.986 46.212 310.986 Q52.6095 310.986 56.3017 308.281 Q59.9619 305.543 59.9619 300.801 Q59.9619 296.122 56.2698 293.385 Q52.5777 290.648 46.212 290.648 Q39.8781 290.648 36.186 293.385 Q32.4621 296.122 32.4621 300.801 M27.4968 300.801 Q27.4968 293.162 32.4621 288.802 Q37.4273 284.441 46.212 284.441 Q54.9649 284.441 59.9619 288.802 Q64.9272 293.162 64.9272 300.801 Q64.9272 308.472 59.9619 312.832 Q54.9649 317.161 46.212 317.161 Q37.4273 317.161 32.4621 312.832 Q27.4968 308.472 27.4968 300.801 Z" fill="#000000" fill-rule="evenodd" fill-opacity="1"></path><path clip-path="url(#clip850)" d="M35.1993 246.979 Q31.2526 244.783 29.3747 241.727 Q27.4968 238.672 27.4968 234.534 Q27.4968 228.964 31.4117 225.94 Q35.2948 222.917 42.4881 222.917 L64.0042 222.917 L64.0042 228.805 L42.679 228.805 Q37.5546 228.805 35.072 230.619 Q32.5894 232.433 32.5894 236.157 Q32.5894 240.709 35.6131 243.351 Q38.6368 245.992 43.8567 245.992 L64.0042 245.992 L64.0042 251.881 L42.679 251.881 Q37.5228 251.881 35.072 253.695 Q32.5894 255.509 32.5894 259.297 Q32.5894 263.784 35.6449 266.426 Q38.6686 269.068 43.8567 269.068 L64.0042 269.068 L64.0042 274.956 L28.3562 274.956 L28.3562 269.068 L33.8944 269.068 Q30.616 267.063 29.0564 264.262 Q27.4968 261.461 27.4968 257.61 Q27.4968 253.727 29.4702 251.021 Q31.4436 248.284 35.1993 246.979 Z" fill="#000000" fill-rule="evenodd" fill-opacity="1"></path><path clip-path="url(#clip850)" d="M16.4842 186.95 L34.2127 169.667 L34.2127 176.065 L21.6404 190.07 L34.2127 204.074 L34.2127 210.472 L16.4842 193.189 L16.4842 186.95 Z" fill="#000000" fill-rule="evenodd" fill-opacity="1"></path><path clip-path="url(#clip850)" d="M38.3822 136.311 Q39.3689 131.696 42.4881 129.118 Q45.6073 126.508 50.1906 126.508 Q57.2247 126.508 61.0759 131.346 Q64.9272 136.184 64.9272 145.096 Q64.9272 148.088 64.3224 151.271 Q63.7495 154.422 62.5719 157.795 L56.3653 157.795 Q57.9249 155.122 58.7206 151.939 Q59.5163 148.756 59.5163 145.287 Q59.5163 139.239 57.1292 136.088 Q54.7421 132.906 50.1906 132.906 Q45.9892 132.906 43.6339 135.866 Q41.2468 138.794 41.2468 144.046 L41.2468 149.584 L35.9632 149.584 L35.9632 143.791 Q35.9632 139.048 34.0853 136.534 Q32.1756 134.02 28.6108 134.02 Q24.9505 134.02 23.009 136.629 Q21.0356 139.208 21.0356 144.046 Q21.0356 146.687 21.6086 149.711 Q22.1815 152.735 23.3909 156.363 L17.6618 156.363 Q16.6433 152.703 16.134 149.52 Q15.6248 146.305 15.6248 143.473 Q15.6248 136.152 18.9668 131.887 Q22.277 127.622 27.9424 127.622 Q31.8892 127.622 34.6264 129.882 Q37.3318 132.142 38.3822 136.311 Z" fill="#000000" fill-rule="evenodd" fill-opacity="1"></path><path clip-path="url(#clip850)" d="M388.165 14.3981 L380.237 35.8968 L396.122 35.8968 L388.165 14.3981 M384.866 8.64 L391.492 8.64 L407.956 51.84 L401.88 51.84 L397.945 40.7579 L378.472 40.7579 L374.536 51.84 L368.373 51.84 L384.866 8.64 Z" fill="#000000" fill-rule="evenodd" fill-opacity="1"></path><path clip-path="url(#clip850)" d="M406.741 19.4328 L412.383 19.4328 L422.511 46.6317 L432.638 19.4328 L438.28 19.4328 L426.128 51.84 L418.894 51.84 L406.741 19.4328 Z" fill="#000000" fill-rule="evenodd" fill-opacity="1"></path><path clip-path="url(#clip850)" d="M473.35 34.3054 L473.35 36.9095 L448.871 36.9095 Q449.218 42.4072 452.169 45.3007 Q455.149 48.1653 460.445 48.1653 Q463.512 48.1653 466.376 47.4129 Q469.27 46.6606 472.105 45.156 L472.105 50.1907 Q469.241 51.406 466.232 52.0425 Q463.222 52.6791 460.126 52.6791 Q452.372 52.6791 447.829 48.1653 Q443.315 43.6514 443.315 35.9547 Q443.315 27.9975 447.597 23.339 Q451.909 18.6515 459.2 18.6515 Q465.74 18.6515 469.53 22.876 Q473.35 27.0716 473.35 34.3054 M468.026 32.7429 Q467.968 28.3737 465.566 25.7695 Q463.193 23.1654 459.258 23.1654 Q454.802 23.1654 452.111 25.6827 Q449.449 28.2001 449.044 32.7718 L468.026 32.7429 Z" fill="#000000" fill-rule="evenodd" fill-opacity="1"></path><path clip-path="url(#clip850)" d="M500.867 24.4096 Q499.97 23.8888 498.899 23.6573 Q497.858 23.3969 496.584 23.3969 Q492.071 23.3969 489.64 26.3482 Q487.238 29.2707 487.238 34.7683 L487.238 51.84 L481.885 51.84 L481.885 19.4328 L487.238 19.4328 L487.238 24.4675 Q488.917 21.5161 491.608 20.0983 Q494.299 18.6515 498.147 18.6515 Q498.697 18.6515 499.362 18.7383 Q500.028 18.7962 500.838 18.9409 L500.867 24.4096 Z" fill="#000000" fill-rule="evenodd" fill-opacity="1"></path><path clip-path="url(#clip850)" d="M521.179 35.5496 Q514.727 35.5496 512.238 37.0253 Q509.75 38.501 509.75 42.06 Q509.75 44.8956 511.602 46.5738 Q513.482 48.2231 516.694 48.2231 Q521.121 48.2231 523.783 45.0981 Q526.474 41.9442 526.474 36.7359 L526.474 35.5496 L521.179 35.5496 M531.798 33.3505 L531.798 51.84 L526.474 51.84 L526.474 46.921 Q524.651 49.8724 521.932 51.2902 Q519.212 52.6791 515.276 52.6791 Q510.3 52.6791 507.348 49.9014 Q504.426 47.0947 504.426 42.4072 Q504.426 36.9385 508.072 34.1607 Q511.746 31.3829 519.009 31.3829 L526.474 31.3829 L526.474 30.8621 Q526.474 27.1874 524.044 25.1908 Q521.642 23.1654 517.273 23.1654 Q514.495 23.1654 511.862 23.8309 Q509.229 24.4964 506.798 25.8274 L506.798 20.9085 Q509.721 19.78 512.47 19.2302 Q515.219 18.6515 517.823 18.6515 Q524.854 18.6515 528.326 22.2973 Q531.798 25.9431 531.798 33.3505 Z" fill="#000000" fill-rule="evenodd" fill-opacity="1"></path><path clip-path="url(#clip850)" d="M564.09 35.2602 Q564.09 29.4732 561.688 26.2904 Q559.316 23.1075 555.004 23.1075 Q550.722 23.1075 548.32 26.2904 Q545.948 29.4732 545.948 35.2602 Q545.948 41.0183 548.32 44.2012 Q550.722 47.384 555.004 47.384 Q559.316 47.384 561.688 44.2012 Q564.09 41.0183 564.09 35.2602 M569.414 47.818 Q569.414 56.0934 565.739 60.1154 Q562.064 64.1663 554.483 64.1663 Q551.677 64.1663 549.188 63.7323 Q546.7 63.3272 544.356 62.4592 L544.356 57.2798 Q546.7 58.5529 548.986 59.1606 Q551.272 59.7682 553.644 59.7682 Q558.882 59.7682 561.486 57.0194 Q564.09 54.2995 564.09 48.7729 L564.09 46.1398 Q562.441 49.0044 559.865 50.4222 Q557.29 51.84 553.702 51.84 Q547.742 51.84 544.096 47.2972 Q540.45 42.7544 540.45 35.2602 Q540.45 27.7371 544.096 23.1943 Q547.742 18.6515 553.702 18.6515 Q557.29 18.6515 559.865 20.0693 Q562.441 21.4872 564.09 24.3517 L564.09 19.4328 L569.414 19.4328 L569.414 47.818 Z" fill="#000000" fill-rule="evenodd" fill-opacity="1"></path><path clip-path="url(#clip850)" d="M608.1 34.3054 L608.1 36.9095 L583.621 36.9095 Q583.968 42.4072 586.92 45.3007 Q589.9 48.1653 595.195 48.1653 Q598.262 48.1653 601.127 47.4129 Q604.02 46.6606 606.856 45.156 L606.856 50.1907 Q603.991 51.406 600.982 52.0425 Q597.973 52.6791 594.877 52.6791 Q587.122 52.6791 582.579 48.1653 Q578.065 43.6514 578.065 35.9547 Q578.065 27.9975 582.348 23.339 Q586.659 18.6515 593.951 18.6515 Q600.49 18.6515 604.281 22.876 Q608.1 27.0716 608.1 34.3054 M602.776 32.7429 Q602.718 28.3737 600.316 25.7695 Q597.944 23.1654 594.009 23.1654 Q589.553 23.1654 586.862 25.6827 Q584.2 28.2001 583.795 32.7718 L602.776 32.7429 Z" fill="#000000" fill-rule="evenodd" fill-opacity="1"></path><path clip-path="url(#clip850)" d="M631.856 19.4328 L637.498 19.4328 L647.625 46.6317 L657.753 19.4328 L663.395 19.4328 L651.242 51.84 L644.008 51.84 L631.856 19.4328 Z" fill="#000000" fill-rule="evenodd" fill-opacity="1"></path><path clip-path="url(#clip850)" d="M683.302 23.1654 Q679.02 23.1654 676.531 26.5218 Q674.043 29.8494 674.043 35.6653 Q674.043 41.4813 676.502 44.8377 Q678.991 48.1653 683.302 48.1653 Q687.556 48.1653 690.044 44.8088 Q692.532 41.4523 692.532 35.6653 Q692.532 29.9072 690.044 26.5508 Q687.556 23.1654 683.302 23.1654 M683.302 18.6515 Q690.247 18.6515 694.211 23.1654 Q698.175 27.6792 698.175 35.6653 Q698.175 43.6225 694.211 48.1653 Q690.247 52.6791 683.302 52.6791 Q676.329 52.6791 672.365 48.1653 Q668.43 43.6225 668.43 35.6653 Q668.43 27.6792 672.365 23.1654 Q676.329 18.6515 683.302 18.6515 Z" fill="#000000" fill-rule="evenodd" fill-opacity="1"></path><path clip-path="url(#clip850)" d="M707 6.81709 L712.324 6.81709 L712.324 51.84 L707 51.84 L707 6.81709 Z" fill="#000000" fill-rule="evenodd" fill-opacity="1"></path><path clip-path="url(#clip850)" d="M722.914 39.0507 L722.914 19.4328 L728.238 19.4328 L728.238 38.8482 Q728.238 43.4488 730.032 45.7636 Q731.826 48.0495 735.414 48.0495 Q739.725 48.0495 742.214 45.3007 Q744.731 42.5519 744.731 37.8065 L744.731 19.4328 L750.055 19.4328 L750.055 51.84 L744.731 51.84 L744.731 46.8632 Q742.793 49.8145 740.217 51.2613 Q737.671 52.6791 734.286 52.6791 Q728.701 52.6791 725.808 49.2069 Q722.914 45.7347 722.914 39.0507 M736.311 18.6515 L736.311 18.6515 Z" fill="#000000" fill-rule="evenodd" fill-opacity="1"></path><path clip-path="url(#clip850)" d="M786.253 25.6538 Q788.25 22.0659 791.027 20.3587 Q793.805 18.6515 797.567 18.6515 Q802.63 18.6515 805.379 22.2105 Q808.128 25.7406 808.128 32.2799 L808.128 51.84 L802.775 51.84 L802.775 32.4535 Q802.775 27.795 801.126 25.5381 Q799.476 23.2811 796.091 23.2811 Q791.953 23.2811 789.552 26.03 Q787.15 28.7788 787.15 33.5241 L787.15 51.84 L781.797 51.84 L781.797 32.4535 Q781.797 27.7661 780.148 25.5381 Q778.498 23.2811 775.055 23.2811 Q770.975 23.2811 768.574 26.0589 Q766.172 28.8077 766.172 33.5241 L766.172 51.84 L760.819 51.84 L760.819 19.4328 L766.172 19.4328 L766.172 24.4675 Q767.995 21.4872 770.541 20.0693 Q773.088 18.6515 776.589 18.6515 Q780.119 18.6515 782.578 20.4455 Q785.067 22.2395 786.253 25.6538 Z" fill="#000000" fill-rule="evenodd" fill-opacity="1"></path><path clip-path="url(#clip850)" d="M846.467 34.3054 L846.467 36.9095 L821.988 36.9095 Q822.335 42.4072 825.286 45.3007 Q828.267 48.1653 833.562 48.1653 Q836.629 48.1653 839.493 47.4129 Q842.387 46.6606 845.223 45.156 L845.223 50.1907 Q842.358 51.406 839.349 52.0425 Q836.34 52.6791 833.243 52.6791 Q825.489 52.6791 820.946 48.1653 Q816.432 43.6514 816.432 35.9547 Q816.432 27.9975 820.715 23.339 Q825.026 18.6515 832.318 18.6515 Q838.857 18.6515 842.647 22.876 Q846.467 27.0716 846.467 34.3054 M841.143 32.7429 Q841.085 28.3737 838.683 25.7695 Q836.311 23.1654 832.375 23.1654 Q827.919 23.1654 825.228 25.6827 Q822.566 28.2001 822.161 32.7718 L841.143 32.7429 Z" fill="#000000" fill-rule="evenodd" fill-opacity="1"></path><path clip-path="url(#clip850)" d="M901.762 34.3054 L901.762 36.9095 L877.283 36.9095 Q877.63 42.4072 880.581 45.3007 Q883.562 48.1653 888.857 48.1653 Q891.924 48.1653 894.788 47.4129 Q897.682 46.6606 900.517 45.156 L900.517 50.1907 Q897.653 51.406 894.644 52.0425 Q891.634 52.6791 888.538 52.6791 Q880.784 52.6791 876.241 48.1653 Q871.727 43.6514 871.727 35.9547 Q871.727 27.9975 876.009 23.339 Q880.321 18.6515 887.612 18.6515 Q894.152 18.6515 897.942 22.876 Q901.762 27.0716 901.762 34.3054 M896.438 32.7429 Q896.38 28.3737 893.978 25.7695 Q891.605 23.1654 887.67 23.1654 Q883.214 23.1654 880.523 25.6827 Q877.861 28.2001 877.456 32.7718 L896.438 32.7429 Z" fill="#000000" fill-rule="evenodd" fill-opacity="1"></path><path clip-path="url(#clip850)" d="M925.228 35.5496 Q918.775 35.5496 916.287 37.0253 Q913.799 38.501 913.799 42.06 Q913.799 44.8956 915.65 46.5738 Q917.531 48.2231 920.743 48.2231 Q925.17 48.2231 927.832 45.0981 Q930.523 41.9442 930.523 36.7359 L930.523 35.5496 L925.228 35.5496 M935.847 33.3505 L935.847 51.84 L930.523 51.84 L930.523 46.921 Q928.7 49.8724 925.98 51.2902 Q923.26 52.6791 919.325 52.6791 Q914.348 52.6791 911.397 49.9014 Q908.475 47.0947 908.475 42.4072 Q908.475 36.9385 912.12 34.1607 Q915.795 31.3829 923.058 31.3829 L930.523 31.3829 L930.523 30.8621 Q930.523 27.1874 928.093 25.1908 Q925.691 23.1654 921.322 23.1654 Q918.544 23.1654 915.911 23.8309 Q913.278 24.4964 910.847 25.8274 L910.847 20.9085 Q913.77 19.78 916.519 19.2302 Q919.267 18.6515 921.871 18.6515 Q928.903 18.6515 932.375 22.2973 Q935.847 25.9431 935.847 33.3505 Z" fill="#000000" fill-rule="evenodd" fill-opacity="1"></path><path clip-path="url(#clip850)" d="M970.135 20.677 L970.135 25.6538 Q967.878 24.4096 965.592 23.802 Q963.335 23.1654 961.021 23.1654 Q955.841 23.1654 952.977 26.464 Q950.112 29.7336 950.112 35.6653 Q950.112 41.597 952.977 44.8956 Q955.841 48.1653 961.021 48.1653 Q963.335 48.1653 965.592 47.5576 Q967.878 46.921 970.135 45.6768 L970.135 50.5958 Q967.907 51.6375 965.506 52.1583 Q963.133 52.6791 960.442 52.6791 Q953.121 52.6791 948.81 48.0784 Q944.499 43.4778 944.499 35.6653 Q944.499 27.7371 948.839 23.1943 Q953.208 18.6515 960.789 18.6515 Q963.249 18.6515 965.592 19.1724 Q967.936 19.6642 970.135 20.677 Z" fill="#000000" fill-rule="evenodd" fill-opacity="1"></path><path clip-path="url(#clip850)" d="M1006.33 32.2799 L1006.33 51.84 L1001.01 51.84 L1001.01 32.4535 Q1001.01 27.8529 999.215 25.567 Q997.421 23.2811 993.833 23.2811 Q989.522 23.2811 987.033 26.03 Q984.545 28.7788 984.545 33.5241 L984.545 51.84 L979.192 51.84 L979.192 6.81709 L984.545 6.81709 L984.545 24.4675 Q986.454 21.545 989.03 20.0983 Q991.634 18.6515 995.019 18.6515 Q1000.6 18.6515 1003.47 22.1237 Q1006.33 25.567 1006.33 32.2799 Z" fill="#000000" fill-rule="evenodd" fill-opacity="1"></path><path clip-path="url(#clip850)" d="M1050.52 35.5496 Q1044.06 35.5496 1041.58 37.0253 Q1039.09 38.501 1039.09 42.06 Q1039.09 44.8956 1040.94 46.5738 Q1042.82 48.2231 1046.03 48.2231 Q1050.46 48.2231 1053.12 45.0981 Q1055.81 41.9442 1055.81 36.7359 L1055.81 35.5496 L1050.52 35.5496 M1061.14 33.3505 L1061.14 51.84 L1055.81 51.84 L1055.81 46.921 Q1053.99 49.8724 1051.27 51.2902 Q1048.55 52.6791 1044.61 52.6791 Q1039.64 52.6791 1036.69 49.9014 Q1033.76 47.0947 1033.76 42.4072 Q1033.76 36.9385 1037.41 34.1607 Q1041.08 31.3829 1048.35 31.3829 L1055.81 31.3829 L1055.81 30.8621 Q1055.81 27.1874 1053.38 25.1908 Q1050.98 23.1654 1046.61 23.1654 Q1043.83 23.1654 1041.2 23.8309 Q1038.57 24.4964 1036.14 25.8274 L1036.14 20.9085 Q1039.06 19.78 1041.81 19.2302 Q1044.56 18.6515 1047.16 18.6515 Q1054.19 18.6515 1057.66 22.2973 Q1061.14 25.9431 1061.14 33.3505 Z" fill="#000000" fill-rule="evenodd" fill-opacity="1"></path><path clip-path="url(#clip850)" d="M1077.37 10.2314 L1077.37 19.4328 L1088.33 19.4328 L1088.33 23.5705 L1077.37 23.5705 L1077.37 41.163 Q1077.37 45.1271 1078.44 46.2555 Q1079.54 47.384 1082.87 47.384 L1088.33 47.384 L1088.33 51.84 L1082.87 51.84 Q1076.7 51.84 1074.36 49.5541 Q1072.02 47.2393 1072.02 41.163 L1072.02 23.5705 L1068.11 23.5705 L1068.11 19.4328 L1072.02 19.4328 L1072.02 10.2314 L1077.37 10.2314 Z" fill="#000000" fill-rule="evenodd" fill-opacity="1"></path><path clip-path="url(#clip850)" d="M1107.89 23.1654 Q1103.61 23.1654 1101.12 26.5218 Q1098.64 29.8494 1098.64 35.6653 Q1098.64 41.4813 1101.1 44.8377 Q1103.58 48.1653 1107.89 48.1653 Q1112.15 48.1653 1114.64 44.8088 Q1117.13 41.4523 1117.13 35.6653 Q1117.13 29.9072 1114.64 26.5508 Q1112.15 23.1654 1107.89 23.1654 M1107.89 18.6515 Q1114.84 18.6515 1118.8 23.1654 Q1122.77 27.6792 1122.77 35.6653 Q1122.77 43.6225 1118.8 48.1653 Q1114.84 52.6791 1107.89 52.6791 Q1100.92 52.6791 1096.96 48.1653 Q1093.02 43.6225 1093.02 35.6653 Q1093.02 27.6792 1096.96 23.1654 Q1100.92 18.6515 1107.89 18.6515 Z" fill="#000000" fill-rule="evenodd" fill-opacity="1"></path><path clip-path="url(#clip850)" d="M1156.82 25.6538 Q1158.82 22.0659 1161.6 20.3587 Q1164.38 18.6515 1168.14 18.6515 Q1173.2 18.6515 1175.95 22.2105 Q1178.7 25.7406 1178.7 32.2799 L1178.7 51.84 L1173.35 51.84 L1173.35 32.4535 Q1173.35 27.795 1171.7 25.5381 Q1170.05 23.2811 1166.66 23.2811 Q1162.52 23.2811 1160.12 26.03 Q1157.72 28.7788 1157.72 33.5241 L1157.72 51.84 L1152.37 51.84 L1152.37 32.4535 Q1152.37 27.7661 1150.72 25.5381 Q1149.07 23.2811 1145.63 23.2811 Q1141.55 23.2811 1139.14 26.0589 Q1136.74 28.8077 1136.74 33.5241 L1136.74 51.84 L1131.39 51.84 L1131.39 19.4328 L1136.74 19.4328 L1136.74 24.4675 Q1138.57 21.4872 1141.11 20.0693 Q1143.66 18.6515 1147.16 18.6515 Q1150.69 18.6515 1153.15 20.4455 Q1155.64 22.2395 1156.82 25.6538 Z" fill="#000000" fill-rule="evenodd" fill-opacity="1"></path><path clip-path="url(#clip850)" d="M1220.71 23.1654 Q1216.43 23.1654 1213.94 26.5218 Q1211.45 29.8494 1211.45 35.6653 Q1211.45 41.4813 1213.91 44.8377 Q1216.4 48.1653 1220.71 48.1653 Q1224.97 48.1653 1227.45 44.8088 Q1229.94 41.4523 1229.94 35.6653 Q1229.94 29.9072 1227.45 26.5508 Q1224.97 23.1654 1220.71 23.1654 M1220.71 18.6515 Q1227.66 18.6515 1231.62 23.1654 Q1235.59 27.6792 1235.59 35.6653 Q1235.59 43.6225 1231.62 48.1653 Q1227.66 52.6791 1220.71 52.6791 Q1213.74 52.6791 1209.78 48.1653 Q1205.84 43.6225 1205.84 35.6653 Q1205.84 27.6792 1209.78 23.1654 Q1213.74 18.6515 1220.71 18.6515 Z" fill="#000000" fill-rule="evenodd" fill-opacity="1"></path><path clip-path="url(#clip850)" d="M1267.73 20.677 L1267.73 25.6538 Q1265.47 24.4096 1263.19 23.802 Q1260.93 23.1654 1258.62 23.1654 Q1253.44 23.1654 1250.57 26.464 Q1247.71 29.7336 1247.71 35.6653 Q1247.71 41.597 1250.57 44.8956 Q1253.44 48.1653 1258.62 48.1653 Q1260.93 48.1653 1263.19 47.5576 Q1265.47 46.921 1267.73 45.6768 L1267.73 50.5958 Q1265.5 51.6375 1263.1 52.1583 Q1260.73 52.6791 1258.04 52.6791 Q1250.72 52.6791 1246.41 48.0784 Q1242.1 43.4778 1242.1 35.6653 Q1242.1 27.7371 1246.44 23.1943 Q1250.8 18.6515 1258.39 18.6515 Q1260.85 18.6515 1263.19 19.1724 Q1265.53 19.6642 1267.73 20.677 Z" fill="#000000" fill-rule="evenodd" fill-opacity="1"></path><path clip-path="url(#clip850)" d="M1300.31 20.677 L1300.31 25.6538 Q1298.06 24.4096 1295.77 23.802 Q1293.51 23.1654 1291.2 23.1654 Q1286.02 23.1654 1283.15 26.464 Q1280.29 29.7336 1280.29 35.6653 Q1280.29 41.597 1283.15 44.8956 Q1286.02 48.1653 1291.2 48.1653 Q1293.51 48.1653 1295.77 47.5576 Q1298.06 46.921 1300.31 45.6768 L1300.31 50.5958 Q1298.08 51.6375 1295.68 52.1583 Q1293.31 52.6791 1290.62 52.6791 Q1283.3 52.6791 1278.99 48.0784 Q1274.68 43.4778 1274.68 35.6653 Q1274.68 27.7371 1279.02 23.1943 Q1283.39 18.6515 1290.97 18.6515 Q1293.43 18.6515 1295.77 19.1724 Q1298.11 19.6642 1300.31 20.677 Z" fill="#000000" fill-rule="evenodd" fill-opacity="1"></path><path clip-path="url(#clip850)" d="M1309.02 39.0507 L1309.02 19.4328 L1314.35 19.4328 L1314.35 38.8482 Q1314.35 43.4488 1316.14 45.7636 Q1317.93 48.0495 1321.52 48.0495 Q1325.83 48.0495 1328.32 45.3007 Q1330.84 42.5519 1330.84 37.8065 L1330.84 19.4328 L1336.16 19.4328 L1336.16 51.84 L1330.84 51.84 L1330.84 46.8632 Q1328.9 49.8145 1326.33 51.2613 Q1323.78 52.6791 1320.39 52.6791 Q1314.81 52.6791 1311.92 49.2069 Q1309.02 45.7347 1309.02 39.0507 M1322.42 18.6515 L1322.42 18.6515 Z" fill="#000000" fill-rule="evenodd" fill-opacity="1"></path><path clip-path="url(#clip850)" d="M1352.28 46.9789 L1352.28 64.1663 L1346.93 64.1663 L1346.93 19.4328 L1352.28 19.4328 L1352.28 24.3517 Q1353.96 21.4582 1356.5 20.0693 Q1359.08 18.6515 1362.64 18.6515 Q1368.54 18.6515 1372.22 23.339 Q1375.92 28.0265 1375.92 35.6653 Q1375.92 43.3042 1372.22 47.9916 Q1368.54 52.6791 1362.64 52.6791 Q1359.08 52.6791 1356.5 51.2902 Q1353.96 49.8724 1352.28 46.9789 M1370.39 35.6653 Q1370.39 29.7915 1367.96 26.464 Q1365.56 23.1075 1361.34 23.1075 Q1357.11 23.1075 1354.68 26.464 Q1352.28 29.7915 1352.28 35.6653 Q1352.28 41.5391 1354.68 44.8956 Q1357.11 48.2231 1361.34 48.2231 Q1365.56 48.2231 1367.96 44.8956 Q1370.39 41.5391 1370.39 35.6653 Z" fill="#000000" fill-rule="evenodd" fill-opacity="1"></path><path clip-path="url(#clip850)" d="M1384.75 19.4328 L1390.07 19.4328 L1390.07 51.84 L1384.75 51.84 L1384.75 19.4328 M1384.75 6.81709 L1390.07 6.81709 L1390.07 13.559 L1384.75 13.559 L1384.75 6.81709 Z" fill="#000000" fill-rule="evenodd" fill-opacity="1"></path><path clip-path="url(#clip850)" d="M1428.93 34.3054 L1428.93 36.9095 L1404.45 36.9095 Q1404.8 42.4072 1407.75 45.3007 Q1410.73 48.1653 1416.02 48.1653 Q1419.09 48.1653 1421.96 47.4129 Q1424.85 46.6606 1427.68 45.156 L1427.68 50.1907 Q1424.82 51.406 1421.81 52.0425 Q1418.8 52.6791 1415.71 52.6791 Q1407.95 52.6791 1403.41 48.1653 Q1398.89 43.6514 1398.89 35.9547 Q1398.89 27.9975 1403.18 23.339 Q1407.49 18.6515 1414.78 18.6515 Q1421.32 18.6515 1425.11 22.876 Q1428.93 27.0716 1428.93 34.3054 M1423.6 32.7429 Q1423.55 28.3737 1421.15 25.7695 Q1418.77 23.1654 1414.84 23.1654 Q1410.38 23.1654 1407.69 25.6827 Q1405.03 28.2001 1404.62 32.7718 L1423.6 32.7429 Z" fill="#000000" fill-rule="evenodd" fill-opacity="1"></path><path clip-path="url(#clip850)" d="M1458.33 20.3876 L1458.33 25.4223 Q1456.07 24.2649 1453.64 23.6862 Q1451.21 23.1075 1448.6 23.1075 Q1444.64 23.1075 1442.64 24.3228 Q1440.68 25.5381 1440.68 27.9686 Q1440.68 29.8204 1442.09 30.891 Q1443.51 31.9327 1447.79 32.8876 L1449.62 33.2926 Q1455.29 34.5079 1457.66 36.7359 Q1460.06 38.935 1460.06 42.8991 Q1460.06 47.4129 1456.48 50.046 Q1452.92 52.6791 1446.67 52.6791 Q1444.06 52.6791 1441.23 52.1583 Q1438.42 51.6664 1435.29 50.6537 L1435.29 45.156 Q1438.25 46.6896 1441.11 47.4708 Q1443.98 48.2231 1446.78 48.2231 Q1450.54 48.2231 1452.57 46.95 Q1454.59 45.6479 1454.59 43.3042 Q1454.59 41.134 1453.12 39.9766 Q1451.67 38.8192 1446.72 37.7486 L1444.87 37.3146 Q1439.92 36.273 1437.73 34.1318 Q1435.53 31.9616 1435.53 28.2001 Q1435.53 23.6283 1438.77 21.1399 Q1442.01 18.6515 1447.97 18.6515 Q1450.92 18.6515 1453.52 19.0855 Q1456.13 19.5196 1458.33 20.3876 Z" fill="#000000" fill-rule="evenodd" fill-opacity="1"></path><path clip-path="url(#clip850)" d="M1487.38 19.4328 L1492.7 19.4328 L1492.7 51.84 L1487.38 51.84 L1487.38 19.4328 M1487.38 6.81709 L1492.7 6.81709 L1492.7 13.559 L1487.38 13.559 L1487.38 6.81709 Z" fill="#000000" fill-rule="evenodd" fill-opacity="1"></path><path clip-path="url(#clip850)" d="M1530.78 32.2799 L1530.78 51.84 L1525.46 51.84 L1525.46 32.4535 Q1525.46 27.8529 1523.66 25.567 Q1521.87 23.2811 1518.28 23.2811 Q1513.97 23.2811 1511.48 26.03 Q1508.99 28.7788 1508.99 33.5241 L1508.99 51.84 L1503.64 51.84 L1503.64 19.4328 L1508.99 19.4328 L1508.99 24.4675 Q1510.9 21.545 1513.48 20.0983 Q1516.08 18.6515 1519.47 18.6515 Q1525.05 18.6515 1527.92 22.1237 Q1530.78 25.567 1530.78 32.2799 Z" fill="#000000" fill-rule="evenodd" fill-opacity="1"></path><path clip-path="url(#clip850)" d="M1565.5 10.2314 L1565.5 19.4328 L1576.47 19.4328 L1576.47 23.5705 L1565.5 23.5705 L1565.5 41.163 Q1565.5 45.1271 1566.57 46.2555 Q1567.67 47.384 1571 47.384 L1576.47 47.384 L1576.47 51.84 L1571 51.84 Q1564.84 51.84 1562.49 49.5541 Q1560.15 47.2393 1560.15 41.163 L1560.15 23.5705 L1556.24 23.5705 L1556.24 19.4328 L1560.15 19.4328 L1560.15 10.2314 L1565.5 10.2314 Z" fill="#000000" fill-rule="evenodd" fill-opacity="1"></path><path clip-path="url(#clip850)" d="M1610.41 32.2799 L1610.41 51.84 L1605.09 51.84 L1605.09 32.4535 Q1605.09 27.8529 1603.29 25.567 Q1601.5 23.2811 1597.91 23.2811 Q1593.6 23.2811 1591.11 26.03 Q1588.62 28.7788 1588.62 33.5241 L1588.62 51.84 L1583.27 51.84 L1583.27 6.81709 L1588.62 6.81709 L1588.62 24.4675 Q1590.53 21.545 1593.11 20.0983 Q1595.71 18.6515 1599.1 18.6515 Q1604.68 18.6515 1607.54 22.1237 Q1610.41 25.567 1610.41 32.2799 Z" fill="#000000" fill-rule="evenodd" fill-opacity="1"></path><path clip-path="url(#clip850)" d="M1648.75 34.3054 L1648.75 36.9095 L1624.27 36.9095 Q1624.62 42.4072 1627.57 45.3007 Q1630.55 48.1653 1635.84 48.1653 Q1638.91 48.1653 1641.78 47.4129 Q1644.67 46.6606 1647.5 45.156 L1647.5 50.1907 Q1644.64 51.406 1641.63 52.0425 Q1638.62 52.6791 1635.53 52.6791 Q1627.77 52.6791 1623.23 48.1653 Q1618.71 43.6514 1618.71 35.9547 Q1618.71 27.9975 1623 23.339 Q1627.31 18.6515 1634.6 18.6515 Q1641.14 18.6515 1644.93 22.876 Q1648.75 27.0716 1648.75 34.3054 M1643.42 32.7429 Q1643.37 28.3737 1640.96 25.7695 Q1638.59 23.1654 1634.66 23.1654 Q1630.2 23.1654 1627.51 25.6827 Q1624.85 28.2001 1624.44 32.7718 L1643.42 32.7429 Z" fill="#000000" fill-rule="evenodd" fill-opacity="1"></path><path clip-path="url(#clip850)" d="M1678.09 46.921 L1687.64 46.921 L1687.64 13.964 L1677.25 16.0474 L1677.25 10.7233 L1687.58 8.64 L1693.42 8.64 L1693.42 46.921 L1702.97 46.921 L1702.97 51.84 L1678.09 51.84 L1678.09 46.921 Z" fill="#000000" fill-rule="evenodd" fill-opacity="1"></path><path clip-path="url(#clip850)" d="M1719.81 46.921 L1740.21 46.921 L1740.21 51.84 L1712.78 51.84 L1712.78 46.921 Q1716.11 43.4778 1721.84 37.6908 Q1727.6 31.8748 1729.07 30.1966 Q1731.88 27.0427 1732.98 24.8726 Q1734.11 22.6735 1734.11 20.5612 Q1734.11 17.118 1731.68 14.9478 Q1729.27 12.7777 1725.4 12.7777 Q1722.65 12.7777 1719.58 13.7326 Q1716.54 14.6874 1713.07 16.6261 L1713.07 10.7233 Q1716.6 9.30551 1719.67 8.58213 Q1722.74 7.85875 1725.28 7.85875 Q1731.99 7.85875 1735.99 11.2152 Q1739.98 14.5717 1739.98 20.1851 Q1739.98 22.8471 1738.97 25.2487 Q1737.98 27.6214 1735.35 30.8621 Q1734.63 31.7012 1730.75 35.7232 Q1726.87 39.7162 1719.81 46.921 Z" fill="#000000" fill-rule="evenodd" fill-opacity="1"></path><path clip-path="url(#clip850)" d="M1764.98 31.3251 Q1760.81 31.3251 1758.41 33.5531 Q1756.04 35.7811 1756.04 39.6873 Q1756.04 43.5935 1758.41 45.8215 Q1760.81 48.0495 1764.98 48.0495 Q1769.15 48.0495 1771.55 45.8215 Q1773.95 43.5646 1773.95 39.6873 Q1773.95 35.7811 1771.55 33.5531 Q1769.18 31.3251 1764.98 31.3251 M1759.14 28.8367 Q1755.37 27.9107 1753.26 25.3355 Q1751.18 22.7603 1751.18 19.0566 Q1751.18 13.8772 1754.85 10.868 Q1758.56 7.85875 1764.98 7.85875 Q1771.43 7.85875 1775.11 10.868 Q1778.78 13.8772 1778.78 19.0566 Q1778.78 22.7603 1776.67 25.3355 Q1774.59 27.9107 1770.85 28.8367 Q1775.08 29.8204 1777.42 32.685 Q1779.8 35.5496 1779.8 39.6873 Q1779.8 45.9662 1775.95 49.3227 Q1772.13 52.6791 1764.98 52.6791 Q1757.83 52.6791 1753.99 49.3227 Q1750.17 45.9662 1750.17 39.6873 Q1750.17 35.5496 1752.54 32.685 Q1754.91 29.8204 1759.14 28.8367 M1756.99 19.6064 Q1756.99 22.9628 1759.08 24.8436 Q1761.19 26.7244 1764.98 26.7244 Q1768.74 26.7244 1770.85 24.8436 Q1773 22.9628 1773 19.6064 Q1773 16.2499 1770.85 14.3691 Q1768.74 12.4884 1764.98 12.4884 Q1761.19 12.4884 1759.08 14.3691 Q1756.99 16.2499 1756.99 19.6064 Z" fill="#000000" fill-rule="evenodd" fill-opacity="1"></path><path clip-path="url(#clip850)" d="M1786.74 33.2348 L1802.34 33.2348 L1802.34 37.9801 L1786.74 37.9801 L1786.74 33.2348 Z" fill="#000000" fill-rule="evenodd" fill-opacity="1"></path><path clip-path="url(#clip850)" d="M1825.54 35.5496 Q1819.09 35.5496 1816.6 37.0253 Q1814.11 38.501 1814.11 42.06 Q1814.11 44.8956 1815.96 46.5738 Q1817.84 48.2231 1821.06 48.2231 Q1825.48 48.2231 1828.15 45.0981 Q1830.84 41.9442 1830.84 36.7359 L1830.84 35.5496 L1825.54 35.5496 M1836.16 33.3505 L1836.16 51.84 L1830.84 51.84 L1830.84 46.921 Q1829.01 49.8724 1826.29 51.2902 Q1823.57 52.6791 1819.64 52.6791 Q1814.66 52.6791 1811.71 49.9014 Q1808.79 47.0947 1808.79 42.4072 Q1808.79 36.9385 1812.43 34.1607 Q1816.11 31.3829 1823.37 31.3829 L1830.84 31.3829 L1830.84 30.8621 Q1830.84 27.1874 1828.41 25.1908 Q1826 23.1654 1821.64 23.1654 Q1818.86 23.1654 1816.22 23.8309 Q1813.59 24.4964 1811.16 25.8274 L1811.16 20.9085 Q1814.08 19.78 1816.83 19.2302 Q1819.58 18.6515 1822.18 18.6515 Q1829.22 18.6515 1832.69 22.2973 Q1836.16 25.9431 1836.16 33.3505 Z" fill="#000000" fill-rule="evenodd" fill-opacity="1"></path><path clip-path="url(#clip850)" d="M1852.39 10.2314 L1852.39 19.4328 L1863.36 19.4328 L1863.36 23.5705 L1852.39 23.5705 L1852.39 41.163 Q1852.39 45.1271 1853.46 46.2555 Q1854.56 47.384 1857.89 47.384 L1863.36 47.384 L1863.36 51.84 L1857.89 51.84 Q1851.73 51.84 1849.38 49.5541 Q1847.04 47.2393 1847.04 41.163 L1847.04 23.5705 L1843.13 23.5705 L1843.13 19.4328 L1847.04 19.4328 L1847.04 10.2314 L1852.39 10.2314 Z" fill="#000000" fill-rule="evenodd" fill-opacity="1"></path><path clip-path="url(#clip850)" d="M1882.92 23.1654 Q1878.64 23.1654 1876.15 26.5218 Q1873.66 29.8494 1873.66 35.6653 Q1873.66 41.4813 1876.12 44.8377 Q1878.61 48.1653 1882.92 48.1653 Q1887.17 48.1653 1889.66 44.8088 Q1892.15 41.4523 1892.15 35.6653 Q1892.15 29.9072 1889.66 26.5508 Q1887.17 23.1654 1882.92 23.1654 M1882.92 18.6515 Q1889.86 18.6515 1893.83 23.1654 Q1897.79 27.6792 1897.79 35.6653 Q1897.79 43.6225 1893.83 48.1653 Q1889.86 52.6791 1882.92 52.6791 Q1875.95 52.6791 1871.98 48.1653 Q1868.05 43.6225 1868.05 35.6653 Q1868.05 27.6792 1871.98 23.1654 Q1875.95 18.6515 1882.92 18.6515 Z" fill="#000000" fill-rule="evenodd" fill-opacity="1"></path><path clip-path="url(#clip850)" d="M1931.85 25.6538 Q1933.85 22.0659 1936.62 20.3587 Q1939.4 18.6515 1943.16 18.6515 Q1948.23 18.6515 1950.97 22.2105 Q1953.72 25.7406 1953.72 32.2799 L1953.72 51.84 L1948.37 51.84 L1948.37 32.4535 Q1948.37 27.795 1946.72 25.5381 Q1945.07 23.2811 1941.69 23.2811 Q1937.55 23.2811 1935.15 26.03 Q1932.75 28.7788 1932.75 33.5241 L1932.75 51.84 L1927.39 51.84 L1927.39 32.4535 Q1927.39 27.7661 1925.74 25.5381 Q1924.09 23.2811 1920.65 23.2811 Q1916.57 23.2811 1914.17 26.0589 Q1911.77 28.8077 1911.77 33.5241 L1911.77 51.84 L1906.41 51.84 L1906.41 19.4328 L1911.77 19.4328 L1911.77 24.4675 Q1913.59 21.4872 1916.14 20.0693 Q1918.68 18.6515 1922.18 18.6515 Q1925.71 18.6515 1928.17 20.4455 Q1930.66 22.2395 1931.85 25.6538 Z" fill="#000000" fill-rule="evenodd" fill-opacity="1"></path><path clip-path="url(#clip850)" d="M2006.44 35.6653 Q2006.44 29.7915 2004.01 26.464 Q2001.61 23.1075 1997.39 23.1075 Q1993.16 23.1075 1990.73 26.464 Q1988.33 29.7915 1988.33 35.6653 Q1988.33 41.5391 1990.73 44.8956 Q1993.16 48.2231 1997.39 48.2231 Q2001.61 48.2231 2004.01 44.8956 Q2006.44 41.5391 2006.44 35.6653 M1988.33 24.3517 Q1990.01 21.4582 1992.55 20.0693 Q1995.13 18.6515 1998.69 18.6515 Q2004.59 18.6515 2008.27 23.339 Q2011.97 28.0265 2011.97 35.6653 Q2011.97 43.3042 2008.27 47.9916 Q2004.59 52.6791 1998.69 52.6791 Q1995.13 52.6791 1992.55 51.2902 Q1990.01 49.8724 1988.33 46.9789 L1988.33 51.84 L1982.98 51.84 L1982.98 6.81709 L1988.33 6.81709 L1988.33 24.3517 Z" fill="#000000" fill-rule="evenodd" fill-opacity="1"></path><path clip-path="url(#clip850)" d="M2044.12 20.677 L2044.12 25.6538 Q2041.86 24.4096 2039.57 23.802 Q2037.32 23.1654 2035 23.1654 Q2029.82 23.1654 2026.96 26.464 Q2024.09 29.7336 2024.09 35.6653 Q2024.09 41.597 2026.96 44.8956 Q2029.82 48.1653 2035 48.1653 Q2037.32 48.1653 2039.57 47.5576 Q2041.86 46.921 2044.12 45.6768 L2044.12 50.5958 Q2041.89 51.6375 2039.49 52.1583 Q2037.11 52.6791 2034.42 52.6791 Q2027.1 52.6791 2022.79 48.0784 Q2018.48 43.4778 2018.48 35.6653 Q2018.48 27.7371 2022.82 23.1943 Q2027.19 18.6515 2034.77 18.6515 Q2037.23 18.6515 2039.57 19.1724 Q2041.92 19.6642 2044.12 20.677 Z" fill="#000000" fill-rule="evenodd" fill-opacity="1"></path><path clip-path="url(#clip850)" d="M2076.7 20.677 L2076.7 25.6538 Q2074.44 24.4096 2072.15 23.802 Q2069.9 23.1654 2067.58 23.1654 Q2062.4 23.1654 2059.54 26.464 Q2056.67 29.7336 2056.67 35.6653 Q2056.67 41.597 2059.54 44.8956 Q2062.4 48.1653 2067.58 48.1653 Q2069.9 48.1653 2072.15 47.5576 Q2074.44 46.921 2076.7 45.6768 L2076.7 50.5958 Q2074.47 51.6375 2072.07 52.1583 Q2069.7 52.6791 2067 52.6791 Q2059.68 52.6791 2055.37 48.0784 Q2051.06 43.4778 2051.06 35.6653 Q2051.06 27.7371 2055.4 23.1943 Q2059.77 18.6515 2067.35 18.6515 Q2069.81 18.6515 2072.15 19.1724 Q2074.5 19.6642 2076.7 20.677 Z" fill="#000000" fill-rule="evenodd" fill-opacity="1"></path><path clip-path="url(#clip850)" d="M2128.06 35.6653 Q2128.06 29.7915 2125.63 26.464 Q2123.23 23.1075 2119 23.1075 Q2114.78 23.1075 2112.35 26.464 Q2109.94 29.7915 2109.94 35.6653 Q2109.94 41.5391 2112.35 44.8956 Q2114.78 48.2231 2119 48.2231 Q2123.23 48.2231 2125.63 44.8956 Q2128.06 41.5391 2128.06 35.6653 M2109.94 24.3517 Q2111.62 21.4582 2114.17 20.0693 Q2116.74 18.6515 2120.3 18.6515 Q2126.21 18.6515 2129.88 23.339 Q2133.58 28.0265 2133.58 35.6653 Q2133.58 43.3042 2129.88 47.9916 Q2126.21 52.6791 2120.3 52.6791 Q2116.74 52.6791 2114.17 51.2902 Q2111.62 49.8724 2109.94 46.9789 L2109.94 51.84 L2104.59 51.84 L2104.59 6.81709 L2109.94 6.81709 L2109.94 24.3517 Z" fill="#000000" fill-rule="evenodd" fill-opacity="1"></path><path clip-path="url(#clip850)" d="M2154.97 23.1654 Q2150.68 23.1654 2148.2 26.5218 Q2145.71 29.8494 2145.71 35.6653 Q2145.71 41.4813 2148.17 44.8377 Q2150.66 48.1653 2154.97 48.1653 Q2159.22 48.1653 2161.71 44.8088 Q2164.2 41.4523 2164.2 35.6653 Q2164.2 29.9072 2161.71 26.5508 Q2159.22 23.1654 2154.97 23.1654 M2154.97 18.6515 Q2161.91 18.6515 2165.88 23.1654 Q2169.84 27.6792 2169.84 35.6653 Q2169.84 43.6225 2165.88 48.1653 Q2161.91 52.6791 2154.97 52.6791 Q2147.99 52.6791 2144.03 48.1653 Q2140.09 43.6225 2140.09 35.6653 Q2140.09 27.6792 2144.03 23.1654 Q2147.99 18.6515 2154.97 18.6515 Z" fill="#000000" fill-rule="evenodd" fill-opacity="1"></path><path clip-path="url(#clip850)" d="M2203.78 19.4328 L2192.06 35.2024 L2204.39 51.84 L2198.11 51.84 L2188.68 39.1086 L2179.24 51.84 L2172.96 51.84 L2185.55 34.8841 L2174.03 19.4328 L2180.31 19.4328 L2188.91 30.9778 L2197.5 19.4328 L2203.78 19.4328 Z" fill="#000000" fill-rule="evenodd" fill-opacity="1"></path><polyline clip-path="url(#clip852)" style="stroke:#009af9; stroke-linecap:round; stroke-linejoin:round; stroke-width:4; stroke-opacity:1; fill:none" points="
  280.366,1315.45 348.146,1308.66 417.448,1377.37 488.307,1146.15 560.757,1212.48 634.834,1385.91 710.575,1259.43 788.017,786.966 867.198,1007.44 948.157,689.944 
  1030.93,731.505 1115.57,817.349 1202.11,707.792 1290.59,646.617 1381.06,598.595 1473.56,733.702 1568.13,590.083 1664.84,386.248 1763.71,476.813 1864.8,273.72 
  1968.17,143.465 2073.85,594.579 2181.91,293.726 2292.4,472.395 
  "></polyline>
<path clip-path="url(#clip850)" d="
M1992.26 253.772 L2281.66 253.772 L2281.66 150.092 L1992.26 150.092  Z
  " fill="#ffffff" fill-rule="evenodd" fill-opacity="1"></path>
<polyline clip-path="url(#clip850)" style="stroke:#000000; stroke-linecap:round; stroke-linejoin:round; stroke-width:4; stroke-opacity:1; fill:none" points="
  1992.26,253.772 2281.66,253.772 2281.66,150.092 1992.26,150.092 1992.26,253.772 
  "></polyline>
<polyline clip-path="url(#clip850)" style="stroke:#009af9; stroke-linecap:round; stroke-linejoin:round; stroke-width:4; stroke-opacity:1; fill:none" points="
  2015.96,201.932 2158.14,201.932 
  "></polyline>
<path clip-path="url(#clip850)" d="M2195.68 221.619 Q2193.88 226.249 2192.16 227.661 Q2190.45 229.073 2187.58 229.073 L2184.18 229.073 L2184.18 225.508 L2186.68 225.508 Q2188.44 225.508 2189.41 224.675 Q2190.38 223.841 2191.56 220.739 L2192.33 218.795 L2181.84 193.286 L2186.35 193.286 L2194.46 213.564 L2202.56 193.286 L2207.07 193.286 L2195.68 221.619 Z" fill="#000000" fill-rule="evenodd" fill-opacity="1"></path><path clip-path="url(#clip850)" d="M2214.36 215.277 L2222 215.277 L2222 188.911 L2213.69 190.578 L2213.69 186.318 L2221.96 184.652 L2226.63 184.652 L2226.63 215.277 L2234.27 215.277 L2234.27 219.212 L2214.36 219.212 L2214.36 215.277 Z" fill="#000000" fill-rule="evenodd" fill-opacity="1"></path></svg>