<svg xmlns="http://www.w3.org/2000/svg" xmlns:xlink="http://www.w3.org/1999/xlink" width="600" height="400" viewBox="0 0 2400 1600">
<defs>
  <clipPath id="clip170">
    <rect x="0" y="0" width="2400" height="1600"></rect>
  </clipPath>
</defs>
<path clip-path="url(#clip170)" d="
M0 1600 L2400 1600 L2400 0 L0 0  Z
  " fill="#ffffff" fill-rule="evenodd" fill-opacity="1"></path>
<defs>
  <clipPath id="clip171">
    <rect x="480" y="0" width="1681" height="1600"></rect>
  </clipPath>
</defs>
<path clip-path="url(#clip170)" d="
M216.436 1486.45 L2352.76 1486.45 L2352.76 47.2441 L216.436 47.2441  Z
  " fill="#ffffff" fill-rule="evenodd" fill-opacity="1"></path>
<defs>
  <clipPath id="clip172">
    <rect x="216" y="47" width="2137" height="1440"></rect>
  </clipPath>
</defs>
<polyline clip-path="url(#clip172)" style="stroke:#000000; stroke-linecap:round; stroke-linejoin:round; stroke-width:2; stroke-opacity:0.1; fill:none" points="
  276.898,1486.45 276.898,47.2441 
  "></polyline>
<polyline clip-path="url(#clip172)" style="stroke:#000000; stroke-linecap:round; stroke-linejoin:round; stroke-width:2; stroke-opacity:0.1; fill:none" points="
  948.697,1486.45 948.697,47.2441 
  "></polyline>
<polyline clip-path="url(#clip172)" style="stroke:#000000; stroke-linecap:round; stroke-linejoin:round; stroke-width:2; stroke-opacity:0.1; fill:none" points="
  1620.5,1486.45 1620.5,47.2441 
  "></polyline>
<polyline clip-path="url(#clip172)" style="stroke:#000000; stroke-linecap:round; stroke-linejoin:round; stroke-width:2; stroke-opacity:0.1; fill:none" points="
  2292.29,1486.45 2292.29,47.2441 
  "></polyline>
<polyline clip-path="url(#clip170)" style="stroke:#000000; stroke-linecap:round; stroke-linejoin:round; stroke-width:4; stroke-opacity:1; fill:none" points="
  216.436,1486.45 2352.76,1486.45 
  "></polyline>
<polyline clip-path="url(#clip170)" style="stroke:#000000; stroke-linecap:round; stroke-linejoin:round; stroke-width:4; stroke-opacity:1; fill:none" points="
  276.898,1486.45 276.898,1467.55 
  "></polyline>
<polyline clip-path="url(#clip170)" style="stroke:#000000; stroke-linecap:round; stroke-linejoin:round; stroke-width:4; stroke-opacity:1; fill:none" points="
  948.697,1486.45 948.697,1467.55 
  "></polyline>
<polyline clip-path="url(#clip170)" style="stroke:#000000; stroke-linecap:round; stroke-linejoin:round; stroke-width:4; stroke-opacity:1; fill:none" points="
  1620.5,1486.45 1620.5,1467.55 
  "></polyline>
<polyline clip-path="url(#clip170)" style="stroke:#000000; stroke-linecap:round; stroke-linejoin:round; stroke-width:4; stroke-opacity:1; fill:none" points="
  2292.29,1486.45 2292.29,1467.55 
  "></polyline>
<path clip-path="url(#clip170)" d="M225.509 1544.91 L241.829 1544.91 L241.829 1548.85 L219.884 1548.85 L219.884 1544.91 Q222.546 1542.16 227.13 1537.53 Q231.736 1532.88 232.917 1531.53 Q235.162 1529.01 236.042 1527.27 Q236.944 1525.51 236.944 1523.82 Q236.944 1521.07 235 1519.33 Q233.079 1517.6 229.977 1517.6 Q227.778 1517.6 225.324 1518.36 Q222.893 1519.13 220.116 1520.68 L220.116 1515.95 Q222.94 1514.82 225.393 1514.24 Q227.847 1513.66 229.884 1513.66 Q235.254 1513.66 238.449 1516.35 Q241.643 1519.03 241.643 1523.52 Q241.643 1525.65 240.833 1527.57 Q240.046 1529.47 237.94 1532.07 Q237.361 1532.74 234.259 1535.95 Q231.157 1539.15 225.509 1544.91 Z" fill="#000000" fill-rule="evenodd" fill-opacity="1"></path><path clip-path="url(#clip170)" d="M255.671 1544.91 L271.99 1544.91 L271.99 1548.85 L250.046 1548.85 L250.046 1544.91 Q252.708 1542.16 257.291 1537.53 Q261.898 1532.88 263.078 1531.53 Q265.324 1529.01 266.203 1527.27 Q267.106 1525.51 267.106 1523.82 Q267.106 1521.07 265.162 1519.33 Q263.24 1517.6 260.139 1517.6 Q257.94 1517.6 255.486 1518.36 Q253.055 1519.13 250.278 1520.68 L250.278 1515.95 Q253.102 1514.82 255.555 1514.24 Q258.009 1513.66 260.046 1513.66 Q265.416 1513.66 268.611 1516.35 Q271.805 1519.03 271.805 1523.52 Q271.805 1525.65 270.995 1527.57 Q270.208 1529.47 268.102 1532.07 Q267.523 1532.74 264.421 1535.95 Q261.319 1539.15 255.671 1544.91 Z" fill="#000000" fill-rule="evenodd" fill-opacity="1"></path><path clip-path="url(#clip170)" d="M291.805 1517.37 Q288.194 1517.37 286.365 1520.93 Q284.56 1524.47 284.56 1531.6 Q284.56 1538.71 286.365 1542.27 Q288.194 1545.82 291.805 1545.82 Q295.439 1545.82 297.245 1542.27 Q299.074 1538.71 299.074 1531.6 Q299.074 1524.47 297.245 1520.93 Q295.439 1517.37 291.805 1517.37 M291.805 1513.66 Q297.615 1513.66 300.671 1518.27 Q303.749 1522.85 303.749 1531.6 Q303.749 1540.33 300.671 1544.94 Q297.615 1549.52 291.805 1549.52 Q285.995 1549.52 282.916 1544.94 Q279.861 1540.33 279.861 1531.6 Q279.861 1522.85 282.916 1518.27 Q285.995 1513.66 291.805 1513.66 Z" fill="#000000" fill-rule="evenodd" fill-opacity="1"></path><path clip-path="url(#clip170)" d="M321.967 1517.37 Q318.356 1517.37 316.527 1520.93 Q314.722 1524.47 314.722 1531.6 Q314.722 1538.71 316.527 1542.27 Q318.356 1545.82 321.967 1545.82 Q325.601 1545.82 327.407 1542.27 Q329.235 1538.71 329.235 1531.6 Q329.235 1524.47 327.407 1520.93 Q325.601 1517.37 321.967 1517.37 M321.967 1513.66 Q327.777 1513.66 330.833 1518.27 Q333.911 1522.85 333.911 1531.6 Q333.911 1540.33 330.833 1544.94 Q327.777 1549.52 321.967 1549.52 Q316.157 1549.52 313.078 1544.94 Q310.023 1540.33 310.023 1531.6 Q310.023 1522.85 313.078 1518.27 Q316.157 1513.66 321.967 1513.66 Z" fill="#000000" fill-rule="evenodd" fill-opacity="1"></path><path clip-path="url(#clip170)" d="M897.308 1544.91 L913.627 1544.91 L913.627 1548.85 L891.683 1548.85 L891.683 1544.91 Q894.345 1542.16 898.928 1537.53 Q903.535 1532.88 904.715 1531.53 Q906.961 1529.01 907.84 1527.27 Q908.743 1525.51 908.743 1523.82 Q908.743 1521.07 906.799 1519.33 Q904.877 1517.6 901.775 1517.6 Q899.576 1517.6 897.123 1518.36 Q894.692 1519.13 891.914 1520.68 L891.914 1515.95 Q894.738 1514.82 897.192 1514.24 Q899.646 1513.66 901.683 1513.66 Q907.053 1513.66 910.248 1516.35 Q913.442 1519.03 913.442 1523.52 Q913.442 1525.65 912.632 1527.57 Q911.845 1529.47 909.738 1532.07 Q909.16 1532.74 906.058 1535.95 Q902.956 1539.15 897.308 1544.91 Z" fill="#000000" fill-rule="evenodd" fill-opacity="1"></path><path clip-path="url(#clip170)" d="M937.609 1530.21 Q940.965 1530.93 942.84 1533.2 Q944.738 1535.47 944.738 1538.8 Q944.738 1543.92 941.22 1546.72 Q937.701 1549.52 931.22 1549.52 Q929.044 1549.52 926.729 1549.08 Q924.437 1548.66 921.984 1547.81 L921.984 1543.29 Q923.928 1544.43 926.243 1545.01 Q928.558 1545.58 931.081 1545.58 Q935.479 1545.58 937.771 1543.85 Q940.085 1542.11 940.085 1538.8 Q940.085 1535.75 937.933 1534.03 Q935.803 1532.3 931.984 1532.3 L927.956 1532.3 L927.956 1528.45 L932.169 1528.45 Q935.618 1528.45 937.447 1527.09 Q939.275 1525.7 939.275 1523.11 Q939.275 1520.45 937.377 1519.03 Q935.502 1517.6 931.984 1517.6 Q930.062 1517.6 927.863 1518.01 Q925.664 1518.43 923.025 1519.31 L923.025 1515.14 Q925.687 1514.4 928.002 1514.03 Q930.34 1513.66 932.4 1513.66 Q937.724 1513.66 940.826 1516.09 Q943.928 1518.5 943.928 1522.62 Q943.928 1525.49 942.285 1527.48 Q940.641 1529.45 937.609 1530.21 Z" fill="#000000" fill-rule="evenodd" fill-opacity="1"></path><path clip-path="url(#clip170)" d="M963.604 1517.37 Q959.993 1517.37 958.164 1520.93 Q956.359 1524.47 956.359 1531.6 Q956.359 1538.71 958.164 1542.27 Q959.993 1545.82 963.604 1545.82 Q967.238 1545.82 969.044 1542.27 Q970.872 1538.71 970.872 1531.6 Q970.872 1524.47 969.044 1520.93 Q967.238 1517.37 963.604 1517.37 M963.604 1513.66 Q969.414 1513.66 972.47 1518.27 Q975.548 1522.85 975.548 1531.6 Q975.548 1540.33 972.47 1544.94 Q969.414 1549.52 963.604 1549.52 Q957.794 1549.52 954.715 1544.94 Q951.659 1540.33 951.659 1531.6 Q951.659 1522.85 954.715 1518.27 Q957.794 1513.66 963.604 1513.66 Z" fill="#000000" fill-rule="evenodd" fill-opacity="1"></path><path clip-path="url(#clip170)" d="M993.766 1517.37 Q990.155 1517.37 988.326 1520.93 Q986.52 1524.47 986.52 1531.6 Q986.52 1538.71 988.326 1542.27 Q990.155 1545.82 993.766 1545.82 Q997.4 1545.82 999.206 1542.27 Q1001.03 1538.71 1001.03 1531.6 Q1001.03 1524.47 999.206 1520.93 Q997.4 1517.37 993.766 1517.37 M993.766 1513.66 Q999.576 1513.66 1002.63 1518.27 Q1005.71 1522.85 1005.71 1531.6 Q1005.71 1540.33 1002.63 1544.94 Q999.576 1549.52 993.766 1549.52 Q987.956 1549.52 984.877 1544.94 Q981.821 1540.33 981.821 1531.6 Q981.821 1522.85 984.877 1518.27 Q987.956 1513.66 993.766 1513.66 Z" fill="#000000" fill-rule="evenodd" fill-opacity="1"></path><path clip-path="url(#clip170)" d="M1569.11 1544.91 L1585.43 1544.91 L1585.43 1548.85 L1563.48 1548.85 L1563.48 1544.91 Q1566.14 1542.16 1570.73 1537.53 Q1575.33 1532.88 1576.51 1531.53 Q1578.76 1529.01 1579.64 1527.27 Q1580.54 1525.51 1580.54 1523.82 Q1580.54 1521.07 1578.6 1519.33 Q1576.68 1517.6 1573.57 1517.6 Q1571.38 1517.6 1568.92 1518.36 Q1566.49 1519.13 1563.71 1520.68 L1563.71 1515.95 Q1566.54 1514.82 1568.99 1514.24 Q1571.44 1513.66 1573.48 1513.66 Q1578.85 1513.66 1582.05 1516.35 Q1585.24 1519.03 1585.24 1523.52 Q1585.24 1525.65 1584.43 1527.57 Q1583.64 1529.47 1581.54 1532.07 Q1580.96 1532.74 1577.86 1535.95 Q1574.75 1539.15 1569.11 1544.91 Z" fill="#000000" fill-rule="evenodd" fill-opacity="1"></path><path clip-path="url(#clip170)" d="M1608.09 1518.36 L1596.28 1536.81 L1608.09 1536.81 L1608.09 1518.36 M1606.86 1514.29 L1612.74 1514.29 L1612.74 1536.81 L1617.67 1536.81 L1617.67 1540.7 L1612.74 1540.7 L1612.74 1548.85 L1608.09 1548.85 L1608.09 1540.7 L1592.49 1540.7 L1592.49 1536.19 L1606.86 1514.29 Z" fill="#000000" fill-rule="evenodd" fill-opacity="1"></path><path clip-path="url(#clip170)" d="M1635.4 1517.37 Q1631.79 1517.37 1629.96 1520.93 Q1628.16 1524.47 1628.16 1531.6 Q1628.16 1538.71 1629.96 1542.27 Q1631.79 1545.82 1635.4 1545.82 Q1639.04 1545.82 1640.84 1542.27 Q1642.67 1538.71 1642.67 1531.6 Q1642.67 1524.47 1640.84 1520.93 Q1639.04 1517.37 1635.4 1517.37 M1635.4 1513.66 Q1641.21 1513.66 1644.27 1518.27 Q1647.35 1522.85 1647.35 1531.6 Q1647.35 1540.33 1644.27 1544.94 Q1641.21 1549.52 1635.4 1549.52 Q1629.59 1549.52 1626.51 1544.94 Q1623.46 1540.33 1623.46 1531.6 Q1623.46 1522.85 1626.51 1518.27 Q1629.59 1513.66 1635.4 1513.66 Z" fill="#000000" fill-rule="evenodd" fill-opacity="1"></path><path clip-path="url(#clip170)" d="M1665.56 1517.37 Q1661.95 1517.37 1660.12 1520.93 Q1658.32 1524.47 1658.32 1531.6 Q1658.32 1538.71 1660.12 1542.27 Q1661.95 1545.82 1665.56 1545.82 Q1669.2 1545.82 1671 1542.27 Q1672.83 1538.71 1672.83 1531.6 Q1672.83 1524.47 1671 1520.93 Q1669.2 1517.37 1665.56 1517.37 M1665.56 1513.66 Q1671.37 1513.66 1674.43 1518.27 Q1677.51 1522.85 1677.51 1531.6 Q1677.51 1540.33 1674.43 1544.94 Q1671.37 1549.52 1665.56 1549.52 Q1659.75 1549.52 1656.68 1544.94 Q1653.62 1540.33 1653.62 1531.6 Q1653.62 1522.85 1656.68 1518.27 Q1659.75 1513.66 1665.56 1513.66 Z" fill="#000000" fill-rule="evenodd" fill-opacity="1"></path><path clip-path="url(#clip170)" d="M2240.91 1544.91 L2257.22 1544.91 L2257.22 1548.85 L2235.28 1548.85 L2235.28 1544.91 Q2237.94 1542.16 2242.53 1537.53 Q2247.13 1532.88 2248.31 1531.53 Q2250.56 1529.01 2251.44 1527.27 Q2252.34 1525.51 2252.34 1523.82 Q2252.34 1521.07 2250.4 1519.33 Q2248.47 1517.6 2245.37 1517.6 Q2243.17 1517.6 2240.72 1518.36 Q2238.29 1519.13 2235.51 1520.68 L2235.51 1515.95 Q2238.34 1514.82 2240.79 1514.24 Q2243.24 1513.66 2245.28 1513.66 Q2250.65 1513.66 2253.85 1516.35 Q2257.04 1519.03 2257.04 1523.52 Q2257.04 1525.65 2256.23 1527.57 Q2255.44 1529.47 2253.34 1532.07 Q2252.76 1532.74 2249.66 1535.95 Q2246.55 1539.15 2240.91 1544.91 Z" fill="#000000" fill-rule="evenodd" fill-opacity="1"></path><path clip-path="url(#clip170)" d="M2267.09 1514.29 L2285.44 1514.29 L2285.44 1518.22 L2271.37 1518.22 L2271.37 1526.7 Q2272.39 1526.35 2273.41 1526.19 Q2274.42 1526 2275.44 1526 Q2281.23 1526 2284.61 1529.17 Q2287.99 1532.34 2287.99 1537.76 Q2287.99 1543.34 2284.52 1546.44 Q2281.04 1549.52 2274.72 1549.52 Q2272.55 1549.52 2270.28 1549.15 Q2268.03 1548.78 2265.63 1548.04 L2265.63 1543.34 Q2267.71 1544.47 2269.93 1545.03 Q2272.16 1545.58 2274.63 1545.58 Q2278.64 1545.58 2280.97 1543.48 Q2283.31 1541.37 2283.31 1537.76 Q2283.31 1534.15 2280.97 1532.04 Q2278.64 1529.94 2274.63 1529.94 Q2272.76 1529.94 2270.88 1530.35 Q2269.03 1530.77 2267.09 1531.65 L2267.09 1514.29 Z" fill="#000000" fill-rule="evenodd" fill-opacity="1"></path><path clip-path="url(#clip170)" d="M2307.2 1517.37 Q2303.59 1517.37 2301.76 1520.93 Q2299.96 1524.47 2299.96 1531.6 Q2299.96 1538.71 2301.76 1542.27 Q2303.59 1545.82 2307.2 1545.82 Q2310.84 1545.82 2312.64 1542.27 Q2314.47 1538.71 2314.47 1531.6 Q2314.47 1524.47 2312.64 1520.93 Q2310.84 1517.37 2307.2 1517.37 M2307.2 1513.66 Q2313.01 1513.66 2316.07 1518.27 Q2319.15 1522.85 2319.15 1531.6 Q2319.15 1540.33 2316.07 1544.94 Q2313.01 1549.52 2307.2 1549.52 Q2301.39 1549.52 2298.31 1544.94 Q2295.26 1540.33 2295.26 1531.6 Q2295.26 1522.85 2298.31 1518.27 Q2301.39 1513.66 2307.2 1513.66 Z" fill="#000000" fill-rule="evenodd" fill-opacity="1"></path><path clip-path="url(#clip170)" d="M2337.36 1517.37 Q2333.75 1517.37 2331.92 1520.93 Q2330.12 1524.47 2330.12 1531.6 Q2330.12 1538.71 2331.92 1542.27 Q2333.75 1545.82 2337.36 1545.82 Q2341 1545.82 2342.8 1542.27 Q2344.63 1538.71 2344.63 1531.6 Q2344.63 1524.47 2342.8 1520.93 Q2341 1517.37 2337.36 1517.37 M2337.36 1513.66 Q2343.17 1513.66 2346.23 1518.27 Q2349.31 1522.85 2349.31 1531.6 Q2349.31 1540.33 2346.23 1544.94 Q2343.17 1549.52 2337.36 1549.52 Q2331.55 1549.52 2328.47 1544.94 Q2325.42 1540.33 2325.42 1531.6 Q2325.42 1522.85 2328.47 1518.27 Q2331.55 1513.66 2337.36 1513.66 Z" fill="#000000" fill-rule="evenodd" fill-opacity="1"></path><polyline clip-path="url(#clip172)" style="stroke:#000000; stroke-linecap:round; stroke-linejoin:round; stroke-width:2; stroke-opacity:0.1; fill:none" points="
  216.436,1263.12 2352.76,1263.12 
  "></polyline>
<polyline clip-path="url(#clip172)" style="stroke:#000000; stroke-linecap:round; stroke-linejoin:round; stroke-width:2; stroke-opacity:0.1; fill:none" points="
  216.436,962.616 2352.76,962.616 
  "></polyline>
<polyline clip-path="url(#clip172)" style="stroke:#000000; stroke-linecap:round; stroke-linejoin:round; stroke-width:2; stroke-opacity:0.1; fill:none" points="
  216.436,662.112 2352.76,662.112 
  "></polyline>
<polyline clip-path="url(#clip172)" style="stroke:#000000; stroke-linecap:round; stroke-linejoin:round; stroke-width:2; stroke-opacity:0.1; fill:none" points="
  216.436,361.609 2352.76,361.609 
  "></polyline>
<polyline clip-path="url(#clip172)" style="stroke:#000000; stroke-linecap:round; stroke-linejoin:round; stroke-width:2; stroke-opacity:0.1; fill:none" points="
  216.436,61.1059 2352.76,61.1059 
  "></polyline>
<polyline clip-path="url(#clip170)" style="stroke:#000000; stroke-linecap:round; stroke-linejoin:round; stroke-width:4; stroke-opacity:1; fill:none" points="
  216.436,1486.45 216.436,47.2441 
  "></polyline>
<polyline clip-path="url(#clip170)" style="stroke:#000000; stroke-linecap:round; stroke-linejoin:round; stroke-width:4; stroke-opacity:1; fill:none" points="
  216.436,1263.12 235.334,1263.12 
  "></polyline>
<polyline clip-path="url(#clip170)" style="stroke:#000000; stroke-linecap:round; stroke-linejoin:round; stroke-width:4; stroke-opacity:1; fill:none" points="
  216.436,962.616 235.334,962.616 
  "></polyline>
<polyline clip-path="url(#clip170)" style="stroke:#000000; stroke-linecap:round; stroke-linejoin:round; stroke-width:4; stroke-opacity:1; fill:none" points="
  216.436,662.112 235.334,662.112 
  "></polyline>
<polyline clip-path="url(#clip170)" style="stroke:#000000; stroke-linecap:round; stroke-linejoin:round; stroke-width:4; stroke-opacity:1; fill:none" points="
  216.436,361.609 235.334,361.609 
  "></polyline>
<polyline clip-path="url(#clip170)" style="stroke:#000000; stroke-linecap:round; stroke-linejoin:round; stroke-width:4; stroke-opacity:1; fill:none" points="
  216.436,61.1059 235.334,61.1059 
  "></polyline>
<path clip-path="url(#clip170)" d="M63.9319 1248.92 Q60.3208 1248.92 58.4921 1252.48 Q56.6865 1256.02 56.6865 1263.15 Q56.6865 1270.26 58.4921 1273.82 Q60.3208 1277.37 63.9319 1277.37 Q67.5661 1277.37 69.3717 1273.82 Q71.2004 1270.26 71.2004 1263.15 Q71.2004 1256.02 69.3717 1252.48 Q67.5661 1248.92 63.9319 1248.92 M63.9319 1245.21 Q69.742 1245.21 72.7976 1249.82 Q75.8763 1254.4 75.8763 1263.15 Q75.8763 1271.88 72.7976 1276.49 Q69.742 1281.07 63.9319 1281.07 Q58.1217 1281.07 55.043 1276.49 Q51.9875 1271.88 51.9875 1263.15 Q51.9875 1254.4 55.043 1249.82 Q58.1217 1245.21 63.9319 1245.21 Z" fill="#000000" fill-rule="evenodd" fill-opacity="1"></path><path clip-path="url(#clip170)" d="M84.0938 1274.52 L88.978 1274.52 L88.978 1280.4 L84.0938 1280.4 L84.0938 1274.52 Z" fill="#000000" fill-rule="evenodd" fill-opacity="1"></path><path clip-path="url(#clip170)" d="M109.163 1248.92 Q105.552 1248.92 103.723 1252.48 Q101.918 1256.02 101.918 1263.15 Q101.918 1270.26 103.723 1273.82 Q105.552 1277.37 109.163 1277.37 Q112.797 1277.37 114.603 1273.82 Q116.432 1270.26 116.432 1263.15 Q116.432 1256.02 114.603 1252.48 Q112.797 1248.92 109.163 1248.92 M109.163 1245.21 Q114.973 1245.21 118.029 1249.82 Q121.107 1254.4 121.107 1263.15 Q121.107 1271.88 118.029 1276.49 Q114.973 1281.07 109.163 1281.07 Q103.353 1281.07 100.274 1276.49 Q97.2187 1271.88 97.2187 1263.15 Q97.2187 1254.4 100.274 1249.82 Q103.353 1245.21 109.163 1245.21 Z" fill="#000000" fill-rule="evenodd" fill-opacity="1"></path><path clip-path="url(#clip170)" d="M139.325 1248.92 Q135.714 1248.92 133.885 1252.48 Q132.08 1256.02 132.08 1263.15 Q132.08 1270.26 133.885 1273.82 Q135.714 1277.37 139.325 1277.37 Q142.959 1277.37 144.765 1273.82 Q146.593 1270.26 146.593 1263.15 Q146.593 1256.02 144.765 1252.48 Q142.959 1248.92 139.325 1248.92 M139.325 1245.21 Q145.135 1245.21 148.191 1249.82 Q151.269 1254.4 151.269 1263.15 Q151.269 1271.88 148.191 1276.49 Q145.135 1281.07 139.325 1281.07 Q133.515 1281.07 130.436 1276.49 Q127.381 1271.88 127.381 1263.15 Q127.381 1254.4 130.436 1249.82 Q133.515 1245.21 139.325 1245.21 Z" fill="#000000" fill-rule="evenodd" fill-opacity="1"></path><path clip-path="url(#clip170)" d="M159.533 1245.84 L177.89 1245.84 L177.89 1249.77 L163.816 1249.77 L163.816 1258.25 Q164.834 1257.9 165.853 1257.74 Q166.871 1257.55 167.89 1257.55 Q173.677 1257.55 177.056 1260.72 Q180.436 1263.89 180.436 1269.31 Q180.436 1274.89 176.964 1277.99 Q173.491 1281.07 167.172 1281.07 Q164.996 1281.07 162.728 1280.7 Q160.482 1280.33 158.075 1279.59 L158.075 1274.89 Q160.158 1276.02 162.38 1276.58 Q164.603 1277.14 167.079 1277.14 Q171.084 1277.14 173.422 1275.03 Q175.76 1272.92 175.76 1269.31 Q175.76 1265.7 173.422 1263.59 Q171.084 1261.49 167.079 1261.49 Q165.204 1261.49 163.329 1261.9 Q161.478 1262.32 159.533 1263.2 L159.533 1245.84 Z" fill="#000000" fill-rule="evenodd" fill-opacity="1"></path><path clip-path="url(#clip170)" d="M62.9365 948.414 Q59.3254 948.414 57.4967 951.979 Q55.6912 955.521 55.6912 962.65 Q55.6912 969.757 57.4967 973.322 Q59.3254 976.863 62.9365 976.863 Q66.5707 976.863 68.3763 973.322 Q70.205 969.757 70.205 962.65 Q70.205 955.521 68.3763 951.979 Q66.5707 948.414 62.9365 948.414 M62.9365 944.711 Q68.7467 944.711 71.8022 949.317 Q74.8809 953.901 74.8809 962.65 Q74.8809 971.377 71.8022 975.984 Q68.7467 980.567 62.9365 980.567 Q57.1264 980.567 54.0477 975.984 Q50.9921 971.377 50.9921 962.65 Q50.9921 953.901 54.0477 949.317 Q57.1264 944.711 62.9365 944.711 Z" fill="#000000" fill-rule="evenodd" fill-opacity="1"></path><path clip-path="url(#clip170)" d="M83.0984 974.016 L87.9827 974.016 L87.9827 979.896 L83.0984 979.896 L83.0984 974.016 Z" fill="#000000" fill-rule="evenodd" fill-opacity="1"></path><path clip-path="url(#clip170)" d="M108.168 948.414 Q104.557 948.414 102.728 951.979 Q100.922 955.521 100.922 962.65 Q100.922 969.757 102.728 973.322 Q104.557 976.863 108.168 976.863 Q111.802 976.863 113.608 973.322 Q115.436 969.757 115.436 962.65 Q115.436 955.521 113.608 951.979 Q111.802 948.414 108.168 948.414 M108.168 944.711 Q113.978 944.711 117.033 949.317 Q120.112 953.901 120.112 962.65 Q120.112 971.377 117.033 975.984 Q113.978 980.567 108.168 980.567 Q102.358 980.567 99.2789 975.984 Q96.2234 971.377 96.2234 962.65 Q96.2234 953.901 99.2789 949.317 Q102.358 944.711 108.168 944.711 Z" fill="#000000" fill-rule="evenodd" fill-opacity="1"></path><path clip-path="url(#clip170)" d="M129.14 975.961 L136.779 975.961 L136.779 949.595 L128.469 951.262 L128.469 947.002 L136.732 945.336 L141.408 945.336 L141.408 975.961 L149.047 975.961 L149.047 979.896 L129.14 979.896 L129.14 975.961 Z" fill="#000000" fill-rule="evenodd" fill-opacity="1"></path><path clip-path="url(#clip170)" d="M168.491 948.414 Q164.88 948.414 163.052 951.979 Q161.246 955.521 161.246 962.65 Q161.246 969.757 163.052 973.322 Q164.88 976.863 168.491 976.863 Q172.126 976.863 173.931 973.322 Q175.76 969.757 175.76 962.65 Q175.76 955.521 173.931 951.979 Q172.126 948.414 168.491 948.414 M168.491 944.711 Q174.302 944.711 177.357 949.317 Q180.436 953.901 180.436 962.65 Q180.436 971.377 177.357 975.984 Q174.302 980.567 168.491 980.567 Q162.681 980.567 159.603 975.984 Q156.547 971.377 156.547 962.65 Q156.547 953.901 159.603 949.317 Q162.681 944.711 168.491 944.711 Z" fill="#000000" fill-rule="evenodd" fill-opacity="1"></path><path clip-path="url(#clip170)" d="M63.9319 647.911 Q60.3208 647.911 58.4921 651.476 Q56.6865 655.018 56.6865 662.147 Q56.6865 669.254 58.4921 672.818 Q60.3208 676.36 63.9319 676.36 Q67.5661 676.36 69.3717 672.818 Q71.2004 669.254 71.2004 662.147 Q71.2004 655.018 69.3717 651.476 Q67.5661 647.911 63.9319 647.911 M63.9319 644.207 Q69.742 644.207 72.7976 648.814 Q75.8763 653.397 75.8763 662.147 Q75.8763 670.874 72.7976 675.48 Q69.742 680.064 63.9319 680.064 Q58.1217 680.064 55.043 675.48 Q51.9875 670.874 51.9875 662.147 Q51.9875 653.397 55.043 648.814 Q58.1217 644.207 63.9319 644.207 Z" fill="#000000" fill-rule="evenodd" fill-opacity="1"></path><path clip-path="url(#clip170)" d="M84.0938 673.513 L88.978 673.513 L88.978 679.392 L84.0938 679.392 L84.0938 673.513 Z" fill="#000000" fill-rule="evenodd" fill-opacity="1"></path><path clip-path="url(#clip170)" d="M109.163 647.911 Q105.552 647.911 103.723 651.476 Q101.918 655.018 101.918 662.147 Q101.918 669.254 103.723 672.818 Q105.552 676.36 109.163 676.36 Q112.797 676.36 114.603 672.818 Q116.432 669.254 116.432 662.147 Q116.432 655.018 114.603 651.476 Q112.797 647.911 109.163 647.911 M109.163 644.207 Q114.973 644.207 118.029 648.814 Q121.107 653.397 121.107 662.147 Q121.107 670.874 118.029 675.48 Q114.973 680.064 109.163 680.064 Q103.353 680.064 100.274 675.48 Q97.2187 670.874 97.2187 662.147 Q97.2187 653.397 100.274 648.814 Q103.353 644.207 109.163 644.207 Z" fill="#000000" fill-rule="evenodd" fill-opacity="1"></path><path clip-path="url(#clip170)" d="M130.135 675.457 L137.774 675.457 L137.774 649.092 L129.464 650.758 L129.464 646.499 L137.728 644.832 L142.404 644.832 L142.404 675.457 L150.043 675.457 L150.043 679.392 L130.135 679.392 L130.135 675.457 Z" fill="#000000" fill-rule="evenodd" fill-opacity="1"></path><path clip-path="url(#clip170)" d="M159.533 644.832 L177.89 644.832 L177.89 648.768 L163.816 648.768 L163.816 657.24 Q164.834 656.893 165.853 656.731 Q166.871 656.545 167.89 656.545 Q173.677 656.545 177.056 659.717 Q180.436 662.888 180.436 668.305 Q180.436 673.883 176.964 676.985 Q173.491 680.064 167.172 680.064 Q164.996 680.064 162.728 679.693 Q160.482 679.323 158.075 678.582 L158.075 673.883 Q160.158 675.017 162.38 675.573 Q164.603 676.129 167.079 676.129 Q171.084 676.129 173.422 674.022 Q175.76 671.916 175.76 668.305 Q175.76 664.693 173.422 662.587 Q171.084 660.481 167.079 660.481 Q165.204 660.481 163.329 660.897 Q161.478 661.314 159.533 662.193 L159.533 644.832 Z" fill="#000000" fill-rule="evenodd" fill-opacity="1"></path><path clip-path="url(#clip170)" d="M62.9365 347.408 Q59.3254 347.408 57.4967 350.973 Q55.6912 354.514 55.6912 361.644 Q55.6912 368.75 57.4967 372.315 Q59.3254 375.857 62.9365 375.857 Q66.5707 375.857 68.3763 372.315 Q70.205 368.75 70.205 361.644 Q70.205 354.514 68.3763 350.973 Q66.5707 347.408 62.9365 347.408 M62.9365 343.704 Q68.7467 343.704 71.8022 348.311 Q74.8809 352.894 74.8809 361.644 Q74.8809 370.371 71.8022 374.977 Q68.7467 379.56 62.9365 379.56 Q57.1264 379.56 54.0477 374.977 Q50.9921 370.371 50.9921 361.644 Q50.9921 352.894 54.0477 348.311 Q57.1264 343.704 62.9365 343.704 Z" fill="#000000" fill-rule="evenodd" fill-opacity="1"></path><path clip-path="url(#clip170)" d="M83.0984 373.01 L87.9827 373.01 L87.9827 378.889 L83.0984 378.889 L83.0984 373.01 Z" fill="#000000" fill-rule="evenodd" fill-opacity="1"></path><path clip-path="url(#clip170)" d="M108.168 347.408 Q104.557 347.408 102.728 350.973 Q100.922 354.514 100.922 361.644 Q100.922 368.75 102.728 372.315 Q104.557 375.857 108.168 375.857 Q111.802 375.857 113.608 372.315 Q115.436 368.75 115.436 361.644 Q115.436 354.514 113.608 350.973 Q111.802 347.408 108.168 347.408 M108.168 343.704 Q113.978 343.704 117.033 348.311 Q120.112 352.894 120.112 361.644 Q120.112 370.371 117.033 374.977 Q113.978 379.56 108.168 379.56 Q102.358 379.56 99.2789 374.977 Q96.2234 370.371 96.2234 361.644 Q96.2234 352.894 99.2789 348.311 Q102.358 343.704 108.168 343.704 Z" fill="#000000" fill-rule="evenodd" fill-opacity="1"></path><path clip-path="url(#clip170)" d="M132.357 374.954 L148.677 374.954 L148.677 378.889 L126.732 378.889 L126.732 374.954 Q129.394 372.199 133.978 367.57 Q138.584 362.917 139.765 361.574 Q142.01 359.051 142.89 357.315 Q143.793 355.556 143.793 353.866 Q143.793 351.112 141.848 349.375 Q139.927 347.639 136.825 347.639 Q134.626 347.639 132.172 348.403 Q129.742 349.167 126.964 350.718 L126.964 345.996 Q129.788 344.862 132.242 344.283 Q134.695 343.704 136.732 343.704 Q142.103 343.704 145.297 346.389 Q148.492 349.075 148.492 353.565 Q148.492 355.695 147.681 357.616 Q146.894 359.514 144.788 362.107 Q144.209 362.778 141.107 365.996 Q138.006 369.19 132.357 374.954 Z" fill="#000000" fill-rule="evenodd" fill-opacity="1"></path><path clip-path="url(#clip170)" d="M168.491 347.408 Q164.88 347.408 163.052 350.973 Q161.246 354.514 161.246 361.644 Q161.246 368.75 163.052 372.315 Q164.88 375.857 168.491 375.857 Q172.126 375.857 173.931 372.315 Q175.76 368.75 175.76 361.644 Q175.76 354.514 173.931 350.973 Q172.126 347.408 168.491 347.408 M168.491 343.704 Q174.302 343.704 177.357 348.311 Q180.436 352.894 180.436 361.644 Q180.436 370.371 177.357 374.977 Q174.302 379.56 168.491 379.56 Q162.681 379.56 159.603 374.977 Q156.547 370.371 156.547 361.644 Q156.547 352.894 159.603 348.311 Q162.681 343.704 168.491 343.704 Z" fill="#000000" fill-rule="evenodd" fill-opacity="1"></path><path clip-path="url(#clip170)" d="M63.9319 46.9046 Q60.3208 46.9046 58.4921 50.4694 Q56.6865 54.011 56.6865 61.1406 Q56.6865 68.2471 58.4921 71.8119 Q60.3208 75.3535 63.9319 75.3535 Q67.5661 75.3535 69.3717 71.8119 Q71.2004 68.2471 71.2004 61.1406 Q71.2004 54.011 69.3717 50.4694 Q67.5661 46.9046 63.9319 46.9046 M63.9319 43.2009 Q69.742 43.2009 72.7976 47.8074 Q75.8763 52.3907 75.8763 61.1406 Q75.8763 69.8674 72.7976 74.4739 Q69.742 79.0572 63.9319 79.0572 Q58.1217 79.0572 55.043 74.4739 Q51.9875 69.8674 51.9875 61.1406 Q51.9875 52.3907 55.043 47.8074 Q58.1217 43.2009 63.9319 43.2009 Z" fill="#000000" fill-rule="evenodd" fill-opacity="1"></path><path clip-path="url(#clip170)" d="M84.0938 72.5063 L88.978 72.5063 L88.978 78.3859 L84.0938 78.3859 L84.0938 72.5063 Z" fill="#000000" fill-rule="evenodd" fill-opacity="1"></path><path clip-path="url(#clip170)" d="M109.163 46.9046 Q105.552 46.9046 103.723 50.4694 Q101.918 54.011 101.918 61.1406 Q101.918 68.2471 103.723 71.8119 Q105.552 75.3535 109.163 75.3535 Q112.797 75.3535 114.603 71.8119 Q116.432 68.2471 116.432 61.1406 Q116.432 54.011 114.603 50.4694 Q112.797 46.9046 109.163 46.9046 M109.163 43.2009 Q114.973 43.2009 118.029 47.8074 Q121.107 52.3907 121.107 61.1406 Q121.107 69.8674 118.029 74.4739 Q114.973 79.0572 109.163 79.0572 Q103.353 79.0572 100.274 74.4739 Q97.2187 69.8674 97.2187 61.1406 Q97.2187 52.3907 100.274 47.8074 Q103.353 43.2009 109.163 43.2009 Z" fill="#000000" fill-rule="evenodd" fill-opacity="1"></path><path clip-path="url(#clip170)" d="M133.353 74.4507 L149.672 74.4507 L149.672 78.3859 L127.728 78.3859 L127.728 74.4507 Q130.39 71.6961 134.973 67.0665 Q139.58 62.4138 140.76 61.0712 Q143.006 58.548 143.885 56.8119 Q144.788 55.0527 144.788 53.3629 Q144.788 50.6083 142.843 48.8722 Q140.922 47.1361 137.82 47.1361 Q135.621 47.1361 133.168 47.8999 Q130.737 48.6638 127.959 50.2148 L127.959 45.4926 Q130.783 44.3583 133.237 43.7796 Q135.691 43.2009 137.728 43.2009 Q143.098 43.2009 146.293 45.8861 Q149.487 48.5712 149.487 53.062 Q149.487 55.1916 148.677 57.1129 Q147.89 59.011 145.783 61.6036 Q145.205 62.2749 142.103 65.4924 Q139.001 68.6869 133.353 74.4507 Z" fill="#000000" fill-rule="evenodd" fill-opacity="1"></path><path clip-path="url(#clip170)" d="M159.533 43.8259 L177.89 43.8259 L177.89 47.7611 L163.816 47.7611 L163.816 56.2332 Q164.834 55.886 165.853 55.724 Q166.871 55.5388 167.89 55.5388 Q173.677 55.5388 177.056 58.7101 Q180.436 61.8814 180.436 67.298 Q180.436 72.8767 176.964 75.9785 Q173.491 79.0572 167.172 79.0572 Q164.996 79.0572 162.728 78.6868 Q160.482 78.3165 158.075 77.5757 L158.075 72.8767 Q160.158 74.0109 162.38 74.5665 Q164.603 75.122 167.079 75.122 Q171.084 75.122 173.422 73.0156 Q175.76 70.9091 175.76 67.298 Q175.76 63.6869 173.422 61.5804 Q171.084 59.474 167.079 59.474 Q165.204 59.474 163.329 59.8906 Q161.478 60.3073 159.533 61.1869 L159.533 43.8259 Z" fill="#000000" fill-rule="evenodd" fill-opacity="1"></path><polyline clip-path="url(#clip172)" style="stroke:#009af9; stroke-linecap:round; stroke-linejoin:round; stroke-width:4; stroke-opacity:1; fill:none" points="
  276.898,1445.72 288.785,1445.62 300.682,1445.52 312.588,1445.41 324.504,1445.3 336.43,1445.18 348.365,1445.05 360.31,1444.92 372.264,1444.79 384.228,1444.65 
  396.202,1444.5 408.185,1444.34 420.178,1444.18 432.181,1444.01 444.193,1443.83 456.215,1443.65 468.246,1443.46 480.288,1443.26 492.338,1443.05 504.399,1442.83 
  516.469,1442.6 528.549,1442.36 540.639,1442.12 552.739,1441.86 564.848,1441.6 576.967,1441.32 589.095,1441.03 601.234,1440.73 613.382,1440.42 625.54,1440.1 
  637.708,1439.76 649.885,1439.41 662.072,1439.05 674.269,1438.68 686.476,1438.29 698.693,1437.88 710.92,1437.46 723.156,1437.03 735.402,1436.58 747.658,1436.11 
  759.924,1435.63 772.2,1435.12 784.486,1434.6 796.781,1434.06 809.087,1433.5 821.402,1432.92 833.727,1432.32 846.063,1431.69 858.408,1431.04 870.763,1430.37 
  883.128,1429.67 895.503,1428.95 907.887,1428.19 920.282,1427.41 932.687,1426.6 945.102,1425.75 957.527,1424.87 969.961,1423.96 982.406,1423 994.861,1422.01 
  1007.33,1420.98 1019.8,1419.9 1032.29,1418.77 1044.78,1417.59 1057.29,1416.36 1069.8,1415.07 1082.33,1413.71 1094.86,1412.29 1107.41,1410.8 1119.96,1409.23 
  1132.53,1407.57 1145.1,1405.82 1157.69,1403.98 1170.28,1402.02 1182.89,1399.94 1195.5,1397.74 1208.13,1395.39 1220.77,1392.89 1233.41,1390.21 1246.07,1387.34 
  1258.74,1384.26 1271.41,1380.96 1284.1,1377.39 1296.8,1373.54 1309.51,1369.37 1322.22,1364.85 1334.95,1359.94 1347.69,1354.6 1360.44,1348.77 1373.2,1342.4 
  1385.97,1335.43 1398.75,1327.79 1411.54,1319.4 1424.34,1310.19 1437.15,1300.05 1449.97,1288.88 1462.8,1276.58 1475.64,1263.01 1488.49,1248.05 1501.35,1231.55 
  1514.22,1213.36 1527.11,1193.31 1540,1171.24 1552.9,1146.96 1565.82,1120.31 1578.74,1091.09 1591.67,1059.16 1604.62,1024.36 1617.57,986.553 1630.54,945.656 
  1643.52,901.621 1656.5,854.466 1669.5,804.284 1682.51,751.262 1695.52,695.694 1708.55,637.999 1721.59,578.729 1734.64,518.576 1747.7,458.372 1760.77,399.081 
  1773.85,341.775 1786.94,287.611 1800.05,237.781 1813.16,193.468 1826.28,155.786 1839.41,125.718 1852.56,104.064 1865.71,91.3856 1878.88,87.9763 1892.05,93.8377 
  1905.24,108.682 1918.44,131.951 1931.64,162.851 1944.86,200.404 1958.09,243.504 1971.33,290.976 1984.58,341.633 1997.84,394.328 2011.11,447.993 2024.4,501.673 
  2037.69,554.54 2050.99,605.904 2064.31,655.218 2077.63,702.063 2090.97,746.144 2104.31,787.274 2117.67,825.355 2131.04,860.367 2144.42,892.351 2157.81,921.393 
  2171.21,947.615 2184.62,971.161 2198.04,992.192 2211.47,1010.88 2224.92,1027.38 2238.37,1041.88 2251.83,1054.53 2265.31,1065.48 2278.8,1074.9 2292.29,1082.9 
  
  "></polyline>
<path clip-path="url(#clip170)" d="
M1991.75 198.898 L2281.55 198.898 L2281.55 95.2176 L1991.75 95.2176  Z
  " fill="#ffffff" fill-rule="evenodd" fill-opacity="1"></path>
<polyline clip-path="url(#clip170)" style="stroke:#000000; stroke-linecap:round; stroke-linejoin:round; stroke-width:4; stroke-opacity:1; fill:none" points="
  1991.75,198.898 2281.55,198.898 2281.55,95.2176 1991.75,95.2176 1991.75,198.898 
  "></polyline>
<polyline clip-path="url(#clip170)" style="stroke:#009af9; stroke-linecap:round; stroke-linejoin:round; stroke-width:4; stroke-opacity:1; fill:none" points="
  2015.48,147.058 2157.9,147.058 
  "></polyline>
<path clip-path="url(#clip170)" d="M2195.48 166.745 Q2193.68 171.375 2191.97 172.787 Q2190.25 174.199 2187.38 174.199 L2183.98 174.199 L2183.98 170.634 L2186.48 170.634 Q2188.24 170.634 2189.21 169.8 Q2190.18 168.967 2191.36 165.865 L2192.13 163.921 L2181.64 138.412 L2186.16 138.412 L2194.26 158.689 L2202.36 138.412 L2206.87 138.412 L2195.48 166.745 Z" fill="#000000" fill-rule="evenodd" fill-opacity="1"></path><path clip-path="url(#clip170)" d="M2214.16 160.402 L2221.8 160.402 L2221.8 134.037 L2213.49 135.703 L2213.49 131.444 L2221.76 129.778 L2226.43 129.778 L2226.43 160.402 L2234.07 160.402 L2234.07 164.338 L2214.16 164.338 L2214.16 160.402 Z" fill="#000000" fill-rule="evenodd" fill-opacity="1"></path></svg>