<svg xmlns="http://www.w3.org/2000/svg" xmlns:xlink="http://www.w3.org/1999/xlink" width="600" height="400" viewBox="0 0 2400 1600">
<defs>
  <clipPath id="clip790">
    <rect x="0" y="0" width="2400" height="1600"></rect>
  </clipPath>
</defs>
<path clip-path="url(#clip790)" d="
M0 1600 L2400 1600 L2400 0 L0 0  Z
  " fill="#ffffff" fill-rule="evenodd" fill-opacity="1"></path>
<defs>
  <clipPath id="clip791">
    <rect x="480" y="0" width="1681" height="1600"></rect>
  </clipPath>
</defs>
<path clip-path="url(#clip790)" d="
M310.352 1423.18 L2352.76 1423.18 L2352.76 106.192 L310.352 106.192  Z
  " fill="#ffffff" fill-rule="evenodd" fill-opacity="1"></path>
<defs>
  <clipPath id="clip792">
    <rect x="310" y="106" width="2043" height="1318"></rect>
  </clipPath>
</defs>
<polyline clip-path="url(#clip792)" style="stroke:#000000; stroke-linecap:round; stroke-linejoin:round; stroke-width:2; stroke-opacity:0.1; fill:none" points="
  560.835,1423.18 560.835,106.192 
  "></polyline>
<polyline clip-path="url(#clip792)" style="stroke:#000000; stroke-linecap:round; stroke-linejoin:round; stroke-width:2; stroke-opacity:0.1; fill:none" points="
  946.195,1423.18 946.195,106.192 
  "></polyline>
<polyline clip-path="url(#clip792)" style="stroke:#000000; stroke-linecap:round; stroke-linejoin:round; stroke-width:2; stroke-opacity:0.1; fill:none" points="
  1331.55,1423.18 1331.55,106.192 
  "></polyline>
<polyline clip-path="url(#clip792)" style="stroke:#000000; stroke-linecap:round; stroke-linejoin:round; stroke-width:2; stroke-opacity:0.1; fill:none" points="
  1716.91,1423.18 1716.91,106.192 
  "></polyline>
<polyline clip-path="url(#clip792)" style="stroke:#000000; stroke-linecap:round; stroke-linejoin:round; stroke-width:2; stroke-opacity:0.1; fill:none" points="
  2102.27,1423.18 2102.27,106.192 
  "></polyline>
<polyline clip-path="url(#clip790)" style="stroke:#000000; stroke-linecap:round; stroke-linejoin:round; stroke-width:4; stroke-opacity:1; fill:none" points="
  310.352,1423.18 2352.76,1423.18 
  "></polyline>
<polyline clip-path="url(#clip790)" style="stroke:#000000; stroke-linecap:round; stroke-linejoin:round; stroke-width:4; stroke-opacity:1; fill:none" points="
  560.835,1423.18 560.835,1404.28 
  "></polyline>
<polyline clip-path="url(#clip790)" style="stroke:#000000; stroke-linecap:round; stroke-linejoin:round; stroke-width:4; stroke-opacity:1; fill:none" points="
  946.195,1423.18 946.195,1404.28 
  "></polyline>
<polyline clip-path="url(#clip790)" style="stroke:#000000; stroke-linecap:round; stroke-linejoin:round; stroke-width:4; stroke-opacity:1; fill:none" points="
  1331.55,1423.18 1331.55,1404.28 
  "></polyline>
<polyline clip-path="url(#clip790)" style="stroke:#000000; stroke-linecap:round; stroke-linejoin:round; stroke-width:4; stroke-opacity:1; fill:none" points="
  1716.91,1423.18 1716.91,1404.28 
  "></polyline>
<polyline clip-path="url(#clip790)" style="stroke:#000000; stroke-linecap:round; stroke-linejoin:round; stroke-width:4; stroke-opacity:1; fill:none" points="
  2102.27,1423.18 2102.27,1404.28 
  "></polyline>
<path clip-path="url(#clip790)" d="M505.361 1481.64 L513 1481.64 L513 1455.28 L504.69 1456.95 L504.69 1452.69 L512.954 1451.02 L517.63 1451.02 L517.63 1481.64 L525.268 1481.64 L525.268 1485.58 L505.361 1485.58 L505.361 1481.64 Z" fill="#000000" fill-rule="evenodd" fill-opacity="1"></path><path clip-path="url(#clip790)" d="M545.292 1466.44 Q542.143 1466.44 540.292 1468.59 Q538.463 1470.74 538.463 1474.49 Q538.463 1478.22 540.292 1480.39 Q542.143 1482.55 545.292 1482.55 Q548.44 1482.55 550.268 1480.39 Q552.12 1478.22 552.12 1474.49 Q552.12 1470.74 550.268 1468.59 Q548.44 1466.44 545.292 1466.44 M554.574 1451.78 L554.574 1456.04 Q552.815 1455.21 551.009 1454.77 Q549.227 1454.33 547.467 1454.33 Q542.838 1454.33 540.384 1457.45 Q537.954 1460.58 537.606 1466.9 Q538.972 1464.89 541.032 1463.82 Q543.092 1462.73 545.569 1462.73 Q550.778 1462.73 553.787 1465.9 Q556.819 1469.05 556.819 1474.49 Q556.819 1479.82 553.671 1483.03 Q550.523 1486.25 545.292 1486.25 Q539.296 1486.25 536.125 1481.67 Q532.954 1477.06 532.954 1468.33 Q532.954 1460.14 536.842 1455.28 Q540.731 1450.39 547.282 1450.39 Q549.041 1450.39 550.824 1450.74 Q552.629 1451.09 554.574 1451.78 Z" fill="#000000" fill-rule="evenodd" fill-opacity="1"></path><path clip-path="url(#clip790)" d="M574.875 1454.1 Q571.264 1454.1 569.435 1457.66 Q567.629 1461.2 567.629 1468.33 Q567.629 1475.44 569.435 1479.01 Q571.264 1482.55 574.875 1482.55 Q578.509 1482.55 580.314 1479.01 Q582.143 1475.44 582.143 1468.33 Q582.143 1461.2 580.314 1457.66 Q578.509 1454.1 574.875 1454.1 M574.875 1450.39 Q580.685 1450.39 583.74 1455 Q586.819 1459.58 586.819 1468.33 Q586.819 1477.06 583.74 1481.67 Q580.685 1486.25 574.875 1486.25 Q569.065 1486.25 565.986 1481.67 Q562.93 1477.06 562.93 1468.33 Q562.93 1459.58 565.986 1455 Q569.065 1450.39 574.875 1450.39 Z" fill="#000000" fill-rule="evenodd" fill-opacity="1"></path><path clip-path="url(#clip790)" d="M605.037 1454.1 Q601.425 1454.1 599.597 1457.66 Q597.791 1461.2 597.791 1468.33 Q597.791 1475.44 599.597 1479.01 Q601.425 1482.55 605.037 1482.55 Q608.671 1482.55 610.476 1479.01 Q612.305 1475.44 612.305 1468.33 Q612.305 1461.2 610.476 1457.66 Q608.671 1454.1 605.037 1454.1 M605.037 1450.39 Q610.847 1450.39 613.902 1455 Q616.981 1459.58 616.981 1468.33 Q616.981 1477.06 613.902 1481.67 Q610.847 1486.25 605.037 1486.25 Q599.226 1486.25 596.148 1481.67 Q593.092 1477.06 593.092 1468.33 Q593.092 1459.58 596.148 1455 Q599.226 1450.39 605.037 1450.39 Z" fill="#000000" fill-rule="evenodd" fill-opacity="1"></path><path clip-path="url(#clip790)" d="M890.72 1481.64 L898.359 1481.64 L898.359 1455.28 L890.049 1456.95 L890.049 1452.69 L898.313 1451.02 L902.989 1451.02 L902.989 1481.64 L910.628 1481.64 L910.628 1485.58 L890.72 1485.58 L890.72 1481.64 Z" fill="#000000" fill-rule="evenodd" fill-opacity="1"></path><path clip-path="url(#clip790)" d="M930.072 1469.17 Q926.739 1469.17 924.817 1470.95 Q922.919 1472.73 922.919 1475.86 Q922.919 1478.98 924.817 1480.77 Q926.739 1482.55 930.072 1482.55 Q933.405 1482.55 935.327 1480.77 Q937.248 1478.96 937.248 1475.86 Q937.248 1472.73 935.327 1470.95 Q933.429 1469.17 930.072 1469.17 M925.396 1467.18 Q922.387 1466.44 920.697 1464.38 Q919.03 1462.32 919.03 1459.35 Q919.03 1455.21 921.97 1452.8 Q924.933 1450.39 930.072 1450.39 Q935.234 1450.39 938.174 1452.8 Q941.114 1455.21 941.114 1459.35 Q941.114 1462.32 939.424 1464.38 Q937.757 1466.44 934.771 1467.18 Q938.151 1467.96 940.026 1470.26 Q941.924 1472.55 941.924 1475.86 Q941.924 1480.88 938.845 1483.57 Q935.79 1486.25 930.072 1486.25 Q924.354 1486.25 921.276 1483.57 Q918.22 1480.88 918.22 1475.86 Q918.22 1472.55 920.118 1470.26 Q922.017 1467.96 925.396 1467.18 M923.683 1459.79 Q923.683 1462.48 925.35 1463.98 Q927.04 1465.49 930.072 1465.49 Q933.081 1465.49 934.771 1463.98 Q936.484 1462.48 936.484 1459.79 Q936.484 1457.11 934.771 1455.6 Q933.081 1454.1 930.072 1454.1 Q927.04 1454.1 925.35 1455.6 Q923.683 1457.11 923.683 1459.79 Z" fill="#000000" fill-rule="evenodd" fill-opacity="1"></path><path clip-path="url(#clip790)" d="M960.234 1454.1 Q956.623 1454.1 954.794 1457.66 Q952.989 1461.2 952.989 1468.33 Q952.989 1475.44 954.794 1479.01 Q956.623 1482.55 960.234 1482.55 Q963.868 1482.55 965.674 1479.01 Q967.502 1475.44 967.502 1468.33 Q967.502 1461.2 965.674 1457.66 Q963.868 1454.1 960.234 1454.1 M960.234 1450.39 Q966.044 1450.39 969.1 1455 Q972.178 1459.58 972.178 1468.33 Q972.178 1477.06 969.1 1481.67 Q966.044 1486.25 960.234 1486.25 Q954.424 1486.25 951.345 1481.67 Q948.29 1477.06 948.29 1468.33 Q948.29 1459.58 951.345 1455 Q954.424 1450.39 960.234 1450.39 Z" fill="#000000" fill-rule="evenodd" fill-opacity="1"></path><path clip-path="url(#clip790)" d="M990.396 1454.1 Q986.785 1454.1 984.956 1457.66 Q983.15 1461.2 983.15 1468.33 Q983.15 1475.44 984.956 1479.01 Q986.785 1482.55 990.396 1482.55 Q994.03 1482.55 995.836 1479.01 Q997.664 1475.44 997.664 1468.33 Q997.664 1461.2 995.836 1457.66 Q994.03 1454.1 990.396 1454.1 M990.396 1450.39 Q996.206 1450.39 999.261 1455 Q1002.34 1459.58 1002.34 1468.33 Q1002.34 1477.06 999.261 1481.67 Q996.206 1486.25 990.396 1486.25 Q984.586 1486.25 981.507 1481.67 Q978.451 1477.06 978.451 1468.33 Q978.451 1459.58 981.507 1455 Q984.586 1450.39 990.396 1450.39 Z" fill="#000000" fill-rule="evenodd" fill-opacity="1"></path><path clip-path="url(#clip790)" d="M1280.17 1481.64 L1296.48 1481.64 L1296.48 1485.58 L1274.54 1485.58 L1274.54 1481.64 Q1277.2 1478.89 1281.79 1474.26 Q1286.39 1469.61 1287.57 1468.27 Q1289.82 1465.74 1290.7 1464.01 Q1291.6 1462.25 1291.6 1460.56 Q1291.6 1457.8 1289.66 1456.07 Q1287.73 1454.33 1284.63 1454.33 Q1282.43 1454.33 1279.98 1455.09 Q1277.55 1455.86 1274.77 1457.41 L1274.77 1452.69 Q1277.6 1451.55 1280.05 1450.97 Q1282.5 1450.39 1284.54 1450.39 Q1289.91 1450.39 1293.11 1453.08 Q1296.3 1455.77 1296.3 1460.26 Q1296.3 1462.39 1295.49 1464.31 Q1294.7 1466.2 1292.6 1468.8 Q1292.02 1469.47 1288.92 1472.69 Q1285.81 1475.88 1280.17 1481.64 Z" fill="#000000" fill-rule="evenodd" fill-opacity="1"></path><path clip-path="url(#clip790)" d="M1316.3 1454.1 Q1312.69 1454.1 1310.86 1457.66 Q1309.05 1461.2 1309.05 1468.33 Q1309.05 1475.44 1310.86 1479.01 Q1312.69 1482.55 1316.3 1482.55 Q1319.93 1482.55 1321.74 1479.01 Q1323.57 1475.44 1323.57 1468.33 Q1323.57 1461.2 1321.74 1457.66 Q1319.93 1454.1 1316.3 1454.1 M1316.3 1450.39 Q1322.11 1450.39 1325.17 1455 Q1328.24 1459.58 1328.24 1468.33 Q1328.24 1477.06 1325.17 1481.67 Q1322.11 1486.25 1316.3 1486.25 Q1310.49 1486.25 1307.41 1481.67 Q1304.35 1477.06 1304.35 1468.33 Q1304.35 1459.58 1307.41 1455 Q1310.49 1450.39 1316.3 1450.39 Z" fill="#000000" fill-rule="evenodd" fill-opacity="1"></path><path clip-path="url(#clip790)" d="M1346.46 1454.1 Q1342.85 1454.1 1341.02 1457.66 Q1339.22 1461.2 1339.22 1468.33 Q1339.22 1475.44 1341.02 1479.01 Q1342.85 1482.55 1346.46 1482.55 Q1350.1 1482.55 1351.9 1479.01 Q1353.73 1475.44 1353.73 1468.33 Q1353.73 1461.2 1351.9 1457.66 Q1350.1 1454.1 1346.46 1454.1 M1346.46 1450.39 Q1352.27 1450.39 1355.33 1455 Q1358.41 1459.58 1358.41 1468.33 Q1358.41 1477.06 1355.33 1481.67 Q1352.27 1486.25 1346.46 1486.25 Q1340.65 1486.25 1337.57 1481.67 Q1334.52 1477.06 1334.52 1468.33 Q1334.52 1459.58 1337.57 1455 Q1340.65 1450.39 1346.46 1450.39 Z" fill="#000000" fill-rule="evenodd" fill-opacity="1"></path><path clip-path="url(#clip790)" d="M1376.62 1454.1 Q1373.01 1454.1 1371.18 1457.66 Q1369.38 1461.2 1369.38 1468.33 Q1369.38 1475.44 1371.18 1479.01 Q1373.01 1482.55 1376.62 1482.55 Q1380.26 1482.55 1382.06 1479.01 Q1383.89 1475.44 1383.89 1468.33 Q1383.89 1461.2 1382.06 1457.66 Q1380.26 1454.1 1376.62 1454.1 M1376.62 1450.39 Q1382.43 1450.39 1385.49 1455 Q1388.57 1459.58 1388.57 1468.33 Q1388.57 1477.06 1385.49 1481.67 Q1382.43 1486.25 1376.62 1486.25 Q1370.81 1486.25 1367.73 1481.67 Q1364.68 1477.06 1364.68 1468.33 Q1364.68 1459.58 1367.73 1455 Q1370.81 1450.39 1376.62 1450.39 Z" fill="#000000" fill-rule="evenodd" fill-opacity="1"></path><path clip-path="url(#clip790)" d="M1665.52 1481.64 L1681.84 1481.64 L1681.84 1485.58 L1659.9 1485.58 L1659.9 1481.64 Q1662.56 1478.89 1667.14 1474.26 Q1671.75 1469.61 1672.93 1468.27 Q1675.18 1465.74 1676.06 1464.01 Q1676.96 1462.25 1676.96 1460.56 Q1676.96 1457.8 1675.02 1456.07 Q1673.09 1454.33 1669.99 1454.33 Q1667.79 1454.33 1665.34 1455.09 Q1662.91 1455.86 1660.13 1457.41 L1660.13 1452.69 Q1662.96 1451.55 1665.41 1450.97 Q1667.86 1450.39 1669.9 1450.39 Q1675.27 1450.39 1678.46 1453.08 Q1681.66 1455.77 1681.66 1460.26 Q1681.66 1462.39 1680.85 1464.31 Q1680.06 1466.2 1677.96 1468.8 Q1677.38 1469.47 1674.27 1472.69 Q1671.17 1475.88 1665.52 1481.64 Z" fill="#000000" fill-rule="evenodd" fill-opacity="1"></path><path clip-path="url(#clip790)" d="M1695.69 1481.64 L1712.01 1481.64 L1712.01 1485.58 L1690.06 1485.58 L1690.06 1481.64 Q1692.72 1478.89 1697.31 1474.26 Q1701.91 1469.61 1703.09 1468.27 Q1705.34 1465.74 1706.22 1464.01 Q1707.12 1462.25 1707.12 1460.56 Q1707.12 1457.8 1705.18 1456.07 Q1703.26 1454.33 1700.15 1454.33 Q1697.95 1454.33 1695.5 1455.09 Q1693.07 1455.86 1690.29 1457.41 L1690.29 1452.69 Q1693.12 1451.55 1695.57 1450.97 Q1698.02 1450.39 1700.06 1450.39 Q1705.43 1450.39 1708.63 1453.08 Q1711.82 1455.77 1711.82 1460.26 Q1711.82 1462.39 1711.01 1464.31 Q1710.22 1466.2 1708.12 1468.8 Q1707.54 1469.47 1704.44 1472.69 Q1701.33 1475.88 1695.69 1481.64 Z" fill="#000000" fill-rule="evenodd" fill-opacity="1"></path><path clip-path="url(#clip790)" d="M1731.82 1454.1 Q1728.21 1454.1 1726.38 1457.66 Q1724.58 1461.2 1724.58 1468.33 Q1724.58 1475.44 1726.38 1479.01 Q1728.21 1482.55 1731.82 1482.55 Q1735.45 1482.55 1737.26 1479.01 Q1739.09 1475.44 1739.09 1468.33 Q1739.09 1461.2 1737.26 1457.66 Q1735.45 1454.1 1731.82 1454.1 M1731.82 1450.39 Q1737.63 1450.39 1740.69 1455 Q1743.76 1459.58 1743.76 1468.33 Q1743.76 1477.06 1740.69 1481.67 Q1737.63 1486.25 1731.82 1486.25 Q1726.01 1486.25 1722.93 1481.67 Q1719.88 1477.06 1719.88 1468.33 Q1719.88 1459.58 1722.93 1455 Q1726.01 1450.39 1731.82 1450.39 Z" fill="#000000" fill-rule="evenodd" fill-opacity="1"></path><path clip-path="url(#clip790)" d="M1761.98 1454.1 Q1758.37 1454.1 1756.54 1457.66 Q1754.74 1461.2 1754.74 1468.33 Q1754.74 1475.44 1756.54 1479.01 Q1758.37 1482.55 1761.98 1482.55 Q1765.62 1482.55 1767.42 1479.01 Q1769.25 1475.44 1769.25 1468.33 Q1769.25 1461.2 1767.42 1457.66 Q1765.62 1454.1 1761.98 1454.1 M1761.98 1450.39 Q1767.79 1450.39 1770.85 1455 Q1773.93 1459.58 1773.93 1468.33 Q1773.93 1477.06 1770.85 1481.67 Q1767.79 1486.25 1761.98 1486.25 Q1756.17 1486.25 1753.09 1481.67 Q1750.04 1477.06 1750.04 1468.33 Q1750.04 1459.58 1753.09 1455 Q1756.17 1450.39 1761.98 1450.39 Z" fill="#000000" fill-rule="evenodd" fill-opacity="1"></path><path clip-path="url(#clip790)" d="M2050.88 1481.64 L2067.2 1481.64 L2067.2 1485.58 L2045.26 1485.58 L2045.26 1481.64 Q2047.92 1478.89 2052.5 1474.26 Q2057.11 1469.61 2058.29 1468.27 Q2060.54 1465.74 2061.42 1464.01 Q2062.32 1462.25 2062.32 1460.56 Q2062.32 1457.8 2060.37 1456.07 Q2058.45 1454.33 2055.35 1454.33 Q2053.15 1454.33 2050.7 1455.09 Q2048.27 1455.86 2045.49 1457.41 L2045.49 1452.69 Q2048.31 1451.55 2050.77 1450.97 Q2053.22 1450.39 2055.26 1450.39 Q2060.63 1450.39 2063.82 1453.08 Q2067.02 1455.77 2067.02 1460.26 Q2067.02 1462.39 2066.21 1464.31 Q2065.42 1466.2 2063.31 1468.8 Q2062.74 1469.47 2059.63 1472.69 Q2056.53 1475.88 2050.88 1481.64 Z" fill="#000000" fill-rule="evenodd" fill-opacity="1"></path><path clip-path="url(#clip790)" d="M2089.87 1455.09 L2078.06 1473.54 L2089.87 1473.54 L2089.87 1455.09 M2088.64 1451.02 L2094.52 1451.02 L2094.52 1473.54 L2099.45 1473.54 L2099.45 1477.43 L2094.52 1477.43 L2094.52 1485.58 L2089.87 1485.58 L2089.87 1477.43 L2074.26 1477.43 L2074.26 1472.92 L2088.64 1451.02 Z" fill="#000000" fill-rule="evenodd" fill-opacity="1"></path><path clip-path="url(#clip790)" d="M2117.18 1454.1 Q2113.57 1454.1 2111.74 1457.66 Q2109.93 1461.2 2109.93 1468.33 Q2109.93 1475.44 2111.74 1479.01 Q2113.57 1482.55 2117.18 1482.55 Q2120.81 1482.55 2122.62 1479.01 Q2124.45 1475.44 2124.45 1468.33 Q2124.45 1461.2 2122.62 1457.66 Q2120.81 1454.1 2117.18 1454.1 M2117.18 1450.39 Q2122.99 1450.39 2126.05 1455 Q2129.12 1459.58 2129.12 1468.33 Q2129.12 1477.06 2126.05 1481.67 Q2122.99 1486.25 2117.18 1486.25 Q2111.37 1486.25 2108.29 1481.67 Q2105.24 1477.06 2105.24 1468.33 Q2105.24 1459.58 2108.29 1455 Q2111.37 1450.39 2117.18 1450.39 Z" fill="#000000" fill-rule="evenodd" fill-opacity="1"></path><path clip-path="url(#clip790)" d="M2147.34 1454.1 Q2143.73 1454.1 2141.9 1457.66 Q2140.1 1461.2 2140.1 1468.33 Q2140.1 1475.44 2141.9 1479.01 Q2143.73 1482.55 2147.34 1482.55 Q2150.98 1482.55 2152.78 1479.01 Q2154.61 1475.44 2154.61 1468.33 Q2154.61 1461.2 2152.78 1457.66 Q2150.98 1454.1 2147.34 1454.1 M2147.34 1450.39 Q2153.15 1450.39 2156.21 1455 Q2159.29 1459.58 2159.29 1468.33 Q2159.29 1477.06 2156.21 1481.67 Q2153.15 1486.25 2147.34 1486.25 Q2141.53 1486.25 2138.45 1481.67 Q2135.4 1477.06 2135.4 1468.33 Q2135.4 1459.58 2138.45 1455 Q2141.53 1450.39 2147.34 1450.39 Z" fill="#000000" fill-rule="evenodd" fill-opacity="1"></path><path clip-path="url(#clip790)" d="M1091.96 1520.52 L1132.16 1520.52 L1132.16 1525.93 L1115.29 1525.93 L1115.29 1568.04 L1108.83 1568.04 L1108.83 1525.93 L1091.96 1525.93 L1091.96 1520.52 Z" fill="#000000" fill-rule="evenodd" fill-opacity="1"></path><path clip-path="url(#clip790)" d="M1157.53 1548.76 L1157.53 1551.62 L1130.6 1551.62 Q1130.99 1557.67 1134.23 1560.85 Q1137.51 1564 1143.34 1564 Q1146.71 1564 1149.86 1563.17 Q1153.04 1562.35 1156.16 1560.69 L1156.16 1566.23 Q1153.01 1567.57 1149.7 1568.27 Q1146.39 1568.97 1142.99 1568.97 Q1134.46 1568.97 1129.46 1564 Q1124.49 1559.04 1124.49 1550.57 Q1124.49 1541.82 1129.2 1536.69 Q1133.95 1531.54 1141.97 1531.54 Q1149.16 1531.54 1153.33 1536.18 Q1157.53 1540.8 1157.53 1548.76 M1151.67 1547.04 Q1151.61 1542.23 1148.97 1539.37 Q1146.36 1536.5 1142.03 1536.5 Q1137.13 1536.5 1134.17 1539.27 Q1131.24 1542.04 1130.8 1547.07 L1151.67 1547.04 Z" fill="#000000" fill-rule="evenodd" fill-opacity="1"></path><path clip-path="url(#clip790)" d="M1194.9 1539.24 Q1197.09 1535.29 1200.15 1533.41 Q1203.21 1531.54 1207.34 1531.54 Q1212.91 1531.54 1215.94 1535.45 Q1218.96 1539.33 1218.96 1546.53 L1218.96 1568.04 L1213.07 1568.04 L1213.07 1546.72 Q1213.07 1541.59 1211.26 1539.11 Q1209.44 1536.63 1205.72 1536.63 Q1201.17 1536.63 1198.53 1539.65 Q1195.88 1542.68 1195.88 1547.9 L1195.88 1568.04 L1190 1568.04 L1190 1546.72 Q1190 1541.56 1188.18 1539.11 Q1186.37 1536.63 1182.58 1536.63 Q1178.09 1536.63 1175.45 1539.68 Q1172.81 1542.71 1172.81 1547.9 L1172.81 1568.04 L1166.92 1568.04 L1166.92 1532.4 L1172.81 1532.4 L1172.81 1537.93 Q1174.81 1534.66 1177.62 1533.1 Q1180.42 1531.54 1184.27 1531.54 Q1188.15 1531.54 1190.86 1533.51 Q1193.59 1535.48 1194.9 1539.24 Z" fill="#000000" fill-rule="evenodd" fill-opacity="1"></path><path clip-path="url(#clip790)" d="M1236.31 1562.7 L1236.31 1581.6 L1230.42 1581.6 L1230.42 1532.4 L1236.31 1532.4 L1236.31 1537.81 Q1238.15 1534.62 1240.95 1533.1 Q1243.79 1531.54 1247.7 1531.54 Q1254.19 1531.54 1258.24 1536.69 Q1262.31 1541.85 1262.31 1550.25 Q1262.31 1558.65 1258.24 1563.81 Q1254.19 1568.97 1247.7 1568.97 Q1243.79 1568.97 1240.95 1567.44 Q1238.15 1565.88 1236.31 1562.7 M1256.23 1550.25 Q1256.23 1543.79 1253.56 1540.13 Q1250.92 1536.44 1246.27 1536.44 Q1241.62 1536.44 1238.95 1540.13 Q1236.31 1543.79 1236.31 1550.25 Q1236.31 1556.71 1238.95 1560.4 Q1241.62 1564.07 1246.27 1564.07 Q1250.92 1564.07 1253.56 1560.4 Q1256.23 1556.71 1256.23 1550.25 Z" fill="#000000" fill-rule="evenodd" fill-opacity="1"></path><path clip-path="url(#clip790)" d="M1302.51 1548.76 L1302.51 1551.62 L1275.58 1551.62 Q1275.97 1557.67 1279.21 1560.85 Q1282.49 1564 1288.31 1564 Q1291.69 1564 1294.84 1563.17 Q1298.02 1562.35 1301.14 1560.69 L1301.14 1566.23 Q1297.99 1567.57 1294.68 1568.27 Q1291.37 1568.97 1287.96 1568.97 Q1279.43 1568.97 1274.44 1564 Q1269.47 1559.04 1269.47 1550.57 Q1269.47 1541.82 1274.18 1536.69 Q1278.93 1531.54 1286.95 1531.54 Q1294.14 1531.54 1298.31 1536.18 Q1302.51 1540.8 1302.51 1548.76 M1296.65 1547.04 Q1296.59 1542.23 1293.95 1539.37 Q1291.34 1536.5 1287.01 1536.5 Q1282.11 1536.5 1279.15 1539.27 Q1276.22 1542.04 1275.77 1547.07 L1296.65 1547.04 Z" fill="#000000" fill-rule="evenodd" fill-opacity="1"></path><path clip-path="url(#clip790)" d="M1332.78 1537.87 Q1331.79 1537.3 1330.61 1537.04 Q1329.47 1536.76 1328.07 1536.76 Q1323.1 1536.76 1320.43 1540 Q1317.79 1543.22 1317.79 1549.27 L1317.79 1568.04 L1311.9 1568.04 L1311.9 1532.4 L1317.79 1532.4 L1317.79 1537.93 Q1319.63 1534.69 1322.59 1533.13 Q1325.55 1531.54 1329.79 1531.54 Q1330.39 1531.54 1331.12 1531.63 Q1331.86 1531.7 1332.75 1531.85 L1332.78 1537.87 Z" fill="#000000" fill-rule="evenodd" fill-opacity="1"></path><path clip-path="url(#clip790)" d="M1355.12 1550.12 Q1348.03 1550.12 1345.29 1551.75 Q1342.55 1553.37 1342.55 1557.29 Q1342.55 1560.4 1344.59 1562.25 Q1346.66 1564.07 1350.19 1564.07 Q1355.06 1564.07 1357.99 1560.63 Q1360.95 1557.16 1360.95 1551.43 L1360.95 1550.12 L1355.12 1550.12 M1366.8 1547.71 L1366.8 1568.04 L1360.95 1568.04 L1360.95 1562.63 Q1358.94 1565.88 1355.95 1567.44 Q1352.96 1568.97 1348.63 1568.97 Q1343.16 1568.97 1339.91 1565.91 Q1336.69 1562.82 1336.69 1557.67 Q1336.69 1551.65 1340.7 1548.6 Q1344.75 1545.54 1352.74 1545.54 L1360.95 1545.54 L1360.95 1544.97 Q1360.95 1540.93 1358.27 1538.73 Q1355.63 1536.5 1350.83 1536.5 Q1347.77 1536.5 1344.87 1537.23 Q1341.98 1537.97 1339.3 1539.43 L1339.3 1534.02 Q1342.52 1532.78 1345.54 1532.17 Q1348.57 1531.54 1351.43 1531.54 Q1359.17 1531.54 1362.98 1535.55 Q1366.8 1539.56 1366.8 1547.71 Z" fill="#000000" fill-rule="evenodd" fill-opacity="1"></path><path clip-path="url(#clip790)" d="M1384.66 1522.27 L1384.66 1532.4 L1396.72 1532.4 L1396.72 1536.95 L1384.66 1536.95 L1384.66 1556.3 Q1384.66 1560.66 1385.84 1561.9 Q1387.05 1563.14 1390.71 1563.14 L1396.72 1563.14 L1396.72 1568.04 L1390.71 1568.04 Q1383.93 1568.04 1381.35 1565.53 Q1378.77 1562.98 1378.77 1556.3 L1378.77 1536.95 L1374.47 1536.95 L1374.47 1532.4 L1378.77 1532.4 L1378.77 1522.27 L1384.66 1522.27 Z" fill="#000000" fill-rule="evenodd" fill-opacity="1"></path><path clip-path="url(#clip790)" d="M1403.82 1553.98 L1403.82 1532.4 L1409.68 1532.4 L1409.68 1553.75 Q1409.68 1558.81 1411.65 1561.36 Q1413.62 1563.87 1417.57 1563.87 Q1422.31 1563.87 1425.05 1560.85 Q1427.82 1557.83 1427.82 1552.61 L1427.82 1532.4 L1433.68 1532.4 L1433.68 1568.04 L1427.82 1568.04 L1427.82 1562.57 Q1425.69 1565.82 1422.85 1567.41 Q1420.05 1568.97 1416.33 1568.97 Q1410.19 1568.97 1407 1565.15 Q1403.82 1561.33 1403.82 1553.98 M1418.56 1531.54 L1418.56 1531.54 Z" fill="#000000" fill-rule="evenodd" fill-opacity="1"></path><path clip-path="url(#clip790)" d="M1466.4 1537.87 Q1465.41 1537.3 1464.23 1537.04 Q1463.09 1536.76 1461.68 1536.76 Q1456.72 1536.76 1454.05 1540 Q1451.4 1543.22 1451.4 1549.27 L1451.4 1568.04 L1445.52 1568.04 L1445.52 1532.4 L1451.4 1532.4 L1451.4 1537.93 Q1453.25 1534.69 1456.21 1533.13 Q1459.17 1531.54 1463.4 1531.54 Q1464.01 1531.54 1464.74 1531.63 Q1465.47 1531.7 1466.36 1531.85 L1466.4 1537.87 Z" fill="#000000" fill-rule="evenodd" fill-opacity="1"></path><path clip-path="url(#clip790)" d="M1501.6 1548.76 L1501.6 1551.62 L1474.67 1551.62 Q1475.05 1557.67 1478.3 1560.85 Q1481.58 1564 1487.4 1564 Q1490.78 1564 1493.93 1563.17 Q1497.11 1562.35 1500.23 1560.69 L1500.23 1566.23 Q1497.08 1567.57 1493.77 1568.27 Q1490.46 1568.97 1487.05 1568.97 Q1478.52 1568.97 1473.53 1564 Q1468.56 1559.04 1468.56 1550.57 Q1468.56 1541.82 1473.27 1536.69 Q1478.01 1531.54 1486.03 1531.54 Q1493.23 1531.54 1497.4 1536.18 Q1501.6 1540.8 1501.6 1548.76 M1495.74 1547.04 Q1495.68 1542.23 1493.04 1539.37 Q1490.43 1536.5 1486.1 1536.5 Q1481.2 1536.5 1478.24 1539.27 Q1475.31 1542.04 1474.86 1547.07 L1495.74 1547.04 Z" fill="#000000" fill-rule="evenodd" fill-opacity="1"></path><path clip-path="url(#clip790)" d="M1521.62 1520.52 L1527.03 1520.52 L1510.48 1574.09 L1505.07 1574.09 L1521.62 1520.52 Z" fill="#000000" fill-rule="evenodd" fill-opacity="1"></path><path clip-path="url(#clip790)" d="M1533.43 1520.52 L1539.86 1520.52 L1539.86 1540.61 L1561.18 1520.52 L1569.46 1520.52 L1545.87 1542.68 L1571.14 1568.04 L1562.68 1568.04 L1539.86 1545.16 L1539.86 1568.04 L1533.43 1568.04 L1533.43 1520.52 Z" fill="#000000" fill-rule="evenodd" fill-opacity="1"></path><polyline clip-path="url(#clip792)" style="stroke:#000000; stroke-linecap:round; stroke-linejoin:round; stroke-width:2; stroke-opacity:0.1; fill:none" points="
  310.352,1322.8 2352.76,1322.8 
  "></polyline>
<polyline clip-path="url(#clip792)" style="stroke:#000000; stroke-linecap:round; stroke-linejoin:round; stroke-width:2; stroke-opacity:0.1; fill:none" points="
  310.352,1124.05 2352.76,1124.05 
  "></polyline>
<polyline clip-path="url(#clip792)" style="stroke:#000000; stroke-linecap:round; stroke-linejoin:round; stroke-width:2; stroke-opacity:0.1; fill:none" points="
  310.352,925.298 2352.76,925.298 
  "></polyline>
<polyline clip-path="url(#clip792)" style="stroke:#000000; stroke-linecap:round; stroke-linejoin:round; stroke-width:2; stroke-opacity:0.1; fill:none" points="
  310.352,726.546 2352.76,726.546 
  "></polyline>
<polyline clip-path="url(#clip792)" style="stroke:#000000; stroke-linecap:round; stroke-linejoin:round; stroke-width:2; stroke-opacity:0.1; fill:none" points="
  310.352,527.794 2352.76,527.794 
  "></polyline>
<polyline clip-path="url(#clip792)" style="stroke:#000000; stroke-linecap:round; stroke-linejoin:round; stroke-width:2; stroke-opacity:0.1; fill:none" points="
  310.352,329.042 2352.76,329.042 
  "></polyline>
<polyline clip-path="url(#clip792)" style="stroke:#000000; stroke-linecap:round; stroke-linejoin:round; stroke-width:2; stroke-opacity:0.1; fill:none" points="
  310.352,130.291 2352.76,130.291 
  "></polyline>
<polyline clip-path="url(#clip790)" style="stroke:#000000; stroke-linecap:round; stroke-linejoin:round; stroke-width:4; stroke-opacity:1; fill:none" points="
  310.352,1423.18 310.352,106.192 
  "></polyline>
<polyline clip-path="url(#clip790)" style="stroke:#000000; stroke-linecap:round; stroke-linejoin:round; stroke-width:4; stroke-opacity:1; fill:none" points="
  310.352,1322.8 329.25,1322.8 
  "></polyline>
<polyline clip-path="url(#clip790)" style="stroke:#000000; stroke-linecap:round; stroke-linejoin:round; stroke-width:4; stroke-opacity:1; fill:none" points="
  310.352,1124.05 329.25,1124.05 
  "></polyline>
<polyline clip-path="url(#clip790)" style="stroke:#000000; stroke-linecap:round; stroke-linejoin:round; stroke-width:4; stroke-opacity:1; fill:none" points="
  310.352,925.298 329.25,925.298 
  "></polyline>
<polyline clip-path="url(#clip790)" style="stroke:#000000; stroke-linecap:round; stroke-linejoin:round; stroke-width:4; stroke-opacity:1; fill:none" points="
  310.352,726.546 329.25,726.546 
  "></polyline>
<polyline clip-path="url(#clip790)" style="stroke:#000000; stroke-linecap:round; stroke-linejoin:round; stroke-width:4; stroke-opacity:1; fill:none" points="
  310.352,527.794 329.25,527.794 
  "></polyline>
<polyline clip-path="url(#clip790)" style="stroke:#000000; stroke-linecap:round; stroke-linejoin:round; stroke-width:4; stroke-opacity:1; fill:none" points="
  310.352,329.042 329.25,329.042 
  "></polyline>
<polyline clip-path="url(#clip790)" style="stroke:#000000; stroke-linecap:round; stroke-linejoin:round; stroke-width:4; stroke-opacity:1; fill:none" points="
  310.352,130.291 329.25,130.291 
  "></polyline>
<path clip-path="url(#clip790)" d="M126.529 1308.6 Q122.918 1308.6 121.089 1312.17 Q119.283 1315.71 119.283 1322.84 Q119.283 1329.94 121.089 1333.51 Q122.918 1337.05 126.529 1337.05 Q130.163 1337.05 131.968 1333.51 Q133.797 1329.94 133.797 1322.84 Q133.797 1315.71 131.968 1312.17 Q130.163 1308.6 126.529 1308.6 M126.529 1304.9 Q132.339 1304.9 135.394 1309.5 Q138.473 1314.09 138.473 1322.84 Q138.473 1331.56 135.394 1336.17 Q132.339 1340.75 126.529 1340.75 Q120.718 1340.75 117.64 1336.17 Q114.584 1331.56 114.584 1322.84 Q114.584 1314.09 117.64 1309.5 Q120.718 1304.9 126.529 1304.9 Z" fill="#000000" fill-rule="evenodd" fill-opacity="1"></path><path clip-path="url(#clip790)" d="M146.691 1334.2 L151.575 1334.2 L151.575 1340.08 L146.691 1340.08 L146.691 1334.2 Z" fill="#000000" fill-rule="evenodd" fill-opacity="1"></path><path clip-path="url(#clip790)" d="M171.76 1308.6 Q168.149 1308.6 166.32 1312.17 Q164.515 1315.71 164.515 1322.84 Q164.515 1329.94 166.32 1333.51 Q168.149 1337.05 171.76 1337.05 Q175.394 1337.05 177.2 1333.51 Q179.028 1329.94 179.028 1322.84 Q179.028 1315.71 177.2 1312.17 Q175.394 1308.6 171.76 1308.6 M171.76 1304.9 Q177.57 1304.9 180.626 1309.5 Q183.704 1314.09 183.704 1322.84 Q183.704 1331.56 180.626 1336.17 Q177.57 1340.75 171.76 1340.75 Q165.95 1340.75 162.871 1336.17 Q159.815 1331.56 159.815 1322.84 Q159.815 1314.09 162.871 1309.5 Q165.95 1304.9 171.76 1304.9 Z" fill="#000000" fill-rule="evenodd" fill-opacity="1"></path><path clip-path="url(#clip790)" d="M195.95 1336.15 L212.269 1336.15 L212.269 1340.08 L190.325 1340.08 L190.325 1336.15 Q192.987 1333.39 197.57 1328.76 Q202.176 1324.11 203.357 1322.77 Q205.602 1320.24 206.482 1318.51 Q207.385 1316.75 207.385 1315.06 Q207.385 1312.3 205.44 1310.57 Q203.519 1308.83 200.417 1308.83 Q198.218 1308.83 195.764 1309.6 Q193.334 1310.36 190.556 1311.91 L190.556 1307.19 Q193.38 1306.05 195.834 1305.48 Q198.287 1304.9 200.325 1304.9 Q205.695 1304.9 208.889 1307.58 Q212.084 1310.27 212.084 1314.76 Q212.084 1316.89 211.274 1318.81 Q210.486 1320.71 208.38 1323.3 Q207.801 1323.97 204.699 1327.19 Q201.598 1330.38 195.95 1336.15 Z" fill="#000000" fill-rule="evenodd" fill-opacity="1"></path><path clip-path="url(#clip790)" d="M222.894 1336.15 L230.533 1336.15 L230.533 1309.78 L222.223 1311.45 L222.223 1307.19 L230.486 1305.52 L235.162 1305.52 L235.162 1336.15 L242.801 1336.15 L242.801 1340.08 L222.894 1340.08 L222.894 1336.15 Z" fill="#000000" fill-rule="evenodd" fill-opacity="1"></path><path clip-path="url(#clip790)" d="M262.824 1320.94 Q259.676 1320.94 257.824 1323.09 Q255.996 1325.24 255.996 1328.99 Q255.996 1332.72 257.824 1334.9 Q259.676 1337.05 262.824 1337.05 Q265.972 1337.05 267.801 1334.9 Q269.653 1332.72 269.653 1328.99 Q269.653 1325.24 267.801 1323.09 Q265.972 1320.94 262.824 1320.94 M272.107 1306.29 L272.107 1310.54 Q270.347 1309.71 268.542 1309.27 Q266.759 1308.83 265 1308.83 Q260.37 1308.83 257.917 1311.96 Q255.486 1315.08 255.139 1321.4 Q256.505 1319.39 258.565 1318.32 Q260.625 1317.23 263.102 1317.23 Q268.31 1317.23 271.32 1320.41 Q274.352 1323.55 274.352 1328.99 Q274.352 1334.32 271.204 1337.54 Q268.056 1340.75 262.824 1340.75 Q256.829 1340.75 253.658 1336.17 Q250.486 1331.56 250.486 1322.84 Q250.486 1314.64 254.375 1309.78 Q258.264 1304.9 264.815 1304.9 Q266.574 1304.9 268.357 1305.24 Q270.162 1305.59 272.107 1306.29 Z" fill="#000000" fill-rule="evenodd" fill-opacity="1"></path><path clip-path="url(#clip790)" d="M126.783 1109.85 Q123.172 1109.85 121.343 1113.41 Q119.538 1116.95 119.538 1124.08 Q119.538 1131.19 121.343 1134.76 Q123.172 1138.3 126.783 1138.3 Q130.417 1138.3 132.223 1134.76 Q134.052 1131.19 134.052 1124.08 Q134.052 1116.95 132.223 1113.41 Q130.417 1109.85 126.783 1109.85 M126.783 1106.14 Q132.593 1106.14 135.649 1110.75 Q138.728 1115.33 138.728 1124.08 Q138.728 1132.81 135.649 1137.42 Q132.593 1142 126.783 1142 Q120.973 1142 117.894 1137.42 Q114.839 1132.81 114.839 1124.08 Q114.839 1115.33 117.894 1110.75 Q120.973 1106.14 126.783 1106.14 Z" fill="#000000" fill-rule="evenodd" fill-opacity="1"></path><path clip-path="url(#clip790)" d="M146.945 1135.45 L151.829 1135.45 L151.829 1141.33 L146.945 1141.33 L146.945 1135.45 Z" fill="#000000" fill-rule="evenodd" fill-opacity="1"></path><path clip-path="url(#clip790)" d="M172.014 1109.85 Q168.403 1109.85 166.575 1113.41 Q164.769 1116.95 164.769 1124.08 Q164.769 1131.19 166.575 1134.76 Q168.403 1138.3 172.014 1138.3 Q175.649 1138.3 177.454 1134.76 Q179.283 1131.19 179.283 1124.08 Q179.283 1116.95 177.454 1113.41 Q175.649 1109.85 172.014 1109.85 M172.014 1106.14 Q177.825 1106.14 180.88 1110.75 Q183.959 1115.33 183.959 1124.08 Q183.959 1132.81 180.88 1137.42 Q177.825 1142 172.014 1142 Q166.204 1142 163.126 1137.42 Q160.07 1132.81 160.07 1124.08 Q160.07 1115.33 163.126 1110.75 Q166.204 1106.14 172.014 1106.14 Z" fill="#000000" fill-rule="evenodd" fill-opacity="1"></path><path clip-path="url(#clip790)" d="M196.204 1137.39 L212.524 1137.39 L212.524 1141.33 L190.579 1141.33 L190.579 1137.39 Q193.241 1134.64 197.825 1130.01 Q202.431 1125.36 203.612 1124.02 Q205.857 1121.49 206.737 1119.76 Q207.639 1118 207.639 1116.31 Q207.639 1113.55 205.695 1111.82 Q203.774 1110.08 200.672 1110.08 Q198.473 1110.08 196.019 1110.84 Q193.588 1111.61 190.811 1113.16 L190.811 1108.44 Q193.635 1107.3 196.088 1106.72 Q198.542 1106.14 200.579 1106.14 Q205.949 1106.14 209.144 1108.83 Q212.338 1111.52 212.338 1116.01 Q212.338 1118.14 211.528 1120.06 Q210.741 1121.95 208.635 1124.55 Q208.056 1125.22 204.954 1128.44 Q201.852 1131.63 196.204 1137.39 Z" fill="#000000" fill-rule="evenodd" fill-opacity="1"></path><path clip-path="url(#clip790)" d="M223.148 1137.39 L230.787 1137.39 L230.787 1111.03 L222.477 1112.7 L222.477 1108.44 L230.741 1106.77 L235.417 1106.77 L235.417 1137.39 L243.056 1137.39 L243.056 1141.33 L223.148 1141.33 L223.148 1137.39 Z" fill="#000000" fill-rule="evenodd" fill-opacity="1"></path><path clip-path="url(#clip790)" d="M262.5 1124.92 Q259.167 1124.92 257.246 1126.7 Q255.347 1128.48 255.347 1131.61 Q255.347 1134.73 257.246 1136.51 Q259.167 1138.3 262.5 1138.3 Q265.833 1138.3 267.755 1136.51 Q269.676 1134.71 269.676 1131.61 Q269.676 1128.48 267.755 1126.7 Q265.857 1124.92 262.5 1124.92 M257.824 1122.93 Q254.815 1122.19 253.125 1120.13 Q251.458 1118.07 251.458 1115.1 Q251.458 1110.96 254.398 1108.55 Q257.361 1106.14 262.5 1106.14 Q267.662 1106.14 270.602 1108.55 Q273.542 1110.96 273.542 1115.1 Q273.542 1118.07 271.852 1120.13 Q270.185 1122.19 267.199 1122.93 Q270.579 1123.71 272.454 1126.01 Q274.352 1128.3 274.352 1131.61 Q274.352 1136.63 271.273 1139.32 Q268.218 1142 262.5 1142 Q256.783 1142 253.704 1139.32 Q250.648 1136.63 250.648 1131.61 Q250.648 1128.3 252.546 1126.01 Q254.445 1123.71 257.824 1122.93 M256.111 1115.54 Q256.111 1118.23 257.778 1119.73 Q259.468 1121.24 262.5 1121.24 Q265.509 1121.24 267.199 1119.73 Q268.912 1118.23 268.912 1115.54 Q268.912 1112.86 267.199 1111.35 Q265.509 1109.85 262.5 1109.85 Q259.468 1109.85 257.778 1111.35 Q256.111 1112.86 256.111 1115.54 Z" fill="#000000" fill-rule="evenodd" fill-opacity="1"></path><path clip-path="url(#clip790)" d="M126.691 911.097 Q123.08 911.097 121.251 914.661 Q119.445 918.203 119.445 925.333 Q119.445 932.439 121.251 936.004 Q123.08 939.546 126.691 939.546 Q130.325 939.546 132.13 936.004 Q133.959 932.439 133.959 925.333 Q133.959 918.203 132.13 914.661 Q130.325 911.097 126.691 911.097 M126.691 907.393 Q132.501 907.393 135.556 911.999 Q138.635 916.583 138.635 925.333 Q138.635 934.059 135.556 938.666 Q132.501 943.249 126.691 943.249 Q120.88 943.249 117.802 938.666 Q114.746 934.059 114.746 925.333 Q114.746 916.583 117.802 911.999 Q120.88 907.393 126.691 907.393 Z" fill="#000000" fill-rule="evenodd" fill-opacity="1"></path><path clip-path="url(#clip790)" d="M146.853 936.698 L151.737 936.698 L151.737 942.578 L146.853 942.578 L146.853 936.698 Z" fill="#000000" fill-rule="evenodd" fill-opacity="1"></path><path clip-path="url(#clip790)" d="M171.922 911.097 Q168.311 911.097 166.482 914.661 Q164.677 918.203 164.677 925.333 Q164.677 932.439 166.482 936.004 Q168.311 939.546 171.922 939.546 Q175.556 939.546 177.362 936.004 Q179.19 932.439 179.19 925.333 Q179.19 918.203 177.362 914.661 Q175.556 911.097 171.922 911.097 M171.922 907.393 Q177.732 907.393 180.788 911.999 Q183.866 916.583 183.866 925.333 Q183.866 934.059 180.788 938.666 Q177.732 943.249 171.922 943.249 Q166.112 943.249 163.033 938.666 Q159.978 934.059 159.978 925.333 Q159.978 916.583 163.033 911.999 Q166.112 907.393 171.922 907.393 Z" fill="#000000" fill-rule="evenodd" fill-opacity="1"></path><path clip-path="url(#clip790)" d="M196.112 938.643 L212.431 938.643 L212.431 942.578 L190.487 942.578 L190.487 938.643 Q193.149 935.888 197.732 931.259 Q202.338 926.606 203.519 925.263 Q205.764 922.74 206.644 921.004 Q207.547 919.245 207.547 917.555 Q207.547 914.8 205.602 913.064 Q203.681 911.328 200.579 911.328 Q198.38 911.328 195.926 912.092 Q193.496 912.856 190.718 914.407 L190.718 909.685 Q193.542 908.55 195.996 907.972 Q198.45 907.393 200.487 907.393 Q205.857 907.393 209.051 910.078 Q212.246 912.763 212.246 917.254 Q212.246 919.384 211.436 921.305 Q210.649 923.203 208.542 925.796 Q207.963 926.467 204.862 929.685 Q201.76 932.879 196.112 938.643 Z" fill="#000000" fill-rule="evenodd" fill-opacity="1"></path><path clip-path="url(#clip790)" d="M226.273 938.643 L242.593 938.643 L242.593 942.578 L220.648 942.578 L220.648 938.643 Q223.31 935.888 227.894 931.259 Q232.5 926.606 233.681 925.263 Q235.926 922.74 236.806 921.004 Q237.709 919.245 237.709 917.555 Q237.709 914.8 235.764 913.064 Q233.843 911.328 230.741 911.328 Q228.542 911.328 226.088 912.092 Q223.658 912.856 220.88 914.407 L220.88 909.685 Q223.704 908.55 226.158 907.972 Q228.611 907.393 230.648 907.393 Q236.019 907.393 239.213 910.078 Q242.408 912.763 242.408 917.254 Q242.408 919.384 241.597 921.305 Q240.81 923.203 238.704 925.796 Q238.125 926.467 235.023 929.685 Q231.922 932.879 226.273 938.643 Z" fill="#000000" fill-rule="evenodd" fill-opacity="1"></path><path clip-path="url(#clip790)" d="M262.408 911.097 Q258.796 911.097 256.968 914.661 Q255.162 918.203 255.162 925.333 Q255.162 932.439 256.968 936.004 Q258.796 939.546 262.408 939.546 Q266.042 939.546 267.847 936.004 Q269.676 932.439 269.676 925.333 Q269.676 918.203 267.847 914.661 Q266.042 911.097 262.408 911.097 M262.408 907.393 Q268.218 907.393 271.273 911.999 Q274.352 916.583 274.352 925.333 Q274.352 934.059 271.273 938.666 Q268.218 943.249 262.408 943.249 Q256.597 943.249 253.519 938.666 Q250.463 934.059 250.463 925.333 Q250.463 916.583 253.519 911.999 Q256.597 907.393 262.408 907.393 Z" fill="#000000" fill-rule="evenodd" fill-opacity="1"></path><path clip-path="url(#clip790)" d="M128.288 712.345 Q124.677 712.345 122.848 715.91 Q121.043 719.451 121.043 726.581 Q121.043 733.687 122.848 737.252 Q124.677 740.794 128.288 740.794 Q131.922 740.794 133.728 737.252 Q135.556 733.687 135.556 726.581 Q135.556 719.451 133.728 715.91 Q131.922 712.345 128.288 712.345 M128.288 708.641 Q134.098 708.641 137.154 713.248 Q140.232 717.831 140.232 726.581 Q140.232 735.308 137.154 739.914 Q134.098 744.497 128.288 744.497 Q122.478 744.497 119.399 739.914 Q116.343 735.308 116.343 726.581 Q116.343 717.831 119.399 713.248 Q122.478 708.641 128.288 708.641 Z" fill="#000000" fill-rule="evenodd" fill-opacity="1"></path><path clip-path="url(#clip790)" d="M148.45 737.947 L153.334 737.947 L153.334 743.826 L148.45 743.826 L148.45 737.947 Z" fill="#000000" fill-rule="evenodd" fill-opacity="1"></path><path clip-path="url(#clip790)" d="M173.519 712.345 Q169.908 712.345 168.079 715.91 Q166.274 719.451 166.274 726.581 Q166.274 733.687 168.079 737.252 Q169.908 740.794 173.519 740.794 Q177.153 740.794 178.959 737.252 Q180.788 733.687 180.788 726.581 Q180.788 719.451 178.959 715.91 Q177.153 712.345 173.519 712.345 M173.519 708.641 Q179.329 708.641 182.385 713.248 Q185.463 717.831 185.463 726.581 Q185.463 735.308 182.385 739.914 Q179.329 744.497 173.519 744.497 Q167.709 744.497 164.63 739.914 Q161.575 735.308 161.575 726.581 Q161.575 717.831 164.63 713.248 Q167.709 708.641 173.519 708.641 Z" fill="#000000" fill-rule="evenodd" fill-opacity="1"></path><path clip-path="url(#clip790)" d="M197.709 739.891 L214.028 739.891 L214.028 743.826 L192.084 743.826 L192.084 739.891 Q194.746 737.136 199.329 732.507 Q203.936 727.854 205.116 726.511 Q207.362 723.988 208.241 722.252 Q209.144 720.493 209.144 718.803 Q209.144 716.049 207.199 714.312 Q205.278 712.576 202.176 712.576 Q199.977 712.576 197.524 713.34 Q195.093 714.104 192.315 715.655 L192.315 710.933 Q195.139 709.799 197.593 709.22 Q200.047 708.641 202.084 708.641 Q207.454 708.641 210.649 711.326 Q213.843 714.011 213.843 718.502 Q213.843 720.632 213.033 722.553 Q212.246 724.451 210.139 727.044 Q209.561 727.715 206.459 730.933 Q203.357 734.127 197.709 739.891 Z" fill="#000000" fill-rule="evenodd" fill-opacity="1"></path><path clip-path="url(#clip790)" d="M227.871 739.891 L244.19 739.891 L244.19 743.826 L222.246 743.826 L222.246 739.891 Q224.908 737.136 229.491 732.507 Q234.097 727.854 235.278 726.511 Q237.523 723.988 238.403 722.252 Q239.306 720.493 239.306 718.803 Q239.306 716.049 237.361 714.312 Q235.44 712.576 232.338 712.576 Q230.139 712.576 227.685 713.34 Q225.255 714.104 222.477 715.655 L222.477 710.933 Q225.301 709.799 227.755 709.22 Q230.209 708.641 232.246 708.641 Q237.616 708.641 240.81 711.326 Q244.005 714.011 244.005 718.502 Q244.005 720.632 243.195 722.553 Q242.408 724.451 240.301 727.044 Q239.722 727.715 236.621 730.933 Q233.519 734.127 227.871 739.891 Z" fill="#000000" fill-rule="evenodd" fill-opacity="1"></path><path clip-path="url(#clip790)" d="M258.033 739.891 L274.352 739.891 L274.352 743.826 L252.408 743.826 L252.408 739.891 Q255.07 737.136 259.653 732.507 Q264.259 727.854 265.44 726.511 Q267.685 723.988 268.565 722.252 Q269.468 720.493 269.468 718.803 Q269.468 716.049 267.523 714.312 Q265.602 712.576 262.5 712.576 Q260.301 712.576 257.847 713.34 Q255.417 714.104 252.639 715.655 L252.639 710.933 Q255.463 709.799 257.917 709.22 Q260.37 708.641 262.408 708.641 Q267.778 708.641 270.972 711.326 Q274.167 714.011 274.167 718.502 Q274.167 720.632 273.357 722.553 Q272.569 724.451 270.463 727.044 Q269.884 727.715 266.782 730.933 Q263.681 734.127 258.033 739.891 Z" fill="#000000" fill-rule="evenodd" fill-opacity="1"></path><path clip-path="url(#clip790)" d="M126.205 513.593 Q122.593 513.593 120.765 517.158 Q118.959 520.699 118.959 527.829 Q118.959 534.935 120.765 538.5 Q122.593 542.042 126.205 542.042 Q129.839 542.042 131.644 538.5 Q133.473 534.935 133.473 527.829 Q133.473 520.699 131.644 517.158 Q129.839 513.593 126.205 513.593 M126.205 509.889 Q132.015 509.889 135.07 514.496 Q138.149 519.079 138.149 527.829 Q138.149 536.556 135.07 541.162 Q132.015 545.746 126.205 545.746 Q120.394 545.746 117.316 541.162 Q114.26 536.556 114.26 527.829 Q114.26 519.079 117.316 514.496 Q120.394 509.889 126.205 509.889 Z" fill="#000000" fill-rule="evenodd" fill-opacity="1"></path><path clip-path="url(#clip790)" d="M146.366 539.195 L151.251 539.195 L151.251 545.074 L146.366 545.074 L146.366 539.195 Z" fill="#000000" fill-rule="evenodd" fill-opacity="1"></path><path clip-path="url(#clip790)" d="M171.436 513.593 Q167.825 513.593 165.996 517.158 Q164.19 520.699 164.19 527.829 Q164.19 534.935 165.996 538.5 Q167.825 542.042 171.436 542.042 Q175.07 542.042 176.876 538.5 Q178.704 534.935 178.704 527.829 Q178.704 520.699 176.876 517.158 Q175.07 513.593 171.436 513.593 M171.436 509.889 Q177.246 509.889 180.301 514.496 Q183.38 519.079 183.38 527.829 Q183.38 536.556 180.301 541.162 Q177.246 545.746 171.436 545.746 Q165.626 545.746 162.547 541.162 Q159.491 536.556 159.491 527.829 Q159.491 519.079 162.547 514.496 Q165.626 509.889 171.436 509.889 Z" fill="#000000" fill-rule="evenodd" fill-opacity="1"></path><path clip-path="url(#clip790)" d="M195.625 541.139 L211.945 541.139 L211.945 545.074 L190 545.074 L190 541.139 Q192.663 538.385 197.246 533.755 Q201.852 529.102 203.033 527.76 Q205.278 525.236 206.158 523.5 Q207.061 521.741 207.061 520.051 Q207.061 517.297 205.116 515.561 Q203.195 513.824 200.093 513.824 Q197.894 513.824 195.44 514.588 Q193.01 515.352 190.232 516.903 L190.232 512.181 Q193.056 511.047 195.51 510.468 Q197.963 509.889 200 509.889 Q205.371 509.889 208.565 512.574 Q211.76 515.26 211.76 519.75 Q211.76 521.88 210.949 523.801 Q210.162 525.699 208.056 528.292 Q207.477 528.963 204.375 532.181 Q201.274 535.375 195.625 541.139 Z" fill="#000000" fill-rule="evenodd" fill-opacity="1"></path><path clip-path="url(#clip790)" d="M225.787 541.139 L242.107 541.139 L242.107 545.074 L220.162 545.074 L220.162 541.139 Q222.824 538.385 227.408 533.755 Q232.014 529.102 233.195 527.76 Q235.44 525.236 236.32 523.5 Q237.222 521.741 237.222 520.051 Q237.222 517.297 235.278 515.561 Q233.357 513.824 230.255 513.824 Q228.056 513.824 225.602 514.588 Q223.172 515.352 220.394 516.903 L220.394 512.181 Q223.218 511.047 225.672 510.468 Q228.125 509.889 230.162 509.889 Q235.533 509.889 238.727 512.574 Q241.922 515.26 241.922 519.75 Q241.922 521.88 241.111 523.801 Q240.324 525.699 238.218 528.292 Q237.639 528.963 234.537 532.181 Q231.435 535.375 225.787 541.139 Z" fill="#000000" fill-rule="evenodd" fill-opacity="1"></path><path clip-path="url(#clip790)" d="M264.769 514.588 L252.963 533.037 L264.769 533.037 L264.769 514.588 M263.542 510.514 L269.421 510.514 L269.421 533.037 L274.352 533.037 L274.352 536.926 L269.421 536.926 L269.421 545.074 L264.769 545.074 L264.769 536.926 L249.167 536.926 L249.167 532.412 L263.542 510.514 Z" fill="#000000" fill-rule="evenodd" fill-opacity="1"></path><path clip-path="url(#clip790)" d="M126.529 314.841 Q122.918 314.841 121.089 318.406 Q119.283 321.948 119.283 329.077 Q119.283 336.184 121.089 339.748 Q122.918 343.29 126.529 343.29 Q130.163 343.29 131.968 339.748 Q133.797 336.184 133.797 329.077 Q133.797 321.948 131.968 318.406 Q130.163 314.841 126.529 314.841 M126.529 311.137 Q132.339 311.137 135.394 315.744 Q138.473 320.327 138.473 329.077 Q138.473 337.804 135.394 342.41 Q132.339 346.994 126.529 346.994 Q120.718 346.994 117.64 342.41 Q114.584 337.804 114.584 329.077 Q114.584 320.327 117.64 315.744 Q120.718 311.137 126.529 311.137 Z" fill="#000000" fill-rule="evenodd" fill-opacity="1"></path><path clip-path="url(#clip790)" d="M146.691 340.443 L151.575 340.443 L151.575 346.322 L146.691 346.322 L146.691 340.443 Z" fill="#000000" fill-rule="evenodd" fill-opacity="1"></path><path clip-path="url(#clip790)" d="M171.76 314.841 Q168.149 314.841 166.32 318.406 Q164.515 321.948 164.515 329.077 Q164.515 336.184 166.32 339.748 Q168.149 343.29 171.76 343.29 Q175.394 343.29 177.2 339.748 Q179.028 336.184 179.028 329.077 Q179.028 321.948 177.2 318.406 Q175.394 314.841 171.76 314.841 M171.76 311.137 Q177.57 311.137 180.626 315.744 Q183.704 320.327 183.704 329.077 Q183.704 337.804 180.626 342.41 Q177.57 346.994 171.76 346.994 Q165.95 346.994 162.871 342.41 Q159.815 337.804 159.815 329.077 Q159.815 320.327 162.871 315.744 Q165.95 311.137 171.76 311.137 Z" fill="#000000" fill-rule="evenodd" fill-opacity="1"></path><path clip-path="url(#clip790)" d="M195.95 342.387 L212.269 342.387 L212.269 346.322 L190.325 346.322 L190.325 342.387 Q192.987 339.633 197.57 335.003 Q202.176 330.35 203.357 329.008 Q205.602 326.485 206.482 324.749 Q207.385 322.989 207.385 321.299 Q207.385 318.545 205.44 316.809 Q203.519 315.073 200.417 315.073 Q198.218 315.073 195.764 315.837 Q193.334 316.6 190.556 318.151 L190.556 313.429 Q193.38 312.295 195.834 311.716 Q198.287 311.137 200.325 311.137 Q205.695 311.137 208.889 313.823 Q212.084 316.508 212.084 320.999 Q212.084 323.128 211.274 325.049 Q210.486 326.948 208.38 329.54 Q207.801 330.211 204.699 333.429 Q201.598 336.623 195.95 342.387 Z" fill="#000000" fill-rule="evenodd" fill-opacity="1"></path><path clip-path="url(#clip790)" d="M226.111 342.387 L242.431 342.387 L242.431 346.322 L220.486 346.322 L220.486 342.387 Q223.148 339.633 227.732 335.003 Q232.338 330.35 233.519 329.008 Q235.764 326.485 236.644 324.749 Q237.547 322.989 237.547 321.299 Q237.547 318.545 235.602 316.809 Q233.681 315.073 230.579 315.073 Q228.38 315.073 225.926 315.837 Q223.496 316.6 220.718 318.151 L220.718 313.429 Q223.542 312.295 225.996 311.716 Q228.449 311.137 230.486 311.137 Q235.857 311.137 239.051 313.823 Q242.246 316.508 242.246 320.999 Q242.246 323.128 241.435 325.049 Q240.648 326.948 238.542 329.54 Q237.963 330.211 234.861 333.429 Q231.76 336.623 226.111 342.387 Z" fill="#000000" fill-rule="evenodd" fill-opacity="1"></path><path clip-path="url(#clip790)" d="M262.824 327.179 Q259.676 327.179 257.824 329.332 Q255.996 331.485 255.996 335.235 Q255.996 338.961 257.824 341.137 Q259.676 343.29 262.824 343.29 Q265.972 343.29 267.801 341.137 Q269.653 338.961 269.653 335.235 Q269.653 331.485 267.801 329.332 Q265.972 327.179 262.824 327.179 M272.107 312.526 L272.107 316.786 Q270.347 315.952 268.542 315.512 Q266.759 315.073 265 315.073 Q260.37 315.073 257.917 318.198 Q255.486 321.323 255.139 327.642 Q256.505 325.628 258.565 324.563 Q260.625 323.475 263.102 323.475 Q268.31 323.475 271.32 326.647 Q274.352 329.795 274.352 335.235 Q274.352 340.559 271.204 343.776 Q268.056 346.994 262.824 346.994 Q256.829 346.994 253.658 342.41 Q250.486 337.804 250.486 329.077 Q250.486 320.883 254.375 316.022 Q258.264 311.137 264.815 311.137 Q266.574 311.137 268.357 311.485 Q270.162 311.832 272.107 312.526 Z" fill="#000000" fill-rule="evenodd" fill-opacity="1"></path><path clip-path="url(#clip790)" d="M126.783 116.089 Q123.172 116.089 121.343 119.654 Q119.538 123.196 119.538 130.325 Q119.538 137.432 121.343 140.997 Q123.172 144.538 126.783 144.538 Q130.417 144.538 132.223 140.997 Q134.052 137.432 134.052 130.325 Q134.052 123.196 132.223 119.654 Q130.417 116.089 126.783 116.089 M126.783 112.386 Q132.593 112.386 135.649 116.992 Q138.728 121.575 138.728 130.325 Q138.728 139.052 135.649 143.659 Q132.593 148.242 126.783 148.242 Q120.973 148.242 117.894 143.659 Q114.839 139.052 114.839 130.325 Q114.839 121.575 117.894 116.992 Q120.973 112.386 126.783 112.386 Z" fill="#000000" fill-rule="evenodd" fill-opacity="1"></path><path clip-path="url(#clip790)" d="M146.945 141.691 L151.829 141.691 L151.829 147.571 L146.945 147.571 L146.945 141.691 Z" fill="#000000" fill-rule="evenodd" fill-opacity="1"></path><path clip-path="url(#clip790)" d="M172.014 116.089 Q168.403 116.089 166.575 119.654 Q164.769 123.196 164.769 130.325 Q164.769 137.432 166.575 140.997 Q168.403 144.538 172.014 144.538 Q175.649 144.538 177.454 140.997 Q179.283 137.432 179.283 130.325 Q179.283 123.196 177.454 119.654 Q175.649 116.089 172.014 116.089 M172.014 112.386 Q177.825 112.386 180.88 116.992 Q183.959 121.575 183.959 130.325 Q183.959 139.052 180.88 143.659 Q177.825 148.242 172.014 148.242 Q166.204 148.242 163.126 143.659 Q160.07 139.052 160.07 130.325 Q160.07 121.575 163.126 116.992 Q166.204 112.386 172.014 112.386 Z" fill="#000000" fill-rule="evenodd" fill-opacity="1"></path><path clip-path="url(#clip790)" d="M196.204 143.636 L212.524 143.636 L212.524 147.571 L190.579 147.571 L190.579 143.636 Q193.241 140.881 197.825 136.251 Q202.431 131.599 203.612 130.256 Q205.857 127.733 206.737 125.997 Q207.639 124.237 207.639 122.548 Q207.639 119.793 205.695 118.057 Q203.774 116.321 200.672 116.321 Q198.473 116.321 196.019 117.085 Q193.588 117.849 190.811 119.4 L190.811 114.677 Q193.635 113.543 196.088 112.964 Q198.542 112.386 200.579 112.386 Q205.949 112.386 209.144 115.071 Q212.338 117.756 212.338 122.247 Q212.338 124.376 211.528 126.298 Q210.741 128.196 208.635 130.788 Q208.056 131.46 204.954 134.677 Q201.852 137.872 196.204 143.636 Z" fill="#000000" fill-rule="evenodd" fill-opacity="1"></path><path clip-path="url(#clip790)" d="M226.366 143.636 L242.685 143.636 L242.685 147.571 L220.741 147.571 L220.741 143.636 Q223.403 140.881 227.986 136.251 Q232.593 131.599 233.773 130.256 Q236.019 127.733 236.898 125.997 Q237.801 124.237 237.801 122.548 Q237.801 119.793 235.857 118.057 Q233.935 116.321 230.834 116.321 Q228.635 116.321 226.181 117.085 Q223.75 117.849 220.973 119.4 L220.973 114.677 Q223.797 113.543 226.25 112.964 Q228.704 112.386 230.741 112.386 Q236.111 112.386 239.306 115.071 Q242.5 117.756 242.5 122.247 Q242.5 124.376 241.69 126.298 Q240.903 128.196 238.797 130.788 Q238.218 131.46 235.116 134.677 Q232.014 137.872 226.366 143.636 Z" fill="#000000" fill-rule="evenodd" fill-opacity="1"></path><path clip-path="url(#clip790)" d="M262.5 131.159 Q259.167 131.159 257.246 132.941 Q255.347 134.724 255.347 137.848 Q255.347 140.973 257.246 142.756 Q259.167 144.538 262.5 144.538 Q265.833 144.538 267.755 142.756 Q269.676 140.95 269.676 137.848 Q269.676 134.724 267.755 132.941 Q265.857 131.159 262.5 131.159 M257.824 129.168 Q254.815 128.427 253.125 126.367 Q251.458 124.307 251.458 121.344 Q251.458 117.2 254.398 114.793 Q257.361 112.386 262.5 112.386 Q267.662 112.386 270.602 114.793 Q273.542 117.2 273.542 121.344 Q273.542 124.307 271.852 126.367 Q270.185 128.427 267.199 129.168 Q270.579 129.955 272.454 132.247 Q274.352 134.538 274.352 137.848 Q274.352 142.872 271.273 145.557 Q268.218 148.242 262.5 148.242 Q256.783 148.242 253.704 145.557 Q250.648 142.872 250.648 137.848 Q250.648 134.538 252.546 132.247 Q254.445 129.955 257.824 129.168 M256.111 121.784 Q256.111 124.469 257.778 125.974 Q259.468 127.478 262.5 127.478 Q265.509 127.478 267.199 125.974 Q268.912 124.469 268.912 121.784 Q268.912 119.099 267.199 117.594 Q265.509 116.089 262.5 116.089 Q259.468 116.089 257.778 117.594 Q256.111 119.099 256.111 121.784 Z" fill="#000000" fill-rule="evenodd" fill-opacity="1"></path><path clip-path="url(#clip790)" d="M16.4842 925.054 L16.4842 895.008 L21.895 895.008 L21.895 918.625 L35.9632 918.625 L35.9632 895.995 L41.3741 895.995 L41.3741 918.625 L58.5933 918.625 L58.5933 894.435 L64.0042 894.435 L64.0042 925.054 L16.4842 925.054 Z" fill="#000000" fill-rule="evenodd" fill-opacity="1"></path><path clip-path="url(#clip790)" d="M42.4881 854.49 L64.0042 854.49 L64.0042 860.347 L42.679 860.347 Q37.6183 860.347 35.1038 862.32 Q32.5894 864.293 32.5894 868.24 Q32.5894 872.983 35.6131 875.72 Q38.6368 878.457 43.8567 878.457 L64.0042 878.457 L64.0042 884.345 L28.3562 884.345 L28.3562 878.457 L33.8944 878.457 Q30.6797 876.356 29.0883 873.524 Q27.4968 870.659 27.4968 866.935 Q27.4968 860.792 31.3163 857.641 Q35.1038 854.49 42.4881 854.49 Z" fill="#000000" fill-rule="evenodd" fill-opacity="1"></path><path clip-path="url(#clip790)" d="M44.7161 812.317 L47.5806 812.317 L47.5806 839.244 Q53.6281 838.862 56.8109 835.616 Q59.9619 832.338 59.9619 826.513 Q59.9619 823.139 59.1344 819.988 Q58.3069 816.805 56.6518 813.686 L62.1899 813.686 Q63.5267 816.837 64.227 820.147 Q64.9272 823.457 64.9272 826.863 Q64.9272 835.393 59.9619 840.39 Q54.9967 845.355 46.5303 845.355 Q37.7774 845.355 32.6531 840.645 Q27.4968 835.902 27.4968 827.882 Q27.4968 820.688 32.1438 816.519 Q36.7589 812.317 44.7161 812.317 M42.9973 818.174 Q38.1912 818.237 35.3266 820.879 Q32.4621 823.489 32.4621 827.818 Q32.4621 832.719 35.2312 835.68 Q38.0002 838.608 43.0292 839.053 L42.9973 818.174 Z" fill="#000000" fill-rule="evenodd" fill-opacity="1"></path><path clip-path="url(#clip790)" d="M33.8307 782.048 Q33.2578 783.035 33.0032 784.213 Q32.7167 785.359 32.7167 786.759 Q32.7167 791.724 35.9632 794.398 Q39.1779 797.04 45.2253 797.04 L64.0042 797.04 L64.0042 802.928 L28.3562 802.928 L28.3562 797.04 L33.8944 797.04 Q30.6479 795.194 29.0883 792.234 Q27.4968 789.274 27.4968 785.04 Q27.4968 784.436 27.5923 783.704 Q27.656 782.971 27.8151 782.08 L33.8307 782.048 Z" fill="#000000" fill-rule="evenodd" fill-opacity="1"></path><path clip-path="url(#clip790)" d="M45.7664 753.594 Q39.4007 753.594 35.8996 756.236 Q32.3984 758.845 32.3984 763.588 Q32.3984 768.299 35.8996 770.94 Q39.4007 773.55 45.7664 773.55 Q52.1003 773.55 55.6014 770.94 Q59.1026 768.299 59.1026 763.588 Q59.1026 758.845 55.6014 756.236 Q52.1003 753.594 45.7664 753.594 M59.58 747.737 Q68.683 747.737 73.1071 751.78 Q77.5631 755.822 77.5631 764.161 Q77.5631 767.248 77.0857 769.985 Q76.6401 772.723 75.6852 775.301 L69.9879 775.301 Q71.3884 772.723 72.0568 770.208 Q72.7252 767.694 72.7252 765.084 Q72.7252 759.323 69.7015 756.458 Q66.7096 753.594 60.6303 753.594 L57.7339 753.594 Q60.885 755.408 62.4446 758.241 Q64.0042 761.073 64.0042 765.02 Q64.0042 771.577 59.0071 775.587 Q54.01 779.598 45.7664 779.598 Q37.491 779.598 32.4939 775.587 Q27.4968 771.577 27.4968 765.02 Q27.4968 761.073 29.0564 758.241 Q30.616 755.408 33.7671 753.594 L28.3562 753.594 L28.3562 747.737 L59.58 747.737 Z" fill="#000000" fill-rule="evenodd" fill-opacity="1"></path><path clip-path="url(#clip790)" d="M67.3143 720.842 Q73.68 723.325 75.6216 725.68 Q77.5631 728.035 77.5631 731.982 L77.5631 736.661 L72.6615 736.661 L72.6615 733.223 Q72.6615 730.805 71.5157 729.468 Q70.3699 728.131 66.1048 726.508 L63.4312 725.457 L28.3562 739.876 L28.3562 733.669 L56.238 722.529 L28.3562 711.389 L28.3562 705.183 L67.3143 720.842 Z" fill="#000000" fill-rule="evenodd" fill-opacity="1"></path><path clip-path="url(#clip790)" d="M16.4842 686.69 L16.4842 681.279 L70.0516 697.83 L70.0516 703.241 L16.4842 686.69 Z" fill="#000000" fill-rule="evenodd" fill-opacity="1"></path><path clip-path="url(#clip790)" d="M16.4842 674.882 L16.4842 644.836 L21.895 644.836 L21.895 668.452 L35.9632 668.452 L35.9632 645.822 L41.3741 645.822 L41.3741 668.452 L58.5933 668.452 L58.5933 644.263 L64.0042 644.263 L64.0042 674.882 L16.4842 674.882 Z" fill="#000000" fill-rule="evenodd" fill-opacity="1"></path><path clip-path="url(#clip790)" d="M42.4881 604.318 L64.0042 604.318 L64.0042 610.174 L42.679 610.174 Q37.6183 610.174 35.1038 612.148 Q32.5894 614.121 32.5894 618.068 Q32.5894 622.81 35.6131 625.548 Q38.6368 628.285 43.8567 628.285 L64.0042 628.285 L64.0042 634.173 L14.479 634.173 L14.479 628.285 L33.8944 628.285 Q30.6797 626.184 29.0883 623.351 Q27.4968 620.487 27.4968 616.763 Q27.4968 610.62 31.3163 607.469 Q35.1038 604.318 42.4881 604.318 Z" fill="#000000" fill-rule="evenodd" fill-opacity="1"></path><path clip-path="url(#clip790)" d="M541.497 14.3981 L533.569 35.8968 L549.455 35.8968 L541.497 14.3981 M538.199 8.64 L544.825 8.64 L561.289 51.84 L555.213 51.84 L551.277 40.7579 L531.804 40.7579 L527.869 51.84 L521.706 51.84 L538.199 8.64 Z" fill="#000000" fill-rule="evenodd" fill-opacity="1"></path><path clip-path="url(#clip790)" d="M560.074 19.4328 L565.716 19.4328 L575.843 46.6317 L585.971 19.4328 L591.613 19.4328 L579.46 51.84 L572.226 51.84 L560.074 19.4328 Z" fill="#000000" fill-rule="evenodd" fill-opacity="1"></path><path clip-path="url(#clip790)" d="M626.682 34.3054 L626.682 36.9095 L602.203 36.9095 Q602.55 42.4072 605.502 45.3007 Q608.482 48.1653 613.777 48.1653 Q616.844 48.1653 619.709 47.4129 Q622.602 46.6606 625.438 45.156 L625.438 50.1907 Q622.573 51.406 619.564 52.0425 Q616.555 52.6791 613.459 52.6791 Q605.704 52.6791 601.161 48.1653 Q596.648 43.6514 596.648 35.9547 Q596.648 27.9975 600.93 23.339 Q605.241 18.6515 612.533 18.6515 Q619.072 18.6515 622.863 22.876 Q626.682 27.0716 626.682 34.3054 M621.358 32.7429 Q621.3 28.3737 618.899 25.7695 Q616.526 23.1654 612.591 23.1654 Q608.135 23.1654 605.444 25.6827 Q602.782 28.2001 602.377 32.7718 L621.358 32.7429 Z" fill="#000000" fill-rule="evenodd" fill-opacity="1"></path><path clip-path="url(#clip790)" d="M654.199 24.4096 Q653.302 23.8888 652.232 23.6573 Q651.19 23.3969 649.917 23.3969 Q645.403 23.3969 642.973 26.3482 Q640.571 29.2707 640.571 34.7683 L640.571 51.84 L635.218 51.84 L635.218 19.4328 L640.571 19.4328 L640.571 24.4675 Q642.249 21.5161 644.94 20.0983 Q647.631 18.6515 651.479 18.6515 Q652.029 18.6515 652.695 18.7383 Q653.36 18.7962 654.17 18.9409 L654.199 24.4096 Z" fill="#000000" fill-rule="evenodd" fill-opacity="1"></path><path clip-path="url(#clip790)" d="M674.512 35.5496 Q668.059 35.5496 665.571 37.0253 Q663.082 38.501 663.082 42.06 Q663.082 44.8956 664.934 46.5738 Q666.815 48.2231 670.027 48.2231 Q674.454 48.2231 677.116 45.0981 Q679.807 41.9442 679.807 36.7359 L679.807 35.5496 L674.512 35.5496 M685.131 33.3505 L685.131 51.84 L679.807 51.84 L679.807 46.921 Q677.984 49.8724 675.264 51.2902 Q672.544 52.6791 668.609 52.6791 Q663.632 52.6791 660.681 49.9014 Q657.758 47.0947 657.758 42.4072 Q657.758 36.9385 661.404 34.1607 Q665.079 31.3829 672.342 31.3829 L679.807 31.3829 L679.807 30.8621 Q679.807 27.1874 677.376 25.1908 Q674.975 23.1654 670.605 23.1654 Q667.828 23.1654 665.195 23.8309 Q662.562 24.4964 660.131 25.8274 L660.131 20.9085 Q663.053 19.78 665.802 19.2302 Q668.551 18.6515 671.155 18.6515 Q678.186 18.6515 681.659 22.2973 Q685.131 25.9431 685.131 33.3505 Z" fill="#000000" fill-rule="evenodd" fill-opacity="1"></path><path clip-path="url(#clip790)" d="M717.422 35.2602 Q717.422 29.4732 715.021 26.2904 Q712.648 23.1075 708.337 23.1075 Q704.054 23.1075 701.653 26.2904 Q699.28 29.4732 699.28 35.2602 Q699.28 41.0183 701.653 44.2012 Q704.054 47.384 708.337 47.384 Q712.648 47.384 715.021 44.2012 Q717.422 41.0183 717.422 35.2602 M722.746 47.818 Q722.746 56.0934 719.072 60.1154 Q715.397 64.1663 707.816 64.1663 Q705.009 64.1663 702.521 63.7323 Q700.032 63.3272 697.689 62.4592 L697.689 57.2798 Q700.032 58.5529 702.318 59.1606 Q704.604 59.7682 706.977 59.7682 Q712.214 59.7682 714.818 57.0194 Q717.422 54.2995 717.422 48.7729 L717.422 46.1398 Q715.773 49.0044 713.198 50.4222 Q710.623 51.84 707.035 51.84 Q701.074 51.84 697.428 47.2972 Q693.782 42.7544 693.782 35.2602 Q693.782 27.7371 697.428 23.1943 Q701.074 18.6515 707.035 18.6515 Q710.623 18.6515 713.198 20.0693 Q715.773 21.4872 717.422 24.3517 L717.422 19.4328 L722.746 19.4328 L722.746 47.818 Z" fill="#000000" fill-rule="evenodd" fill-opacity="1"></path><path clip-path="url(#clip790)" d="M761.433 34.3054 L761.433 36.9095 L736.953 36.9095 Q737.301 42.4072 740.252 45.3007 Q743.232 48.1653 748.528 48.1653 Q751.595 48.1653 754.459 47.4129 Q757.353 46.6606 760.188 45.156 L760.188 50.1907 Q757.324 51.406 754.315 52.0425 Q751.305 52.6791 748.209 52.6791 Q740.455 52.6791 735.912 48.1653 Q731.398 43.6514 731.398 35.9547 Q731.398 27.9975 735.68 23.339 Q739.992 18.6515 747.283 18.6515 Q753.823 18.6515 757.613 22.876 Q761.433 27.0716 761.433 34.3054 M756.108 32.7429 Q756.051 28.3737 753.649 25.7695 Q751.276 23.1654 747.341 23.1654 Q742.885 23.1654 740.194 25.6827 Q737.532 28.2001 737.127 32.7718 L756.108 32.7429 Z" fill="#000000" fill-rule="evenodd" fill-opacity="1"></path><path clip-path="url(#clip790)" d="M816.727 34.3054 L816.727 36.9095 L792.248 36.9095 Q792.596 42.4072 795.547 45.3007 Q798.527 48.1653 803.822 48.1653 Q806.889 48.1653 809.754 47.4129 Q812.648 46.6606 815.483 45.156 L815.483 50.1907 Q812.619 51.406 809.609 52.0425 Q806.6 52.6791 803.504 52.6791 Q795.749 52.6791 791.207 48.1653 Q786.693 43.6514 786.693 35.9547 Q786.693 27.9975 790.975 23.339 Q795.287 18.6515 802.578 18.6515 Q809.117 18.6515 812.908 22.876 Q816.727 27.0716 816.727 34.3054 M811.403 32.7429 Q811.345 28.3737 808.944 25.7695 Q806.571 23.1654 802.636 23.1654 Q798.18 23.1654 795.489 25.6827 Q792.827 28.2001 792.422 32.7718 L811.403 32.7429 Z" fill="#000000" fill-rule="evenodd" fill-opacity="1"></path><path clip-path="url(#clip790)" d="M852.404 32.2799 L852.404 51.84 L847.08 51.84 L847.08 32.4535 Q847.08 27.8529 845.286 25.567 Q843.492 23.2811 839.904 23.2811 Q835.593 23.2811 833.105 26.03 Q830.616 28.7788 830.616 33.5241 L830.616 51.84 L825.263 51.84 L825.263 19.4328 L830.616 19.4328 L830.616 24.4675 Q832.526 21.545 835.101 20.0983 Q837.705 18.6515 841.091 18.6515 Q846.675 18.6515 849.54 22.1237 Q852.404 25.567 852.404 32.2799 Z" fill="#000000" fill-rule="evenodd" fill-opacity="1"></path><path clip-path="url(#clip790)" d="M890.743 34.3054 L890.743 36.9095 L866.264 36.9095 Q866.611 42.4072 869.563 45.3007 Q872.543 48.1653 877.838 48.1653 Q880.905 48.1653 883.77 47.4129 Q886.663 46.6606 889.499 45.156 L889.499 50.1907 Q886.634 51.406 883.625 52.0425 Q880.616 52.6791 877.52 52.6791 Q869.765 52.6791 865.222 48.1653 Q860.709 43.6514 860.709 35.9547 Q860.709 27.9975 864.991 23.339 Q869.302 18.6515 876.594 18.6515 Q883.133 18.6515 886.924 22.876 Q890.743 27.0716 890.743 34.3054 M885.419 32.7429 Q885.361 28.3737 882.96 25.7695 Q880.587 23.1654 876.652 23.1654 Q872.196 23.1654 869.505 25.6827 Q866.843 28.2001 866.438 32.7718 L885.419 32.7429 Z" fill="#000000" fill-rule="evenodd" fill-opacity="1"></path><path clip-path="url(#clip790)" d="M918.26 24.4096 Q917.363 23.8888 916.293 23.6573 Q915.251 23.3969 913.978 23.3969 Q909.464 23.3969 907.034 26.3482 Q904.632 29.2707 904.632 34.7683 L904.632 51.84 L899.279 51.84 L899.279 19.4328 L904.632 19.4328 L904.632 24.4675 Q906.31 21.5161 909.001 20.0983 Q911.692 18.6515 915.541 18.6515 Q916.09 18.6515 916.756 18.7383 Q917.421 18.7962 918.231 18.9409 L918.26 24.4096 Z" fill="#000000" fill-rule="evenodd" fill-opacity="1"></path><path clip-path="url(#clip790)" d="M944.128 35.2602 Q944.128 29.4732 941.727 26.2904 Q939.354 23.1075 935.043 23.1075 Q930.76 23.1075 928.359 26.2904 Q925.986 29.4732 925.986 35.2602 Q925.986 41.0183 928.359 44.2012 Q930.76 47.384 935.043 47.384 Q939.354 47.384 941.727 44.2012 Q944.128 41.0183 944.128 35.2602 M949.452 47.818 Q949.452 56.0934 945.778 60.1154 Q942.103 64.1663 934.522 64.1663 Q931.715 64.1663 929.227 63.7323 Q926.738 63.3272 924.395 62.4592 L924.395 57.2798 Q926.738 58.5529 929.024 59.1606 Q931.31 59.7682 933.683 59.7682 Q938.92 59.7682 941.524 57.0194 Q944.128 54.2995 944.128 48.7729 L944.128 46.1398 Q942.479 49.0044 939.904 50.4222 Q937.329 51.84 933.741 51.84 Q927.78 51.84 924.134 47.2972 Q920.488 42.7544 920.488 35.2602 Q920.488 27.7371 924.134 23.1943 Q927.78 18.6515 933.741 18.6515 Q937.329 18.6515 939.904 20.0693 Q942.479 21.4872 944.128 24.3517 L944.128 19.4328 L949.452 19.4328 L949.452 47.818 Z" fill="#000000" fill-rule="evenodd" fill-opacity="1"></path><path clip-path="url(#clip790)" d="M973.902 54.8492 Q971.646 60.6362 969.504 62.4013 Q967.363 64.1663 963.775 64.1663 L959.522 64.1663 L959.522 59.7103 L962.647 59.7103 Q964.846 59.7103 966.061 58.6687 Q967.276 57.627 968.752 53.7497 L969.707 51.3192 L956.599 19.4328 L962.242 19.4328 L972.369 44.7799 L982.496 19.4328 L988.138 19.4328 L973.902 54.8492 Z" fill="#000000" fill-rule="evenodd" fill-opacity="1"></path><path clip-path="url(#clip790)" d="M1026.88 23.1654 Q1022.6 23.1654 1020.11 26.5218 Q1017.62 29.8494 1017.62 35.6653 Q1017.62 41.4813 1020.08 44.8377 Q1022.57 48.1653 1026.88 48.1653 Q1031.14 48.1653 1033.62 44.8088 Q1036.11 41.4523 1036.11 35.6653 Q1036.11 29.9072 1033.62 26.5508 Q1031.14 23.1654 1026.88 23.1654 M1026.88 18.6515 Q1033.83 18.6515 1037.79 23.1654 Q1041.76 27.6792 1041.76 35.6653 Q1041.76 43.6225 1037.79 48.1653 Q1033.83 52.6791 1026.88 52.6791 Q1019.91 52.6791 1015.95 48.1653 Q1012.01 43.6225 1012.01 35.6653 Q1012.01 27.6792 1015.95 23.1654 Q1019.91 18.6515 1026.88 18.6515 Z" fill="#000000" fill-rule="evenodd" fill-opacity="1"></path><path clip-path="url(#clip790)" d="M1066.99 6.81709 L1066.99 11.2442 L1061.89 11.2442 Q1059.03 11.2442 1057.9 12.4016 Q1056.8 13.559 1056.8 16.5682 L1056.8 19.4328 L1065.57 19.4328 L1065.57 23.5705 L1056.8 23.5705 L1056.8 51.84 L1051.45 51.84 L1051.45 23.5705 L1046.36 23.5705 L1046.36 19.4328 L1051.45 19.4328 L1051.45 17.1758 Q1051.45 11.765 1053.97 9.30551 Q1056.48 6.81709 1061.95 6.81709 L1066.99 6.81709 Z" fill="#000000" fill-rule="evenodd" fill-opacity="1"></path><path clip-path="url(#clip790)" d="M1118 34.3054 L1118 36.9095 L1093.52 36.9095 Q1093.87 42.4072 1096.82 45.3007 Q1099.8 48.1653 1105.09 48.1653 Q1108.16 48.1653 1111.03 47.4129 Q1113.92 46.6606 1116.75 45.156 L1116.75 50.1907 Q1113.89 51.406 1110.88 52.0425 Q1107.87 52.6791 1104.78 52.6791 Q1097.02 52.6791 1092.48 48.1653 Q1087.96 43.6514 1087.96 35.9547 Q1087.96 27.9975 1092.25 23.339 Q1096.56 18.6515 1103.85 18.6515 Q1110.39 18.6515 1114.18 22.876 Q1118 27.0716 1118 34.3054 M1112.67 32.7429 Q1112.62 28.3737 1110.22 25.7695 Q1107.84 23.1654 1103.91 23.1654 Q1099.45 23.1654 1096.76 25.6827 Q1094.1 28.2001 1093.69 32.7718 L1112.67 32.7429 Z" fill="#000000" fill-rule="evenodd" fill-opacity="1"></path><path clip-path="url(#clip790)" d="M1141.47 35.5496 Q1135.01 35.5496 1132.52 37.0253 Q1130.04 38.501 1130.04 42.06 Q1130.04 44.8956 1131.89 46.5738 Q1133.77 48.2231 1136.98 48.2231 Q1141.41 48.2231 1144.07 45.0981 Q1146.76 41.9442 1146.76 36.7359 L1146.76 35.5496 L1141.47 35.5496 M1152.08 33.3505 L1152.08 51.84 L1146.76 51.84 L1146.76 46.921 Q1144.94 49.8724 1142.22 51.2902 Q1139.5 52.6791 1135.56 52.6791 Q1130.59 52.6791 1127.63 49.9014 Q1124.71 47.0947 1124.71 42.4072 Q1124.71 36.9385 1128.36 34.1607 Q1132.03 31.3829 1139.3 31.3829 L1146.76 31.3829 L1146.76 30.8621 Q1146.76 27.1874 1144.33 25.1908 Q1141.93 23.1654 1137.56 23.1654 Q1134.78 23.1654 1132.15 23.8309 Q1129.52 24.4964 1127.08 25.8274 L1127.08 20.9085 Q1130.01 19.78 1132.76 19.2302 Q1135.5 18.6515 1138.11 18.6515 Q1145.14 18.6515 1148.61 22.2973 Q1152.08 25.9431 1152.08 33.3505 Z" fill="#000000" fill-rule="evenodd" fill-opacity="1"></path><path clip-path="url(#clip790)" d="M1186.37 20.677 L1186.37 25.6538 Q1184.12 24.4096 1181.83 23.802 Q1179.57 23.1654 1177.26 23.1654 Q1172.08 23.1654 1169.21 26.464 Q1166.35 29.7336 1166.35 35.6653 Q1166.35 41.597 1169.21 44.8956 Q1172.08 48.1653 1177.26 48.1653 Q1179.57 48.1653 1181.83 47.5576 Q1184.12 46.921 1186.37 45.6768 L1186.37 50.5958 Q1184.14 51.6375 1181.74 52.1583 Q1179.37 52.6791 1176.68 52.6791 Q1169.36 52.6791 1165.05 48.0784 Q1160.74 43.4778 1160.74 35.6653 Q1160.74 27.7371 1165.08 23.1943 Q1169.45 18.6515 1177.03 18.6515 Q1179.49 18.6515 1181.83 19.1724 Q1184.17 19.6642 1186.37 20.677 Z" fill="#000000" fill-rule="evenodd" fill-opacity="1"></path><path clip-path="url(#clip790)" d="M1222.57 32.2799 L1222.57 51.84 L1217.25 51.84 L1217.25 32.4535 Q1217.25 27.8529 1215.45 25.567 Q1213.66 23.2811 1210.07 23.2811 Q1205.76 23.2811 1203.27 26.03 Q1200.78 28.7788 1200.78 33.5241 L1200.78 51.84 L1195.43 51.84 L1195.43 6.81709 L1200.78 6.81709 L1200.78 24.4675 Q1202.69 21.545 1205.27 20.0983 Q1207.87 18.6515 1211.26 18.6515 Q1216.84 18.6515 1219.71 22.1237 Q1222.57 25.567 1222.57 32.2799 Z" fill="#000000" fill-rule="evenodd" fill-opacity="1"></path><path clip-path="url(#clip790)" d="M1266.75 35.5496 Q1260.3 35.5496 1257.81 37.0253 Q1255.32 38.501 1255.32 42.06 Q1255.32 44.8956 1257.18 46.5738 Q1259.06 48.2231 1262.27 48.2231 Q1266.7 48.2231 1269.36 45.0981 Q1272.05 41.9442 1272.05 36.7359 L1272.05 35.5496 L1266.75 35.5496 M1277.37 33.3505 L1277.37 51.84 L1272.05 51.84 L1272.05 46.921 Q1270.23 49.8724 1267.51 51.2902 Q1264.79 52.6791 1260.85 52.6791 Q1255.87 52.6791 1252.92 49.9014 Q1250 47.0947 1250 42.4072 Q1250 36.9385 1253.65 34.1607 Q1257.32 31.3829 1264.58 31.3829 L1272.05 31.3829 L1272.05 30.8621 Q1272.05 27.1874 1269.62 25.1908 Q1267.22 23.1654 1262.85 23.1654 Q1260.07 23.1654 1257.44 23.8309 Q1254.8 24.4964 1252.37 25.8274 L1252.37 20.9085 Q1255.3 19.78 1258.04 19.2302 Q1260.79 18.6515 1263.4 18.6515 Q1270.43 18.6515 1273.9 22.2973 Q1277.37 25.9431 1277.37 33.3505 Z" fill="#000000" fill-rule="evenodd" fill-opacity="1"></path><path clip-path="url(#clip790)" d="M1293.61 10.2314 L1293.61 19.4328 L1304.57 19.4328 L1304.57 23.5705 L1293.61 23.5705 L1293.61 41.163 Q1293.61 45.1271 1294.68 46.2555 Q1295.78 47.384 1299.1 47.384 L1304.57 47.384 L1304.57 51.84 L1299.1 51.84 Q1292.94 51.84 1290.6 49.5541 Q1288.25 47.2393 1288.25 41.163 L1288.25 23.5705 L1284.35 23.5705 L1284.35 19.4328 L1288.25 19.4328 L1288.25 10.2314 L1293.61 10.2314 Z" fill="#000000" fill-rule="evenodd" fill-opacity="1"></path><path clip-path="url(#clip790)" d="M1324.13 23.1654 Q1319.85 23.1654 1317.36 26.5218 Q1314.87 29.8494 1314.87 35.6653 Q1314.87 41.4813 1317.33 44.8377 Q1319.82 48.1653 1324.13 48.1653 Q1328.39 48.1653 1330.87 44.8088 Q1333.36 41.4523 1333.36 35.6653 Q1333.36 29.9072 1330.87 26.5508 Q1328.39 23.1654 1324.13 23.1654 M1324.13 18.6515 Q1331.08 18.6515 1335.04 23.1654 Q1339 27.6792 1339 35.6653 Q1339 43.6225 1335.04 48.1653 Q1331.08 52.6791 1324.13 52.6791 Q1317.16 52.6791 1313.19 48.1653 Q1309.26 43.6225 1309.26 35.6653 Q1309.26 27.6792 1313.19 23.1654 Q1317.16 18.6515 1324.13 18.6515 Z" fill="#000000" fill-rule="evenodd" fill-opacity="1"></path><path clip-path="url(#clip790)" d="M1373.06 25.6538 Q1375.06 22.0659 1377.84 20.3587 Q1380.61 18.6515 1384.37 18.6515 Q1389.44 18.6515 1392.19 22.2105 Q1394.94 25.7406 1394.94 32.2799 L1394.94 51.84 L1389.58 51.84 L1389.58 32.4535 Q1389.58 27.795 1387.93 25.5381 Q1386.28 23.2811 1382.9 23.2811 Q1378.76 23.2811 1376.36 26.03 Q1373.96 28.7788 1373.96 33.5241 L1373.96 51.84 L1368.61 51.84 L1368.61 32.4535 Q1368.61 27.7661 1366.96 25.5381 Q1365.31 23.2811 1361.86 23.2811 Q1357.78 23.2811 1355.38 26.0589 Q1352.98 28.8077 1352.98 33.5241 L1352.98 51.84 L1347.63 51.84 L1347.63 19.4328 L1352.98 19.4328 L1352.98 24.4675 Q1354.8 21.4872 1357.35 20.0693 Q1359.9 18.6515 1363.4 18.6515 Q1366.93 18.6515 1369.39 20.4455 Q1371.87 22.2395 1373.06 25.6538 Z" fill="#000000" fill-rule="evenodd" fill-opacity="1"></path><path clip-path="url(#clip790)" d="M1424.39 19.4328 L1429.72 19.4328 L1429.72 51.84 L1424.39 51.84 L1424.39 19.4328 M1424.39 6.81709 L1429.72 6.81709 L1429.72 13.559 L1424.39 13.559 L1424.39 6.81709 Z" fill="#000000" fill-rule="evenodd" fill-opacity="1"></path><path clip-path="url(#clip790)" d="M1467.79 32.2799 L1467.79 51.84 L1462.47 51.84 L1462.47 32.4535 Q1462.47 27.8529 1460.68 25.567 Q1458.88 23.2811 1455.29 23.2811 Q1450.98 23.2811 1448.49 26.03 Q1446.01 28.7788 1446.01 33.5241 L1446.01 51.84 L1440.65 51.84 L1440.65 19.4328 L1446.01 19.4328 L1446.01 24.4675 Q1447.92 21.545 1450.49 20.0983 Q1453.1 18.6515 1456.48 18.6515 Q1462.07 18.6515 1464.93 22.1237 Q1467.79 25.567 1467.79 32.2799 Z" fill="#000000" fill-rule="evenodd" fill-opacity="1"></path><path clip-path="url(#clip790)" d="M1502.52 10.2314 L1502.52 19.4328 L1513.48 19.4328 L1513.48 23.5705 L1502.52 23.5705 L1502.52 41.163 Q1502.52 45.1271 1503.59 46.2555 Q1504.69 47.384 1508.01 47.384 L1513.48 47.384 L1513.48 51.84 L1508.01 51.84 Q1501.85 51.84 1499.51 49.5541 Q1497.16 47.2393 1497.16 41.163 L1497.16 23.5705 L1493.26 23.5705 L1493.26 19.4328 L1497.16 19.4328 L1497.16 10.2314 L1502.52 10.2314 Z" fill="#000000" fill-rule="evenodd" fill-opacity="1"></path><path clip-path="url(#clip790)" d="M1547.42 32.2799 L1547.42 51.84 L1542.1 51.84 L1542.1 32.4535 Q1542.1 27.8529 1540.31 25.567 Q1538.51 23.2811 1534.92 23.2811 Q1530.61 23.2811 1528.12 26.03 Q1525.64 28.7788 1525.64 33.5241 L1525.64 51.84 L1520.28 51.84 L1520.28 6.81709 L1525.64 6.81709 L1525.64 24.4675 Q1527.55 21.545 1530.12 20.0983 Q1532.72 18.6515 1536.11 18.6515 Q1541.69 18.6515 1544.56 22.1237 Q1547.42 25.567 1547.42 32.2799 Z" fill="#000000" fill-rule="evenodd" fill-opacity="1"></path><path clip-path="url(#clip790)" d="M1585.76 34.3054 L1585.76 36.9095 L1561.28 36.9095 Q1561.63 42.4072 1564.58 45.3007 Q1567.56 48.1653 1572.86 48.1653 Q1575.92 48.1653 1578.79 47.4129 Q1581.68 46.6606 1584.52 45.156 L1584.52 50.1907 Q1581.65 51.406 1578.64 52.0425 Q1575.64 52.6791 1572.54 52.6791 Q1564.78 52.6791 1560.24 48.1653 Q1555.73 43.6514 1555.73 35.9547 Q1555.73 27.9975 1560.01 23.339 Q1564.32 18.6515 1571.61 18.6515 Q1578.15 18.6515 1581.94 22.876 Q1585.76 27.0716 1585.76 34.3054 M1580.44 32.7429 Q1580.38 28.3737 1577.98 25.7695 Q1575.61 23.1654 1571.67 23.1654 Q1567.22 23.1654 1564.52 25.6827 Q1561.86 28.2001 1561.46 32.7718 L1580.44 32.7429 Z" fill="#000000" fill-rule="evenodd" fill-opacity="1"></path><path clip-path="url(#clip790)" d="M1619.12 46.921 L1639.52 46.921 L1639.52 51.84 L1612.09 51.84 L1612.09 46.921 Q1615.42 43.4778 1621.15 37.6908 Q1626.91 31.8748 1628.38 30.1966 Q1631.19 27.0427 1632.29 24.8726 Q1633.42 22.6735 1633.42 20.5612 Q1633.42 17.118 1630.99 14.9478 Q1628.59 12.7777 1624.71 12.7777 Q1621.96 12.7777 1618.89 13.7326 Q1615.86 14.6874 1612.38 16.6261 L1612.38 10.7233 Q1615.91 9.30551 1618.98 8.58213 Q1622.05 7.85875 1624.59 7.85875 Q1631.31 7.85875 1635.3 11.2152 Q1639.29 14.5717 1639.29 20.1851 Q1639.29 22.8471 1638.28 25.2487 Q1637.3 27.6214 1634.66 30.8621 Q1633.94 31.7012 1630.06 35.7232 Q1626.18 39.7162 1619.12 46.921 Z" fill="#000000" fill-rule="evenodd" fill-opacity="1"></path><path clip-path="url(#clip790)" d="M1651.85 8.64 L1674.8 8.64 L1674.8 13.559 L1657.2 13.559 L1657.2 24.1492 Q1658.48 23.7152 1659.75 23.5126 Q1661.02 23.2811 1662.3 23.2811 Q1669.53 23.2811 1673.75 27.2452 Q1677.98 31.2093 1677.98 37.9801 Q1677.98 44.9535 1673.64 48.8308 Q1669.3 52.6791 1661.4 52.6791 Q1658.68 52.6791 1655.84 52.2162 Q1653.04 51.7532 1650.03 50.8273 L1650.03 44.9535 Q1652.63 46.3713 1655.41 47.0657 Q1658.19 47.7602 1661.28 47.7602 Q1666.29 47.7602 1669.21 45.1271 Q1672.13 42.494 1672.13 37.9801 Q1672.13 33.4663 1669.21 30.8332 Q1666.29 28.2001 1661.28 28.2001 Q1658.94 28.2001 1656.6 28.7209 Q1654.28 29.2417 1651.85 30.3413 L1651.85 8.64 Z" fill="#000000" fill-rule="evenodd" fill-opacity="1"></path><path clip-path="url(#clip790)" d="M1701.99 12.4884 Q1697.48 12.4884 1695.19 16.9444 Q1692.94 21.3714 1692.94 30.2834 Q1692.94 39.1665 1695.19 43.6225 Q1697.48 48.0495 1701.99 48.0495 Q1706.54 48.0495 1708.79 43.6225 Q1711.08 39.1665 1711.08 30.2834 Q1711.08 21.3714 1708.79 16.9444 Q1706.54 12.4884 1701.99 12.4884 M1701.99 7.85875 Q1709.26 7.85875 1713.08 13.6168 Q1716.93 19.346 1716.93 30.2834 Q1716.93 41.1919 1713.08 46.95 Q1709.26 52.6791 1701.99 52.6791 Q1694.73 52.6791 1690.88 46.95 Q1687.06 41.1919 1687.06 30.2834 Q1687.06 19.346 1690.88 13.6168 Q1694.73 7.85875 1701.99 7.85875 Z" fill="#000000" fill-rule="evenodd" fill-opacity="1"></path><path clip-path="url(#clip790)" d="M1723.75 33.2348 L1739.35 33.2348 L1739.35 37.9801 L1723.75 37.9801 L1723.75 33.2348 Z" fill="#000000" fill-rule="evenodd" fill-opacity="1"></path><path clip-path="url(#clip790)" d="M1762.56 35.5496 Q1756.1 35.5496 1753.61 37.0253 Q1751.13 38.501 1751.13 42.06 Q1751.13 44.8956 1752.98 46.5738 Q1754.86 48.2231 1758.07 48.2231 Q1762.5 48.2231 1765.16 45.0981 Q1767.85 41.9442 1767.85 36.7359 L1767.85 35.5496 L1762.56 35.5496 M1773.17 33.3505 L1773.17 51.84 L1767.85 51.84 L1767.85 46.921 Q1766.03 49.8724 1763.31 51.2902 Q1760.59 52.6791 1756.65 52.6791 Q1751.68 52.6791 1748.72 49.9014 Q1745.8 47.0947 1745.8 42.4072 Q1745.8 36.9385 1749.45 34.1607 Q1753.12 31.3829 1760.39 31.3829 L1767.85 31.3829 L1767.85 30.8621 Q1767.85 27.1874 1765.42 25.1908 Q1763.02 23.1654 1758.65 23.1654 Q1755.87 23.1654 1753.24 23.8309 Q1750.61 24.4964 1748.17 25.8274 L1748.17 20.9085 Q1751.1 19.78 1753.85 19.2302 Q1756.6 18.6515 1759.2 18.6515 Q1766.23 18.6515 1769.7 22.2973 Q1773.17 25.9431 1773.17 33.3505 Z" fill="#000000" fill-rule="evenodd" fill-opacity="1"></path><path clip-path="url(#clip790)" d="M1789.41 10.2314 L1789.41 19.4328 L1800.37 19.4328 L1800.37 23.5705 L1789.41 23.5705 L1789.41 41.163 Q1789.41 45.1271 1790.48 46.2555 Q1791.58 47.384 1794.91 47.384 L1800.37 47.384 L1800.37 51.84 L1794.91 51.84 Q1788.74 51.84 1786.4 49.5541 Q1784.05 47.2393 1784.05 41.163 L1784.05 23.5705 L1780.15 23.5705 L1780.15 19.4328 L1784.05 19.4328 L1784.05 10.2314 L1789.41 10.2314 Z" fill="#000000" fill-rule="evenodd" fill-opacity="1"></path><path clip-path="url(#clip790)" d="M1819.93 23.1654 Q1815.65 23.1654 1813.16 26.5218 Q1810.67 29.8494 1810.67 35.6653 Q1810.67 41.4813 1813.13 44.8377 Q1815.62 48.1653 1819.93 48.1653 Q1824.19 48.1653 1826.68 44.8088 Q1829.16 41.4523 1829.16 35.6653 Q1829.16 29.9072 1826.68 26.5508 Q1824.19 23.1654 1819.93 23.1654 M1819.93 18.6515 Q1826.88 18.6515 1830.84 23.1654 Q1834.81 27.6792 1834.81 35.6653 Q1834.81 43.6225 1830.84 48.1653 Q1826.88 52.6791 1819.93 52.6791 Q1812.96 52.6791 1809 48.1653 Q1805.06 43.6225 1805.06 35.6653 Q1805.06 27.6792 1809 23.1654 Q1812.96 18.6515 1819.93 18.6515 Z" fill="#000000" fill-rule="evenodd" fill-opacity="1"></path><path clip-path="url(#clip790)" d="M1868.86 25.6538 Q1870.86 22.0659 1873.64 20.3587 Q1876.41 18.6515 1880.18 18.6515 Q1885.24 18.6515 1887.99 22.2105 Q1890.74 25.7406 1890.74 32.2799 L1890.74 51.84 L1885.38 51.84 L1885.38 32.4535 Q1885.38 27.795 1883.74 25.5381 Q1882.09 23.2811 1878.7 23.2811 Q1874.56 23.2811 1872.16 26.03 Q1869.76 28.7788 1869.76 33.5241 L1869.76 51.84 L1864.41 51.84 L1864.41 32.4535 Q1864.41 27.7661 1862.76 25.5381 Q1861.11 23.2811 1857.67 23.2811 Q1853.59 23.2811 1851.18 26.0589 Q1848.78 28.8077 1848.78 33.5241 L1848.78 51.84 L1843.43 51.84 L1843.43 19.4328 L1848.78 19.4328 L1848.78 24.4675 Q1850.6 21.4872 1853.15 20.0693 Q1855.7 18.6515 1859.2 18.6515 Q1862.73 18.6515 1865.19 20.4455 Q1867.68 22.2395 1868.86 25.6538 Z" fill="#000000" fill-rule="evenodd" fill-opacity="1"></path><path clip-path="url(#clip790)" d="M1943.46 35.6653 Q1943.46 29.7915 1941.03 26.464 Q1938.63 23.1075 1934.4 23.1075 Q1930.18 23.1075 1927.75 26.464 Q1925.34 29.7915 1925.34 35.6653 Q1925.34 41.5391 1927.75 44.8956 Q1930.18 48.2231 1934.4 48.2231 Q1938.63 48.2231 1941.03 44.8956 Q1943.46 41.5391 1943.46 35.6653 M1925.34 24.3517 Q1927.02 21.4582 1929.57 20.0693 Q1932.14 18.6515 1935.7 18.6515 Q1941.61 18.6515 1945.28 23.339 Q1948.98 28.0265 1948.98 35.6653 Q1948.98 43.3042 1945.28 47.9916 Q1941.61 52.6791 1935.7 52.6791 Q1932.14 52.6791 1929.57 51.2902 Q1927.02 49.8724 1925.34 46.9789 L1925.34 51.84 L1919.99 51.84 L1919.99 6.81709 L1925.34 6.81709 L1925.34 24.3517 Z" fill="#000000" fill-rule="evenodd" fill-opacity="1"></path><path clip-path="url(#clip790)" d="M1981.13 20.677 L1981.13 25.6538 Q1978.87 24.4096 1976.59 23.802 Q1974.33 23.1654 1972.02 23.1654 Q1966.84 23.1654 1963.97 26.464 Q1961.11 29.7336 1961.11 35.6653 Q1961.11 41.597 1963.97 44.8956 Q1966.84 48.1653 1972.02 48.1653 Q1974.33 48.1653 1976.59 47.5576 Q1978.87 46.921 1981.13 45.6768 L1981.13 50.5958 Q1978.9 51.6375 1976.5 52.1583 Q1974.13 52.6791 1971.44 52.6791 Q1964.12 52.6791 1959.81 48.0784 Q1955.49 43.4778 1955.49 35.6653 Q1955.49 27.7371 1959.83 23.1943 Q1964.2 18.6515 1971.78 18.6515 Q1974.24 18.6515 1976.59 19.1724 Q1978.93 19.6642 1981.13 20.677 Z" fill="#000000" fill-rule="evenodd" fill-opacity="1"></path><path clip-path="url(#clip790)" d="M2013.71 20.677 L2013.71 25.6538 Q2011.45 24.4096 2009.17 23.802 Q2006.91 23.1654 2004.6 23.1654 Q1999.42 23.1654 1996.55 26.464 Q1993.69 29.7336 1993.69 35.6653 Q1993.69 41.597 1996.55 44.8956 Q1999.42 48.1653 2004.6 48.1653 Q2006.91 48.1653 2009.17 47.5576 Q2011.45 46.921 2013.71 45.6768 L2013.71 50.5958 Q2011.48 51.6375 2009.08 52.1583 Q2006.71 52.6791 2004.02 52.6791 Q1996.7 52.6791 1992.39 48.0784 Q1988.08 43.4778 1988.08 35.6653 Q1988.08 27.7371 1992.42 23.1943 Q1996.78 18.6515 2004.37 18.6515 Q2006.83 18.6515 2009.17 19.1724 Q2011.51 19.6642 2013.71 20.677 Z" fill="#000000" fill-rule="evenodd" fill-opacity="1"></path><path clip-path="url(#clip790)" d="M2065.07 35.6653 Q2065.07 29.7915 2062.64 26.464 Q2060.24 23.1075 2056.01 23.1075 Q2051.79 23.1075 2049.36 26.464 Q2046.96 29.7915 2046.96 35.6653 Q2046.96 41.5391 2049.36 44.8956 Q2051.79 48.2231 2056.01 48.2231 Q2060.24 48.2231 2062.64 44.8956 Q2065.07 41.5391 2065.07 35.6653 M2046.96 24.3517 Q2048.64 21.4582 2051.18 20.0693 Q2053.76 18.6515 2057.32 18.6515 Q2063.22 18.6515 2066.89 23.339 Q2070.6 28.0265 2070.6 35.6653 Q2070.6 43.3042 2066.89 47.9916 Q2063.22 52.6791 2057.32 52.6791 Q2053.76 52.6791 2051.18 51.2902 Q2048.64 49.8724 2046.96 46.9789 L2046.96 51.84 L2041.61 51.84 L2041.61 6.81709 L2046.96 6.81709 L2046.96 24.3517 Z" fill="#000000" fill-rule="evenodd" fill-opacity="1"></path><path clip-path="url(#clip790)" d="M2091.98 23.1654 Q2087.7 23.1654 2085.21 26.5218 Q2082.72 29.8494 2082.72 35.6653 Q2082.72 41.4813 2085.18 44.8377 Q2087.67 48.1653 2091.98 48.1653 Q2096.23 48.1653 2098.72 44.8088 Q2101.21 41.4523 2101.21 35.6653 Q2101.21 29.9072 2098.72 26.5508 Q2096.23 23.1654 2091.98 23.1654 M2091.98 18.6515 Q2098.93 18.6515 2102.89 23.1654 Q2106.85 27.6792 2106.85 35.6653 Q2106.85 43.6225 2102.89 48.1653 Q2098.93 52.6791 2091.98 52.6791 Q2085.01 52.6791 2081.04 48.1653 Q2077.11 43.6225 2077.11 35.6653 Q2077.11 27.6792 2081.04 23.1654 Q2085.01 18.6515 2091.98 18.6515 Z" fill="#000000" fill-rule="evenodd" fill-opacity="1"></path><path clip-path="url(#clip790)" d="M2140.79 19.4328 L2129.08 35.2024 L2141.4 51.84 L2135.12 51.84 L2125.69 39.1086 L2116.26 51.84 L2109.98 51.84 L2122.57 34.8841 L2111.05 19.4328 L2117.33 19.4328 L2125.92 30.9778 L2134.52 19.4328 L2140.79 19.4328 Z" fill="#000000" fill-rule="evenodd" fill-opacity="1"></path><polyline clip-path="url(#clip792)" style="stroke:#009af9; stroke-linecap:round; stroke-linejoin:round; stroke-width:4; stroke-opacity:1; fill:none" points="
  368.156,1385.91 433.065,1385.91 499.431,1385.91 567.288,1137.42 636.669,1137.42 707.608,888.93 780.141,1385.91 854.302,1385.91 930.129,143.465 1007.66,640.442 
  1086.93,640.442 1167.98,391.954 1250.85,391.954 1335.58,143.465 1422.22,640.442 1510.8,640.442 1601.37,391.954 1693.98,143.465 1788.66,640.442 1885.47,640.442 
  1984.46,391.954 2085.67,391.954 2189.15,143.465 2294.95,640.442 
  "></polyline>
<path clip-path="url(#clip790)" d="
M2005.31 253.772 L2284.68 253.772 L2284.68 150.092 L2005.31 150.092  Z
  " fill="#ffffff" fill-rule="evenodd" fill-opacity="1"></path>
<polyline clip-path="url(#clip790)" style="stroke:#000000; stroke-linecap:round; stroke-linejoin:round; stroke-width:4; stroke-opacity:1; fill:none" points="
  2005.31,253.772 2284.68,253.772 2284.68,150.092 2005.31,150.092 2005.31,253.772 
  "></polyline>
<polyline clip-path="url(#clip790)" style="stroke:#009af9; stroke-linecap:round; stroke-linejoin:round; stroke-width:4; stroke-opacity:1; fill:none" points="
  2028.01,201.932 2164.17,201.932 
  "></polyline>
<path clip-path="url(#clip790)" d="M2200.7 221.619 Q2198.9 226.249 2197.18 227.661 Q2195.47 229.073 2192.6 229.073 L2189.2 229.073 L2189.2 225.508 L2191.7 225.508 Q2193.46 225.508 2194.43 224.675 Q2195.4 223.841 2196.58 220.739 L2197.34 218.795 L2186.86 193.286 L2191.37 193.286 L2199.47 213.564 L2207.58 193.286 L2212.09 193.286 L2200.7 221.619 Z" fill="#000000" fill-rule="evenodd" fill-opacity="1"></path><path clip-path="url(#clip790)" d="M2219.38 215.277 L2227.02 215.277 L2227.02 188.911 L2218.71 190.578 L2218.71 186.318 L2226.97 184.652 L2231.65 184.652 L2231.65 215.277 L2239.29 215.277 L2239.29 219.212 L2219.38 219.212 L2219.38 215.277 Z" fill="#000000" fill-rule="evenodd" fill-opacity="1"></path></svg>