<svg xmlns="http://www.w3.org/2000/svg" xmlns:xlink="http://www.w3.org/1999/xlink" width="600" height="400" viewBox="0 0 2400 1600">
<defs>
  <clipPath id="clip610">
    <rect x="0" y="0" width="2400" height="1600"></rect>
  </clipPath>
</defs>
<path clip-path="url(#clip610)" d="
M0 1600 L2400 1600 L2400 0 L0 0  Z
  " fill="#ffffff" fill-rule="evenodd" fill-opacity="1"></path>
<defs>
  <clipPath id="clip611">
    <rect x="480" y="0" width="1681" height="1600"></rect>
  </clipPath>
</defs>
<path clip-path="url(#clip610)" d="
M246.598 1486.45 L2352.76 1486.45 L2352.76 47.2441 L246.598 47.2441  Z
  " fill="#ffffff" fill-rule="evenodd" fill-opacity="1"></path>
<defs>
  <clipPath id="clip612">
    <rect x="246" y="47" width="2107" height="1440"></rect>
  </clipPath>
</defs>
<polyline clip-path="url(#clip612)" style="stroke:#000000; stroke-linecap:round; stroke-linejoin:round; stroke-width:2; stroke-opacity:0.1; fill:none" points="
  306.206,1486.45 306.206,47.2441 
  "></polyline>
<polyline clip-path="url(#clip612)" style="stroke:#000000; stroke-linecap:round; stroke-linejoin:round; stroke-width:2; stroke-opacity:0.1; fill:none" points="
  802.941,1486.45 802.941,47.2441 
  "></polyline>
<polyline clip-path="url(#clip612)" style="stroke:#000000; stroke-linecap:round; stroke-linejoin:round; stroke-width:2; stroke-opacity:0.1; fill:none" points="
  1299.68,1486.45 1299.68,47.2441 
  "></polyline>
<polyline clip-path="url(#clip612)" style="stroke:#000000; stroke-linecap:round; stroke-linejoin:round; stroke-width:2; stroke-opacity:0.1; fill:none" points="
  1796.41,1486.45 1796.41,47.2441 
  "></polyline>
<polyline clip-path="url(#clip612)" style="stroke:#000000; stroke-linecap:round; stroke-linejoin:round; stroke-width:2; stroke-opacity:0.1; fill:none" points="
  2293.15,1486.45 2293.15,47.2441 
  "></polyline>
<polyline clip-path="url(#clip610)" style="stroke:#000000; stroke-linecap:round; stroke-linejoin:round; stroke-width:4; stroke-opacity:1; fill:none" points="
  246.598,1486.45 2352.76,1486.45 
  "></polyline>
<polyline clip-path="url(#clip610)" style="stroke:#000000; stroke-linecap:round; stroke-linejoin:round; stroke-width:4; stroke-opacity:1; fill:none" points="
  306.206,1486.45 306.206,1467.55 
  "></polyline>
<polyline clip-path="url(#clip610)" style="stroke:#000000; stroke-linecap:round; stroke-linejoin:round; stroke-width:4; stroke-opacity:1; fill:none" points="
  802.941,1486.45 802.941,1467.55 
  "></polyline>
<polyline clip-path="url(#clip610)" style="stroke:#000000; stroke-linecap:round; stroke-linejoin:round; stroke-width:4; stroke-opacity:1; fill:none" points="
  1299.68,1486.45 1299.68,1467.55 
  "></polyline>
<polyline clip-path="url(#clip610)" style="stroke:#000000; stroke-linecap:round; stroke-linejoin:round; stroke-width:4; stroke-opacity:1; fill:none" points="
  1796.41,1486.45 1796.41,1467.55 
  "></polyline>
<polyline clip-path="url(#clip610)" style="stroke:#000000; stroke-linecap:round; stroke-linejoin:round; stroke-width:4; stroke-opacity:1; fill:none" points="
  2293.15,1486.45 2293.15,1467.55 
  "></polyline>
<path clip-path="url(#clip610)" d="M265.824 1514.29 L284.181 1514.29 L284.181 1518.22 L270.107 1518.22 L270.107 1526.7 Q271.125 1526.35 272.144 1526.19 Q273.162 1526 274.181 1526 Q279.968 1526 283.347 1529.17 Q286.727 1532.34 286.727 1537.76 Q286.727 1543.34 283.255 1546.44 Q279.783 1549.52 273.463 1549.52 Q271.287 1549.52 269.019 1549.15 Q266.773 1548.78 264.366 1548.04 L264.366 1543.34 Q266.449 1544.47 268.671 1545.03 Q270.894 1545.58 273.371 1545.58 Q277.375 1545.58 279.713 1543.48 Q282.051 1541.37 282.051 1537.76 Q282.051 1534.15 279.713 1532.04 Q277.375 1529.94 273.371 1529.94 Q271.496 1529.94 269.621 1530.35 Q267.769 1530.77 265.824 1531.65 L265.824 1514.29 Z" fill="#000000" fill-rule="evenodd" fill-opacity="1"></path><path clip-path="url(#clip610)" d="M305.94 1517.37 Q302.329 1517.37 300.5 1520.93 Q298.694 1524.47 298.694 1531.6 Q298.694 1538.71 300.5 1542.27 Q302.329 1545.82 305.94 1545.82 Q309.574 1545.82 311.38 1542.27 Q313.208 1538.71 313.208 1531.6 Q313.208 1524.47 311.38 1520.93 Q309.574 1517.37 305.94 1517.37 M305.94 1513.66 Q311.75 1513.66 314.805 1518.27 Q317.884 1522.85 317.884 1531.6 Q317.884 1540.33 314.805 1544.94 Q311.75 1549.52 305.94 1549.52 Q300.13 1549.52 297.051 1544.94 Q293.995 1540.33 293.995 1531.6 Q293.995 1522.85 297.051 1518.27 Q300.13 1513.66 305.94 1513.66 Z" fill="#000000" fill-rule="evenodd" fill-opacity="1"></path><path clip-path="url(#clip610)" d="M336.102 1517.37 Q332.491 1517.37 330.662 1520.93 Q328.856 1524.47 328.856 1531.6 Q328.856 1538.71 330.662 1542.27 Q332.491 1545.82 336.102 1545.82 Q339.736 1545.82 341.541 1542.27 Q343.37 1538.71 343.37 1531.6 Q343.37 1524.47 341.541 1520.93 Q339.736 1517.37 336.102 1517.37 M336.102 1513.66 Q341.912 1513.66 344.967 1518.27 Q348.046 1522.85 348.046 1531.6 Q348.046 1540.33 344.967 1544.94 Q341.912 1549.52 336.102 1549.52 Q330.292 1549.52 327.213 1544.94 Q324.157 1540.33 324.157 1531.6 Q324.157 1522.85 327.213 1518.27 Q330.292 1513.66 336.102 1513.66 Z" fill="#000000" fill-rule="evenodd" fill-opacity="1"></path><path clip-path="url(#clip610)" d="M762.56 1514.29 L780.916 1514.29 L780.916 1518.22 L766.842 1518.22 L766.842 1526.7 Q767.861 1526.35 768.879 1526.19 Q769.898 1526 770.916 1526 Q776.703 1526 780.083 1529.17 Q783.462 1532.34 783.462 1537.76 Q783.462 1543.34 779.99 1546.44 Q776.518 1549.52 770.199 1549.52 Q768.023 1549.52 765.754 1549.15 Q763.509 1548.78 761.101 1548.04 L761.101 1543.34 Q763.185 1544.47 765.407 1545.03 Q767.629 1545.58 770.106 1545.58 Q774.111 1545.58 776.449 1543.48 Q778.786 1541.37 778.786 1537.76 Q778.786 1534.15 776.449 1532.04 Q774.111 1529.94 770.106 1529.94 Q768.231 1529.94 766.356 1530.35 Q764.504 1530.77 762.56 1531.65 L762.56 1514.29 Z" fill="#000000" fill-rule="evenodd" fill-opacity="1"></path><path clip-path="url(#clip610)" d="M792.722 1514.29 L811.078 1514.29 L811.078 1518.22 L797.004 1518.22 L797.004 1526.7 Q798.022 1526.35 799.041 1526.19 Q800.059 1526 801.078 1526 Q806.865 1526 810.245 1529.17 Q813.624 1532.34 813.624 1537.76 Q813.624 1543.34 810.152 1546.44 Q806.68 1549.52 800.36 1549.52 Q798.184 1549.52 795.916 1549.15 Q793.671 1548.78 791.263 1548.04 L791.263 1543.34 Q793.347 1544.47 795.569 1545.03 Q797.791 1545.58 800.268 1545.58 Q804.272 1545.58 806.61 1543.48 Q808.948 1541.37 808.948 1537.76 Q808.948 1534.15 806.61 1532.04 Q804.272 1529.94 800.268 1529.94 Q798.393 1529.94 796.518 1530.35 Q794.666 1530.77 792.722 1531.65 L792.722 1514.29 Z" fill="#000000" fill-rule="evenodd" fill-opacity="1"></path><path clip-path="url(#clip610)" d="M832.837 1517.37 Q829.226 1517.37 827.397 1520.93 Q825.592 1524.47 825.592 1531.6 Q825.592 1538.71 827.397 1542.27 Q829.226 1545.82 832.837 1545.82 Q836.471 1545.82 838.277 1542.27 Q840.106 1538.71 840.106 1531.6 Q840.106 1524.47 838.277 1520.93 Q836.471 1517.37 832.837 1517.37 M832.837 1513.66 Q838.647 1513.66 841.703 1518.27 Q844.781 1522.85 844.781 1531.6 Q844.781 1540.33 841.703 1544.94 Q838.647 1549.52 832.837 1549.52 Q827.027 1549.52 823.948 1544.94 Q820.893 1540.33 820.893 1531.6 Q820.893 1522.85 823.948 1518.27 Q827.027 1513.66 832.837 1513.66 Z" fill="#000000" fill-rule="evenodd" fill-opacity="1"></path><path clip-path="url(#clip610)" d="M1270 1529.7 Q1266.85 1529.7 1265 1531.86 Q1263.17 1534.01 1263.17 1537.76 Q1263.17 1541.49 1265 1543.66 Q1266.85 1545.82 1270 1545.82 Q1273.15 1545.82 1274.98 1543.66 Q1276.83 1541.49 1276.83 1537.76 Q1276.83 1534.01 1274.98 1531.86 Q1273.15 1529.7 1270 1529.7 M1279.28 1515.05 L1279.28 1519.31 Q1277.52 1518.48 1275.72 1518.04 Q1273.94 1517.6 1272.18 1517.6 Q1267.55 1517.6 1265.09 1520.72 Q1262.66 1523.85 1262.32 1530.17 Q1263.68 1528.15 1265.74 1527.09 Q1267.8 1526 1270.28 1526 Q1275.49 1526 1278.5 1529.17 Q1281.53 1532.32 1281.53 1537.76 Q1281.53 1543.08 1278.38 1546.3 Q1275.23 1549.52 1270 1549.52 Q1264.01 1549.52 1260.83 1544.94 Q1257.66 1540.33 1257.66 1531.6 Q1257.66 1523.41 1261.55 1518.55 Q1265.44 1513.66 1271.99 1513.66 Q1273.75 1513.66 1275.53 1514.01 Q1277.34 1514.36 1279.28 1515.05 Z" fill="#000000" fill-rule="evenodd" fill-opacity="1"></path><path clip-path="url(#clip610)" d="M1299.58 1517.37 Q1295.97 1517.37 1294.14 1520.93 Q1292.34 1524.47 1292.34 1531.6 Q1292.34 1538.71 1294.14 1542.27 Q1295.97 1545.82 1299.58 1545.82 Q1303.22 1545.82 1305.02 1542.27 Q1306.85 1538.71 1306.85 1531.6 Q1306.85 1524.47 1305.02 1520.93 Q1303.22 1517.37 1299.58 1517.37 M1299.58 1513.66 Q1305.39 1513.66 1308.45 1518.27 Q1311.53 1522.85 1311.53 1531.6 Q1311.53 1540.33 1308.45 1544.94 Q1305.39 1549.52 1299.58 1549.52 Q1293.77 1549.52 1290.7 1544.94 Q1287.64 1540.33 1287.64 1531.6 Q1287.64 1522.85 1290.7 1518.27 Q1293.77 1513.66 1299.58 1513.66 Z" fill="#000000" fill-rule="evenodd" fill-opacity="1"></path><path clip-path="url(#clip610)" d="M1329.75 1517.37 Q1326.14 1517.37 1324.31 1520.93 Q1322.5 1524.47 1322.5 1531.6 Q1322.5 1538.71 1324.31 1542.27 Q1326.14 1545.82 1329.75 1545.82 Q1333.38 1545.82 1335.19 1542.27 Q1337.01 1538.71 1337.01 1531.6 Q1337.01 1524.47 1335.19 1520.93 Q1333.38 1517.37 1329.75 1517.37 M1329.75 1513.66 Q1335.56 1513.66 1338.61 1518.27 Q1341.69 1522.85 1341.69 1531.6 Q1341.69 1540.33 1338.61 1544.94 Q1335.56 1549.52 1329.75 1549.52 Q1323.94 1549.52 1320.86 1544.94 Q1317.8 1540.33 1317.8 1531.6 Q1317.8 1522.85 1320.86 1518.27 Q1323.94 1513.66 1329.75 1513.66 Z" fill="#000000" fill-rule="evenodd" fill-opacity="1"></path><path clip-path="url(#clip610)" d="M1766.74 1529.7 Q1763.59 1529.7 1761.74 1531.86 Q1759.91 1534.01 1759.91 1537.76 Q1759.91 1541.49 1761.74 1543.66 Q1763.59 1545.82 1766.74 1545.82 Q1769.88 1545.82 1771.71 1543.66 Q1773.57 1541.49 1773.57 1537.76 Q1773.57 1534.01 1771.71 1531.86 Q1769.88 1529.7 1766.74 1529.7 M1776.02 1515.05 L1776.02 1519.31 Q1774.26 1518.48 1772.45 1518.04 Q1770.67 1517.6 1768.91 1517.6 Q1764.28 1517.6 1761.83 1520.72 Q1759.4 1523.85 1759.05 1530.17 Q1760.42 1528.15 1762.48 1527.09 Q1764.54 1526 1767.01 1526 Q1772.22 1526 1775.23 1529.17 Q1778.26 1532.32 1778.26 1537.76 Q1778.26 1543.08 1775.12 1546.3 Q1771.97 1549.52 1766.74 1549.52 Q1760.74 1549.52 1757.57 1544.94 Q1754.4 1540.33 1754.4 1531.6 Q1754.4 1523.41 1758.29 1518.55 Q1762.18 1513.66 1768.73 1513.66 Q1770.49 1513.66 1772.27 1514.01 Q1774.07 1514.36 1776.02 1515.05 Z" fill="#000000" fill-rule="evenodd" fill-opacity="1"></path><path clip-path="url(#clip610)" d="M1786.37 1514.29 L1804.72 1514.29 L1804.72 1518.22 L1790.65 1518.22 L1790.65 1526.7 Q1791.67 1526.35 1792.69 1526.19 Q1793.7 1526 1794.72 1526 Q1800.51 1526 1803.89 1529.17 Q1807.27 1532.34 1807.27 1537.76 Q1807.27 1543.34 1803.8 1546.44 Q1800.32 1549.52 1794 1549.52 Q1791.83 1549.52 1789.56 1549.15 Q1787.32 1548.78 1784.91 1548.04 L1784.91 1543.34 Q1786.99 1544.47 1789.21 1545.03 Q1791.44 1545.58 1793.91 1545.58 Q1797.92 1545.58 1800.25 1543.48 Q1802.59 1541.37 1802.59 1537.76 Q1802.59 1534.15 1800.25 1532.04 Q1797.92 1529.94 1793.91 1529.94 Q1792.04 1529.94 1790.16 1530.35 Q1788.31 1530.77 1786.37 1531.65 L1786.37 1514.29 Z" fill="#000000" fill-rule="evenodd" fill-opacity="1"></path><path clip-path="url(#clip610)" d="M1826.48 1517.37 Q1822.87 1517.37 1821.04 1520.93 Q1819.24 1524.47 1819.24 1531.6 Q1819.24 1538.71 1821.04 1542.27 Q1822.87 1545.82 1826.48 1545.82 Q1830.12 1545.82 1831.92 1542.27 Q1833.75 1538.71 1833.75 1531.6 Q1833.75 1524.47 1831.92 1520.93 Q1830.12 1517.37 1826.48 1517.37 M1826.48 1513.66 Q1832.29 1513.66 1835.35 1518.27 Q1838.43 1522.85 1838.43 1531.6 Q1838.43 1540.33 1835.35 1544.94 Q1832.29 1549.52 1826.48 1549.52 Q1820.67 1549.52 1817.59 1544.94 Q1814.54 1540.33 1814.54 1531.6 Q1814.54 1522.85 1817.59 1518.27 Q1820.67 1513.66 1826.48 1513.66 Z" fill="#000000" fill-rule="evenodd" fill-opacity="1"></path><path clip-path="url(#clip610)" d="M2251.42 1514.29 L2273.65 1514.29 L2273.65 1516.28 L2261.1 1548.85 L2256.21 1548.85 L2268.02 1518.22 L2251.42 1518.22 L2251.42 1514.29 Z" fill="#000000" fill-rule="evenodd" fill-opacity="1"></path><path clip-path="url(#clip610)" d="M2292.77 1517.37 Q2289.15 1517.37 2287.33 1520.93 Q2285.52 1524.47 2285.52 1531.6 Q2285.52 1538.71 2287.33 1542.27 Q2289.15 1545.82 2292.77 1545.82 Q2296.4 1545.82 2298.21 1542.27 Q2300.03 1538.71 2300.03 1531.6 Q2300.03 1524.47 2298.21 1520.93 Q2296.4 1517.37 2292.77 1517.37 M2292.77 1513.66 Q2298.58 1513.66 2301.63 1518.27 Q2304.71 1522.85 2304.71 1531.6 Q2304.71 1540.33 2301.63 1544.94 Q2298.58 1549.52 2292.77 1549.52 Q2286.96 1549.52 2283.88 1544.94 Q2280.82 1540.33 2280.82 1531.6 Q2280.82 1522.85 2283.88 1518.27 Q2286.96 1513.66 2292.77 1513.66 Z" fill="#000000" fill-rule="evenodd" fill-opacity="1"></path><path clip-path="url(#clip610)" d="M2322.93 1517.37 Q2319.32 1517.37 2317.49 1520.93 Q2315.68 1524.47 2315.68 1531.6 Q2315.68 1538.71 2317.49 1542.27 Q2319.32 1545.82 2322.93 1545.82 Q2326.56 1545.82 2328.37 1542.27 Q2330.2 1538.71 2330.2 1531.6 Q2330.2 1524.47 2328.37 1520.93 Q2326.56 1517.37 2322.93 1517.37 M2322.93 1513.66 Q2328.74 1513.66 2331.79 1518.27 Q2334.87 1522.85 2334.87 1531.6 Q2334.87 1540.33 2331.79 1544.94 Q2328.74 1549.52 2322.93 1549.52 Q2317.12 1549.52 2314.04 1544.94 Q2310.98 1540.33 2310.98 1531.6 Q2310.98 1522.85 2314.04 1518.27 Q2317.12 1513.66 2322.93 1513.66 Z" fill="#000000" fill-rule="evenodd" fill-opacity="1"></path><polyline clip-path="url(#clip612)" style="stroke:#000000; stroke-linecap:round; stroke-linejoin:round; stroke-width:2; stroke-opacity:0.1; fill:none" points="
  246.598,1466 2352.76,1466 
  "></polyline>
<polyline clip-path="url(#clip612)" style="stroke:#000000; stroke-linecap:round; stroke-linejoin:round; stroke-width:2; stroke-opacity:0.1; fill:none" points="
  246.598,1261.6 2352.76,1261.6 
  "></polyline>
<polyline clip-path="url(#clip612)" style="stroke:#000000; stroke-linecap:round; stroke-linejoin:round; stroke-width:2; stroke-opacity:0.1; fill:none" points="
  246.598,1057.19 2352.76,1057.19 
  "></polyline>
<polyline clip-path="url(#clip612)" style="stroke:#000000; stroke-linecap:round; stroke-linejoin:round; stroke-width:2; stroke-opacity:0.1; fill:none" points="
  246.598,852.791 2352.76,852.791 
  "></polyline>
<polyline clip-path="url(#clip612)" style="stroke:#000000; stroke-linecap:round; stroke-linejoin:round; stroke-width:2; stroke-opacity:0.1; fill:none" points="
  246.598,648.388 2352.76,648.388 
  "></polyline>
<polyline clip-path="url(#clip612)" style="stroke:#000000; stroke-linecap:round; stroke-linejoin:round; stroke-width:2; stroke-opacity:0.1; fill:none" points="
  246.598,443.986 2352.76,443.986 
  "></polyline>
<polyline clip-path="url(#clip612)" style="stroke:#000000; stroke-linecap:round; stroke-linejoin:round; stroke-width:2; stroke-opacity:0.1; fill:none" points="
  246.598,239.584 2352.76,239.584 
  "></polyline>
<polyline clip-path="url(#clip610)" style="stroke:#000000; stroke-linecap:round; stroke-linejoin:round; stroke-width:4; stroke-opacity:1; fill:none" points="
  246.598,1486.45 246.598,47.2441 
  "></polyline>
<polyline clip-path="url(#clip610)" style="stroke:#000000; stroke-linecap:round; stroke-linejoin:round; stroke-width:4; stroke-opacity:1; fill:none" points="
  246.598,1466 265.495,1466 
  "></polyline>
<polyline clip-path="url(#clip610)" style="stroke:#000000; stroke-linecap:round; stroke-linejoin:round; stroke-width:4; stroke-opacity:1; fill:none" points="
  246.598,1261.6 265.495,1261.6 
  "></polyline>
<polyline clip-path="url(#clip610)" style="stroke:#000000; stroke-linecap:round; stroke-linejoin:round; stroke-width:4; stroke-opacity:1; fill:none" points="
  246.598,1057.19 265.495,1057.19 
  "></polyline>
<polyline clip-path="url(#clip610)" style="stroke:#000000; stroke-linecap:round; stroke-linejoin:round; stroke-width:4; stroke-opacity:1; fill:none" points="
  246.598,852.791 265.495,852.791 
  "></polyline>
<polyline clip-path="url(#clip610)" style="stroke:#000000; stroke-linecap:round; stroke-linejoin:round; stroke-width:4; stroke-opacity:1; fill:none" points="
  246.598,648.388 265.495,648.388 
  "></polyline>
<polyline clip-path="url(#clip610)" style="stroke:#000000; stroke-linecap:round; stroke-linejoin:round; stroke-width:4; stroke-opacity:1; fill:none" points="
  246.598,443.986 265.495,443.986 
  "></polyline>
<polyline clip-path="url(#clip610)" style="stroke:#000000; stroke-linecap:round; stroke-linejoin:round; stroke-width:4; stroke-opacity:1; fill:none" points="
  246.598,239.584 265.495,239.584 
  "></polyline>
<path clip-path="url(#clip610)" d="M63.9319 1451.8 Q60.3208 1451.8 58.4921 1455.36 Q56.6865 1458.9 56.6865 1466.03 Q56.6865 1473.14 58.4921 1476.7 Q60.3208 1480.24 63.9319 1480.24 Q67.5661 1480.24 69.3717 1476.7 Q71.2004 1473.14 71.2004 1466.03 Q71.2004 1458.9 69.3717 1455.36 Q67.5661 1451.8 63.9319 1451.8 M63.9319 1448.09 Q69.742 1448.09 72.7976 1452.7 Q75.8763 1457.28 75.8763 1466.03 Q75.8763 1474.76 72.7976 1479.37 Q69.742 1483.95 63.9319 1483.95 Q58.1217 1483.95 55.043 1479.37 Q51.9875 1474.76 51.9875 1466.03 Q51.9875 1457.28 55.043 1452.7 Q58.1217 1448.09 63.9319 1448.09 Z" fill="#000000" fill-rule="evenodd" fill-opacity="1"></path><path clip-path="url(#clip610)" d="M84.0938 1477.4 L88.978 1477.4 L88.978 1483.28 L84.0938 1483.28 L84.0938 1477.4 Z" fill="#000000" fill-rule="evenodd" fill-opacity="1"></path><path clip-path="url(#clip610)" d="M109.163 1451.8 Q105.552 1451.8 103.723 1455.36 Q101.918 1458.9 101.918 1466.03 Q101.918 1473.14 103.723 1476.7 Q105.552 1480.24 109.163 1480.24 Q112.797 1480.24 114.603 1476.7 Q116.432 1473.14 116.432 1466.03 Q116.432 1458.9 114.603 1455.36 Q112.797 1451.8 109.163 1451.8 M109.163 1448.09 Q114.973 1448.09 118.029 1452.7 Q121.107 1457.28 121.107 1466.03 Q121.107 1474.76 118.029 1479.37 Q114.973 1483.95 109.163 1483.95 Q103.353 1483.95 100.274 1479.37 Q97.2187 1474.76 97.2187 1466.03 Q97.2187 1457.28 100.274 1452.7 Q103.353 1448.09 109.163 1448.09 Z" fill="#000000" fill-rule="evenodd" fill-opacity="1"></path><path clip-path="url(#clip610)" d="M139.325 1451.8 Q135.714 1451.8 133.885 1455.36 Q132.08 1458.9 132.08 1466.03 Q132.08 1473.14 133.885 1476.7 Q135.714 1480.24 139.325 1480.24 Q142.959 1480.24 144.765 1476.7 Q146.593 1473.14 146.593 1466.03 Q146.593 1458.9 144.765 1455.36 Q142.959 1451.8 139.325 1451.8 M139.325 1448.09 Q145.135 1448.09 148.191 1452.7 Q151.269 1457.28 151.269 1466.03 Q151.269 1474.76 148.191 1479.37 Q145.135 1483.95 139.325 1483.95 Q133.515 1483.95 130.436 1479.37 Q127.381 1474.76 127.381 1466.03 Q127.381 1457.28 130.436 1452.7 Q133.515 1448.09 139.325 1448.09 Z" fill="#000000" fill-rule="evenodd" fill-opacity="1"></path><path clip-path="url(#clip610)" d="M169.487 1451.8 Q165.876 1451.8 164.047 1455.36 Q162.242 1458.9 162.242 1466.03 Q162.242 1473.14 164.047 1476.7 Q165.876 1480.24 169.487 1480.24 Q173.121 1480.24 174.927 1476.7 Q176.755 1473.14 176.755 1466.03 Q176.755 1458.9 174.927 1455.36 Q173.121 1451.8 169.487 1451.8 M169.487 1448.09 Q175.297 1448.09 178.353 1452.7 Q181.431 1457.28 181.431 1466.03 Q181.431 1474.76 178.353 1479.37 Q175.297 1483.95 169.487 1483.95 Q163.677 1483.95 160.598 1479.37 Q157.542 1474.76 157.542 1466.03 Q157.542 1457.28 160.598 1452.7 Q163.677 1448.09 169.487 1448.09 Z" fill="#000000" fill-rule="evenodd" fill-opacity="1"></path><path clip-path="url(#clip610)" d="M189.695 1448.72 L208.051 1448.72 L208.051 1452.65 L193.977 1452.65 L193.977 1461.12 Q194.996 1460.78 196.014 1460.62 Q197.033 1460.43 198.052 1460.43 Q203.839 1460.43 207.218 1463.6 Q210.598 1466.77 210.598 1472.19 Q210.598 1477.77 207.126 1480.87 Q203.653 1483.95 197.334 1483.95 Q195.158 1483.95 192.89 1483.58 Q190.644 1483.21 188.237 1482.47 L188.237 1477.77 Q190.32 1478.9 192.542 1479.46 Q194.765 1480.01 197.241 1480.01 Q201.246 1480.01 203.584 1477.91 Q205.922 1475.8 205.922 1472.19 Q205.922 1468.58 203.584 1466.47 Q201.246 1464.37 197.241 1464.37 Q195.366 1464.37 193.491 1464.78 Q191.64 1465.2 189.695 1466.08 L189.695 1448.72 Z" fill="#000000" fill-rule="evenodd" fill-opacity="1"></path><path clip-path="url(#clip610)" d="M62.9365 1247.39 Q59.3254 1247.39 57.4967 1250.96 Q55.6912 1254.5 55.6912 1261.63 Q55.6912 1268.74 57.4967 1272.3 Q59.3254 1275.84 62.9365 1275.84 Q66.5707 1275.84 68.3763 1272.3 Q70.205 1268.74 70.205 1261.63 Q70.205 1254.5 68.3763 1250.96 Q66.5707 1247.39 62.9365 1247.39 M62.9365 1243.69 Q68.7467 1243.69 71.8022 1248.3 Q74.8809 1252.88 74.8809 1261.63 Q74.8809 1270.36 71.8022 1274.96 Q68.7467 1279.55 62.9365 1279.55 Q57.1264 1279.55 54.0477 1274.96 Q50.9921 1270.36 50.9921 1261.63 Q50.9921 1252.88 54.0477 1248.3 Q57.1264 1243.69 62.9365 1243.69 Z" fill="#000000" fill-rule="evenodd" fill-opacity="1"></path><path clip-path="url(#clip610)" d="M83.0984 1273 L87.9827 1273 L87.9827 1278.88 L83.0984 1278.88 L83.0984 1273 Z" fill="#000000" fill-rule="evenodd" fill-opacity="1"></path><path clip-path="url(#clip610)" d="M108.168 1247.39 Q104.557 1247.39 102.728 1250.96 Q100.922 1254.5 100.922 1261.63 Q100.922 1268.74 102.728 1272.3 Q104.557 1275.84 108.168 1275.84 Q111.802 1275.84 113.608 1272.3 Q115.436 1268.74 115.436 1261.63 Q115.436 1254.5 113.608 1250.96 Q111.802 1247.39 108.168 1247.39 M108.168 1243.69 Q113.978 1243.69 117.033 1248.3 Q120.112 1252.88 120.112 1261.63 Q120.112 1270.36 117.033 1274.96 Q113.978 1279.55 108.168 1279.55 Q102.358 1279.55 99.2789 1274.96 Q96.2234 1270.36 96.2234 1261.63 Q96.2234 1252.88 99.2789 1248.3 Q102.358 1243.69 108.168 1243.69 Z" fill="#000000" fill-rule="evenodd" fill-opacity="1"></path><path clip-path="url(#clip610)" d="M138.33 1247.39 Q134.719 1247.39 132.89 1250.96 Q131.084 1254.5 131.084 1261.63 Q131.084 1268.74 132.89 1272.3 Q134.719 1275.84 138.33 1275.84 Q141.964 1275.84 143.769 1272.3 Q145.598 1268.74 145.598 1261.63 Q145.598 1254.5 143.769 1250.96 Q141.964 1247.39 138.33 1247.39 M138.33 1243.69 Q144.14 1243.69 147.195 1248.3 Q150.274 1252.88 150.274 1261.63 Q150.274 1270.36 147.195 1274.96 Q144.14 1279.55 138.33 1279.55 Q132.519 1279.55 129.441 1274.96 Q126.385 1270.36 126.385 1261.63 Q126.385 1252.88 129.441 1248.3 Q132.519 1243.69 138.33 1243.69 Z" fill="#000000" fill-rule="evenodd" fill-opacity="1"></path><path clip-path="url(#clip610)" d="M159.302 1274.94 L166.941 1274.94 L166.941 1248.57 L158.63 1250.24 L158.63 1245.98 L166.894 1244.32 L171.57 1244.32 L171.57 1274.94 L179.209 1274.94 L179.209 1278.88 L159.302 1278.88 L159.302 1274.94 Z" fill="#000000" fill-rule="evenodd" fill-opacity="1"></path><path clip-path="url(#clip610)" d="M198.653 1247.39 Q195.042 1247.39 193.214 1250.96 Q191.408 1254.5 191.408 1261.63 Q191.408 1268.74 193.214 1272.3 Q195.042 1275.84 198.653 1275.84 Q202.288 1275.84 204.093 1272.3 Q205.922 1268.74 205.922 1261.63 Q205.922 1254.5 204.093 1250.96 Q202.288 1247.39 198.653 1247.39 M198.653 1243.69 Q204.464 1243.69 207.519 1248.3 Q210.598 1252.88 210.598 1261.63 Q210.598 1270.36 207.519 1274.96 Q204.464 1279.55 198.653 1279.55 Q192.843 1279.55 189.765 1274.96 Q186.709 1270.36 186.709 1261.63 Q186.709 1252.88 189.765 1248.3 Q192.843 1243.69 198.653 1243.69 Z" fill="#000000" fill-rule="evenodd" fill-opacity="1"></path><path clip-path="url(#clip610)" d="M63.9319 1042.99 Q60.3208 1042.99 58.4921 1046.56 Q56.6865 1050.1 56.6865 1057.23 Q56.6865 1064.33 58.4921 1067.9 Q60.3208 1071.44 63.9319 1071.44 Q67.5661 1071.44 69.3717 1067.9 Q71.2004 1064.33 71.2004 1057.23 Q71.2004 1050.1 69.3717 1046.56 Q67.5661 1042.99 63.9319 1042.99 M63.9319 1039.29 Q69.742 1039.29 72.7976 1043.89 Q75.8763 1048.48 75.8763 1057.23 Q75.8763 1065.95 72.7976 1070.56 Q69.742 1075.14 63.9319 1075.14 Q58.1217 1075.14 55.043 1070.56 Q51.9875 1065.95 51.9875 1057.23 Q51.9875 1048.48 55.043 1043.89 Q58.1217 1039.29 63.9319 1039.29 Z" fill="#000000" fill-rule="evenodd" fill-opacity="1"></path><path clip-path="url(#clip610)" d="M84.0938 1068.59 L88.978 1068.59 L88.978 1074.47 L84.0938 1074.47 L84.0938 1068.59 Z" fill="#000000" fill-rule="evenodd" fill-opacity="1"></path><path clip-path="url(#clip610)" d="M109.163 1042.99 Q105.552 1042.99 103.723 1046.56 Q101.918 1050.1 101.918 1057.23 Q101.918 1064.33 103.723 1067.9 Q105.552 1071.44 109.163 1071.44 Q112.797 1071.44 114.603 1067.9 Q116.432 1064.33 116.432 1057.23 Q116.432 1050.1 114.603 1046.56 Q112.797 1042.99 109.163 1042.99 M109.163 1039.29 Q114.973 1039.29 118.029 1043.89 Q121.107 1048.48 121.107 1057.23 Q121.107 1065.95 118.029 1070.56 Q114.973 1075.14 109.163 1075.14 Q103.353 1075.14 100.274 1070.56 Q97.2187 1065.95 97.2187 1057.23 Q97.2187 1048.48 100.274 1043.89 Q103.353 1039.29 109.163 1039.29 Z" fill="#000000" fill-rule="evenodd" fill-opacity="1"></path><path clip-path="url(#clip610)" d="M139.325 1042.99 Q135.714 1042.99 133.885 1046.56 Q132.08 1050.1 132.08 1057.23 Q132.08 1064.33 133.885 1067.9 Q135.714 1071.44 139.325 1071.44 Q142.959 1071.44 144.765 1067.9 Q146.593 1064.33 146.593 1057.23 Q146.593 1050.1 144.765 1046.56 Q142.959 1042.99 139.325 1042.99 M139.325 1039.29 Q145.135 1039.29 148.191 1043.89 Q151.269 1048.48 151.269 1057.23 Q151.269 1065.95 148.191 1070.56 Q145.135 1075.14 139.325 1075.14 Q133.515 1075.14 130.436 1070.56 Q127.381 1065.95 127.381 1057.23 Q127.381 1048.48 130.436 1043.89 Q133.515 1039.29 139.325 1039.29 Z" fill="#000000" fill-rule="evenodd" fill-opacity="1"></path><path clip-path="url(#clip610)" d="M160.297 1070.54 L167.936 1070.54 L167.936 1044.17 L159.626 1045.84 L159.626 1041.58 L167.89 1039.91 L172.566 1039.91 L172.566 1070.54 L180.204 1070.54 L180.204 1074.47 L160.297 1074.47 L160.297 1070.54 Z" fill="#000000" fill-rule="evenodd" fill-opacity="1"></path><path clip-path="url(#clip610)" d="M189.695 1039.91 L208.051 1039.91 L208.051 1043.85 L193.977 1043.85 L193.977 1052.32 Q194.996 1051.97 196.014 1051.81 Q197.033 1051.63 198.052 1051.63 Q203.839 1051.63 207.218 1054.8 Q210.598 1057.97 210.598 1063.38 Q210.598 1068.96 207.126 1072.07 Q203.653 1075.14 197.334 1075.14 Q195.158 1075.14 192.89 1074.77 Q190.644 1074.4 188.237 1073.66 L188.237 1068.96 Q190.32 1070.1 192.542 1070.65 Q194.765 1071.21 197.241 1071.21 Q201.246 1071.21 203.584 1069.1 Q205.922 1067 205.922 1063.38 Q205.922 1059.77 203.584 1057.67 Q201.246 1055.56 197.241 1055.56 Q195.366 1055.56 193.491 1055.98 Q191.64 1056.39 189.695 1057.27 L189.695 1039.91 Z" fill="#000000" fill-rule="evenodd" fill-opacity="1"></path><path clip-path="url(#clip610)" d="M62.9365 838.589 Q59.3254 838.589 57.4967 842.154 Q55.6912 845.696 55.6912 852.825 Q55.6912 859.932 57.4967 863.497 Q59.3254 867.038 62.9365 867.038 Q66.5707 867.038 68.3763 863.497 Q70.205 859.932 70.205 852.825 Q70.205 845.696 68.3763 842.154 Q66.5707 838.589 62.9365 838.589 M62.9365 834.886 Q68.7467 834.886 71.8022 839.492 Q74.8809 844.075 74.8809 852.825 Q74.8809 861.552 71.8022 866.159 Q68.7467 870.742 62.9365 870.742 Q57.1264 870.742 54.0477 866.159 Q50.9921 861.552 50.9921 852.825 Q50.9921 844.075 54.0477 839.492 Q57.1264 834.886 62.9365 834.886 Z" fill="#000000" fill-rule="evenodd" fill-opacity="1"></path><path clip-path="url(#clip610)" d="M83.0984 864.191 L87.9827 864.191 L87.9827 870.071 L83.0984 870.071 L83.0984 864.191 Z" fill="#000000" fill-rule="evenodd" fill-opacity="1"></path><path clip-path="url(#clip610)" d="M108.168 838.589 Q104.557 838.589 102.728 842.154 Q100.922 845.696 100.922 852.825 Q100.922 859.932 102.728 863.497 Q104.557 867.038 108.168 867.038 Q111.802 867.038 113.608 863.497 Q115.436 859.932 115.436 852.825 Q115.436 845.696 113.608 842.154 Q111.802 838.589 108.168 838.589 M108.168 834.886 Q113.978 834.886 117.033 839.492 Q120.112 844.075 120.112 852.825 Q120.112 861.552 117.033 866.159 Q113.978 870.742 108.168 870.742 Q102.358 870.742 99.2789 866.159 Q96.2234 861.552 96.2234 852.825 Q96.2234 844.075 99.2789 839.492 Q102.358 834.886 108.168 834.886 Z" fill="#000000" fill-rule="evenodd" fill-opacity="1"></path><path clip-path="url(#clip610)" d="M138.33 838.589 Q134.719 838.589 132.89 842.154 Q131.084 845.696 131.084 852.825 Q131.084 859.932 132.89 863.497 Q134.719 867.038 138.33 867.038 Q141.964 867.038 143.769 863.497 Q145.598 859.932 145.598 852.825 Q145.598 845.696 143.769 842.154 Q141.964 838.589 138.33 838.589 M138.33 834.886 Q144.14 834.886 147.195 839.492 Q150.274 844.075 150.274 852.825 Q150.274 861.552 147.195 866.159 Q144.14 870.742 138.33 870.742 Q132.519 870.742 129.441 866.159 Q126.385 861.552 126.385 852.825 Q126.385 844.075 129.441 839.492 Q132.519 834.886 138.33 834.886 Z" fill="#000000" fill-rule="evenodd" fill-opacity="1"></path><path clip-path="url(#clip610)" d="M162.519 866.135 L178.839 866.135 L178.839 870.071 L156.894 870.071 L156.894 866.135 Q159.556 863.381 164.14 858.751 Q168.746 854.099 169.927 852.756 Q172.172 850.233 173.052 848.497 Q173.954 846.737 173.954 845.048 Q173.954 842.293 172.01 840.557 Q170.089 838.821 166.987 838.821 Q164.788 838.821 162.334 839.585 Q159.904 840.349 157.126 841.9 L157.126 837.177 Q159.95 836.043 162.404 835.464 Q164.857 834.886 166.894 834.886 Q172.265 834.886 175.459 837.571 Q178.653 840.256 178.653 844.747 Q178.653 846.876 177.843 848.798 Q177.056 850.696 174.95 853.288 Q174.371 853.96 171.269 857.177 Q168.167 860.372 162.519 866.135 Z" fill="#000000" fill-rule="evenodd" fill-opacity="1"></path><path clip-path="url(#clip610)" d="M198.653 838.589 Q195.042 838.589 193.214 842.154 Q191.408 845.696 191.408 852.825 Q191.408 859.932 193.214 863.497 Q195.042 867.038 198.653 867.038 Q202.288 867.038 204.093 863.497 Q205.922 859.932 205.922 852.825 Q205.922 845.696 204.093 842.154 Q202.288 838.589 198.653 838.589 M198.653 834.886 Q204.464 834.886 207.519 839.492 Q210.598 844.075 210.598 852.825 Q210.598 861.552 207.519 866.159 Q204.464 870.742 198.653 870.742 Q192.843 870.742 189.765 866.159 Q186.709 861.552 186.709 852.825 Q186.709 844.075 189.765 839.492 Q192.843 834.886 198.653 834.886 Z" fill="#000000" fill-rule="evenodd" fill-opacity="1"></path><path clip-path="url(#clip610)" d="M63.9319 634.187 Q60.3208 634.187 58.4921 637.752 Q56.6865 641.294 56.6865 648.423 Q56.6865 655.53 58.4921 659.094 Q60.3208 662.636 63.9319 662.636 Q67.5661 662.636 69.3717 659.094 Q71.2004 655.53 71.2004 648.423 Q71.2004 641.294 69.3717 637.752 Q67.5661 634.187 63.9319 634.187 M63.9319 630.483 Q69.742 630.483 72.7976 635.09 Q75.8763 639.673 75.8763 648.423 Q75.8763 657.15 72.7976 661.756 Q69.742 666.34 63.9319 666.34 Q58.1217 666.34 55.043 661.756 Q51.9875 657.15 51.9875 648.423 Q51.9875 639.673 55.043 635.09 Q58.1217 630.483 63.9319 630.483 Z" fill="#000000" fill-rule="evenodd" fill-opacity="1"></path><path clip-path="url(#clip610)" d="M84.0938 659.789 L88.978 659.789 L88.978 665.668 L84.0938 665.668 L84.0938 659.789 Z" fill="#000000" fill-rule="evenodd" fill-opacity="1"></path><path clip-path="url(#clip610)" d="M109.163 634.187 Q105.552 634.187 103.723 637.752 Q101.918 641.294 101.918 648.423 Q101.918 655.53 103.723 659.094 Q105.552 662.636 109.163 662.636 Q112.797 662.636 114.603 659.094 Q116.432 655.53 116.432 648.423 Q116.432 641.294 114.603 637.752 Q112.797 634.187 109.163 634.187 M109.163 630.483 Q114.973 630.483 118.029 635.09 Q121.107 639.673 121.107 648.423 Q121.107 657.15 118.029 661.756 Q114.973 666.34 109.163 666.34 Q103.353 666.34 100.274 661.756 Q97.2187 657.15 97.2187 648.423 Q97.2187 639.673 100.274 635.09 Q103.353 630.483 109.163 630.483 Z" fill="#000000" fill-rule="evenodd" fill-opacity="1"></path><path clip-path="url(#clip610)" d="M139.325 634.187 Q135.714 634.187 133.885 637.752 Q132.08 641.294 132.08 648.423 Q132.08 655.53 133.885 659.094 Q135.714 662.636 139.325 662.636 Q142.959 662.636 144.765 659.094 Q146.593 655.53 146.593 648.423 Q146.593 641.294 144.765 637.752 Q142.959 634.187 139.325 634.187 M139.325 630.483 Q145.135 630.483 148.191 635.09 Q151.269 639.673 151.269 648.423 Q151.269 657.15 148.191 661.756 Q145.135 666.34 139.325 666.34 Q133.515 666.34 130.436 661.756 Q127.381 657.15 127.381 648.423 Q127.381 639.673 130.436 635.09 Q133.515 630.483 139.325 630.483 Z" fill="#000000" fill-rule="evenodd" fill-opacity="1"></path><path clip-path="url(#clip610)" d="M163.515 661.733 L179.834 661.733 L179.834 665.668 L157.89 665.668 L157.89 661.733 Q160.552 658.979 165.135 654.349 Q169.741 649.696 170.922 648.354 Q173.167 645.831 174.047 644.094 Q174.95 642.335 174.95 640.645 Q174.95 637.891 173.005 636.155 Q171.084 634.419 167.982 634.419 Q165.783 634.419 163.329 635.182 Q160.899 635.946 158.121 637.497 L158.121 632.775 Q160.945 631.641 163.399 631.062 Q165.853 630.483 167.89 630.483 Q173.26 630.483 176.454 633.169 Q179.649 635.854 179.649 640.344 Q179.649 642.474 178.839 644.395 Q178.052 646.294 175.945 648.886 Q175.366 649.557 172.265 652.775 Q169.163 655.969 163.515 661.733 Z" fill="#000000" fill-rule="evenodd" fill-opacity="1"></path><path clip-path="url(#clip610)" d="M189.695 631.108 L208.051 631.108 L208.051 635.044 L193.977 635.044 L193.977 643.516 Q194.996 643.169 196.014 643.006 Q197.033 642.821 198.052 642.821 Q203.839 642.821 207.218 645.993 Q210.598 649.164 210.598 654.581 Q210.598 660.159 207.126 663.261 Q203.653 666.34 197.334 666.34 Q195.158 666.34 192.89 665.969 Q190.644 665.599 188.237 664.858 L188.237 660.159 Q190.32 661.293 192.542 661.849 Q194.765 662.405 197.241 662.405 Q201.246 662.405 203.584 660.298 Q205.922 658.192 205.922 654.581 Q205.922 650.969 203.584 648.863 Q201.246 646.756 197.241 646.756 Q195.366 646.756 193.491 647.173 Q191.64 647.59 189.695 648.469 L189.695 631.108 Z" fill="#000000" fill-rule="evenodd" fill-opacity="1"></path><path clip-path="url(#clip610)" d="M62.9365 429.785 Q59.3254 429.785 57.4967 433.35 Q55.6912 436.891 55.6912 444.021 Q55.6912 451.127 57.4967 454.692 Q59.3254 458.234 62.9365 458.234 Q66.5707 458.234 68.3763 454.692 Q70.205 451.127 70.205 444.021 Q70.205 436.891 68.3763 433.35 Q66.5707 429.785 62.9365 429.785 M62.9365 426.081 Q68.7467 426.081 71.8022 430.688 Q74.8809 435.271 74.8809 444.021 Q74.8809 452.748 71.8022 457.354 Q68.7467 461.937 62.9365 461.937 Q57.1264 461.937 54.0477 457.354 Q50.9921 452.748 50.9921 444.021 Q50.9921 435.271 54.0477 430.688 Q57.1264 426.081 62.9365 426.081 Z" fill="#000000" fill-rule="evenodd" fill-opacity="1"></path><path clip-path="url(#clip610)" d="M83.0984 455.387 L87.9827 455.387 L87.9827 461.266 L83.0984 461.266 L83.0984 455.387 Z" fill="#000000" fill-rule="evenodd" fill-opacity="1"></path><path clip-path="url(#clip610)" d="M108.168 429.785 Q104.557 429.785 102.728 433.35 Q100.922 436.891 100.922 444.021 Q100.922 451.127 102.728 454.692 Q104.557 458.234 108.168 458.234 Q111.802 458.234 113.608 454.692 Q115.436 451.127 115.436 444.021 Q115.436 436.891 113.608 433.35 Q111.802 429.785 108.168 429.785 M108.168 426.081 Q113.978 426.081 117.033 430.688 Q120.112 435.271 120.112 444.021 Q120.112 452.748 117.033 457.354 Q113.978 461.937 108.168 461.937 Q102.358 461.937 99.2789 457.354 Q96.2234 452.748 96.2234 444.021 Q96.2234 435.271 99.2789 430.688 Q102.358 426.081 108.168 426.081 Z" fill="#000000" fill-rule="evenodd" fill-opacity="1"></path><path clip-path="url(#clip610)" d="M138.33 429.785 Q134.719 429.785 132.89 433.35 Q131.084 436.891 131.084 444.021 Q131.084 451.127 132.89 454.692 Q134.719 458.234 138.33 458.234 Q141.964 458.234 143.769 454.692 Q145.598 451.127 145.598 444.021 Q145.598 436.891 143.769 433.35 Q141.964 429.785 138.33 429.785 M138.33 426.081 Q144.14 426.081 147.195 430.688 Q150.274 435.271 150.274 444.021 Q150.274 452.748 147.195 457.354 Q144.14 461.937 138.33 461.937 Q132.519 461.937 129.441 457.354 Q126.385 452.748 126.385 444.021 Q126.385 435.271 129.441 430.688 Q132.519 426.081 138.33 426.081 Z" fill="#000000" fill-rule="evenodd" fill-opacity="1"></path><path clip-path="url(#clip610)" d="M172.658 442.632 Q176.015 443.35 177.89 445.618 Q179.788 447.887 179.788 451.22 Q179.788 456.336 176.269 459.137 Q172.751 461.937 166.269 461.937 Q164.093 461.937 161.779 461.498 Q159.487 461.081 157.033 460.225 L157.033 455.711 Q158.978 456.845 161.292 457.424 Q163.607 458.002 166.13 458.002 Q170.529 458.002 172.82 456.266 Q175.135 454.53 175.135 451.22 Q175.135 448.164 172.982 446.451 Q170.853 444.715 167.033 444.715 L163.005 444.715 L163.005 440.873 L167.218 440.873 Q170.667 440.873 172.496 439.507 Q174.325 438.118 174.325 435.526 Q174.325 432.864 172.427 431.452 Q170.552 430.016 167.033 430.016 Q165.112 430.016 162.913 430.433 Q160.714 430.85 158.075 431.729 L158.075 427.563 Q160.737 426.822 163.052 426.452 Q165.39 426.081 167.45 426.081 Q172.774 426.081 175.876 428.512 Q178.978 430.919 178.978 435.039 Q178.978 437.91 177.334 439.901 Q175.691 441.868 172.658 442.632 Z" fill="#000000" fill-rule="evenodd" fill-opacity="1"></path><path clip-path="url(#clip610)" d="M198.653 429.785 Q195.042 429.785 193.214 433.35 Q191.408 436.891 191.408 444.021 Q191.408 451.127 193.214 454.692 Q195.042 458.234 198.653 458.234 Q202.288 458.234 204.093 454.692 Q205.922 451.127 205.922 444.021 Q205.922 436.891 204.093 433.35 Q202.288 429.785 198.653 429.785 M198.653 426.081 Q204.464 426.081 207.519 430.688 Q210.598 435.271 210.598 444.021 Q210.598 452.748 207.519 457.354 Q204.464 461.937 198.653 461.937 Q192.843 461.937 189.765 457.354 Q186.709 452.748 186.709 444.021 Q186.709 435.271 189.765 430.688 Q192.843 426.081 198.653 426.081 Z" fill="#000000" fill-rule="evenodd" fill-opacity="1"></path><path clip-path="url(#clip610)" d="M63.9319 225.383 Q60.3208 225.383 58.4921 228.947 Q56.6865 232.489 56.6865 239.619 Q56.6865 246.725 58.4921 250.29 Q60.3208 253.832 63.9319 253.832 Q67.5661 253.832 69.3717 250.29 Q71.2004 246.725 71.2004 239.619 Q71.2004 232.489 69.3717 228.947 Q67.5661 225.383 63.9319 225.383 M63.9319 221.679 Q69.742 221.679 72.7976 226.285 Q75.8763 230.869 75.8763 239.619 Q75.8763 248.345 72.7976 252.952 Q69.742 257.535 63.9319 257.535 Q58.1217 257.535 55.043 252.952 Q51.9875 248.345 51.9875 239.619 Q51.9875 230.869 55.043 226.285 Q58.1217 221.679 63.9319 221.679 Z" fill="#000000" fill-rule="evenodd" fill-opacity="1"></path><path clip-path="url(#clip610)" d="M84.0938 250.984 L88.978 250.984 L88.978 256.864 L84.0938 256.864 L84.0938 250.984 Z" fill="#000000" fill-rule="evenodd" fill-opacity="1"></path><path clip-path="url(#clip610)" d="M109.163 225.383 Q105.552 225.383 103.723 228.947 Q101.918 232.489 101.918 239.619 Q101.918 246.725 103.723 250.29 Q105.552 253.832 109.163 253.832 Q112.797 253.832 114.603 250.29 Q116.432 246.725 116.432 239.619 Q116.432 232.489 114.603 228.947 Q112.797 225.383 109.163 225.383 M109.163 221.679 Q114.973 221.679 118.029 226.285 Q121.107 230.869 121.107 239.619 Q121.107 248.345 118.029 252.952 Q114.973 257.535 109.163 257.535 Q103.353 257.535 100.274 252.952 Q97.2187 248.345 97.2187 239.619 Q97.2187 230.869 100.274 226.285 Q103.353 221.679 109.163 221.679 Z" fill="#000000" fill-rule="evenodd" fill-opacity="1"></path><path clip-path="url(#clip610)" d="M139.325 225.383 Q135.714 225.383 133.885 228.947 Q132.08 232.489 132.08 239.619 Q132.08 246.725 133.885 250.29 Q135.714 253.832 139.325 253.832 Q142.959 253.832 144.765 250.29 Q146.593 246.725 146.593 239.619 Q146.593 232.489 144.765 228.947 Q142.959 225.383 139.325 225.383 M139.325 221.679 Q145.135 221.679 148.191 226.285 Q151.269 230.869 151.269 239.619 Q151.269 248.345 148.191 252.952 Q145.135 257.535 139.325 257.535 Q133.515 257.535 130.436 252.952 Q127.381 248.345 127.381 239.619 Q127.381 230.869 130.436 226.285 Q133.515 221.679 139.325 221.679 Z" fill="#000000" fill-rule="evenodd" fill-opacity="1"></path><path clip-path="url(#clip610)" d="M173.654 238.23 Q177.01 238.947 178.885 241.216 Q180.783 243.484 180.783 246.818 Q180.783 251.933 177.265 254.734 Q173.746 257.535 167.265 257.535 Q165.089 257.535 162.774 257.095 Q160.482 256.679 158.029 255.822 L158.029 251.308 Q159.973 252.443 162.288 253.021 Q164.603 253.6 167.126 253.6 Q171.524 253.6 173.816 251.864 Q176.13 250.128 176.13 246.818 Q176.13 243.762 173.978 242.049 Q171.848 240.313 168.029 240.313 L164.001 240.313 L164.001 236.471 L168.214 236.471 Q171.663 236.471 173.491 235.105 Q175.32 233.716 175.32 231.123 Q175.32 228.461 173.422 227.049 Q171.547 225.614 168.029 225.614 Q166.107 225.614 163.908 226.031 Q161.709 226.447 159.07 227.327 L159.07 223.16 Q161.732 222.42 164.047 222.049 Q166.385 221.679 168.445 221.679 Q173.769 221.679 176.871 224.109 Q179.973 226.517 179.973 230.637 Q179.973 233.508 178.329 235.498 Q176.686 237.466 173.654 238.23 Z" fill="#000000" fill-rule="evenodd" fill-opacity="1"></path><path clip-path="url(#clip610)" d="M189.695 222.304 L208.051 222.304 L208.051 226.239 L193.977 226.239 L193.977 234.711 Q194.996 234.364 196.014 234.202 Q197.033 234.017 198.052 234.017 Q203.839 234.017 207.218 237.188 Q210.598 240.359 210.598 245.776 Q210.598 251.355 207.126 254.457 Q203.653 257.535 197.334 257.535 Q195.158 257.535 192.89 257.165 Q190.644 256.794 188.237 256.054 L188.237 251.355 Q190.32 252.489 192.542 253.044 Q194.765 253.6 197.241 253.6 Q201.246 253.6 203.584 251.494 Q205.922 249.387 205.922 245.776 Q205.922 242.165 203.584 240.058 Q201.246 237.952 197.241 237.952 Q195.366 237.952 193.491 238.369 Q191.64 238.785 189.695 239.665 L189.695 222.304 Z" fill="#000000" fill-rule="evenodd" fill-opacity="1"></path><polyline clip-path="url(#clip612)" style="stroke:#009af9; stroke-linecap:round; stroke-linejoin:round; stroke-width:4; stroke-opacity:1; fill:none" points="
  306.206,1406.81 313.204,1406.8 320.212,1406.8 327.23,1406.79 334.258,1406.78 341.295,1406.78 348.343,1406.77 355.4,1406.75 362.468,1406.74 369.545,1406.72 
  376.633,1406.71 383.73,1406.68 390.837,1406.66 397.955,1406.64 405.082,1406.61 412.22,1406.58 419.367,1406.54 426.525,1406.5 433.692,1406.46 440.87,1406.41 
  448.058,1406.36 455.256,1406.31 462.464,1406.25 469.682,1406.18 476.911,1406.11 484.149,1406.04 491.398,1405.96 498.657,1405.87 505.926,1405.77 513.206,1405.67 
  520.496,1405.56 527.796,1405.45 535.106,1405.32 542.427,1405.19 549.758,1405.04 557.099,1404.89 564.45,1404.72 571.812,1404.54 579.185,1404.35 586.567,1404.15 
  593.96,1403.93 601.364,1403.7 608.778,1403.45 616.202,1403.18 623.637,1402.89 631.083,1402.58 638.538,1402.25 646.005,1401.89 653.482,1401.51 660.969,1401.1 
  668.467,1400.65 675.975,1400.18 683.494,1399.66 691.024,1399.11 698.564,1398.51 706.115,1397.86 713.677,1397.16 721.249,1396.41 728.832,1395.59 736.425,1394.71 
  744.03,1393.76 751.645,1392.72 759.27,1391.6 766.907,1390.38 774.554,1389.06 782.212,1387.63 789.881,1386.07 797.56,1384.37 805.251,1382.53 812.952,1380.53 
  820.664,1378.35 828.387,1375.99 836.12,1373.41 843.865,1370.6 851.621,1367.54 859.387,1364.21 867.165,1360.59 874.953,1356.64 882.753,1352.34 890.563,1347.66 
  898.384,1342.57 906.217,1337.02 914.06,1330.98 921.915,1324.41 929.78,1317.26 937.657,1309.48 945.545,1301.04 953.443,1291.86 961.353,1281.9 969.275,1271.09 
  977.207,1259.37 985.15,1246.67 993.105,1232.93 1001.07,1218.08 1009.05,1202.04 1017.04,1184.73 1025.04,1166.09 1033.05,1146.05 1041.07,1124.52 1049.1,1101.44 
  1057.15,1076.75 1065.2,1050.39 1073.27,1022.31 1081.35,992.478 1089.44,960.868 1097.54,927.473 1105.65,892.307 1113.78,855.408 1121.91,816.837 1130.06,776.69 
  1138.22,735.091 1146.39,692.204 1154.57,648.229 1162.77,603.407 1170.97,558.021 1179.19,512.395 1187.42,466.891 1195.65,421.911 1203.91,377.886 1212.17,335.278 
  1220.44,294.563 1228.73,256.23 1237.03,220.767 1245.34,188.646 1253.66,160.316 1261.99,136.19 1270.34,116.628 1278.69,101.932 1287.06,92.3302 1295.44,87.9763 
  1303.83,88.939 1312.24,95.2023 1320.65,106.666 1329.08,123.147 1337.52,144.39 1345.97,170.07 1354.43,199.81 1362.91,233.183 1371.39,269.734 1379.89,308.985 
  1388.4,350.453 1396.93,393.656 1405.46,438.125 1414.01,483.416 1422.57,529.11 1431.14,574.824 1439.72,620.212 1448.31,664.969 1456.92,708.83 1465.54,751.569 
  1474.17,793.002 1482.82,832.979 1491.47,871.386 1500.14,908.14 1508.82,943.187 1517.51,976.496 1526.22,1008.06 1534.93,1037.88 1543.66,1066 1552.4,1092.44 
  1561.16,1117.26 1569.92,1140.51 1578.7,1162.25 1587.49,1182.55 1596.3,1201.48 1605.11,1219.11 1613.94,1235.52 1622.78,1250.76 1631.63,1264.91 1640.5,1278.04 
  1649.38,1290.22 1658.27,1301.5 1667.17,1311.94 1676.09,1321.61 1685.01,1330.56 1693.96,1338.84 1702.91,1346.5 1711.87,1353.58 1720.85,1360.13 1729.84,1366.18 
  1738.85,1371.78 1747.86,1376.95 1756.89,1381.74 1765.94,1386.16 1774.99,1390.26 1784.06,1394.05 1793.14,1397.55 1802.23,1400.8 1811.34,1403.8 1820.46,1406.59 
  1829.59,1409.17 1838.73,1411.57 1847.89,1413.79 1857.06,1415.85 1866.24,1417.77 1875.44,1419.55 1884.65,1421.2 1893.87,1422.74 1903.1,1424.18 1912.35,1425.52 
  1921.61,1426.77 1930.89,1427.93 1940.17,1429.02 1949.47,1430.04 1958.79,1431 1968.11,1431.89 1977.45,1432.73 1986.8,1433.52 1996.17,1434.26 2005.55,1434.96 
  2014.94,1435.61 2024.35,1436.23 2033.77,1436.82 2043.2,1437.37 2052.64,1437.9 2062.1,1438.39 2071.57,1438.86 2081.06,1439.31 2090.56,1439.74 2100.07,1440.14 
  2109.59,1440.53 2119.13,1440.9 2128.69,1441.26 2138.25,1441.6 2147.83,1441.92 2157.42,1442.23 2167.03,1442.54 2176.65,1442.83 2186.28,1443.11 2195.93,1443.38 
  2205.59,1443.64 2215.26,1443.9 2224.95,1444.14 2234.65,1444.38 2244.37,1444.62 2254.1,1444.85 2263.84,1445.07 2273.59,1445.29 2283.36,1445.5 2293.15,1445.72 
  
  "></polyline>
<path clip-path="url(#clip610)" d="
M1996.1 198.898 L2282.55 198.898 L2282.55 95.2176 L1996.1 95.2176  Z
  " fill="#ffffff" fill-rule="evenodd" fill-opacity="1"></path>
<polyline clip-path="url(#clip610)" style="stroke:#000000; stroke-linecap:round; stroke-linejoin:round; stroke-width:4; stroke-opacity:1; fill:none" points="
  1996.1,198.898 2282.55,198.898 2282.55,95.2176 1996.1,95.2176 1996.1,198.898 
  "></polyline>
<polyline clip-path="url(#clip610)" style="stroke:#009af9; stroke-linecap:round; stroke-linejoin:round; stroke-width:4; stroke-opacity:1; fill:none" points="
  2019.5,147.058 2159.92,147.058 
  "></polyline>
<path clip-path="url(#clip610)" d="M2197.16 166.745 Q2195.35 171.375 2193.64 172.787 Q2191.93 174.199 2189.06 174.199 L2185.65 174.199 L2185.65 170.634 L2188.15 170.634 Q2189.91 170.634 2190.89 169.8 Q2191.86 168.967 2193.04 165.865 L2193.8 163.921 L2183.32 138.412 L2187.83 138.412 L2195.93 158.689 L2204.03 138.412 L2208.55 138.412 L2197.16 166.745 Z" fill="#000000" fill-rule="evenodd" fill-opacity="1"></path><path clip-path="url(#clip610)" d="M2215.84 160.402 L2223.48 160.402 L2223.48 134.037 L2215.17 135.703 L2215.17 131.444 L2223.43 129.778 L2228.11 129.778 L2228.11 160.402 L2235.75 160.402 L2235.75 164.338 L2215.84 164.338 L2215.84 160.402 Z" fill="#000000" fill-rule="evenodd" fill-opacity="1"></path></svg>