<svg xmlns="http://www.w3.org/2000/svg" xmlns:xlink="http://www.w3.org/1999/xlink" width="600" height="400" viewBox="0 0 2400 1600">
<defs>
  <clipPath id="clip370">
    <rect x="0" y="0" width="2400" height="1600"></rect>
  </clipPath>
</defs>
<path clip-path="url(#clip370)" d="
M0 1600 L2400 1600 L2400 0 L0 0  Z
  " fill="#ffffff" fill-rule="evenodd" fill-opacity="1"></path>
<defs>
  <clipPath id="clip371">
    <rect x="480" y="0" width="1681" height="1600"></rect>
  </clipPath>
</defs>
<path clip-path="url(#clip370)" d="
M246.598 1486.45 L2352.76 1486.45 L2352.76 47.2441 L246.598 47.2441  Z
  " fill="#ffffff" fill-rule="evenodd" fill-opacity="1"></path>
<defs>
  <clipPath id="clip372">
    <rect x="246" y="47" width="2107" height="1440"></rect>
  </clipPath>
</defs>
<polyline clip-path="url(#clip372)" style="stroke:#000000; stroke-linecap:round; stroke-linejoin:round; stroke-width:2; stroke-opacity:0.1; fill:none" points="
  306.206,1486.45 306.206,47.2441 
  "></polyline>
<polyline clip-path="url(#clip372)" style="stroke:#000000; stroke-linecap:round; stroke-linejoin:round; stroke-width:2; stroke-opacity:0.1; fill:none" points="
  802.941,1486.45 802.941,47.2441 
  "></polyline>
<polyline clip-path="url(#clip372)" style="stroke:#000000; stroke-linecap:round; stroke-linejoin:round; stroke-width:2; stroke-opacity:0.1; fill:none" points="
  1299.68,1486.45 1299.68,47.2441 
  "></polyline>
<polyline clip-path="url(#clip372)" style="stroke:#000000; stroke-linecap:round; stroke-linejoin:round; stroke-width:2; stroke-opacity:0.1; fill:none" points="
  1796.41,1486.45 1796.41,47.2441 
  "></polyline>
<polyline clip-path="url(#clip372)" style="stroke:#000000; stroke-linecap:round; stroke-linejoin:round; stroke-width:2; stroke-opacity:0.1; fill:none" points="
  2293.15,1486.45 2293.15,47.2441 
  "></polyline>
<polyline clip-path="url(#clip370)" style="stroke:#000000; stroke-linecap:round; stroke-linejoin:round; stroke-width:4; stroke-opacity:1; fill:none" points="
  246.598,1486.45 2352.76,1486.45 
  "></polyline>
<polyline clip-path="url(#clip370)" style="stroke:#000000; stroke-linecap:round; stroke-linejoin:round; stroke-width:4; stroke-opacity:1; fill:none" points="
  306.206,1486.45 306.206,1467.55 
  "></polyline>
<polyline clip-path="url(#clip370)" style="stroke:#000000; stroke-linecap:round; stroke-linejoin:round; stroke-width:4; stroke-opacity:1; fill:none" points="
  802.941,1486.45 802.941,1467.55 
  "></polyline>
<polyline clip-path="url(#clip370)" style="stroke:#000000; stroke-linecap:round; stroke-linejoin:round; stroke-width:4; stroke-opacity:1; fill:none" points="
  1299.68,1486.45 1299.68,1467.55 
  "></polyline>
<polyline clip-path="url(#clip370)" style="stroke:#000000; stroke-linecap:round; stroke-linejoin:round; stroke-width:4; stroke-opacity:1; fill:none" points="
  1796.41,1486.45 1796.41,1467.55 
  "></polyline>
<polyline clip-path="url(#clip370)" style="stroke:#000000; stroke-linecap:round; stroke-linejoin:round; stroke-width:4; stroke-opacity:1; fill:none" points="
  2293.15,1486.45 2293.15,1467.55 
  "></polyline>
<path clip-path="url(#clip370)" d="M284.979 1544.91 L301.299 1544.91 L301.299 1548.85 L279.354 1548.85 L279.354 1544.91 Q282.016 1542.16 286.6 1537.53 Q291.206 1532.88 292.387 1531.53 Q294.632 1529.01 295.512 1527.27 Q296.414 1525.51 296.414 1523.82 Q296.414 1521.07 294.47 1519.33 Q292.549 1517.6 289.447 1517.6 Q287.248 1517.6 284.794 1518.36 Q282.364 1519.13 279.586 1520.68 L279.586 1515.95 Q282.41 1514.82 284.864 1514.24 Q287.317 1513.66 289.354 1513.66 Q294.725 1513.66 297.919 1516.35 Q301.113 1519.03 301.113 1523.52 Q301.113 1525.65 300.303 1527.57 Q299.516 1529.47 297.41 1532.07 Q296.831 1532.74 293.729 1535.95 Q290.627 1539.15 284.979 1544.91 Z" fill="#000000" fill-rule="evenodd" fill-opacity="1"></path><path clip-path="url(#clip370)" d="M321.113 1517.37 Q317.502 1517.37 315.674 1520.93 Q313.868 1524.47 313.868 1531.6 Q313.868 1538.71 315.674 1542.27 Q317.502 1545.82 321.113 1545.82 Q324.748 1545.82 326.553 1542.27 Q328.382 1538.71 328.382 1531.6 Q328.382 1524.47 326.553 1520.93 Q324.748 1517.37 321.113 1517.37 M321.113 1513.66 Q326.923 1513.66 329.979 1518.27 Q333.058 1522.85 333.058 1531.6 Q333.058 1540.33 329.979 1544.94 Q326.923 1549.52 321.113 1549.52 Q315.303 1549.52 312.224 1544.94 Q309.169 1540.33 309.169 1531.6 Q309.169 1522.85 312.224 1518.27 Q315.303 1513.66 321.113 1513.66 Z" fill="#000000" fill-rule="evenodd" fill-opacity="1"></path><path clip-path="url(#clip370)" d="M782.212 1544.91 L798.532 1544.91 L798.532 1548.85 L776.587 1548.85 L776.587 1544.91 Q779.249 1542.16 783.833 1537.53 Q788.439 1532.88 789.62 1531.53 Q791.865 1529.01 792.745 1527.27 Q793.647 1525.51 793.647 1523.82 Q793.647 1521.07 791.703 1519.33 Q789.782 1517.6 786.68 1517.6 Q784.481 1517.6 782.027 1518.36 Q779.597 1519.13 776.819 1520.68 L776.819 1515.95 Q779.643 1514.82 782.097 1514.24 Q784.55 1513.66 786.587 1513.66 Q791.958 1513.66 795.152 1516.35 Q798.347 1519.03 798.347 1523.52 Q798.347 1525.65 797.536 1527.57 Q796.749 1529.47 794.643 1532.07 Q794.064 1532.74 790.962 1535.95 Q787.86 1539.15 782.212 1544.91 Z" fill="#000000" fill-rule="evenodd" fill-opacity="1"></path><path clip-path="url(#clip370)" d="M808.393 1514.29 L826.749 1514.29 L826.749 1518.22 L812.675 1518.22 L812.675 1526.7 Q813.694 1526.35 814.712 1526.19 Q815.731 1526 816.749 1526 Q822.536 1526 825.916 1529.17 Q829.295 1532.34 829.295 1537.76 Q829.295 1543.34 825.823 1546.44 Q822.351 1549.52 816.032 1549.52 Q813.856 1549.52 811.587 1549.15 Q809.342 1548.78 806.934 1548.04 L806.934 1543.34 Q809.018 1544.47 811.24 1545.03 Q813.462 1545.58 815.939 1545.58 Q819.944 1545.58 822.282 1543.48 Q824.62 1541.37 824.62 1537.76 Q824.62 1534.15 822.282 1532.04 Q819.944 1529.94 815.939 1529.94 Q814.064 1529.94 812.189 1530.35 Q810.337 1530.77 808.393 1531.65 L808.393 1514.29 Z" fill="#000000" fill-rule="evenodd" fill-opacity="1"></path><path clip-path="url(#clip370)" d="M1288.52 1530.21 Q1291.88 1530.93 1293.75 1533.2 Q1295.65 1535.47 1295.65 1538.8 Q1295.65 1543.92 1292.13 1546.72 Q1288.61 1549.52 1282.13 1549.52 Q1279.95 1549.52 1277.64 1549.08 Q1275.35 1548.66 1272.89 1547.81 L1272.89 1543.29 Q1274.84 1544.43 1277.15 1545.01 Q1279.47 1545.58 1281.99 1545.58 Q1286.39 1545.58 1288.68 1543.85 Q1291 1542.11 1291 1538.8 Q1291 1535.75 1288.84 1534.03 Q1286.71 1532.3 1282.89 1532.3 L1278.87 1532.3 L1278.87 1528.45 L1283.08 1528.45 Q1286.53 1528.45 1288.36 1527.09 Q1290.19 1525.7 1290.19 1523.11 Q1290.19 1520.45 1288.29 1519.03 Q1286.41 1517.6 1282.89 1517.6 Q1280.97 1517.6 1278.77 1518.01 Q1276.58 1518.43 1273.94 1519.31 L1273.94 1515.14 Q1276.6 1514.4 1278.91 1514.03 Q1281.25 1513.66 1283.31 1513.66 Q1288.64 1513.66 1291.74 1516.09 Q1294.84 1518.5 1294.84 1522.62 Q1294.84 1525.49 1293.2 1527.48 Q1291.55 1529.45 1288.52 1530.21 Z" fill="#000000" fill-rule="evenodd" fill-opacity="1"></path><path clip-path="url(#clip370)" d="M1314.51 1517.37 Q1310.9 1517.37 1309.07 1520.93 Q1307.27 1524.47 1307.27 1531.6 Q1307.27 1538.71 1309.07 1542.27 Q1310.9 1545.82 1314.51 1545.82 Q1318.15 1545.82 1319.95 1542.27 Q1321.78 1538.71 1321.78 1531.6 Q1321.78 1524.47 1319.95 1520.93 Q1318.15 1517.37 1314.51 1517.37 M1314.51 1513.66 Q1320.32 1513.66 1323.38 1518.27 Q1326.46 1522.85 1326.46 1531.6 Q1326.46 1540.33 1323.38 1544.94 Q1320.32 1549.52 1314.51 1549.52 Q1308.7 1549.52 1305.63 1544.94 Q1302.57 1540.33 1302.57 1531.6 Q1302.57 1522.85 1305.63 1518.27 Q1308.7 1513.66 1314.51 1513.66 Z" fill="#000000" fill-rule="evenodd" fill-opacity="1"></path><path clip-path="url(#clip370)" d="M1785.75 1530.21 Q1789.11 1530.93 1790.98 1533.2 Q1792.88 1535.47 1792.88 1538.8 Q1792.88 1543.92 1789.36 1546.72 Q1785.85 1549.52 1779.36 1549.52 Q1777.19 1549.52 1774.87 1549.08 Q1772.58 1548.66 1770.13 1547.81 L1770.13 1543.29 Q1772.07 1544.43 1774.39 1545.01 Q1776.7 1545.58 1779.22 1545.58 Q1783.62 1545.58 1785.91 1543.85 Q1788.23 1542.11 1788.23 1538.8 Q1788.23 1535.75 1786.08 1534.03 Q1783.95 1532.3 1780.13 1532.3 L1776.1 1532.3 L1776.1 1528.45 L1780.31 1528.45 Q1783.76 1528.45 1785.59 1527.09 Q1787.42 1525.7 1787.42 1523.11 Q1787.42 1520.45 1785.52 1519.03 Q1783.65 1517.6 1780.13 1517.6 Q1778.21 1517.6 1776.01 1518.01 Q1773.81 1518.43 1771.17 1519.31 L1771.17 1515.14 Q1773.83 1514.4 1776.15 1514.03 Q1778.48 1513.66 1780.54 1513.66 Q1785.87 1513.66 1788.97 1516.09 Q1792.07 1518.5 1792.07 1522.62 Q1792.07 1525.49 1790.43 1527.48 Q1788.78 1529.45 1785.75 1530.21 Z" fill="#000000" fill-rule="evenodd" fill-opacity="1"></path><path clip-path="url(#clip370)" d="M1801.79 1514.29 L1820.15 1514.29 L1820.15 1518.22 L1806.08 1518.22 L1806.08 1526.7 Q1807.1 1526.35 1808.11 1526.19 Q1809.13 1526 1810.15 1526 Q1815.94 1526 1819.32 1529.17 Q1822.7 1532.34 1822.7 1537.76 Q1822.7 1543.34 1819.22 1546.44 Q1815.75 1549.52 1809.43 1549.52 Q1807.26 1549.52 1804.99 1549.15 Q1802.74 1548.78 1800.34 1548.04 L1800.34 1543.34 Q1802.42 1544.47 1804.64 1545.03 Q1806.86 1545.58 1809.34 1545.58 Q1813.35 1545.58 1815.68 1543.48 Q1818.02 1541.37 1818.02 1537.76 Q1818.02 1534.15 1815.68 1532.04 Q1813.35 1529.94 1809.34 1529.94 Q1807.47 1529.94 1805.59 1530.35 Q1803.74 1530.77 1801.79 1531.65 L1801.79 1514.29 Z" fill="#000000" fill-rule="evenodd" fill-opacity="1"></path><path clip-path="url(#clip370)" d="M2281.32 1518.36 L2269.51 1536.81 L2281.32 1536.81 L2281.32 1518.36 M2280.09 1514.29 L2285.97 1514.29 L2285.97 1536.81 L2290.9 1536.81 L2290.9 1540.7 L2285.97 1540.7 L2285.97 1548.85 L2281.32 1548.85 L2281.32 1540.7 L2265.72 1540.7 L2265.72 1536.19 L2280.09 1514.29 Z" fill="#000000" fill-rule="evenodd" fill-opacity="1"></path><path clip-path="url(#clip370)" d="M2308.63 1517.37 Q2305.02 1517.37 2303.19 1520.93 Q2301.39 1524.47 2301.39 1531.6 Q2301.39 1538.71 2303.19 1542.27 Q2305.02 1545.82 2308.63 1545.82 Q2312.27 1545.82 2314.07 1542.27 Q2315.9 1538.71 2315.9 1531.6 Q2315.9 1524.47 2314.07 1520.93 Q2312.27 1517.37 2308.63 1517.37 M2308.63 1513.66 Q2314.44 1513.66 2317.5 1518.27 Q2320.58 1522.85 2320.58 1531.6 Q2320.58 1540.33 2317.5 1544.94 Q2314.44 1549.52 2308.63 1549.52 Q2302.82 1549.52 2299.74 1544.94 Q2296.69 1540.33 2296.69 1531.6 Q2296.69 1522.85 2299.74 1518.27 Q2302.82 1513.66 2308.63 1513.66 Z" fill="#000000" fill-rule="evenodd" fill-opacity="1"></path><polyline clip-path="url(#clip372)" style="stroke:#000000; stroke-linecap:round; stroke-linejoin:round; stroke-width:2; stroke-opacity:0.1; fill:none" points="
  246.598,1303.82 2352.76,1303.82 
  "></polyline>
<polyline clip-path="url(#clip372)" style="stroke:#000000; stroke-linecap:round; stroke-linejoin:round; stroke-width:2; stroke-opacity:0.1; fill:none" points="
  246.598,1111.13 2352.76,1111.13 
  "></polyline>
<polyline clip-path="url(#clip372)" style="stroke:#000000; stroke-linecap:round; stroke-linejoin:round; stroke-width:2; stroke-opacity:0.1; fill:none" points="
  246.598,918.45 2352.76,918.45 
  "></polyline>
<polyline clip-path="url(#clip372)" style="stroke:#000000; stroke-linecap:round; stroke-linejoin:round; stroke-width:2; stroke-opacity:0.1; fill:none" points="
  246.598,725.768 2352.76,725.768 
  "></polyline>
<polyline clip-path="url(#clip372)" style="stroke:#000000; stroke-linecap:round; stroke-linejoin:round; stroke-width:2; stroke-opacity:0.1; fill:none" points="
  246.598,533.085 2352.76,533.085 
  "></polyline>
<polyline clip-path="url(#clip372)" style="stroke:#000000; stroke-linecap:round; stroke-linejoin:round; stroke-width:2; stroke-opacity:0.1; fill:none" points="
  246.598,340.402 2352.76,340.402 
  "></polyline>
<polyline clip-path="url(#clip372)" style="stroke:#000000; stroke-linecap:round; stroke-linejoin:round; stroke-width:2; stroke-opacity:0.1; fill:none" points="
  246.598,147.72 2352.76,147.72 
  "></polyline>
<polyline clip-path="url(#clip370)" style="stroke:#000000; stroke-linecap:round; stroke-linejoin:round; stroke-width:4; stroke-opacity:1; fill:none" points="
  246.598,1486.45 246.598,47.2441 
  "></polyline>
<polyline clip-path="url(#clip370)" style="stroke:#000000; stroke-linecap:round; stroke-linejoin:round; stroke-width:4; stroke-opacity:1; fill:none" points="
  246.598,1303.82 265.495,1303.82 
  "></polyline>
<polyline clip-path="url(#clip370)" style="stroke:#000000; stroke-linecap:round; stroke-linejoin:round; stroke-width:4; stroke-opacity:1; fill:none" points="
  246.598,1111.13 265.495,1111.13 
  "></polyline>
<polyline clip-path="url(#clip370)" style="stroke:#000000; stroke-linecap:round; stroke-linejoin:round; stroke-width:4; stroke-opacity:1; fill:none" points="
  246.598,918.45 265.495,918.45 
  "></polyline>
<polyline clip-path="url(#clip370)" style="stroke:#000000; stroke-linecap:round; stroke-linejoin:round; stroke-width:4; stroke-opacity:1; fill:none" points="
  246.598,725.768 265.495,725.768 
  "></polyline>
<polyline clip-path="url(#clip370)" style="stroke:#000000; stroke-linecap:round; stroke-linejoin:round; stroke-width:4; stroke-opacity:1; fill:none" points="
  246.598,533.085 265.495,533.085 
  "></polyline>
<polyline clip-path="url(#clip370)" style="stroke:#000000; stroke-linecap:round; stroke-linejoin:round; stroke-width:4; stroke-opacity:1; fill:none" points="
  246.598,340.402 265.495,340.402 
  "></polyline>
<polyline clip-path="url(#clip370)" style="stroke:#000000; stroke-linecap:round; stroke-linejoin:round; stroke-width:4; stroke-opacity:1; fill:none" points="
  246.598,147.72 265.495,147.72 
  "></polyline>
<path clip-path="url(#clip370)" d="M63.9319 1289.61 Q60.3208 1289.61 58.4921 1293.18 Q56.6865 1296.72 56.6865 1303.85 Q56.6865 1310.96 58.4921 1314.52 Q60.3208 1318.06 63.9319 1318.06 Q67.5661 1318.06 69.3717 1314.52 Q71.2004 1310.96 71.2004 1303.85 Q71.2004 1296.72 69.3717 1293.18 Q67.5661 1289.61 63.9319 1289.61 M63.9319 1285.91 Q69.742 1285.91 72.7976 1290.52 Q75.8763 1295.1 75.8763 1303.85 Q75.8763 1312.58 72.7976 1317.18 Q69.742 1321.77 63.9319 1321.77 Q58.1217 1321.77 55.043 1317.18 Q51.9875 1312.58 51.9875 1303.85 Q51.9875 1295.1 55.043 1290.52 Q58.1217 1285.91 63.9319 1285.91 Z" fill="#000000" fill-rule="evenodd" fill-opacity="1"></path><path clip-path="url(#clip370)" d="M84.0938 1315.22 L88.978 1315.22 L88.978 1321.1 L84.0938 1321.1 L84.0938 1315.22 Z" fill="#000000" fill-rule="evenodd" fill-opacity="1"></path><path clip-path="url(#clip370)" d="M109.163 1289.61 Q105.552 1289.61 103.723 1293.18 Q101.918 1296.72 101.918 1303.85 Q101.918 1310.96 103.723 1314.52 Q105.552 1318.06 109.163 1318.06 Q112.797 1318.06 114.603 1314.52 Q116.432 1310.96 116.432 1303.85 Q116.432 1296.72 114.603 1293.18 Q112.797 1289.61 109.163 1289.61 M109.163 1285.91 Q114.973 1285.91 118.029 1290.52 Q121.107 1295.1 121.107 1303.85 Q121.107 1312.58 118.029 1317.18 Q114.973 1321.77 109.163 1321.77 Q103.353 1321.77 100.274 1317.18 Q97.2187 1312.58 97.2187 1303.85 Q97.2187 1295.1 100.274 1290.52 Q103.353 1285.91 109.163 1285.91 Z" fill="#000000" fill-rule="evenodd" fill-opacity="1"></path><path clip-path="url(#clip370)" d="M139.325 1289.61 Q135.714 1289.61 133.885 1293.18 Q132.08 1296.72 132.08 1303.85 Q132.08 1310.96 133.885 1314.52 Q135.714 1318.06 139.325 1318.06 Q142.959 1318.06 144.765 1314.52 Q146.593 1310.96 146.593 1303.85 Q146.593 1296.72 144.765 1293.18 Q142.959 1289.61 139.325 1289.61 M139.325 1285.91 Q145.135 1285.91 148.191 1290.52 Q151.269 1295.1 151.269 1303.85 Q151.269 1312.58 148.191 1317.18 Q145.135 1321.77 139.325 1321.77 Q133.515 1321.77 130.436 1317.18 Q127.381 1312.58 127.381 1303.85 Q127.381 1295.1 130.436 1290.52 Q133.515 1285.91 139.325 1285.91 Z" fill="#000000" fill-rule="evenodd" fill-opacity="1"></path><path clip-path="url(#clip370)" d="M163.515 1317.16 L179.834 1317.16 L179.834 1321.1 L157.89 1321.1 L157.89 1317.16 Q160.552 1314.41 165.135 1309.78 Q169.741 1305.12 170.922 1303.78 Q173.167 1301.26 174.047 1299.52 Q174.95 1297.76 174.95 1296.07 Q174.95 1293.32 173.005 1291.58 Q171.084 1289.85 167.982 1289.85 Q165.783 1289.85 163.329 1290.61 Q160.899 1291.37 158.121 1292.92 L158.121 1288.2 Q160.945 1287.07 163.399 1286.49 Q165.853 1285.91 167.89 1285.91 Q173.26 1285.91 176.454 1288.6 Q179.649 1291.28 179.649 1295.77 Q179.649 1297.9 178.839 1299.82 Q178.052 1301.72 175.945 1304.31 Q175.366 1304.98 172.265 1308.2 Q169.163 1311.4 163.515 1317.16 Z" fill="#000000" fill-rule="evenodd" fill-opacity="1"></path><path clip-path="url(#clip370)" d="M189.695 1286.54 L208.051 1286.54 L208.051 1290.47 L193.977 1290.47 L193.977 1298.94 Q194.996 1298.6 196.014 1298.43 Q197.033 1298.25 198.052 1298.25 Q203.839 1298.25 207.218 1301.42 Q210.598 1304.59 210.598 1310.01 Q210.598 1315.59 207.126 1318.69 Q203.653 1321.77 197.334 1321.77 Q195.158 1321.77 192.89 1321.4 Q190.644 1321.03 188.237 1320.29 L188.237 1315.59 Q190.32 1316.72 192.542 1317.28 Q194.765 1317.83 197.241 1317.83 Q201.246 1317.83 203.584 1315.73 Q205.922 1313.62 205.922 1310.01 Q205.922 1306.4 203.584 1304.29 Q201.246 1302.18 197.241 1302.18 Q195.366 1302.18 193.491 1302.6 Q191.64 1303.02 189.695 1303.9 L189.695 1286.54 Z" fill="#000000" fill-rule="evenodd" fill-opacity="1"></path><path clip-path="url(#clip370)" d="M62.9365 1096.93 Q59.3254 1096.93 57.4967 1100.5 Q55.6912 1104.04 55.6912 1111.17 Q55.6912 1118.27 57.4967 1121.84 Q59.3254 1125.38 62.9365 1125.38 Q66.5707 1125.38 68.3763 1121.84 Q70.205 1118.27 70.205 1111.17 Q70.205 1104.04 68.3763 1100.5 Q66.5707 1096.93 62.9365 1096.93 M62.9365 1093.23 Q68.7467 1093.23 71.8022 1097.83 Q74.8809 1102.42 74.8809 1111.17 Q74.8809 1119.89 71.8022 1124.5 Q68.7467 1129.08 62.9365 1129.08 Q57.1264 1129.08 54.0477 1124.5 Q50.9921 1119.89 50.9921 1111.17 Q50.9921 1102.42 54.0477 1097.83 Q57.1264 1093.23 62.9365 1093.23 Z" fill="#000000" fill-rule="evenodd" fill-opacity="1"></path><path clip-path="url(#clip370)" d="M83.0984 1122.53 L87.9827 1122.53 L87.9827 1128.41 L83.0984 1128.41 L83.0984 1122.53 Z" fill="#000000" fill-rule="evenodd" fill-opacity="1"></path><path clip-path="url(#clip370)" d="M108.168 1096.93 Q104.557 1096.93 102.728 1100.5 Q100.922 1104.04 100.922 1111.17 Q100.922 1118.27 102.728 1121.84 Q104.557 1125.38 108.168 1125.38 Q111.802 1125.38 113.608 1121.84 Q115.436 1118.27 115.436 1111.17 Q115.436 1104.04 113.608 1100.5 Q111.802 1096.93 108.168 1096.93 M108.168 1093.23 Q113.978 1093.23 117.033 1097.83 Q120.112 1102.42 120.112 1111.17 Q120.112 1119.89 117.033 1124.5 Q113.978 1129.08 108.168 1129.08 Q102.358 1129.08 99.2789 1124.5 Q96.2234 1119.89 96.2234 1111.17 Q96.2234 1102.42 99.2789 1097.83 Q102.358 1093.23 108.168 1093.23 Z" fill="#000000" fill-rule="evenodd" fill-opacity="1"></path><path clip-path="url(#clip370)" d="M138.33 1096.93 Q134.719 1096.93 132.89 1100.5 Q131.084 1104.04 131.084 1111.17 Q131.084 1118.27 132.89 1121.84 Q134.719 1125.38 138.33 1125.38 Q141.964 1125.38 143.769 1121.84 Q145.598 1118.27 145.598 1111.17 Q145.598 1104.04 143.769 1100.5 Q141.964 1096.93 138.33 1096.93 M138.33 1093.23 Q144.14 1093.23 147.195 1097.83 Q150.274 1102.42 150.274 1111.17 Q150.274 1119.89 147.195 1124.5 Q144.14 1129.08 138.33 1129.08 Q132.519 1129.08 129.441 1124.5 Q126.385 1119.89 126.385 1111.17 Q126.385 1102.42 129.441 1097.83 Q132.519 1093.23 138.33 1093.23 Z" fill="#000000" fill-rule="evenodd" fill-opacity="1"></path><path clip-path="url(#clip370)" d="M158.538 1093.85 L176.894 1093.85 L176.894 1097.79 L162.82 1097.79 L162.82 1106.26 Q163.839 1105.91 164.857 1105.75 Q165.876 1105.57 166.894 1105.57 Q172.681 1105.57 176.061 1108.74 Q179.441 1111.91 179.441 1117.32 Q179.441 1122.9 175.968 1126.01 Q172.496 1129.08 166.177 1129.08 Q164.001 1129.08 161.732 1128.71 Q159.487 1128.34 157.08 1127.6 L157.08 1122.9 Q159.163 1124.04 161.385 1124.59 Q163.607 1125.15 166.084 1125.15 Q170.089 1125.15 172.427 1123.04 Q174.765 1120.94 174.765 1117.32 Q174.765 1113.71 172.427 1111.61 Q170.089 1109.5 166.084 1109.5 Q164.209 1109.5 162.334 1109.92 Q160.482 1110.33 158.538 1111.21 L158.538 1093.85 Z" fill="#000000" fill-rule="evenodd" fill-opacity="1"></path><path clip-path="url(#clip370)" d="M198.653 1096.93 Q195.042 1096.93 193.214 1100.5 Q191.408 1104.04 191.408 1111.17 Q191.408 1118.27 193.214 1121.84 Q195.042 1125.38 198.653 1125.38 Q202.288 1125.38 204.093 1121.84 Q205.922 1118.27 205.922 1111.17 Q205.922 1104.04 204.093 1100.5 Q202.288 1096.93 198.653 1096.93 M198.653 1093.23 Q204.464 1093.23 207.519 1097.83 Q210.598 1102.42 210.598 1111.17 Q210.598 1119.89 207.519 1124.5 Q204.464 1129.08 198.653 1129.08 Q192.843 1129.08 189.765 1124.5 Q186.709 1119.89 186.709 1111.17 Q186.709 1102.42 189.765 1097.83 Q192.843 1093.23 198.653 1093.23 Z" fill="#000000" fill-rule="evenodd" fill-opacity="1"></path><path clip-path="url(#clip370)" d="M63.9319 904.249 Q60.3208 904.249 58.4921 907.814 Q56.6865 911.355 56.6865 918.485 Q56.6865 925.591 58.4921 929.156 Q60.3208 932.698 63.9319 932.698 Q67.5661 932.698 69.3717 929.156 Q71.2004 925.591 71.2004 918.485 Q71.2004 911.355 69.3717 907.814 Q67.5661 904.249 63.9319 904.249 M63.9319 900.545 Q69.742 900.545 72.7976 905.152 Q75.8763 909.735 75.8763 918.485 Q75.8763 927.212 72.7976 931.818 Q69.742 936.401 63.9319 936.401 Q58.1217 936.401 55.043 931.818 Q51.9875 927.212 51.9875 918.485 Q51.9875 909.735 55.043 905.152 Q58.1217 900.545 63.9319 900.545 Z" fill="#000000" fill-rule="evenodd" fill-opacity="1"></path><path clip-path="url(#clip370)" d="M84.0938 929.851 L88.978 929.851 L88.978 935.73 L84.0938 935.73 L84.0938 929.851 Z" fill="#000000" fill-rule="evenodd" fill-opacity="1"></path><path clip-path="url(#clip370)" d="M109.163 904.249 Q105.552 904.249 103.723 907.814 Q101.918 911.355 101.918 918.485 Q101.918 925.591 103.723 929.156 Q105.552 932.698 109.163 932.698 Q112.797 932.698 114.603 929.156 Q116.432 925.591 116.432 918.485 Q116.432 911.355 114.603 907.814 Q112.797 904.249 109.163 904.249 M109.163 900.545 Q114.973 900.545 118.029 905.152 Q121.107 909.735 121.107 918.485 Q121.107 927.212 118.029 931.818 Q114.973 936.401 109.163 936.401 Q103.353 936.401 100.274 931.818 Q97.2187 927.212 97.2187 918.485 Q97.2187 909.735 100.274 905.152 Q103.353 900.545 109.163 900.545 Z" fill="#000000" fill-rule="evenodd" fill-opacity="1"></path><path clip-path="url(#clip370)" d="M139.325 904.249 Q135.714 904.249 133.885 907.814 Q132.08 911.355 132.08 918.485 Q132.08 925.591 133.885 929.156 Q135.714 932.698 139.325 932.698 Q142.959 932.698 144.765 929.156 Q146.593 925.591 146.593 918.485 Q146.593 911.355 144.765 907.814 Q142.959 904.249 139.325 904.249 M139.325 900.545 Q145.135 900.545 148.191 905.152 Q151.269 909.735 151.269 918.485 Q151.269 927.212 148.191 931.818 Q145.135 936.401 139.325 936.401 Q133.515 936.401 130.436 931.818 Q127.381 927.212 127.381 918.485 Q127.381 909.735 130.436 905.152 Q133.515 900.545 139.325 900.545 Z" fill="#000000" fill-rule="evenodd" fill-opacity="1"></path><path clip-path="url(#clip370)" d="M158.306 901.17 L180.528 901.17 L180.528 903.161 L167.982 935.73 L163.098 935.73 L174.903 905.105 L158.306 905.105 L158.306 901.17 Z" fill="#000000" fill-rule="evenodd" fill-opacity="1"></path><path clip-path="url(#clip370)" d="M189.695 901.17 L208.051 901.17 L208.051 905.105 L193.977 905.105 L193.977 913.577 Q194.996 913.23 196.014 913.068 Q197.033 912.883 198.052 912.883 Q203.839 912.883 207.218 916.054 Q210.598 919.226 210.598 924.642 Q210.598 930.221 207.126 933.323 Q203.653 936.401 197.334 936.401 Q195.158 936.401 192.89 936.031 Q190.644 935.661 188.237 934.92 L188.237 930.221 Q190.32 931.355 192.542 931.911 Q194.765 932.466 197.241 932.466 Q201.246 932.466 203.584 930.36 Q205.922 928.253 205.922 924.642 Q205.922 921.031 203.584 918.925 Q201.246 916.818 197.241 916.818 Q195.366 916.818 193.491 917.235 Q191.64 917.652 189.695 918.531 L189.695 901.17 Z" fill="#000000" fill-rule="evenodd" fill-opacity="1"></path><path clip-path="url(#clip370)" d="M62.9365 711.566 Q59.3254 711.566 57.4967 715.131 Q55.6912 718.673 55.6912 725.802 Q55.6912 732.909 57.4967 736.474 Q59.3254 740.015 62.9365 740.015 Q66.5707 740.015 68.3763 736.474 Q70.205 732.909 70.205 725.802 Q70.205 718.673 68.3763 715.131 Q66.5707 711.566 62.9365 711.566 M62.9365 707.863 Q68.7467 707.863 71.8022 712.469 Q74.8809 717.052 74.8809 725.802 Q74.8809 734.529 71.8022 739.136 Q68.7467 743.719 62.9365 743.719 Q57.1264 743.719 54.0477 739.136 Q50.9921 734.529 50.9921 725.802 Q50.9921 717.052 54.0477 712.469 Q57.1264 707.863 62.9365 707.863 Z" fill="#000000" fill-rule="evenodd" fill-opacity="1"></path><path clip-path="url(#clip370)" d="M83.0984 737.168 L87.9827 737.168 L87.9827 743.048 L83.0984 743.048 L83.0984 737.168 Z" fill="#000000" fill-rule="evenodd" fill-opacity="1"></path><path clip-path="url(#clip370)" d="M108.168 711.566 Q104.557 711.566 102.728 715.131 Q100.922 718.673 100.922 725.802 Q100.922 732.909 102.728 736.474 Q104.557 740.015 108.168 740.015 Q111.802 740.015 113.608 736.474 Q115.436 732.909 115.436 725.802 Q115.436 718.673 113.608 715.131 Q111.802 711.566 108.168 711.566 M108.168 707.863 Q113.978 707.863 117.033 712.469 Q120.112 717.052 120.112 725.802 Q120.112 734.529 117.033 739.136 Q113.978 743.719 108.168 743.719 Q102.358 743.719 99.2789 739.136 Q96.2234 734.529 96.2234 725.802 Q96.2234 717.052 99.2789 712.469 Q102.358 707.863 108.168 707.863 Z" fill="#000000" fill-rule="evenodd" fill-opacity="1"></path><path clip-path="url(#clip370)" d="M129.14 739.112 L136.779 739.112 L136.779 712.747 L128.469 714.413 L128.469 710.154 L136.732 708.488 L141.408 708.488 L141.408 739.112 L149.047 739.112 L149.047 743.048 L129.14 743.048 L129.14 739.112 Z" fill="#000000" fill-rule="evenodd" fill-opacity="1"></path><path clip-path="url(#clip370)" d="M168.491 711.566 Q164.88 711.566 163.052 715.131 Q161.246 718.673 161.246 725.802 Q161.246 732.909 163.052 736.474 Q164.88 740.015 168.491 740.015 Q172.126 740.015 173.931 736.474 Q175.76 732.909 175.76 725.802 Q175.76 718.673 173.931 715.131 Q172.126 711.566 168.491 711.566 M168.491 707.863 Q174.302 707.863 177.357 712.469 Q180.436 717.052 180.436 725.802 Q180.436 734.529 177.357 739.136 Q174.302 743.719 168.491 743.719 Q162.681 743.719 159.603 739.136 Q156.547 734.529 156.547 725.802 Q156.547 717.052 159.603 712.469 Q162.681 707.863 168.491 707.863 Z" fill="#000000" fill-rule="evenodd" fill-opacity="1"></path><path clip-path="url(#clip370)" d="M198.653 711.566 Q195.042 711.566 193.214 715.131 Q191.408 718.673 191.408 725.802 Q191.408 732.909 193.214 736.474 Q195.042 740.015 198.653 740.015 Q202.288 740.015 204.093 736.474 Q205.922 732.909 205.922 725.802 Q205.922 718.673 204.093 715.131 Q202.288 711.566 198.653 711.566 M198.653 707.863 Q204.464 707.863 207.519 712.469 Q210.598 717.052 210.598 725.802 Q210.598 734.529 207.519 739.136 Q204.464 743.719 198.653 743.719 Q192.843 743.719 189.765 739.136 Q186.709 734.529 186.709 725.802 Q186.709 717.052 189.765 712.469 Q192.843 707.863 198.653 707.863 Z" fill="#000000" fill-rule="evenodd" fill-opacity="1"></path><path clip-path="url(#clip370)" d="M63.9319 518.884 Q60.3208 518.884 58.4921 522.448 Q56.6865 525.99 56.6865 533.12 Q56.6865 540.226 58.4921 543.791 Q60.3208 547.333 63.9319 547.333 Q67.5661 547.333 69.3717 543.791 Q71.2004 540.226 71.2004 533.12 Q71.2004 525.99 69.3717 522.448 Q67.5661 518.884 63.9319 518.884 M63.9319 515.18 Q69.742 515.18 72.7976 519.786 Q75.8763 524.37 75.8763 533.12 Q75.8763 541.846 72.7976 546.453 Q69.742 551.036 63.9319 551.036 Q58.1217 551.036 55.043 546.453 Q51.9875 541.846 51.9875 533.12 Q51.9875 524.37 55.043 519.786 Q58.1217 515.18 63.9319 515.18 Z" fill="#000000" fill-rule="evenodd" fill-opacity="1"></path><path clip-path="url(#clip370)" d="M84.0938 544.485 L88.978 544.485 L88.978 550.365 L84.0938 550.365 L84.0938 544.485 Z" fill="#000000" fill-rule="evenodd" fill-opacity="1"></path><path clip-path="url(#clip370)" d="M109.163 518.884 Q105.552 518.884 103.723 522.448 Q101.918 525.99 101.918 533.12 Q101.918 540.226 103.723 543.791 Q105.552 547.333 109.163 547.333 Q112.797 547.333 114.603 543.791 Q116.432 540.226 116.432 533.12 Q116.432 525.99 114.603 522.448 Q112.797 518.884 109.163 518.884 M109.163 515.18 Q114.973 515.18 118.029 519.786 Q121.107 524.37 121.107 533.12 Q121.107 541.846 118.029 546.453 Q114.973 551.036 109.163 551.036 Q103.353 551.036 100.274 546.453 Q97.2187 541.846 97.2187 533.12 Q97.2187 524.37 100.274 519.786 Q103.353 515.18 109.163 515.18 Z" fill="#000000" fill-rule="evenodd" fill-opacity="1"></path><path clip-path="url(#clip370)" d="M130.135 546.43 L137.774 546.43 L137.774 520.064 L129.464 521.731 L129.464 517.472 L137.728 515.805 L142.404 515.805 L142.404 546.43 L150.043 546.43 L150.043 550.365 L130.135 550.365 L130.135 546.43 Z" fill="#000000" fill-rule="evenodd" fill-opacity="1"></path><path clip-path="url(#clip370)" d="M163.515 546.43 L179.834 546.43 L179.834 550.365 L157.89 550.365 L157.89 546.43 Q160.552 543.675 165.135 539.046 Q169.741 534.393 170.922 533.05 Q173.167 530.527 174.047 528.791 Q174.95 527.032 174.95 525.342 Q174.95 522.587 173.005 520.851 Q171.084 519.115 167.982 519.115 Q165.783 519.115 163.329 519.879 Q160.899 520.643 158.121 522.194 L158.121 517.472 Q160.945 516.337 163.399 515.759 Q165.853 515.18 167.89 515.18 Q173.26 515.18 176.454 517.865 Q179.649 520.55 179.649 525.041 Q179.649 527.171 178.839 529.092 Q178.052 530.99 175.945 533.583 Q175.366 534.254 172.265 537.472 Q169.163 540.666 163.515 546.43 Z" fill="#000000" fill-rule="evenodd" fill-opacity="1"></path><path clip-path="url(#clip370)" d="M189.695 515.805 L208.051 515.805 L208.051 519.74 L193.977 519.74 L193.977 528.212 Q194.996 527.865 196.014 527.703 Q197.033 527.518 198.052 527.518 Q203.839 527.518 207.218 530.689 Q210.598 533.86 210.598 539.277 Q210.598 544.856 207.126 547.958 Q203.653 551.036 197.334 551.036 Q195.158 551.036 192.89 550.666 Q190.644 550.296 188.237 549.555 L188.237 544.856 Q190.32 545.99 192.542 546.546 Q194.765 547.101 197.241 547.101 Q201.246 547.101 203.584 544.995 Q205.922 542.888 205.922 539.277 Q205.922 535.666 203.584 533.559 Q201.246 531.453 197.241 531.453 Q195.366 531.453 193.491 531.87 Q191.64 532.286 189.695 533.166 L189.695 515.805 Z" fill="#000000" fill-rule="evenodd" fill-opacity="1"></path><path clip-path="url(#clip370)" d="M62.9365 326.201 Q59.3254 326.201 57.4967 329.766 Q55.6912 333.307 55.6912 340.437 Q55.6912 347.544 57.4967 351.108 Q59.3254 354.65 62.9365 354.65 Q66.5707 354.65 68.3763 351.108 Q70.205 347.544 70.205 340.437 Q70.205 333.307 68.3763 329.766 Q66.5707 326.201 62.9365 326.201 M62.9365 322.497 Q68.7467 322.497 71.8022 327.104 Q74.8809 331.687 74.8809 340.437 Q74.8809 349.164 71.8022 353.77 Q68.7467 358.354 62.9365 358.354 Q57.1264 358.354 54.0477 353.77 Q50.9921 349.164 50.9921 340.437 Q50.9921 331.687 54.0477 327.104 Q57.1264 322.497 62.9365 322.497 Z" fill="#000000" fill-rule="evenodd" fill-opacity="1"></path><path clip-path="url(#clip370)" d="M83.0984 351.803 L87.9827 351.803 L87.9827 357.682 L83.0984 357.682 L83.0984 351.803 Z" fill="#000000" fill-rule="evenodd" fill-opacity="1"></path><path clip-path="url(#clip370)" d="M108.168 326.201 Q104.557 326.201 102.728 329.766 Q100.922 333.307 100.922 340.437 Q100.922 347.544 102.728 351.108 Q104.557 354.65 108.168 354.65 Q111.802 354.65 113.608 351.108 Q115.436 347.544 115.436 340.437 Q115.436 333.307 113.608 329.766 Q111.802 326.201 108.168 326.201 M108.168 322.497 Q113.978 322.497 117.033 327.104 Q120.112 331.687 120.112 340.437 Q120.112 349.164 117.033 353.77 Q113.978 358.354 108.168 358.354 Q102.358 358.354 99.2789 353.77 Q96.2234 349.164 96.2234 340.437 Q96.2234 331.687 99.2789 327.104 Q102.358 322.497 108.168 322.497 Z" fill="#000000" fill-rule="evenodd" fill-opacity="1"></path><path clip-path="url(#clip370)" d="M129.14 353.747 L136.779 353.747 L136.779 327.382 L128.469 329.048 L128.469 324.789 L136.732 323.122 L141.408 323.122 L141.408 353.747 L149.047 353.747 L149.047 357.682 L129.14 357.682 L129.14 353.747 Z" fill="#000000" fill-rule="evenodd" fill-opacity="1"></path><path clip-path="url(#clip370)" d="M158.538 323.122 L176.894 323.122 L176.894 327.058 L162.82 327.058 L162.82 335.53 Q163.839 335.182 164.857 335.02 Q165.876 334.835 166.894 334.835 Q172.681 334.835 176.061 338.007 Q179.441 341.178 179.441 346.594 Q179.441 352.173 175.968 355.275 Q172.496 358.354 166.177 358.354 Q164.001 358.354 161.732 357.983 Q159.487 357.613 157.08 356.872 L157.08 352.173 Q159.163 353.307 161.385 353.863 Q163.607 354.418 166.084 354.418 Q170.089 354.418 172.427 352.312 Q174.765 350.206 174.765 346.594 Q174.765 342.983 172.427 340.877 Q170.089 338.77 166.084 338.77 Q164.209 338.77 162.334 339.187 Q160.482 339.604 158.538 340.483 L158.538 323.122 Z" fill="#000000" fill-rule="evenodd" fill-opacity="1"></path><path clip-path="url(#clip370)" d="M198.653 326.201 Q195.042 326.201 193.214 329.766 Q191.408 333.307 191.408 340.437 Q191.408 347.544 193.214 351.108 Q195.042 354.65 198.653 354.65 Q202.288 354.65 204.093 351.108 Q205.922 347.544 205.922 340.437 Q205.922 333.307 204.093 329.766 Q202.288 326.201 198.653 326.201 M198.653 322.497 Q204.464 322.497 207.519 327.104 Q210.598 331.687 210.598 340.437 Q210.598 349.164 207.519 353.77 Q204.464 358.354 198.653 358.354 Q192.843 358.354 189.765 353.77 Q186.709 349.164 186.709 340.437 Q186.709 331.687 189.765 327.104 Q192.843 322.497 198.653 322.497 Z" fill="#000000" fill-rule="evenodd" fill-opacity="1"></path><path clip-path="url(#clip370)" d="M63.9319 133.518 Q60.3208 133.518 58.4921 137.083 Q56.6865 140.625 56.6865 147.754 Q56.6865 154.861 58.4921 158.426 Q60.3208 161.967 63.9319 161.967 Q67.5661 161.967 69.3717 158.426 Q71.2004 154.861 71.2004 147.754 Q71.2004 140.625 69.3717 137.083 Q67.5661 133.518 63.9319 133.518 M63.9319 129.815 Q69.742 129.815 72.7976 134.421 Q75.8763 139.005 75.8763 147.754 Q75.8763 156.481 72.7976 161.088 Q69.742 165.671 63.9319 165.671 Q58.1217 165.671 55.043 161.088 Q51.9875 156.481 51.9875 147.754 Q51.9875 139.005 55.043 134.421 Q58.1217 129.815 63.9319 129.815 Z" fill="#000000" fill-rule="evenodd" fill-opacity="1"></path><path clip-path="url(#clip370)" d="M84.0938 159.12 L88.978 159.12 L88.978 165 L84.0938 165 L84.0938 159.12 Z" fill="#000000" fill-rule="evenodd" fill-opacity="1"></path><path clip-path="url(#clip370)" d="M109.163 133.518 Q105.552 133.518 103.723 137.083 Q101.918 140.625 101.918 147.754 Q101.918 154.861 103.723 158.426 Q105.552 161.967 109.163 161.967 Q112.797 161.967 114.603 158.426 Q116.432 154.861 116.432 147.754 Q116.432 140.625 114.603 137.083 Q112.797 133.518 109.163 133.518 M109.163 129.815 Q114.973 129.815 118.029 134.421 Q121.107 139.005 121.107 147.754 Q121.107 156.481 118.029 161.088 Q114.973 165.671 109.163 165.671 Q103.353 165.671 100.274 161.088 Q97.2187 156.481 97.2187 147.754 Q97.2187 139.005 100.274 134.421 Q103.353 129.815 109.163 129.815 Z" fill="#000000" fill-rule="evenodd" fill-opacity="1"></path><path clip-path="url(#clip370)" d="M130.135 161.065 L137.774 161.065 L137.774 134.699 L129.464 136.366 L129.464 132.106 L137.728 130.44 L142.404 130.44 L142.404 161.065 L150.043 161.065 L150.043 165 L130.135 165 L130.135 161.065 Z" fill="#000000" fill-rule="evenodd" fill-opacity="1"></path><path clip-path="url(#clip370)" d="M158.306 130.44 L180.528 130.44 L180.528 132.43 L167.982 165 L163.098 165 L174.903 134.375 L158.306 134.375 L158.306 130.44 Z" fill="#000000" fill-rule="evenodd" fill-opacity="1"></path><path clip-path="url(#clip370)" d="M189.695 130.44 L208.051 130.44 L208.051 134.375 L193.977 134.375 L193.977 142.847 Q194.996 142.5 196.014 142.338 Q197.033 142.153 198.052 142.153 Q203.839 142.153 207.218 145.324 Q210.598 148.495 210.598 153.912 Q210.598 159.491 207.126 162.592 Q203.653 165.671 197.334 165.671 Q195.158 165.671 192.89 165.301 Q190.644 164.93 188.237 164.19 L188.237 159.491 Q190.32 160.625 192.542 161.18 Q194.765 161.736 197.241 161.736 Q201.246 161.736 203.584 159.629 Q205.922 157.523 205.922 153.912 Q205.922 150.301 203.584 148.194 Q201.246 146.088 197.241 146.088 Q195.366 146.088 193.491 146.504 Q191.64 146.921 189.695 147.801 L189.695 130.44 Z" fill="#000000" fill-rule="evenodd" fill-opacity="1"></path><polyline clip-path="url(#clip372)" style="stroke:#009af9; stroke-linecap:round; stroke-linejoin:round; stroke-width:4; stroke-opacity:1; fill:none" points="
  306.206,1445.72 311.977,1445.64 317.765,1445.57 323.569,1445.49 329.39,1445.42 335.229,1445.34 341.084,1445.25 346.956,1445.17 352.845,1445.09 358.751,1445 
  364.675,1444.91 370.616,1444.83 376.574,1444.74 382.549,1444.64 388.542,1444.55 394.552,1444.46 400.579,1444.36 406.624,1444.27 412.687,1444.17 418.767,1444.07 
  424.865,1443.97 430.98,1443.87 437.113,1443.77 443.264,1443.67 449.433,1443.56 455.62,1443.46 461.825,1443.35 468.048,1443.24 474.289,1443.13 480.548,1443.02 
  486.825,1442.9 493.121,1442.79 499.434,1442.67 505.767,1442.56 512.117,1442.44 518.486,1442.32 524.873,1442.2 531.279,1442.07 537.704,1441.95 544.147,1441.83 
  550.609,1441.7 557.09,1441.57 563.59,1441.44 570.108,1441.31 576.645,1441.18 583.202,1441.05 589.777,1440.92 596.372,1440.79 602.985,1440.65 609.618,1440.52 
  616.27,1440.38 622.942,1440.25 629.632,1440.11 636.343,1439.98 643.072,1439.84 649.822,1439.7 656.591,1439.56 663.379,1439.42 670.187,1439.28 677.015,1439.14 
  683.863,1438.99 690.731,1438.85 697.619,1438.7 704.527,1438.56 711.454,1438.41 718.402,1438.26 725.37,1438.11 732.359,1437.95 739.367,1437.8 746.396,1437.64 
  753.446,1437.48 760.515,1437.32 767.606,1437.15 774.717,1436.98 781.848,1436.81 789.001,1436.64 796.174,1436.46 803.368,1436.28 810.583,1436.09 817.818,1435.9 
  825.075,1435.71 832.353,1435.51 839.652,1435.31 846.972,1435.1 854.314,1434.89 861.677,1434.67 869.061,1434.45 876.467,1434.22 883.894,1433.98 891.342,1433.75 
  898.813,1433.5 906.305,1433.25 913.819,1432.99 921.354,1432.73 928.912,1432.46 936.491,1432.18 944.093,1431.89 951.716,1431.6 959.362,1431.3 967.03,1430.99 
  974.72,1430.68 982.433,1430.35 990.168,1430.02 997.925,1429.68 1005.7,1429.33 1013.51,1428.97 1021.33,1428.6 1029.18,1428.22 1037.05,1427.83 1044.94,1427.43 
  1052.86,1427.02 1060.8,1426.6 1068.76,1426.16 1076.75,1425.72 1084.76,1425.27 1092.79,1424.8 1100.85,1424.32 1108.92,1423.84 1117.03,1423.33 1125.15,1422.82 
  1133.3,1422.3 1141.47,1421.76 1149.67,1421.2 1157.89,1420.64 1166.14,1420.05 1174.41,1419.45 1182.7,1418.82 1191.01,1418.16 1199.36,1417.47 1207.72,1416.72 
  1216.11,1415.9 1224.52,1414.97 1232.96,1413.88 1241.42,1412.55 1249.91,1410.86 1258.42,1408.61 1266.96,1405.52 1275.52,1401.14 1284.11,1394.79 1292.72,1385.44 
  1301.35,1371.54 1310.02,1350.79 1318.7,1319.85 1327.41,1274.05 1336.15,1207.19 1344.91,1111.78 1353.7,980.456 1362.51,809.332 1371.35,603.972 1380.22,386.472 
  1389.11,197.903 1398.02,87.9763 1406.96,91.3358 1415.93,206.388 1424.93,396.432 1433.95,611.906 1442.99,813.276 1452.07,980.029 1461.16,1107.54 1470.29,1200.02 
  1479.44,1264.77 1488.62,1309.07 1497.83,1338.92 1507.06,1358.81 1516.32,1371.97 1525.6,1380.61 1534.91,1386.26 1544.25,1389.9 1553.62,1392.22 1563.01,1393.67 
  1572.44,1394.53 1581.88,1395.01 1591.36,1395.23 1600.86,1395.28 1610.39,1395.22 1619.95,1395.08 1629.54,1394.9 1639.15,1394.68 1648.8,1394.44 1658.47,1394.19 
  1668.17,1393.94 1677.89,1393.68 1687.65,1393.42 1697.43,1393.17 1707.24,1392.92 1717.08,1392.67 1726.95,1392.43 1736.85,1392.18 1746.77,1391.94 1756.73,1391.71 
  1766.71,1391.47 1776.72,1391.23 1786.77,1390.99 1796.84,1390.74 1806.94,1390.49 1817.07,1390.23 1827.23,1389.95 1837.42,1389.66 1847.63,1389.36 1857.88,1389.03 
  1868.16,1388.68 1878.47,1388.3 1888.8,1387.89 1899.17,1387.45 1909.57,1386.97 1920,1386.46 1930.45,1385.9 1940.94,1385.3 1951.46,1384.65 1962.01,1383.95 
  1972.59,1383.2 1983.2,1382.4 1993.84,1381.55 2004.52,1380.65 2015.22,1379.69 2025.95,1378.68 2036.72,1377.61 2047.52,1376.49 2058.34,1375.32 2069.2,1374.1 
  2080.1,1372.83 2091.02,1371.52 2101.97,1370.15 2112.96,1368.75 2123.98,1367.3 2135.03,1365.81 2146.11,1364.27 2157.23,1362.7 2168.37,1361.09 2179.55,1359.44 
  2190.76,1357.75 2202.01,1356.01 2213.29,1354.23 2224.6,1352.41 2235.94,1350.54 2247.31,1348.61 2258.72,1346.64 2270.16,1344.61 2281.64,1342.53 2293.15,1340.4 
  
  "></polyline>
<path clip-path="url(#clip370)" d="
M1996.1 198.898 L2282.55 198.898 L2282.55 95.2176 L1996.1 95.2176  Z
  " fill="#ffffff" fill-rule="evenodd" fill-opacity="1"></path>
<polyline clip-path="url(#clip370)" style="stroke:#000000; stroke-linecap:round; stroke-linejoin:round; stroke-width:4; stroke-opacity:1; fill:none" points="
  1996.1,198.898 2282.55,198.898 2282.55,95.2176 1996.1,95.2176 1996.1,198.898 
  "></polyline>
<polyline clip-path="url(#clip370)" style="stroke:#009af9; stroke-linecap:round; stroke-linejoin:round; stroke-width:4; stroke-opacity:1; fill:none" points="
  2019.5,147.058 2159.92,147.058 
  "></polyline>
<path clip-path="url(#clip370)" d="M2197.16 166.745 Q2195.35 171.375 2193.64 172.787 Q2191.93 174.199 2189.06 174.199 L2185.65 174.199 L2185.65 170.634 L2188.15 170.634 Q2189.91 170.634 2190.89 169.8 Q2191.86 168.967 2193.04 165.865 L2193.8 163.921 L2183.32 138.412 L2187.83 138.412 L2195.93 158.689 L2204.03 138.412 L2208.55 138.412 L2197.16 166.745 Z" fill="#000000" fill-rule="evenodd" fill-opacity="1"></path><path clip-path="url(#clip370)" d="M2215.84 160.402 L2223.48 160.402 L2223.48 134.037 L2215.17 135.703 L2215.17 131.444 L2223.43 129.778 L2228.11 129.778 L2228.11 160.402 L2235.75 160.402 L2235.75 164.338 L2215.84 164.338 L2215.84 160.402 Z" fill="#000000" fill-rule="evenodd" fill-opacity="1"></path></svg>