<svg xmlns="http://www.w3.org/2000/svg" xmlns:xlink="http://www.w3.org/1999/xlink" width="600" height="400" viewBox="0 0 2400 1600">
<defs>
  <clipPath id="clip310">
    <rect x="0" y="0" width="2400" height="1600"></rect>
  </clipPath>
</defs>
<path clip-path="url(#clip310)" d="
M0 1600 L2400 1600 L2400 0 L0 0  Z
  " fill="#ffffff" fill-rule="evenodd" fill-opacity="1"></path>
<defs>
  <clipPath id="clip311">
    <rect x="480" y="0" width="1681" height="1600"></rect>
  </clipPath>
</defs>
<path clip-path="url(#clip310)" d="
M284.422 1486.45 L2352.76 1486.45 L2352.76 47.2441 L284.422 47.2441  Z
  " fill="#ffffff" fill-rule="evenodd" fill-opacity="1"></path>
<defs>
  <clipPath id="clip312">
    <rect x="284" y="47" width="2069" height="1440"></rect>
  </clipPath>
</defs>
<polyline clip-path="url(#clip312)" style="stroke:#000000; stroke-linecap:butt; stroke-linejoin:round; stroke-width:2; stroke-opacity:0.1; fill:none" points="
  342.959,1486.45 342.959,47.2441 
  "></polyline>
<polyline clip-path="url(#clip312)" style="stroke:#000000; stroke-linecap:butt; stroke-linejoin:round; stroke-width:2; stroke-opacity:0.1; fill:none" points="
  786.427,1486.45 786.427,47.2441 
  "></polyline>
<polyline clip-path="url(#clip312)" style="stroke:#000000; stroke-linecap:butt; stroke-linejoin:round; stroke-width:2; stroke-opacity:0.1; fill:none" points="
  1229.9,1486.45 1229.9,47.2441 
  "></polyline>
<polyline clip-path="url(#clip312)" style="stroke:#000000; stroke-linecap:butt; stroke-linejoin:round; stroke-width:2; stroke-opacity:0.1; fill:none" points="
  1673.36,1486.45 1673.36,47.2441 
  "></polyline>
<polyline clip-path="url(#clip312)" style="stroke:#000000; stroke-linecap:butt; stroke-linejoin:round; stroke-width:2; stroke-opacity:0.1; fill:none" points="
  2116.83,1486.45 2116.83,47.2441 
  "></polyline>
<polyline clip-path="url(#clip310)" style="stroke:#000000; stroke-linecap:butt; stroke-linejoin:round; stroke-width:4; stroke-opacity:1; fill:none" points="
  284.422,1486.45 2352.76,1486.45 
  "></polyline>
<polyline clip-path="url(#clip310)" style="stroke:#000000; stroke-linecap:butt; stroke-linejoin:round; stroke-width:4; stroke-opacity:1; fill:none" points="
  342.959,1486.45 342.959,1467.55 
  "></polyline>
<polyline clip-path="url(#clip310)" style="stroke:#000000; stroke-linecap:butt; stroke-linejoin:round; stroke-width:4; stroke-opacity:1; fill:none" points="
  786.427,1486.45 786.427,1467.55 
  "></polyline>
<polyline clip-path="url(#clip310)" style="stroke:#000000; stroke-linecap:butt; stroke-linejoin:round; stroke-width:4; stroke-opacity:1; fill:none" points="
  1229.9,1486.45 1229.9,1467.55 
  "></polyline>
<polyline clip-path="url(#clip310)" style="stroke:#000000; stroke-linecap:butt; stroke-linejoin:round; stroke-width:4; stroke-opacity:1; fill:none" points="
  1673.36,1486.45 1673.36,1467.55 
  "></polyline>
<polyline clip-path="url(#clip310)" style="stroke:#000000; stroke-linecap:butt; stroke-linejoin:round; stroke-width:4; stroke-opacity:1; fill:none" points="
  2116.83,1486.45 2116.83,1467.55 
  "></polyline>
<path clip-path="url(#clip310)" d="M310.124 1514.29 L328.48 1514.29 L328.48 1518.22 L314.406 1518.22 L314.406 1526.7 Q315.425 1526.35 316.443 1526.19 Q317.462 1526 318.48 1526 Q324.267 1526 327.647 1529.17 Q331.027 1532.34 331.027 1537.76 Q331.027 1543.34 327.554 1546.44 Q324.082 1549.52 317.763 1549.52 Q315.587 1549.52 313.318 1549.15 Q311.073 1548.78 308.666 1548.04 L308.666 1543.34 Q310.749 1544.47 312.971 1545.03 Q315.193 1545.58 317.67 1545.58 Q321.675 1545.58 324.013 1543.48 Q326.351 1541.37 326.351 1537.76 Q326.351 1534.15 324.013 1532.04 Q321.675 1529.94 317.67 1529.94 Q315.795 1529.94 313.92 1530.35 Q312.068 1530.77 310.124 1531.65 L310.124 1514.29 Z" fill="#000000" fill-rule="evenodd" fill-opacity="1"></path><path clip-path="url(#clip310)" d="M340.239 1542.97 L345.124 1542.97 L345.124 1548.85 L340.239 1548.85 L340.239 1542.97 Z" fill="#000000" fill-rule="evenodd" fill-opacity="1"></path><path clip-path="url(#clip310)" d="M365.309 1517.37 Q361.698 1517.37 359.869 1520.93 Q358.063 1524.47 358.063 1531.6 Q358.063 1538.71 359.869 1542.27 Q361.698 1545.82 365.309 1545.82 Q368.943 1545.82 370.749 1542.27 Q372.577 1538.71 372.577 1531.6 Q372.577 1524.47 370.749 1520.93 Q368.943 1517.37 365.309 1517.37 M365.309 1513.66 Q371.119 1513.66 374.174 1518.27 Q377.253 1522.85 377.253 1531.6 Q377.253 1540.33 374.174 1544.94 Q371.119 1549.52 365.309 1549.52 Q359.499 1549.52 356.42 1544.94 Q353.364 1540.33 353.364 1531.6 Q353.364 1522.85 356.42 1518.27 Q359.499 1513.66 365.309 1513.66 Z" fill="#000000" fill-rule="evenodd" fill-opacity="1"></path><path clip-path="url(#clip310)" d="M752.747 1514.29 L774.969 1514.29 L774.969 1516.28 L762.423 1548.85 L757.539 1548.85 L769.344 1518.22 L752.747 1518.22 L752.747 1514.29 Z" fill="#000000" fill-rule="evenodd" fill-opacity="1"></path><path clip-path="url(#clip310)" d="M784.089 1542.97 L788.974 1542.97 L788.974 1548.85 L784.089 1548.85 L784.089 1542.97 Z" fill="#000000" fill-rule="evenodd" fill-opacity="1"></path><path clip-path="url(#clip310)" d="M799.205 1514.29 L817.561 1514.29 L817.561 1518.22 L803.487 1518.22 L803.487 1526.7 Q804.506 1526.35 805.524 1526.19 Q806.543 1526 807.561 1526 Q813.348 1526 816.728 1529.17 Q820.108 1532.34 820.108 1537.76 Q820.108 1543.34 816.635 1546.44 Q813.163 1549.52 806.844 1549.52 Q804.668 1549.52 802.399 1549.15 Q800.154 1548.78 797.747 1548.04 L797.747 1543.34 Q799.83 1544.47 802.052 1545.03 Q804.274 1545.58 806.751 1545.58 Q810.756 1545.58 813.094 1543.48 Q815.432 1541.37 815.432 1537.76 Q815.432 1534.15 813.094 1532.04 Q810.756 1529.94 806.751 1529.94 Q804.876 1529.94 803.001 1530.35 Q801.149 1530.77 799.205 1531.65 L799.205 1514.29 Z" fill="#000000" fill-rule="evenodd" fill-opacity="1"></path><path clip-path="url(#clip310)" d="M1181.97 1544.91 L1189.61 1544.91 L1189.61 1518.55 L1181.3 1520.21 L1181.3 1515.95 L1189.56 1514.29 L1194.24 1514.29 L1194.24 1544.91 L1201.87 1544.91 L1201.87 1548.85 L1181.97 1548.85 L1181.97 1544.91 Z" fill="#000000" fill-rule="evenodd" fill-opacity="1"></path><path clip-path="url(#clip310)" d="M1221.32 1517.37 Q1217.71 1517.37 1215.88 1520.93 Q1214.07 1524.47 1214.07 1531.6 Q1214.07 1538.71 1215.88 1542.27 Q1217.71 1545.82 1221.32 1545.82 Q1224.95 1545.82 1226.76 1542.27 Q1228.59 1538.71 1228.59 1531.6 Q1228.59 1524.47 1226.76 1520.93 Q1224.95 1517.37 1221.32 1517.37 M1221.32 1513.66 Q1227.13 1513.66 1230.18 1518.27 Q1233.26 1522.85 1233.26 1531.6 Q1233.26 1540.33 1230.18 1544.94 Q1227.13 1549.52 1221.32 1549.52 Q1215.51 1549.52 1212.43 1544.94 Q1209.37 1540.33 1209.37 1531.6 Q1209.37 1522.85 1212.43 1518.27 Q1215.51 1513.66 1221.32 1513.66 Z" fill="#000000" fill-rule="evenodd" fill-opacity="1"></path><path clip-path="url(#clip310)" d="M1241.48 1542.97 L1246.37 1542.97 L1246.37 1548.85 L1241.48 1548.85 L1241.48 1542.97 Z" fill="#000000" fill-rule="evenodd" fill-opacity="1"></path><path clip-path="url(#clip310)" d="M1266.55 1517.37 Q1262.94 1517.37 1261.11 1520.93 Q1259.3 1524.47 1259.3 1531.6 Q1259.3 1538.71 1261.11 1542.27 Q1262.94 1545.82 1266.55 1545.82 Q1270.18 1545.82 1271.99 1542.27 Q1273.82 1538.71 1273.82 1531.6 Q1273.82 1524.47 1271.99 1520.93 Q1270.18 1517.37 1266.55 1517.37 M1266.55 1513.66 Q1272.36 1513.66 1275.42 1518.27 Q1278.49 1522.85 1278.49 1531.6 Q1278.49 1540.33 1275.42 1544.94 Q1272.36 1549.52 1266.55 1549.52 Q1260.74 1549.52 1257.66 1544.94 Q1254.61 1540.33 1254.61 1531.6 Q1254.61 1522.85 1257.66 1518.27 Q1260.74 1513.66 1266.55 1513.66 Z" fill="#000000" fill-rule="evenodd" fill-opacity="1"></path><path clip-path="url(#clip310)" d="M1625.93 1544.91 L1633.57 1544.91 L1633.57 1518.55 L1625.26 1520.21 L1625.26 1515.95 L1633.53 1514.29 L1638.2 1514.29 L1638.2 1544.91 L1645.84 1544.91 L1645.84 1548.85 L1625.93 1548.85 L1625.93 1544.91 Z" fill="#000000" fill-rule="evenodd" fill-opacity="1"></path><path clip-path="url(#clip310)" d="M1659.31 1544.91 L1675.63 1544.91 L1675.63 1548.85 L1653.69 1548.85 L1653.69 1544.91 Q1656.35 1542.16 1660.93 1537.53 Q1665.54 1532.88 1666.72 1531.53 Q1668.96 1529.01 1669.84 1527.27 Q1670.75 1525.51 1670.75 1523.82 Q1670.75 1521.07 1668.8 1519.33 Q1666.88 1517.6 1663.78 1517.6 Q1661.58 1517.6 1659.13 1518.36 Q1656.7 1519.13 1653.92 1520.68 L1653.92 1515.95 Q1656.74 1514.82 1659.2 1514.24 Q1661.65 1513.66 1663.69 1513.66 Q1669.06 1513.66 1672.25 1516.35 Q1675.45 1519.03 1675.45 1523.52 Q1675.45 1525.65 1674.64 1527.57 Q1673.85 1529.47 1671.74 1532.07 Q1671.16 1532.74 1668.06 1535.95 Q1664.96 1539.15 1659.31 1544.91 Z" fill="#000000" fill-rule="evenodd" fill-opacity="1"></path><path clip-path="url(#clip310)" d="M1685.45 1542.97 L1690.33 1542.97 L1690.33 1548.85 L1685.45 1548.85 L1685.45 1542.97 Z" fill="#000000" fill-rule="evenodd" fill-opacity="1"></path><path clip-path="url(#clip310)" d="M1700.56 1514.29 L1718.92 1514.29 L1718.92 1518.22 L1704.84 1518.22 L1704.84 1526.7 Q1705.86 1526.35 1706.88 1526.19 Q1707.9 1526 1708.92 1526 Q1714.71 1526 1718.09 1529.17 Q1721.46 1532.34 1721.46 1537.76 Q1721.46 1543.34 1717.99 1546.44 Q1714.52 1549.52 1708.2 1549.52 Q1706.02 1549.52 1703.76 1549.15 Q1701.51 1548.78 1699.1 1548.04 L1699.1 1543.34 Q1701.19 1544.47 1703.41 1545.03 Q1705.63 1545.58 1708.11 1545.58 Q1712.11 1545.58 1714.45 1543.48 Q1716.79 1541.37 1716.79 1537.76 Q1716.79 1534.15 1714.45 1532.04 Q1712.11 1529.94 1708.11 1529.94 Q1706.23 1529.94 1704.36 1530.35 Q1702.51 1530.77 1700.56 1531.65 L1700.56 1514.29 Z" fill="#000000" fill-rule="evenodd" fill-opacity="1"></path><path clip-path="url(#clip310)" d="M2068.9 1544.91 L2076.54 1544.91 L2076.54 1518.55 L2068.23 1520.21 L2068.23 1515.95 L2076.5 1514.29 L2081.17 1514.29 L2081.17 1544.91 L2088.81 1544.91 L2088.81 1548.85 L2068.9 1548.85 L2068.9 1544.91 Z" fill="#000000" fill-rule="evenodd" fill-opacity="1"></path><path clip-path="url(#clip310)" d="M2098.3 1514.29 L2116.66 1514.29 L2116.66 1518.22 L2102.58 1518.22 L2102.58 1526.7 Q2103.6 1526.35 2104.62 1526.19 Q2105.64 1526 2106.66 1526 Q2112.44 1526 2115.82 1529.17 Q2119.2 1532.34 2119.2 1537.76 Q2119.2 1543.34 2115.73 1546.44 Q2112.26 1549.52 2105.94 1549.52 Q2103.76 1549.52 2101.5 1549.15 Q2099.25 1548.78 2096.84 1548.04 L2096.84 1543.34 Q2098.93 1544.47 2101.15 1545.03 Q2103.37 1545.58 2105.85 1545.58 Q2109.85 1545.58 2112.19 1543.48 Q2114.53 1541.37 2114.53 1537.76 Q2114.53 1534.15 2112.19 1532.04 Q2109.85 1529.94 2105.85 1529.94 Q2103.97 1529.94 2102.1 1530.35 Q2100.25 1530.77 2098.3 1531.65 L2098.3 1514.29 Z" fill="#000000" fill-rule="evenodd" fill-opacity="1"></path><path clip-path="url(#clip310)" d="M2128.42 1542.97 L2133.3 1542.97 L2133.3 1548.85 L2128.42 1548.85 L2128.42 1542.97 Z" fill="#000000" fill-rule="evenodd" fill-opacity="1"></path><path clip-path="url(#clip310)" d="M2153.49 1517.37 Q2149.87 1517.37 2148.05 1520.93 Q2146.24 1524.47 2146.24 1531.6 Q2146.24 1538.71 2148.05 1542.27 Q2149.87 1545.82 2153.49 1545.82 Q2157.12 1545.82 2158.93 1542.27 Q2160.75 1538.71 2160.75 1531.6 Q2160.75 1524.47 2158.93 1520.93 Q2157.12 1517.37 2153.49 1517.37 M2153.49 1513.66 Q2159.3 1513.66 2162.35 1518.27 Q2165.43 1522.85 2165.43 1531.6 Q2165.43 1540.33 2162.35 1544.94 Q2159.3 1549.52 2153.49 1549.52 Q2147.68 1549.52 2144.6 1544.94 Q2141.54 1540.33 2141.54 1531.6 Q2141.54 1522.85 2144.6 1518.27 Q2147.68 1513.66 2153.49 1513.66 Z" fill="#000000" fill-rule="evenodd" fill-opacity="1"></path><polyline clip-path="url(#clip312)" style="stroke:#000000; stroke-linecap:butt; stroke-linejoin:round; stroke-width:2; stroke-opacity:0.1; fill:none" points="
  284.422,1400.66 2352.76,1400.66 
  "></polyline>
<polyline clip-path="url(#clip312)" style="stroke:#000000; stroke-linecap:butt; stroke-linejoin:round; stroke-width:2; stroke-opacity:0.1; fill:none" points="
  284.422,1131.38 2352.76,1131.38 
  "></polyline>
<polyline clip-path="url(#clip312)" style="stroke:#000000; stroke-linecap:butt; stroke-linejoin:round; stroke-width:2; stroke-opacity:0.1; fill:none" points="
  284.422,862.097 2352.76,862.097 
  "></polyline>
<polyline clip-path="url(#clip312)" style="stroke:#000000; stroke-linecap:butt; stroke-linejoin:round; stroke-width:2; stroke-opacity:0.1; fill:none" points="
  284.422,592.815 2352.76,592.815 
  "></polyline>
<polyline clip-path="url(#clip312)" style="stroke:#000000; stroke-linecap:butt; stroke-linejoin:round; stroke-width:2; stroke-opacity:0.1; fill:none" points="
  284.422,323.533 2352.76,323.533 
  "></polyline>
<polyline clip-path="url(#clip312)" style="stroke:#000000; stroke-linecap:butt; stroke-linejoin:round; stroke-width:2; stroke-opacity:0.1; fill:none" points="
  284.422,54.2506 2352.76,54.2506 
  "></polyline>
<polyline clip-path="url(#clip310)" style="stroke:#000000; stroke-linecap:butt; stroke-linejoin:round; stroke-width:4; stroke-opacity:1; fill:none" points="
  284.422,1486.45 284.422,47.2441 
  "></polyline>
<polyline clip-path="url(#clip310)" style="stroke:#000000; stroke-linecap:butt; stroke-linejoin:round; stroke-width:4; stroke-opacity:1; fill:none" points="
  284.422,1400.66 303.319,1400.66 
  "></polyline>
<polyline clip-path="url(#clip310)" style="stroke:#000000; stroke-linecap:butt; stroke-linejoin:round; stroke-width:4; stroke-opacity:1; fill:none" points="
  284.422,1131.38 303.319,1131.38 
  "></polyline>
<polyline clip-path="url(#clip310)" style="stroke:#000000; stroke-linecap:butt; stroke-linejoin:round; stroke-width:4; stroke-opacity:1; fill:none" points="
  284.422,862.097 303.319,862.097 
  "></polyline>
<polyline clip-path="url(#clip310)" style="stroke:#000000; stroke-linecap:butt; stroke-linejoin:round; stroke-width:4; stroke-opacity:1; fill:none" points="
  284.422,592.815 303.319,592.815 
  "></polyline>
<polyline clip-path="url(#clip310)" style="stroke:#000000; stroke-linecap:butt; stroke-linejoin:round; stroke-width:4; stroke-opacity:1; fill:none" points="
  284.422,323.533 303.319,323.533 
  "></polyline>
<polyline clip-path="url(#clip310)" style="stroke:#000000; stroke-linecap:butt; stroke-linejoin:round; stroke-width:4; stroke-opacity:1; fill:none" points="
  284.422,54.2506 303.319,54.2506 
  "></polyline>
<path clip-path="url(#clip310)" d="M51.9875 1401.11 L81.6633 1401.11 L81.6633 1405.05 L51.9875 1405.05 L51.9875 1401.11 Z" fill="#000000" fill-rule="evenodd" fill-opacity="1"></path><path clip-path="url(#clip310)" d="M101.756 1386.46 Q98.1447 1386.46 96.316 1390.03 Q94.5104 1393.57 94.5104 1400.7 Q94.5104 1407.8 96.316 1411.37 Q98.1447 1414.91 101.756 1414.91 Q105.39 1414.91 107.196 1411.37 Q109.024 1407.8 109.024 1400.7 Q109.024 1393.57 107.196 1390.03 Q105.39 1386.46 101.756 1386.46 M101.756 1382.76 Q107.566 1382.76 110.621 1387.36 Q113.7 1391.95 113.7 1400.7 Q113.7 1409.42 110.621 1414.03 Q107.566 1418.61 101.756 1418.61 Q95.9456 1418.61 92.8669 1414.03 Q89.8114 1409.42 89.8114 1400.7 Q89.8114 1391.95 92.8669 1387.36 Q95.9456 1382.76 101.756 1382.76 Z" fill="#000000" fill-rule="evenodd" fill-opacity="1"></path><path clip-path="url(#clip310)" d="M121.918 1412.06 L126.802 1412.06 L126.802 1417.94 L121.918 1417.94 L121.918 1412.06 Z" fill="#000000" fill-rule="evenodd" fill-opacity="1"></path><path clip-path="url(#clip310)" d="M146.987 1386.46 Q143.376 1386.46 141.547 1390.03 Q139.742 1393.57 139.742 1400.7 Q139.742 1407.8 141.547 1411.37 Q143.376 1414.91 146.987 1414.91 Q150.621 1414.91 152.427 1411.37 Q154.255 1407.8 154.255 1400.7 Q154.255 1393.57 152.427 1390.03 Q150.621 1386.46 146.987 1386.46 M146.987 1382.76 Q152.797 1382.76 155.853 1387.36 Q158.931 1391.95 158.931 1400.7 Q158.931 1409.42 155.853 1414.03 Q152.797 1418.61 146.987 1418.61 Q141.177 1418.61 138.098 1414.03 Q135.043 1409.42 135.043 1400.7 Q135.043 1391.95 138.098 1387.36 Q141.177 1382.76 146.987 1382.76 Z" fill="#000000" fill-rule="evenodd" fill-opacity="1"></path><path clip-path="url(#clip310)" d="M177.149 1386.46 Q173.538 1386.46 171.709 1390.03 Q169.904 1393.57 169.904 1400.7 Q169.904 1407.8 171.709 1411.37 Q173.538 1414.91 177.149 1414.91 Q180.783 1414.91 182.589 1411.37 Q184.417 1407.8 184.417 1400.7 Q184.417 1393.57 182.589 1390.03 Q180.783 1386.46 177.149 1386.46 M177.149 1382.76 Q182.959 1382.76 186.015 1387.36 Q189.093 1391.95 189.093 1400.7 Q189.093 1409.42 186.015 1414.03 Q182.959 1418.61 177.149 1418.61 Q171.339 1418.61 168.26 1414.03 Q165.204 1409.42 165.204 1400.7 Q165.204 1391.95 168.26 1387.36 Q171.339 1382.76 177.149 1382.76 Z" fill="#000000" fill-rule="evenodd" fill-opacity="1"></path><path clip-path="url(#clip310)" d="M198.121 1414.01 L205.76 1414.01 L205.76 1387.64 L197.45 1389.31 L197.45 1385.05 L205.714 1383.38 L210.389 1383.38 L210.389 1414.01 L218.028 1414.01 L218.028 1417.94 L198.121 1417.94 L198.121 1414.01 Z" fill="#000000" fill-rule="evenodd" fill-opacity="1"></path><path clip-path="url(#clip310)" d="M227.519 1383.38 L245.875 1383.38 L245.875 1387.32 L231.801 1387.32 L231.801 1395.79 Q232.82 1395.44 233.838 1395.28 Q234.857 1395.09 235.875 1395.09 Q241.662 1395.09 245.042 1398.27 Q248.422 1401.44 248.422 1406.85 Q248.422 1412.43 244.949 1415.53 Q241.477 1418.61 235.158 1418.61 Q232.982 1418.61 230.713 1418.24 Q228.468 1417.87 226.061 1417.13 L226.061 1412.43 Q228.144 1413.57 230.366 1414.12 Q232.588 1414.68 235.065 1414.68 Q239.07 1414.68 241.408 1412.57 Q243.746 1410.46 243.746 1406.85 Q243.746 1403.24 241.408 1401.14 Q239.07 1399.03 235.065 1399.03 Q233.19 1399.03 231.315 1399.45 Q229.463 1399.86 227.519 1400.74 L227.519 1383.38 Z" fill="#000000" fill-rule="evenodd" fill-opacity="1"></path><path clip-path="url(#clip310)" d="M50.9921 1131.83 L80.6679 1131.83 L80.6679 1135.77 L50.9921 1135.77 L50.9921 1131.83 Z" fill="#000000" fill-rule="evenodd" fill-opacity="1"></path><path clip-path="url(#clip310)" d="M100.76 1117.18 Q97.1493 1117.18 95.3206 1120.74 Q93.515 1124.28 93.515 1131.41 Q93.515 1138.52 95.3206 1142.09 Q97.1493 1145.63 100.76 1145.63 Q104.395 1145.63 106.2 1142.09 Q108.029 1138.52 108.029 1131.41 Q108.029 1124.28 106.2 1120.74 Q104.395 1117.18 100.76 1117.18 M100.76 1113.47 Q106.571 1113.47 109.626 1118.08 Q112.705 1122.66 112.705 1131.41 Q112.705 1140.14 109.626 1144.75 Q106.571 1149.33 100.76 1149.33 Q94.9502 1149.33 91.8715 1144.75 Q88.816 1140.14 88.816 1131.41 Q88.816 1122.66 91.8715 1118.08 Q94.9502 1113.47 100.76 1113.47 Z" fill="#000000" fill-rule="evenodd" fill-opacity="1"></path><path clip-path="url(#clip310)" d="M120.922 1142.78 L125.807 1142.78 L125.807 1148.66 L120.922 1148.66 L120.922 1142.78 Z" fill="#000000" fill-rule="evenodd" fill-opacity="1"></path><path clip-path="url(#clip310)" d="M145.992 1117.18 Q142.381 1117.18 140.552 1120.74 Q138.746 1124.28 138.746 1131.41 Q138.746 1138.52 140.552 1142.09 Q142.381 1145.63 145.992 1145.63 Q149.626 1145.63 151.431 1142.09 Q153.26 1138.52 153.26 1131.41 Q153.26 1124.28 151.431 1120.74 Q149.626 1117.18 145.992 1117.18 M145.992 1113.47 Q151.802 1113.47 154.857 1118.08 Q157.936 1122.66 157.936 1131.41 Q157.936 1140.14 154.857 1144.75 Q151.802 1149.33 145.992 1149.33 Q140.181 1149.33 137.103 1144.75 Q134.047 1140.14 134.047 1131.41 Q134.047 1122.66 137.103 1118.08 Q140.181 1113.47 145.992 1113.47 Z" fill="#000000" fill-rule="evenodd" fill-opacity="1"></path><path clip-path="url(#clip310)" d="M176.153 1117.18 Q172.542 1117.18 170.714 1120.74 Q168.908 1124.28 168.908 1131.41 Q168.908 1138.52 170.714 1142.09 Q172.542 1145.63 176.153 1145.63 Q179.788 1145.63 181.593 1142.09 Q183.422 1138.52 183.422 1131.41 Q183.422 1124.28 181.593 1120.74 Q179.788 1117.18 176.153 1117.18 M176.153 1113.47 Q181.964 1113.47 185.019 1118.08 Q188.098 1122.66 188.098 1131.41 Q188.098 1140.14 185.019 1144.75 Q181.964 1149.33 176.153 1149.33 Q170.343 1149.33 167.265 1144.75 Q164.209 1140.14 164.209 1131.41 Q164.209 1122.66 167.265 1118.08 Q170.343 1113.47 176.153 1113.47 Z" fill="#000000" fill-rule="evenodd" fill-opacity="1"></path><path clip-path="url(#clip310)" d="M197.126 1144.72 L204.764 1144.72 L204.764 1118.36 L196.454 1120.03 L196.454 1115.77 L204.718 1114.1 L209.394 1114.1 L209.394 1144.72 L217.033 1144.72 L217.033 1148.66 L197.126 1148.66 L197.126 1144.72 Z" fill="#000000" fill-rule="evenodd" fill-opacity="1"></path><path clip-path="url(#clip310)" d="M236.477 1117.18 Q232.866 1117.18 231.037 1120.74 Q229.232 1124.28 229.232 1131.41 Q229.232 1138.52 231.037 1142.09 Q232.866 1145.63 236.477 1145.63 Q240.111 1145.63 241.917 1142.09 Q243.746 1138.52 243.746 1131.41 Q243.746 1124.28 241.917 1120.74 Q240.111 1117.18 236.477 1117.18 M236.477 1113.47 Q242.287 1113.47 245.343 1118.08 Q248.422 1122.66 248.422 1131.41 Q248.422 1140.14 245.343 1144.75 Q242.287 1149.33 236.477 1149.33 Q230.667 1149.33 227.588 1144.75 Q224.533 1140.14 224.533 1131.41 Q224.533 1122.66 227.588 1118.08 Q230.667 1113.47 236.477 1113.47 Z" fill="#000000" fill-rule="evenodd" fill-opacity="1"></path><path clip-path="url(#clip310)" d="M51.9875 862.549 L81.6633 862.549 L81.6633 866.484 L51.9875 866.484 L51.9875 862.549 Z" fill="#000000" fill-rule="evenodd" fill-opacity="1"></path><path clip-path="url(#clip310)" d="M101.756 847.896 Q98.1447 847.896 96.316 851.461 Q94.5104 855.002 94.5104 862.132 Q94.5104 869.238 96.316 872.803 Q98.1447 876.345 101.756 876.345 Q105.39 876.345 107.196 872.803 Q109.024 869.238 109.024 862.132 Q109.024 855.002 107.196 851.461 Q105.39 847.896 101.756 847.896 M101.756 844.192 Q107.566 844.192 110.621 848.799 Q113.7 853.382 113.7 862.132 Q113.7 870.859 110.621 875.465 Q107.566 880.049 101.756 880.049 Q95.9456 880.049 92.8669 875.465 Q89.8114 870.859 89.8114 862.132 Q89.8114 853.382 92.8669 848.799 Q95.9456 844.192 101.756 844.192 Z" fill="#000000" fill-rule="evenodd" fill-opacity="1"></path><path clip-path="url(#clip310)" d="M121.918 873.498 L126.802 873.498 L126.802 879.377 L121.918 879.377 L121.918 873.498 Z" fill="#000000" fill-rule="evenodd" fill-opacity="1"></path><path clip-path="url(#clip310)" d="M146.987 847.896 Q143.376 847.896 141.547 851.461 Q139.742 855.002 139.742 862.132 Q139.742 869.238 141.547 872.803 Q143.376 876.345 146.987 876.345 Q150.621 876.345 152.427 872.803 Q154.255 869.238 154.255 862.132 Q154.255 855.002 152.427 851.461 Q150.621 847.896 146.987 847.896 M146.987 844.192 Q152.797 844.192 155.853 848.799 Q158.931 853.382 158.931 862.132 Q158.931 870.859 155.853 875.465 Q152.797 880.049 146.987 880.049 Q141.177 880.049 138.098 875.465 Q135.043 870.859 135.043 862.132 Q135.043 853.382 138.098 848.799 Q141.177 844.192 146.987 844.192 Z" fill="#000000" fill-rule="evenodd" fill-opacity="1"></path><path clip-path="url(#clip310)" d="M177.149 847.896 Q173.538 847.896 171.709 851.461 Q169.904 855.002 169.904 862.132 Q169.904 869.238 171.709 872.803 Q173.538 876.345 177.149 876.345 Q180.783 876.345 182.589 872.803 Q184.417 869.238 184.417 862.132 Q184.417 855.002 182.589 851.461 Q180.783 847.896 177.149 847.896 M177.149 844.192 Q182.959 844.192 186.015 848.799 Q189.093 853.382 189.093 862.132 Q189.093 870.859 186.015 875.465 Q182.959 880.049 177.149 880.049 Q171.339 880.049 168.26 875.465 Q165.204 870.859 165.204 862.132 Q165.204 853.382 168.26 848.799 Q171.339 844.192 177.149 844.192 Z" fill="#000000" fill-rule="evenodd" fill-opacity="1"></path><path clip-path="url(#clip310)" d="M207.311 847.896 Q203.7 847.896 201.871 851.461 Q200.065 855.002 200.065 862.132 Q200.065 869.238 201.871 872.803 Q203.7 876.345 207.311 876.345 Q210.945 876.345 212.751 872.803 Q214.579 869.238 214.579 862.132 Q214.579 855.002 212.751 851.461 Q210.945 847.896 207.311 847.896 M207.311 844.192 Q213.121 844.192 216.176 848.799 Q219.255 853.382 219.255 862.132 Q219.255 870.859 216.176 875.465 Q213.121 880.049 207.311 880.049 Q201.501 880.049 198.422 875.465 Q195.366 870.859 195.366 862.132 Q195.366 853.382 198.422 848.799 Q201.501 844.192 207.311 844.192 Z" fill="#000000" fill-rule="evenodd" fill-opacity="1"></path><path clip-path="url(#clip310)" d="M227.519 844.817 L245.875 844.817 L245.875 848.752 L231.801 848.752 L231.801 857.225 Q232.82 856.877 233.838 856.715 Q234.857 856.53 235.875 856.53 Q241.662 856.53 245.042 859.701 Q248.422 862.873 248.422 868.289 Q248.422 873.868 244.949 876.97 Q241.477 880.049 235.158 880.049 Q232.982 880.049 230.713 879.678 Q228.468 879.308 226.061 878.567 L226.061 873.868 Q228.144 875.002 230.366 875.558 Q232.588 876.113 235.065 876.113 Q239.07 876.113 241.408 874.007 Q243.746 871.9 243.746 868.289 Q243.746 864.678 241.408 862.572 Q239.07 860.465 235.065 860.465 Q233.19 860.465 231.315 860.882 Q229.463 861.299 227.519 862.178 L227.519 844.817 Z" fill="#000000" fill-rule="evenodd" fill-opacity="1"></path><path clip-path="url(#clip310)" d="M100.76 578.614 Q97.1493 578.614 95.3206 582.179 Q93.515 585.72 93.515 592.85 Q93.515 599.956 95.3206 603.521 Q97.1493 607.063 100.76 607.063 Q104.395 607.063 106.2 603.521 Q108.029 599.956 108.029 592.85 Q108.029 585.72 106.2 582.179 Q104.395 578.614 100.76 578.614 M100.76 574.91 Q106.571 574.91 109.626 579.516 Q112.705 584.1 112.705 592.85 Q112.705 601.577 109.626 606.183 Q106.571 610.766 100.76 610.766 Q94.9502 610.766 91.8715 606.183 Q88.816 601.577 88.816 592.85 Q88.816 584.1 91.8715 579.516 Q94.9502 574.91 100.76 574.91 Z" fill="#000000" fill-rule="evenodd" fill-opacity="1"></path><path clip-path="url(#clip310)" d="M120.922 604.215 L125.807 604.215 L125.807 610.095 L120.922 610.095 L120.922 604.215 Z" fill="#000000" fill-rule="evenodd" fill-opacity="1"></path><path clip-path="url(#clip310)" d="M145.992 578.614 Q142.381 578.614 140.552 582.179 Q138.746 585.72 138.746 592.85 Q138.746 599.956 140.552 603.521 Q142.381 607.063 145.992 607.063 Q149.626 607.063 151.431 603.521 Q153.26 599.956 153.26 592.85 Q153.26 585.72 151.431 582.179 Q149.626 578.614 145.992 578.614 M145.992 574.91 Q151.802 574.91 154.857 579.516 Q157.936 584.1 157.936 592.85 Q157.936 601.577 154.857 606.183 Q151.802 610.766 145.992 610.766 Q140.181 610.766 137.103 606.183 Q134.047 601.577 134.047 592.85 Q134.047 584.1 137.103 579.516 Q140.181 574.91 145.992 574.91 Z" fill="#000000" fill-rule="evenodd" fill-opacity="1"></path><path clip-path="url(#clip310)" d="M176.153 578.614 Q172.542 578.614 170.714 582.179 Q168.908 585.72 168.908 592.85 Q168.908 599.956 170.714 603.521 Q172.542 607.063 176.153 607.063 Q179.788 607.063 181.593 603.521 Q183.422 599.956 183.422 592.85 Q183.422 585.72 181.593 582.179 Q179.788 578.614 176.153 578.614 M176.153 574.91 Q181.964 574.91 185.019 579.516 Q188.098 584.1 188.098 592.85 Q188.098 601.577 185.019 606.183 Q181.964 610.766 176.153 610.766 Q170.343 610.766 167.265 606.183 Q164.209 601.577 164.209 592.85 Q164.209 584.1 167.265 579.516 Q170.343 574.91 176.153 574.91 Z" fill="#000000" fill-rule="evenodd" fill-opacity="1"></path><path clip-path="url(#clip310)" d="M206.315 578.614 Q202.704 578.614 200.876 582.179 Q199.07 585.72 199.07 592.85 Q199.07 599.956 200.876 603.521 Q202.704 607.063 206.315 607.063 Q209.95 607.063 211.755 603.521 Q213.584 599.956 213.584 592.85 Q213.584 585.72 211.755 582.179 Q209.95 578.614 206.315 578.614 M206.315 574.91 Q212.126 574.91 215.181 579.516 Q218.26 584.1 218.26 592.85 Q218.26 601.577 215.181 606.183 Q212.126 610.766 206.315 610.766 Q200.505 610.766 197.427 606.183 Q194.371 601.577 194.371 592.85 Q194.371 584.1 197.427 579.516 Q200.505 574.91 206.315 574.91 Z" fill="#000000" fill-rule="evenodd" fill-opacity="1"></path><path clip-path="url(#clip310)" d="M236.477 578.614 Q232.866 578.614 231.037 582.179 Q229.232 585.72 229.232 592.85 Q229.232 599.956 231.037 603.521 Q232.866 607.063 236.477 607.063 Q240.111 607.063 241.917 603.521 Q243.746 599.956 243.746 592.85 Q243.746 585.72 241.917 582.179 Q240.111 578.614 236.477 578.614 M236.477 574.91 Q242.287 574.91 245.343 579.516 Q248.422 584.1 248.422 592.85 Q248.422 601.577 245.343 606.183 Q242.287 610.766 236.477 610.766 Q230.667 610.766 227.588 606.183 Q224.533 601.577 224.533 592.85 Q224.533 584.1 227.588 579.516 Q230.667 574.91 236.477 574.91 Z" fill="#000000" fill-rule="evenodd" fill-opacity="1"></path><path clip-path="url(#clip310)" d="M101.756 309.332 Q98.1447 309.332 96.316 312.896 Q94.5104 316.438 94.5104 323.568 Q94.5104 330.674 96.316 334.239 Q98.1447 337.78 101.756 337.78 Q105.39 337.78 107.196 334.239 Q109.024 330.674 109.024 323.568 Q109.024 316.438 107.196 312.896 Q105.39 309.332 101.756 309.332 M101.756 305.628 Q107.566 305.628 110.621 310.234 Q113.7 314.818 113.7 323.568 Q113.7 332.294 110.621 336.901 Q107.566 341.484 101.756 341.484 Q95.9456 341.484 92.8669 336.901 Q89.8114 332.294 89.8114 323.568 Q89.8114 314.818 92.8669 310.234 Q95.9456 305.628 101.756 305.628 Z" fill="#000000" fill-rule="evenodd" fill-opacity="1"></path><path clip-path="url(#clip310)" d="M121.918 334.933 L126.802 334.933 L126.802 340.813 L121.918 340.813 L121.918 334.933 Z" fill="#000000" fill-rule="evenodd" fill-opacity="1"></path><path clip-path="url(#clip310)" d="M146.987 309.332 Q143.376 309.332 141.547 312.896 Q139.742 316.438 139.742 323.568 Q139.742 330.674 141.547 334.239 Q143.376 337.78 146.987 337.78 Q150.621 337.78 152.427 334.239 Q154.255 330.674 154.255 323.568 Q154.255 316.438 152.427 312.896 Q150.621 309.332 146.987 309.332 M146.987 305.628 Q152.797 305.628 155.853 310.234 Q158.931 314.818 158.931 323.568 Q158.931 332.294 155.853 336.901 Q152.797 341.484 146.987 341.484 Q141.177 341.484 138.098 336.901 Q135.043 332.294 135.043 323.568 Q135.043 314.818 138.098 310.234 Q141.177 305.628 146.987 305.628 Z" fill="#000000" fill-rule="evenodd" fill-opacity="1"></path><path clip-path="url(#clip310)" d="M177.149 309.332 Q173.538 309.332 171.709 312.896 Q169.904 316.438 169.904 323.568 Q169.904 330.674 171.709 334.239 Q173.538 337.78 177.149 337.78 Q180.783 337.78 182.589 334.239 Q184.417 330.674 184.417 323.568 Q184.417 316.438 182.589 312.896 Q180.783 309.332 177.149 309.332 M177.149 305.628 Q182.959 305.628 186.015 310.234 Q189.093 314.818 189.093 323.568 Q189.093 332.294 186.015 336.901 Q182.959 341.484 177.149 341.484 Q171.339 341.484 168.26 336.901 Q165.204 332.294 165.204 323.568 Q165.204 314.818 168.26 310.234 Q171.339 305.628 177.149 305.628 Z" fill="#000000" fill-rule="evenodd" fill-opacity="1"></path><path clip-path="url(#clip310)" d="M207.311 309.332 Q203.7 309.332 201.871 312.896 Q200.065 316.438 200.065 323.568 Q200.065 330.674 201.871 334.239 Q203.7 337.78 207.311 337.78 Q210.945 337.78 212.751 334.239 Q214.579 330.674 214.579 323.568 Q214.579 316.438 212.751 312.896 Q210.945 309.332 207.311 309.332 M207.311 305.628 Q213.121 305.628 216.176 310.234 Q219.255 314.818 219.255 323.568 Q219.255 332.294 216.176 336.901 Q213.121 341.484 207.311 341.484 Q201.501 341.484 198.422 336.901 Q195.366 332.294 195.366 323.568 Q195.366 314.818 198.422 310.234 Q201.501 305.628 207.311 305.628 Z" fill="#000000" fill-rule="evenodd" fill-opacity="1"></path><path clip-path="url(#clip310)" d="M227.519 306.253 L245.875 306.253 L245.875 310.188 L231.801 310.188 L231.801 318.66 Q232.82 318.313 233.838 318.151 Q234.857 317.966 235.875 317.966 Q241.662 317.966 245.042 321.137 Q248.422 324.308 248.422 329.725 Q248.422 335.304 244.949 338.405 Q241.477 341.484 235.158 341.484 Q232.982 341.484 230.713 341.114 Q228.468 340.743 226.061 340.003 L226.061 335.304 Q228.144 336.438 230.366 336.993 Q232.588 337.549 235.065 337.549 Q239.07 337.549 241.408 335.442 Q243.746 333.336 243.746 329.725 Q243.746 326.114 241.408 324.007 Q239.07 321.901 235.065 321.901 Q233.19 321.901 231.315 322.318 Q229.463 322.734 227.519 323.614 L227.519 306.253 Z" fill="#000000" fill-rule="evenodd" fill-opacity="1"></path><path clip-path="url(#clip310)" d="M100.76 40.0493 Q97.1493 40.0493 95.3206 43.6141 Q93.515 47.1558 93.515 54.2854 Q93.515 61.3918 95.3206 64.9566 Q97.1493 68.4982 100.76 68.4982 Q104.395 68.4982 106.2 64.9566 Q108.029 61.3918 108.029 54.2854 Q108.029 47.1558 106.2 43.6141 Q104.395 40.0493 100.76 40.0493 M100.76 36.3456 Q106.571 36.3456 109.626 40.9521 Q112.705 45.5354 112.705 54.2854 Q112.705 63.0122 109.626 67.6186 Q106.571 72.2019 100.76 72.2019 Q94.9502 72.2019 91.8715 67.6186 Q88.816 63.0122 88.816 54.2854 Q88.816 45.5354 91.8715 40.9521 Q94.9502 36.3456 100.76 36.3456 Z" fill="#000000" fill-rule="evenodd" fill-opacity="1"></path><path clip-path="url(#clip310)" d="M120.922 65.651 L125.807 65.651 L125.807 71.5306 L120.922 71.5306 L120.922 65.651 Z" fill="#000000" fill-rule="evenodd" fill-opacity="1"></path><path clip-path="url(#clip310)" d="M145.992 40.0493 Q142.381 40.0493 140.552 43.6141 Q138.746 47.1558 138.746 54.2854 Q138.746 61.3918 140.552 64.9566 Q142.381 68.4982 145.992 68.4982 Q149.626 68.4982 151.431 64.9566 Q153.26 61.3918 153.26 54.2854 Q153.26 47.1558 151.431 43.6141 Q149.626 40.0493 145.992 40.0493 M145.992 36.3456 Q151.802 36.3456 154.857 40.9521 Q157.936 45.5354 157.936 54.2854 Q157.936 63.0122 154.857 67.6186 Q151.802 72.2019 145.992 72.2019 Q140.181 72.2019 137.103 67.6186 Q134.047 63.0122 134.047 54.2854 Q134.047 45.5354 137.103 40.9521 Q140.181 36.3456 145.992 36.3456 Z" fill="#000000" fill-rule="evenodd" fill-opacity="1"></path><path clip-path="url(#clip310)" d="M176.153 40.0493 Q172.542 40.0493 170.714 43.6141 Q168.908 47.1558 168.908 54.2854 Q168.908 61.3918 170.714 64.9566 Q172.542 68.4982 176.153 68.4982 Q179.788 68.4982 181.593 64.9566 Q183.422 61.3918 183.422 54.2854 Q183.422 47.1558 181.593 43.6141 Q179.788 40.0493 176.153 40.0493 M176.153 36.3456 Q181.964 36.3456 185.019 40.9521 Q188.098 45.5354 188.098 54.2854 Q188.098 63.0122 185.019 67.6186 Q181.964 72.2019 176.153 72.2019 Q170.343 72.2019 167.265 67.6186 Q164.209 63.0122 164.209 54.2854 Q164.209 45.5354 167.265 40.9521 Q170.343 36.3456 176.153 36.3456 Z" fill="#000000" fill-rule="evenodd" fill-opacity="1"></path><path clip-path="url(#clip310)" d="M197.126 67.5955 L204.764 67.5955 L204.764 41.2299 L196.454 42.8965 L196.454 38.6373 L204.718 36.9706 L209.394 36.9706 L209.394 67.5955 L217.033 67.5955 L217.033 71.5306 L197.126 71.5306 L197.126 67.5955 Z" fill="#000000" fill-rule="evenodd" fill-opacity="1"></path><path clip-path="url(#clip310)" d="M236.477 40.0493 Q232.866 40.0493 231.037 43.6141 Q229.232 47.1558 229.232 54.2854 Q229.232 61.3918 231.037 64.9566 Q232.866 68.4982 236.477 68.4982 Q240.111 68.4982 241.917 64.9566 Q243.746 61.3918 243.746 54.2854 Q243.746 47.1558 241.917 43.6141 Q240.111 40.0493 236.477 40.0493 M236.477 36.3456 Q242.287 36.3456 245.343 40.9521 Q248.422 45.5354 248.422 54.2854 Q248.422 63.0122 245.343 67.6186 Q242.287 72.2019 236.477 72.2019 Q230.667 72.2019 227.588 67.6186 Q224.533 63.0122 224.533 54.2854 Q224.533 45.5354 227.588 40.9521 Q230.667 36.3456 236.477 36.3456 Z" fill="#000000" fill-rule="evenodd" fill-opacity="1"></path><polyline clip-path="url(#clip312)" style="stroke:#009af9; stroke-linecap:butt; stroke-linejoin:round; stroke-width:4; stroke-opacity:1; fill:none" points="
  342.959,1445.72 376.87,1436.08 412.078,1414.59 448.631,1248.59 486.583,1320.17 525.985,1181.7 566.893,1234.49 609.366,1190.19 653.463,1158.52 699.245,1069.16 
  746.779,991.534 796.129,867.792 847.366,943.42 900.563,995.681 955.793,753.795 1013.13,782.221 1072.67,859.825 1134.48,772.461 1198.65,667.461 1265.28,604.219 
  1334.46,636.531 1406.27,585.147 1480.84,590.753 1558.26,650.264 1638.63,671.882 1722.08,640.234 1808.72,677.246 1898.68,87.9763 1992.07,218.412 2089.03,316.927 
  2189.7,632.24 2294.22,362.392 
  "></polyline>
<path clip-path="url(#clip310)" d="
M2001.57 198.898 L2283.81 198.898 L2283.81 95.2176 L2001.57 95.2176  Z
  " fill="#ffffff" fill-rule="evenodd" fill-opacity="1"></path>
<polyline clip-path="url(#clip310)" style="stroke:#000000; stroke-linecap:butt; stroke-linejoin:round; stroke-width:4; stroke-opacity:1; fill:none" points="
  2001.57,198.898 2283.81,198.898 2283.81,95.2176 2001.57,95.2176 2001.57,198.898 
  "></polyline>
<polyline clip-path="url(#clip310)" style="stroke:#009af9; stroke-linecap:butt; stroke-linejoin:round; stroke-width:4; stroke-opacity:1; fill:none" points="
  2024.55,147.058 2162.44,147.058 
  "></polyline>
<path clip-path="url(#clip310)" d="M2199.26 166.745 Q2197.46 171.375 2195.74 172.787 Q2194.03 174.199 2191.16 174.199 L2187.76 174.199 L2187.76 170.634 L2190.26 170.634 Q2192.02 170.634 2192.99 169.8 Q2193.96 168.967 2195.14 165.865 L2195.9 163.921 L2185.42 138.412 L2189.93 138.412 L2198.03 158.689 L2206.14 138.412 L2210.65 138.412 L2199.26 166.745 Z" fill="#000000" fill-rule="evenodd" fill-opacity="1"></path><path clip-path="url(#clip310)" d="M2217.94 160.402 L2225.58 160.402 L2225.58 134.037 L2217.27 135.703 L2217.27 131.444 L2225.53 129.778 L2230.21 129.778 L2230.21 160.402 L2237.85 160.402 L2237.85 164.338 L2217.94 164.338 L2217.94 160.402 Z" fill="#000000" fill-rule="evenodd" fill-opacity="1"></path></svg>