<svg xmlns="http://www.w3.org/2000/svg" xmlns:xlink="http://www.w3.org/1999/xlink" width="600" height="400" viewBox="0 0 2400 1600">
<defs>
  <clipPath id="clip140">
    <rect x="0" y="0" width="2400" height="1600"></rect>
  </clipPath>
</defs>
<path clip-path="url(#clip140)" d="
M0 1600 L2400 1600 L2400 0 L0 0  Z
  " fill="#ffffff" fill-rule="evenodd" fill-opacity="1"></path>
<defs>
  <clipPath id="clip141">
    <rect x="480" y="0" width="1681" height="1600"></rect>
  </clipPath>
</defs>
<path clip-path="url(#clip140)" d="
M246.598 1486.45 L2352.76 1486.45 L2352.76 47.2441 L246.598 47.2441  Z
  " fill="#ffffff" fill-rule="evenodd" fill-opacity="1"></path>
<defs>
  <clipPath id="clip142">
    <rect x="246" y="47" width="2107" height="1440"></rect>
  </clipPath>
</defs>
<polyline clip-path="url(#clip142)" style="stroke:#000000; stroke-linecap:butt; stroke-linejoin:round; stroke-width:2; stroke-opacity:0.1; fill:none" points="
  306.206,1486.45 306.206,47.2441 
  "></polyline>
<polyline clip-path="url(#clip142)" style="stroke:#000000; stroke-linecap:butt; stroke-linejoin:round; stroke-width:2; stroke-opacity:0.1; fill:none" points="
  757.784,1486.45 757.784,47.2441 
  "></polyline>
<polyline clip-path="url(#clip142)" style="stroke:#000000; stroke-linecap:butt; stroke-linejoin:round; stroke-width:2; stroke-opacity:0.1; fill:none" points="
  1209.36,1486.45 1209.36,47.2441 
  "></polyline>
<polyline clip-path="url(#clip142)" style="stroke:#000000; stroke-linecap:butt; stroke-linejoin:round; stroke-width:2; stroke-opacity:0.1; fill:none" points="
  1660.94,1486.45 1660.94,47.2441 
  "></polyline>
<polyline clip-path="url(#clip142)" style="stroke:#000000; stroke-linecap:butt; stroke-linejoin:round; stroke-width:2; stroke-opacity:0.1; fill:none" points="
  2112.52,1486.45 2112.52,47.2441 
  "></polyline>
<polyline clip-path="url(#clip140)" style="stroke:#000000; stroke-linecap:butt; stroke-linejoin:round; stroke-width:4; stroke-opacity:1; fill:none" points="
  246.598,1486.45 2352.76,1486.45 
  "></polyline>
<polyline clip-path="url(#clip140)" style="stroke:#000000; stroke-linecap:butt; stroke-linejoin:round; stroke-width:4; stroke-opacity:1; fill:none" points="
  306.206,1486.45 306.206,1467.55 
  "></polyline>
<polyline clip-path="url(#clip140)" style="stroke:#000000; stroke-linecap:butt; stroke-linejoin:round; stroke-width:4; stroke-opacity:1; fill:none" points="
  757.784,1486.45 757.784,1467.55 
  "></polyline>
<polyline clip-path="url(#clip140)" style="stroke:#000000; stroke-linecap:butt; stroke-linejoin:round; stroke-width:4; stroke-opacity:1; fill:none" points="
  1209.36,1486.45 1209.36,1467.55 
  "></polyline>
<polyline clip-path="url(#clip140)" style="stroke:#000000; stroke-linecap:butt; stroke-linejoin:round; stroke-width:4; stroke-opacity:1; fill:none" points="
  1660.94,1486.45 1660.94,1467.55 
  "></polyline>
<polyline clip-path="url(#clip140)" style="stroke:#000000; stroke-linecap:butt; stroke-linejoin:round; stroke-width:4; stroke-opacity:1; fill:none" points="
  2112.52,1486.45 2112.52,1467.55 
  "></polyline>
<path clip-path="url(#clip140)" d="M273.371 1514.29 L291.727 1514.29 L291.727 1518.22 L277.653 1518.22 L277.653 1526.7 Q278.671 1526.35 279.69 1526.19 Q280.708 1526 281.727 1526 Q287.514 1526 290.894 1529.17 Q294.273 1532.34 294.273 1537.76 Q294.273 1543.34 290.801 1546.44 Q287.329 1549.52 281.009 1549.52 Q278.833 1549.52 276.565 1549.15 Q274.32 1548.78 271.912 1548.04 L271.912 1543.34 Q273.996 1544.47 276.218 1545.03 Q278.44 1545.58 280.917 1545.58 Q284.921 1545.58 287.259 1543.48 Q289.597 1541.37 289.597 1537.76 Q289.597 1534.15 287.259 1532.04 Q284.921 1529.94 280.917 1529.94 Q279.042 1529.94 277.167 1530.35 Q275.315 1530.77 273.371 1531.65 L273.371 1514.29 Z" fill="#000000" fill-rule="evenodd" fill-opacity="1"></path><path clip-path="url(#clip140)" d="M303.486 1542.97 L308.37 1542.97 L308.37 1548.85 L303.486 1548.85 L303.486 1542.97 Z" fill="#000000" fill-rule="evenodd" fill-opacity="1"></path><path clip-path="url(#clip140)" d="M328.555 1517.37 Q324.944 1517.37 323.116 1520.93 Q321.31 1524.47 321.31 1531.6 Q321.31 1538.71 323.116 1542.27 Q324.944 1545.82 328.555 1545.82 Q332.19 1545.82 333.995 1542.27 Q335.824 1538.71 335.824 1531.6 Q335.824 1524.47 333.995 1520.93 Q332.19 1517.37 328.555 1517.37 M328.555 1513.66 Q334.366 1513.66 337.421 1518.27 Q340.5 1522.85 340.5 1531.6 Q340.5 1540.33 337.421 1544.94 Q334.366 1549.52 328.555 1549.52 Q322.745 1549.52 319.667 1544.94 Q316.611 1540.33 316.611 1531.6 Q316.611 1522.85 319.667 1518.27 Q322.745 1513.66 328.555 1513.66 Z" fill="#000000" fill-rule="evenodd" fill-opacity="1"></path><path clip-path="url(#clip140)" d="M724.103 1514.29 L746.325 1514.29 L746.325 1516.28 L733.779 1548.85 L728.895 1548.85 L740.7 1518.22 L724.103 1518.22 L724.103 1514.29 Z" fill="#000000" fill-rule="evenodd" fill-opacity="1"></path><path clip-path="url(#clip140)" d="M755.446 1542.97 L760.33 1542.97 L760.33 1548.85 L755.446 1548.85 L755.446 1542.97 Z" fill="#000000" fill-rule="evenodd" fill-opacity="1"></path><path clip-path="url(#clip140)" d="M770.561 1514.29 L788.918 1514.29 L788.918 1518.22 L774.844 1518.22 L774.844 1526.7 Q775.862 1526.35 776.881 1526.19 Q777.899 1526 778.918 1526 Q784.705 1526 788.084 1529.17 Q791.464 1532.34 791.464 1537.76 Q791.464 1543.34 787.992 1546.44 Q784.52 1549.52 778.2 1549.52 Q776.024 1549.52 773.756 1549.15 Q771.51 1548.78 769.103 1548.04 L769.103 1543.34 Q771.186 1544.47 773.409 1545.03 Q775.631 1545.58 778.108 1545.58 Q782.112 1545.58 784.45 1543.48 Q786.788 1541.37 786.788 1537.76 Q786.788 1534.15 784.45 1532.04 Q782.112 1529.94 778.108 1529.94 Q776.233 1529.94 774.358 1530.35 Q772.506 1530.77 770.561 1531.65 L770.561 1514.29 Z" fill="#000000" fill-rule="evenodd" fill-opacity="1"></path><path clip-path="url(#clip140)" d="M1161.43 1544.91 L1169.07 1544.91 L1169.07 1518.55 L1160.76 1520.21 L1160.76 1515.95 L1169.03 1514.29 L1173.7 1514.29 L1173.7 1544.91 L1181.34 1544.91 L1181.34 1548.85 L1161.43 1548.85 L1161.43 1544.91 Z" fill="#000000" fill-rule="evenodd" fill-opacity="1"></path><path clip-path="url(#clip140)" d="M1200.78 1517.37 Q1197.17 1517.37 1195.35 1520.93 Q1193.54 1524.47 1193.54 1531.6 Q1193.54 1538.71 1195.35 1542.27 Q1197.17 1545.82 1200.78 1545.82 Q1204.42 1545.82 1206.22 1542.27 Q1208.05 1538.71 1208.05 1531.6 Q1208.05 1524.47 1206.22 1520.93 Q1204.42 1517.37 1200.78 1517.37 M1200.78 1513.66 Q1206.6 1513.66 1209.65 1518.27 Q1212.73 1522.85 1212.73 1531.6 Q1212.73 1540.33 1209.65 1544.94 Q1206.6 1549.52 1200.78 1549.52 Q1194.97 1549.52 1191.9 1544.94 Q1188.84 1540.33 1188.84 1531.6 Q1188.84 1522.85 1191.9 1518.27 Q1194.97 1513.66 1200.78 1513.66 Z" fill="#000000" fill-rule="evenodd" fill-opacity="1"></path><path clip-path="url(#clip140)" d="M1220.95 1542.97 L1225.83 1542.97 L1225.83 1548.85 L1220.95 1548.85 L1220.95 1542.97 Z" fill="#000000" fill-rule="evenodd" fill-opacity="1"></path><path clip-path="url(#clip140)" d="M1246.02 1517.37 Q1242.41 1517.37 1240.58 1520.93 Q1238.77 1524.47 1238.77 1531.6 Q1238.77 1538.71 1240.58 1542.27 Q1242.41 1545.82 1246.02 1545.82 Q1249.65 1545.82 1251.46 1542.27 Q1253.28 1538.71 1253.28 1531.6 Q1253.28 1524.47 1251.46 1520.93 Q1249.65 1517.37 1246.02 1517.37 M1246.02 1513.66 Q1251.83 1513.66 1254.88 1518.27 Q1257.96 1522.85 1257.96 1531.6 Q1257.96 1540.33 1254.88 1544.94 Q1251.83 1549.52 1246.02 1549.52 Q1240.21 1549.52 1237.13 1544.94 Q1234.07 1540.33 1234.07 1531.6 Q1234.07 1522.85 1237.13 1518.27 Q1240.21 1513.66 1246.02 1513.66 Z" fill="#000000" fill-rule="evenodd" fill-opacity="1"></path><path clip-path="url(#clip140)" d="M1613.51 1544.91 L1621.15 1544.91 L1621.15 1518.55 L1612.84 1520.21 L1612.84 1515.95 L1621.1 1514.29 L1625.78 1514.29 L1625.78 1544.91 L1633.42 1544.91 L1633.42 1548.85 L1613.51 1548.85 L1613.51 1544.91 Z" fill="#000000" fill-rule="evenodd" fill-opacity="1"></path><path clip-path="url(#clip140)" d="M1646.89 1544.91 L1663.21 1544.91 L1663.21 1548.85 L1641.26 1548.85 L1641.26 1544.91 Q1643.93 1542.16 1648.51 1537.53 Q1653.11 1532.88 1654.3 1531.53 Q1656.54 1529.01 1657.42 1527.27 Q1658.32 1525.51 1658.32 1523.82 Q1658.32 1521.07 1656.38 1519.33 Q1654.46 1517.6 1651.36 1517.6 Q1649.16 1517.6 1646.7 1518.36 Q1644.27 1519.13 1641.49 1520.68 L1641.49 1515.95 Q1644.32 1514.82 1646.77 1514.24 Q1649.23 1513.66 1651.26 1513.66 Q1656.63 1513.66 1659.83 1516.35 Q1663.02 1519.03 1663.02 1523.52 Q1663.02 1525.65 1662.21 1527.57 Q1661.43 1529.47 1659.32 1532.07 Q1658.74 1532.74 1655.64 1535.95 Q1652.54 1539.15 1646.89 1544.91 Z" fill="#000000" fill-rule="evenodd" fill-opacity="1"></path><path clip-path="url(#clip140)" d="M1673.02 1542.97 L1677.91 1542.97 L1677.91 1548.85 L1673.02 1548.85 L1673.02 1542.97 Z" fill="#000000" fill-rule="evenodd" fill-opacity="1"></path><path clip-path="url(#clip140)" d="M1688.14 1514.29 L1706.49 1514.29 L1706.49 1518.22 L1692.42 1518.22 L1692.42 1526.7 Q1693.44 1526.35 1694.46 1526.19 Q1695.48 1526 1696.49 1526 Q1702.28 1526 1705.66 1529.17 Q1709.04 1532.34 1709.04 1537.76 Q1709.04 1543.34 1705.57 1546.44 Q1702.1 1549.52 1695.78 1549.52 Q1693.6 1549.52 1691.33 1549.15 Q1689.09 1548.78 1686.68 1548.04 L1686.68 1543.34 Q1688.76 1544.47 1690.99 1545.03 Q1693.21 1545.58 1695.68 1545.58 Q1699.69 1545.58 1702.03 1543.48 Q1704.36 1541.37 1704.36 1537.76 Q1704.36 1534.15 1702.03 1532.04 Q1699.69 1529.94 1695.68 1529.94 Q1693.81 1529.94 1691.93 1530.35 Q1690.08 1530.77 1688.14 1531.65 L1688.14 1514.29 Z" fill="#000000" fill-rule="evenodd" fill-opacity="1"></path><path clip-path="url(#clip140)" d="M2064.59 1544.91 L2072.23 1544.91 L2072.23 1518.55 L2063.92 1520.21 L2063.92 1515.95 L2072.18 1514.29 L2076.86 1514.29 L2076.86 1544.91 L2084.5 1544.91 L2084.5 1548.85 L2064.59 1548.85 L2064.59 1544.91 Z" fill="#000000" fill-rule="evenodd" fill-opacity="1"></path><path clip-path="url(#clip140)" d="M2093.99 1514.29 L2112.34 1514.29 L2112.34 1518.22 L2098.27 1518.22 L2098.27 1526.7 Q2099.29 1526.35 2100.31 1526.19 Q2101.32 1526 2102.34 1526 Q2108.13 1526 2111.51 1529.17 Q2114.89 1532.34 2114.89 1537.76 Q2114.89 1543.34 2111.42 1546.44 Q2107.94 1549.52 2101.63 1549.52 Q2099.45 1549.52 2097.18 1549.15 Q2094.94 1548.78 2092.53 1548.04 L2092.53 1543.34 Q2094.61 1544.47 2096.83 1545.03 Q2099.06 1545.58 2101.53 1545.58 Q2105.54 1545.58 2107.88 1543.48 Q2110.21 1541.37 2110.21 1537.76 Q2110.21 1534.15 2107.88 1532.04 Q2105.54 1529.94 2101.53 1529.94 Q2099.66 1529.94 2097.78 1530.35 Q2095.93 1530.77 2093.99 1531.65 L2093.99 1514.29 Z" fill="#000000" fill-rule="evenodd" fill-opacity="1"></path><path clip-path="url(#clip140)" d="M2124.1 1542.97 L2128.99 1542.97 L2128.99 1548.85 L2124.1 1548.85 L2124.1 1542.97 Z" fill="#000000" fill-rule="evenodd" fill-opacity="1"></path><path clip-path="url(#clip140)" d="M2149.17 1517.37 Q2145.56 1517.37 2143.73 1520.93 Q2141.93 1524.47 2141.93 1531.6 Q2141.93 1538.71 2143.73 1542.27 Q2145.56 1545.82 2149.17 1545.82 Q2152.81 1545.82 2154.61 1542.27 Q2156.44 1538.71 2156.44 1531.6 Q2156.44 1524.47 2154.61 1520.93 Q2152.81 1517.37 2149.17 1517.37 M2149.17 1513.66 Q2154.98 1513.66 2158.04 1518.27 Q2161.12 1522.85 2161.12 1531.6 Q2161.12 1540.33 2158.04 1544.94 Q2154.98 1549.52 2149.17 1549.52 Q2143.36 1549.52 2140.28 1544.94 Q2137.23 1540.33 2137.23 1531.6 Q2137.23 1522.85 2140.28 1518.27 Q2143.36 1513.66 2149.17 1513.66 Z" fill="#000000" fill-rule="evenodd" fill-opacity="1"></path><polyline clip-path="url(#clip142)" style="stroke:#000000; stroke-linecap:butt; stroke-linejoin:round; stroke-width:2; stroke-opacity:0.1; fill:none" points="
  246.598,1355.25 2352.76,1355.25 
  "></polyline>
<polyline clip-path="url(#clip142)" style="stroke:#000000; stroke-linecap:butt; stroke-linejoin:round; stroke-width:2; stroke-opacity:0.1; fill:none" points="
  246.598,1083.48 2352.76,1083.48 
  "></polyline>
<polyline clip-path="url(#clip142)" style="stroke:#000000; stroke-linecap:butt; stroke-linejoin:round; stroke-width:2; stroke-opacity:0.1; fill:none" points="
  246.598,811.714 2352.76,811.714 
  "></polyline>
<polyline clip-path="url(#clip142)" style="stroke:#000000; stroke-linecap:butt; stroke-linejoin:round; stroke-width:2; stroke-opacity:0.1; fill:none" points="
  246.598,539.944 2352.76,539.944 
  "></polyline>
<polyline clip-path="url(#clip142)" style="stroke:#000000; stroke-linecap:butt; stroke-linejoin:round; stroke-width:2; stroke-opacity:0.1; fill:none" points="
  246.598,268.175 2352.76,268.175 
  "></polyline>
<polyline clip-path="url(#clip140)" style="stroke:#000000; stroke-linecap:butt; stroke-linejoin:round; stroke-width:4; stroke-opacity:1; fill:none" points="
  246.598,1486.45 246.598,47.2441 
  "></polyline>
<polyline clip-path="url(#clip140)" style="stroke:#000000; stroke-linecap:butt; stroke-linejoin:round; stroke-width:4; stroke-opacity:1; fill:none" points="
  246.598,1355.25 265.495,1355.25 
  "></polyline>
<polyline clip-path="url(#clip140)" style="stroke:#000000; stroke-linecap:butt; stroke-linejoin:round; stroke-width:4; stroke-opacity:1; fill:none" points="
  246.598,1083.48 265.495,1083.48 
  "></polyline>
<polyline clip-path="url(#clip140)" style="stroke:#000000; stroke-linecap:butt; stroke-linejoin:round; stroke-width:4; stroke-opacity:1; fill:none" points="
  246.598,811.714 265.495,811.714 
  "></polyline>
<polyline clip-path="url(#clip140)" style="stroke:#000000; stroke-linecap:butt; stroke-linejoin:round; stroke-width:4; stroke-opacity:1; fill:none" points="
  246.598,539.944 265.495,539.944 
  "></polyline>
<polyline clip-path="url(#clip140)" style="stroke:#000000; stroke-linecap:butt; stroke-linejoin:round; stroke-width:4; stroke-opacity:1; fill:none" points="
  246.598,268.175 265.495,268.175 
  "></polyline>
<path clip-path="url(#clip140)" d="M63.9319 1341.05 Q60.3208 1341.05 58.4921 1344.62 Q56.6865 1348.16 56.6865 1355.29 Q56.6865 1362.39 58.4921 1365.96 Q60.3208 1369.5 63.9319 1369.5 Q67.5661 1369.5 69.3717 1365.96 Q71.2004 1362.39 71.2004 1355.29 Q71.2004 1348.16 69.3717 1344.62 Q67.5661 1341.05 63.9319 1341.05 M63.9319 1337.35 Q69.742 1337.35 72.7976 1341.95 Q75.8763 1346.54 75.8763 1355.29 Q75.8763 1364.01 72.7976 1368.62 Q69.742 1373.2 63.9319 1373.2 Q58.1217 1373.2 55.043 1368.62 Q51.9875 1364.01 51.9875 1355.29 Q51.9875 1346.54 55.043 1341.95 Q58.1217 1337.35 63.9319 1337.35 Z" fill="#000000" fill-rule="evenodd" fill-opacity="1"></path><path clip-path="url(#clip140)" d="M84.0938 1366.65 L88.978 1366.65 L88.978 1372.53 L84.0938 1372.53 L84.0938 1366.65 Z" fill="#000000" fill-rule="evenodd" fill-opacity="1"></path><path clip-path="url(#clip140)" d="M109.163 1341.05 Q105.552 1341.05 103.723 1344.62 Q101.918 1348.16 101.918 1355.29 Q101.918 1362.39 103.723 1365.96 Q105.552 1369.5 109.163 1369.5 Q112.797 1369.5 114.603 1365.96 Q116.432 1362.39 116.432 1355.29 Q116.432 1348.16 114.603 1344.62 Q112.797 1341.05 109.163 1341.05 M109.163 1337.35 Q114.973 1337.35 118.029 1341.95 Q121.107 1346.54 121.107 1355.29 Q121.107 1364.01 118.029 1368.62 Q114.973 1373.2 109.163 1373.2 Q103.353 1373.2 100.274 1368.62 Q97.2187 1364.01 97.2187 1355.29 Q97.2187 1346.54 100.274 1341.95 Q103.353 1337.35 109.163 1337.35 Z" fill="#000000" fill-rule="evenodd" fill-opacity="1"></path><path clip-path="url(#clip140)" d="M139.325 1341.05 Q135.714 1341.05 133.885 1344.62 Q132.08 1348.16 132.08 1355.29 Q132.08 1362.39 133.885 1365.96 Q135.714 1369.5 139.325 1369.5 Q142.959 1369.5 144.765 1365.96 Q146.593 1362.39 146.593 1355.29 Q146.593 1348.16 144.765 1344.62 Q142.959 1341.05 139.325 1341.05 M139.325 1337.35 Q145.135 1337.35 148.191 1341.95 Q151.269 1346.54 151.269 1355.29 Q151.269 1364.01 148.191 1368.62 Q145.135 1373.2 139.325 1373.2 Q133.515 1373.2 130.436 1368.62 Q127.381 1364.01 127.381 1355.29 Q127.381 1346.54 130.436 1341.95 Q133.515 1337.35 139.325 1337.35 Z" fill="#000000" fill-rule="evenodd" fill-opacity="1"></path><path clip-path="url(#clip140)" d="M169.487 1341.05 Q165.876 1341.05 164.047 1344.62 Q162.242 1348.16 162.242 1355.29 Q162.242 1362.39 164.047 1365.96 Q165.876 1369.5 169.487 1369.5 Q173.121 1369.5 174.927 1365.96 Q176.755 1362.39 176.755 1355.29 Q176.755 1348.16 174.927 1344.62 Q173.121 1341.05 169.487 1341.05 M169.487 1337.35 Q175.297 1337.35 178.353 1341.95 Q181.431 1346.54 181.431 1355.29 Q181.431 1364.01 178.353 1368.62 Q175.297 1373.2 169.487 1373.2 Q163.677 1373.2 160.598 1368.62 Q157.542 1364.01 157.542 1355.29 Q157.542 1346.54 160.598 1341.95 Q163.677 1337.35 169.487 1337.35 Z" fill="#000000" fill-rule="evenodd" fill-opacity="1"></path><path clip-path="url(#clip140)" d="M189.695 1337.97 L208.051 1337.97 L208.051 1341.91 L193.977 1341.91 L193.977 1350.38 Q194.996 1350.03 196.014 1349.87 Q197.033 1349.69 198.052 1349.69 Q203.839 1349.69 207.218 1352.86 Q210.598 1356.03 210.598 1361.44 Q210.598 1367.02 207.126 1370.13 Q203.653 1373.2 197.334 1373.2 Q195.158 1373.2 192.89 1372.83 Q190.644 1372.46 188.237 1371.72 L188.237 1367.02 Q190.32 1368.16 192.542 1368.71 Q194.765 1369.27 197.241 1369.27 Q201.246 1369.27 203.584 1367.16 Q205.922 1365.06 205.922 1361.44 Q205.922 1357.83 203.584 1355.73 Q201.246 1353.62 197.241 1353.62 Q195.366 1353.62 193.491 1354.04 Q191.64 1354.45 189.695 1355.33 L189.695 1337.97 Z" fill="#000000" fill-rule="evenodd" fill-opacity="1"></path><path clip-path="url(#clip140)" d="M62.9365 1069.28 Q59.3254 1069.28 57.4967 1072.85 Q55.6912 1076.39 55.6912 1083.52 Q55.6912 1090.62 57.4967 1094.19 Q59.3254 1097.73 62.9365 1097.73 Q66.5707 1097.73 68.3763 1094.19 Q70.205 1090.62 70.205 1083.52 Q70.205 1076.39 68.3763 1072.85 Q66.5707 1069.28 62.9365 1069.28 M62.9365 1065.58 Q68.7467 1065.58 71.8022 1070.18 Q74.8809 1074.77 74.8809 1083.52 Q74.8809 1092.24 71.8022 1096.85 Q68.7467 1101.43 62.9365 1101.43 Q57.1264 1101.43 54.0477 1096.85 Q50.9921 1092.24 50.9921 1083.52 Q50.9921 1074.77 54.0477 1070.18 Q57.1264 1065.58 62.9365 1065.58 Z" fill="#000000" fill-rule="evenodd" fill-opacity="1"></path><path clip-path="url(#clip140)" d="M83.0984 1094.88 L87.9827 1094.88 L87.9827 1100.76 L83.0984 1100.76 L83.0984 1094.88 Z" fill="#000000" fill-rule="evenodd" fill-opacity="1"></path><path clip-path="url(#clip140)" d="M108.168 1069.28 Q104.557 1069.28 102.728 1072.85 Q100.922 1076.39 100.922 1083.52 Q100.922 1090.62 102.728 1094.19 Q104.557 1097.73 108.168 1097.73 Q111.802 1097.73 113.608 1094.19 Q115.436 1090.62 115.436 1083.52 Q115.436 1076.39 113.608 1072.85 Q111.802 1069.28 108.168 1069.28 M108.168 1065.58 Q113.978 1065.58 117.033 1070.18 Q120.112 1074.77 120.112 1083.52 Q120.112 1092.24 117.033 1096.85 Q113.978 1101.43 108.168 1101.43 Q102.358 1101.43 99.2789 1096.85 Q96.2234 1092.24 96.2234 1083.52 Q96.2234 1074.77 99.2789 1070.18 Q102.358 1065.58 108.168 1065.58 Z" fill="#000000" fill-rule="evenodd" fill-opacity="1"></path><path clip-path="url(#clip140)" d="M138.33 1069.28 Q134.719 1069.28 132.89 1072.85 Q131.084 1076.39 131.084 1083.52 Q131.084 1090.62 132.89 1094.19 Q134.719 1097.73 138.33 1097.73 Q141.964 1097.73 143.769 1094.19 Q145.598 1090.62 145.598 1083.52 Q145.598 1076.39 143.769 1072.85 Q141.964 1069.28 138.33 1069.28 M138.33 1065.58 Q144.14 1065.58 147.195 1070.18 Q150.274 1074.77 150.274 1083.52 Q150.274 1092.24 147.195 1096.85 Q144.14 1101.43 138.33 1101.43 Q132.519 1101.43 129.441 1096.85 Q126.385 1092.24 126.385 1083.52 Q126.385 1074.77 129.441 1070.18 Q132.519 1065.58 138.33 1065.58 Z" fill="#000000" fill-rule="evenodd" fill-opacity="1"></path><path clip-path="url(#clip140)" d="M159.302 1096.83 L166.941 1096.83 L166.941 1070.46 L158.63 1072.13 L158.63 1067.87 L166.894 1066.2 L171.57 1066.2 L171.57 1096.83 L179.209 1096.83 L179.209 1100.76 L159.302 1100.76 L159.302 1096.83 Z" fill="#000000" fill-rule="evenodd" fill-opacity="1"></path><path clip-path="url(#clip140)" d="M198.653 1069.28 Q195.042 1069.28 193.214 1072.85 Q191.408 1076.39 191.408 1083.52 Q191.408 1090.62 193.214 1094.19 Q195.042 1097.73 198.653 1097.73 Q202.288 1097.73 204.093 1094.19 Q205.922 1090.62 205.922 1083.52 Q205.922 1076.39 204.093 1072.85 Q202.288 1069.28 198.653 1069.28 M198.653 1065.58 Q204.464 1065.58 207.519 1070.18 Q210.598 1074.77 210.598 1083.52 Q210.598 1092.24 207.519 1096.85 Q204.464 1101.43 198.653 1101.43 Q192.843 1101.43 189.765 1096.85 Q186.709 1092.24 186.709 1083.52 Q186.709 1074.77 189.765 1070.18 Q192.843 1065.58 198.653 1065.58 Z" fill="#000000" fill-rule="evenodd" fill-opacity="1"></path><path clip-path="url(#clip140)" d="M63.9319 797.513 Q60.3208 797.513 58.4921 801.077 Q56.6865 804.619 56.6865 811.749 Q56.6865 818.855 58.4921 822.42 Q60.3208 825.961 63.9319 825.961 Q67.5661 825.961 69.3717 822.42 Q71.2004 818.855 71.2004 811.749 Q71.2004 804.619 69.3717 801.077 Q67.5661 797.513 63.9319 797.513 M63.9319 793.809 Q69.742 793.809 72.7976 798.415 Q75.8763 802.999 75.8763 811.749 Q75.8763 820.475 72.7976 825.082 Q69.742 829.665 63.9319 829.665 Q58.1217 829.665 55.043 825.082 Q51.9875 820.475 51.9875 811.749 Q51.9875 802.999 55.043 798.415 Q58.1217 793.809 63.9319 793.809 Z" fill="#000000" fill-rule="evenodd" fill-opacity="1"></path><path clip-path="url(#clip140)" d="M84.0938 823.114 L88.978 823.114 L88.978 828.994 L84.0938 828.994 L84.0938 823.114 Z" fill="#000000" fill-rule="evenodd" fill-opacity="1"></path><path clip-path="url(#clip140)" d="M109.163 797.513 Q105.552 797.513 103.723 801.077 Q101.918 804.619 101.918 811.749 Q101.918 818.855 103.723 822.42 Q105.552 825.961 109.163 825.961 Q112.797 825.961 114.603 822.42 Q116.432 818.855 116.432 811.749 Q116.432 804.619 114.603 801.077 Q112.797 797.513 109.163 797.513 M109.163 793.809 Q114.973 793.809 118.029 798.415 Q121.107 802.999 121.107 811.749 Q121.107 820.475 118.029 825.082 Q114.973 829.665 109.163 829.665 Q103.353 829.665 100.274 825.082 Q97.2187 820.475 97.2187 811.749 Q97.2187 802.999 100.274 798.415 Q103.353 793.809 109.163 793.809 Z" fill="#000000" fill-rule="evenodd" fill-opacity="1"></path><path clip-path="url(#clip140)" d="M139.325 797.513 Q135.714 797.513 133.885 801.077 Q132.08 804.619 132.08 811.749 Q132.08 818.855 133.885 822.42 Q135.714 825.961 139.325 825.961 Q142.959 825.961 144.765 822.42 Q146.593 818.855 146.593 811.749 Q146.593 804.619 144.765 801.077 Q142.959 797.513 139.325 797.513 M139.325 793.809 Q145.135 793.809 148.191 798.415 Q151.269 802.999 151.269 811.749 Q151.269 820.475 148.191 825.082 Q145.135 829.665 139.325 829.665 Q133.515 829.665 130.436 825.082 Q127.381 820.475 127.381 811.749 Q127.381 802.999 130.436 798.415 Q133.515 793.809 139.325 793.809 Z" fill="#000000" fill-rule="evenodd" fill-opacity="1"></path><path clip-path="url(#clip140)" d="M160.297 825.059 L167.936 825.059 L167.936 798.693 L159.626 800.36 L159.626 796.101 L167.89 794.434 L172.566 794.434 L172.566 825.059 L180.204 825.059 L180.204 828.994 L160.297 828.994 L160.297 825.059 Z" fill="#000000" fill-rule="evenodd" fill-opacity="1"></path><path clip-path="url(#clip140)" d="M189.695 794.434 L208.051 794.434 L208.051 798.369 L193.977 798.369 L193.977 806.841 Q194.996 806.494 196.014 806.332 Q197.033 806.147 198.052 806.147 Q203.839 806.147 207.218 809.318 Q210.598 812.489 210.598 817.906 Q210.598 823.485 207.126 826.586 Q203.653 829.665 197.334 829.665 Q195.158 829.665 192.89 829.295 Q190.644 828.924 188.237 828.184 L188.237 823.485 Q190.32 824.619 192.542 825.174 Q194.765 825.73 197.241 825.73 Q201.246 825.73 203.584 823.624 Q205.922 821.517 205.922 817.906 Q205.922 814.295 203.584 812.188 Q201.246 810.082 197.241 810.082 Q195.366 810.082 193.491 810.499 Q191.64 810.915 189.695 811.795 L189.695 794.434 Z" fill="#000000" fill-rule="evenodd" fill-opacity="1"></path><path clip-path="url(#clip140)" d="M62.9365 525.743 Q59.3254 525.743 57.4967 529.308 Q55.6912 532.85 55.6912 539.979 Q55.6912 547.086 57.4967 550.65 Q59.3254 554.192 62.9365 554.192 Q66.5707 554.192 68.3763 550.65 Q70.205 547.086 70.205 539.979 Q70.205 532.85 68.3763 529.308 Q66.5707 525.743 62.9365 525.743 M62.9365 522.039 Q68.7467 522.039 71.8022 526.646 Q74.8809 531.229 74.8809 539.979 Q74.8809 548.706 71.8022 553.312 Q68.7467 557.896 62.9365 557.896 Q57.1264 557.896 54.0477 553.312 Q50.9921 548.706 50.9921 539.979 Q50.9921 531.229 54.0477 526.646 Q57.1264 522.039 62.9365 522.039 Z" fill="#000000" fill-rule="evenodd" fill-opacity="1"></path><path clip-path="url(#clip140)" d="M83.0984 551.345 L87.9827 551.345 L87.9827 557.224 L83.0984 557.224 L83.0984 551.345 Z" fill="#000000" fill-rule="evenodd" fill-opacity="1"></path><path clip-path="url(#clip140)" d="M108.168 525.743 Q104.557 525.743 102.728 529.308 Q100.922 532.85 100.922 539.979 Q100.922 547.086 102.728 550.65 Q104.557 554.192 108.168 554.192 Q111.802 554.192 113.608 550.65 Q115.436 547.086 115.436 539.979 Q115.436 532.85 113.608 529.308 Q111.802 525.743 108.168 525.743 M108.168 522.039 Q113.978 522.039 117.033 526.646 Q120.112 531.229 120.112 539.979 Q120.112 548.706 117.033 553.312 Q113.978 557.896 108.168 557.896 Q102.358 557.896 99.2789 553.312 Q96.2234 548.706 96.2234 539.979 Q96.2234 531.229 99.2789 526.646 Q102.358 522.039 108.168 522.039 Z" fill="#000000" fill-rule="evenodd" fill-opacity="1"></path><path clip-path="url(#clip140)" d="M138.33 525.743 Q134.719 525.743 132.89 529.308 Q131.084 532.85 131.084 539.979 Q131.084 547.086 132.89 550.65 Q134.719 554.192 138.33 554.192 Q141.964 554.192 143.769 550.65 Q145.598 547.086 145.598 539.979 Q145.598 532.85 143.769 529.308 Q141.964 525.743 138.33 525.743 M138.33 522.039 Q144.14 522.039 147.195 526.646 Q150.274 531.229 150.274 539.979 Q150.274 548.706 147.195 553.312 Q144.14 557.896 138.33 557.896 Q132.519 557.896 129.441 553.312 Q126.385 548.706 126.385 539.979 Q126.385 531.229 129.441 526.646 Q132.519 522.039 138.33 522.039 Z" fill="#000000" fill-rule="evenodd" fill-opacity="1"></path><path clip-path="url(#clip140)" d="M162.519 553.289 L178.839 553.289 L178.839 557.224 L156.894 557.224 L156.894 553.289 Q159.556 550.535 164.14 545.905 Q168.746 541.252 169.927 539.91 Q172.172 537.387 173.052 535.65 Q173.954 533.891 173.954 532.201 Q173.954 529.447 172.01 527.711 Q170.089 525.975 166.987 525.975 Q164.788 525.975 162.334 526.738 Q159.904 527.502 157.126 529.053 L157.126 524.331 Q159.95 523.197 162.404 522.618 Q164.857 522.039 166.894 522.039 Q172.265 522.039 175.459 524.725 Q178.653 527.41 178.653 531.9 Q178.653 534.03 177.843 535.951 Q177.056 537.85 174.95 540.442 Q174.371 541.113 171.269 544.331 Q168.167 547.525 162.519 553.289 Z" fill="#000000" fill-rule="evenodd" fill-opacity="1"></path><path clip-path="url(#clip140)" d="M198.653 525.743 Q195.042 525.743 193.214 529.308 Q191.408 532.85 191.408 539.979 Q191.408 547.086 193.214 550.65 Q195.042 554.192 198.653 554.192 Q202.288 554.192 204.093 550.65 Q205.922 547.086 205.922 539.979 Q205.922 532.85 204.093 529.308 Q202.288 525.743 198.653 525.743 M198.653 522.039 Q204.464 522.039 207.519 526.646 Q210.598 531.229 210.598 539.979 Q210.598 548.706 207.519 553.312 Q204.464 557.896 198.653 557.896 Q192.843 557.896 189.765 553.312 Q186.709 548.706 186.709 539.979 Q186.709 531.229 189.765 526.646 Q192.843 522.039 198.653 522.039 Z" fill="#000000" fill-rule="evenodd" fill-opacity="1"></path><path clip-path="url(#clip140)" d="M63.9319 253.974 Q60.3208 253.974 58.4921 257.538 Q56.6865 261.08 56.6865 268.21 Q56.6865 275.316 58.4921 278.881 Q60.3208 282.423 63.9319 282.423 Q67.5661 282.423 69.3717 278.881 Q71.2004 275.316 71.2004 268.21 Q71.2004 261.08 69.3717 257.538 Q67.5661 253.974 63.9319 253.974 M63.9319 250.27 Q69.742 250.27 72.7976 254.876 Q75.8763 259.46 75.8763 268.21 Q75.8763 276.937 72.7976 281.543 Q69.742 286.126 63.9319 286.126 Q58.1217 286.126 55.043 281.543 Q51.9875 276.937 51.9875 268.21 Q51.9875 259.46 55.043 254.876 Q58.1217 250.27 63.9319 250.27 Z" fill="#000000" fill-rule="evenodd" fill-opacity="1"></path><path clip-path="url(#clip140)" d="M84.0938 279.575 L88.978 279.575 L88.978 285.455 L84.0938 285.455 L84.0938 279.575 Z" fill="#000000" fill-rule="evenodd" fill-opacity="1"></path><path clip-path="url(#clip140)" d="M109.163 253.974 Q105.552 253.974 103.723 257.538 Q101.918 261.08 101.918 268.21 Q101.918 275.316 103.723 278.881 Q105.552 282.423 109.163 282.423 Q112.797 282.423 114.603 278.881 Q116.432 275.316 116.432 268.21 Q116.432 261.08 114.603 257.538 Q112.797 253.974 109.163 253.974 M109.163 250.27 Q114.973 250.27 118.029 254.876 Q121.107 259.46 121.107 268.21 Q121.107 276.937 118.029 281.543 Q114.973 286.126 109.163 286.126 Q103.353 286.126 100.274 281.543 Q97.2187 276.937 97.2187 268.21 Q97.2187 259.46 100.274 254.876 Q103.353 250.27 109.163 250.27 Z" fill="#000000" fill-rule="evenodd" fill-opacity="1"></path><path clip-path="url(#clip140)" d="M139.325 253.974 Q135.714 253.974 133.885 257.538 Q132.08 261.08 132.08 268.21 Q132.08 275.316 133.885 278.881 Q135.714 282.423 139.325 282.423 Q142.959 282.423 144.765 278.881 Q146.593 275.316 146.593 268.21 Q146.593 261.08 144.765 257.538 Q142.959 253.974 139.325 253.974 M139.325 250.27 Q145.135 250.27 148.191 254.876 Q151.269 259.46 151.269 268.21 Q151.269 276.937 148.191 281.543 Q145.135 286.126 139.325 286.126 Q133.515 286.126 130.436 281.543 Q127.381 276.937 127.381 268.21 Q127.381 259.46 130.436 254.876 Q133.515 250.27 139.325 250.27 Z" fill="#000000" fill-rule="evenodd" fill-opacity="1"></path><path clip-path="url(#clip140)" d="M163.515 281.52 L179.834 281.52 L179.834 285.455 L157.89 285.455 L157.89 281.52 Q160.552 278.765 165.135 274.136 Q169.741 269.483 170.922 268.14 Q173.167 265.617 174.047 263.881 Q174.95 262.122 174.95 260.432 Q174.95 257.677 173.005 255.941 Q171.084 254.205 167.982 254.205 Q165.783 254.205 163.329 254.969 Q160.899 255.733 158.121 257.284 L158.121 252.562 Q160.945 251.427 163.399 250.849 Q165.853 250.27 167.89 250.27 Q173.26 250.27 176.454 252.955 Q179.649 255.64 179.649 260.131 Q179.649 262.261 178.839 264.182 Q178.052 266.08 175.945 268.673 Q175.366 269.344 172.265 272.562 Q169.163 275.756 163.515 281.52 Z" fill="#000000" fill-rule="evenodd" fill-opacity="1"></path><path clip-path="url(#clip140)" d="M189.695 250.895 L208.051 250.895 L208.051 254.83 L193.977 254.83 L193.977 263.302 Q194.996 262.955 196.014 262.793 Q197.033 262.608 198.052 262.608 Q203.839 262.608 207.218 265.779 Q210.598 268.95 210.598 274.367 Q210.598 279.946 207.126 283.048 Q203.653 286.126 197.334 286.126 Q195.158 286.126 192.89 285.756 Q190.644 285.386 188.237 284.645 L188.237 279.946 Q190.32 281.08 192.542 281.636 Q194.765 282.191 197.241 282.191 Q201.246 282.191 203.584 280.085 Q205.922 277.978 205.922 274.367 Q205.922 270.756 203.584 268.65 Q201.246 266.543 197.241 266.543 Q195.366 266.543 193.491 266.96 Q191.64 267.376 189.695 268.256 L189.695 250.895 Z" fill="#000000" fill-rule="evenodd" fill-opacity="1"></path><polyline clip-path="url(#clip142)" style="stroke:#009af9; stroke-linecap:butt; stroke-linejoin:round; stroke-width:4; stroke-opacity:1; fill:none" points="
  306.206,1445.72 340.737,1433.96 376.588,1426.31 413.81,1423.54 452.456,1406.96 492.578,1399.22 534.235,1385.58 577.485,1370.69 622.388,1354.78 669.007,1340.79 
  717.41,1314.67 767.663,1298.24 819.837,1285.95 874.006,1255.48 930.246,1226.21 988.637,1197.68 1049.26,1164.75 1112.2,1097.49 1177.55,985.998 1245.39,914.857 
  1315.83,712.725 1388.97,478.075 1464.9,248.247 1543.73,149.357 1625.57,87.9763 1710.55,205.585 1798.77,352.852 1890.37,441.895 1985.47,601.062 2084.21,636.52 
  2186.72,802.529 2293.15,897.314 
  "></polyline>
<path clip-path="url(#clip140)" d="
M1996.1 198.898 L2282.55 198.898 L2282.55 95.2176 L1996.1 95.2176  Z
  " fill="#ffffff" fill-rule="evenodd" fill-opacity="1"></path>
<polyline clip-path="url(#clip140)" style="stroke:#000000; stroke-linecap:butt; stroke-linejoin:round; stroke-width:4; stroke-opacity:1; fill:none" points="
  1996.1,198.898 2282.55,198.898 2282.55,95.2176 1996.1,95.2176 1996.1,198.898 
  "></polyline>
<polyline clip-path="url(#clip140)" style="stroke:#009af9; stroke-linecap:butt; stroke-linejoin:round; stroke-width:4; stroke-opacity:1; fill:none" points="
  2019.5,147.058 2159.92,147.058 
  "></polyline>
<path clip-path="url(#clip140)" d="M2197.16 166.745 Q2195.35 171.375 2193.64 172.787 Q2191.93 174.199 2189.06 174.199 L2185.65 174.199 L2185.65 170.634 L2188.15 170.634 Q2189.91 170.634 2190.89 169.8 Q2191.86 168.967 2193.04 165.865 L2193.8 163.921 L2183.32 138.412 L2187.83 138.412 L2195.93 158.689 L2204.03 138.412 L2208.55 138.412 L2197.16 166.745 Z" fill="#000000" fill-rule="evenodd" fill-opacity="1"></path><path clip-path="url(#clip140)" d="M2215.84 160.402 L2223.48 160.402 L2223.48 134.037 L2215.17 135.703 L2215.17 131.444 L2223.43 129.778 L2228.11 129.778 L2228.11 160.402 L2235.75 160.402 L2235.75 164.338 L2215.84 164.338 L2215.84 160.402 Z" fill="#000000" fill-rule="evenodd" fill-opacity="1"></path></svg>